<svg width="61" height="25" viewBox="0 0 61 25" fill="none" xmlns="http://www.w3.org/2000/svg">
<path d="M23.0718 8.01306V10.2631C23.0718 10.462 22.9928 10.6527 22.8521 10.7934C22.7115 10.934 22.5207 11.0131 22.3218 11.0131C22.1229 11.0131 21.9321 10.934 21.7914 10.7934C21.6508 10.6527 21.5718 10.462 21.5718 10.2631V8.01306C21.5718 7.81415 21.6508 7.62338 21.7914 7.48273C21.9321 7.34208 22.1229 7.26306 22.3218 7.26306C22.5207 7.26306 22.7115 7.34208 22.8521 7.48273C22.9928 7.62338 23.0718 7.81415 23.0718 8.01306ZM3.32178 7.26306C3.12286 7.26306 2.9321 7.34208 2.79145 7.48273C2.65079 7.62338 2.57178 7.81415 2.57178 8.01306V10.2631C2.57178 10.462 2.65079 10.6527 2.79145 10.7934C2.9321 10.934 3.12286 11.0131 3.32178 11.0131C3.52069 11.0131 3.71146 10.934 3.85211 10.7934C3.99276 10.6527 4.07178 10.462 4.07178 10.2631V8.01306C4.07178 7.81415 3.99276 7.62338 3.85211 7.48273C3.71146 7.34208 3.52069 7.26306 3.32178 7.26306ZM21.0718 6.51306V20.0131C21.0718 20.4109 20.9137 20.7924 20.6324 21.0737C20.3511 21.355 19.9696 21.5131 19.5718 21.5131H18.0718C17.674 21.5131 17.2924 21.355 17.0111 21.0737C16.7298 20.7924 16.5718 20.4109 16.5718 20.0131V19.2631H9.07178V20.0131C9.07178 20.4109 8.91374 20.7924 8.63244 21.0737C8.35113 21.355 7.9696 21.5131 7.57178 21.5131H6.07178C5.67395 21.5131 5.29242 21.355 5.01112 21.0737C4.72981 20.7924 4.57178 20.4109 4.57178 20.0131V6.51306C4.57178 5.71741 4.88785 4.95435 5.45046 4.39174C6.01307 3.82913 6.77613 3.51306 7.57178 3.51306H18.0718C18.8674 3.51306 19.6305 3.82913 20.1931 4.39174C20.7557 4.95435 21.0718 5.71741 21.0718 6.51306ZM10.5718 14.3881C10.5718 14.1656 10.5058 13.9481 10.3822 13.763C10.2586 13.578 10.0829 13.4338 9.8773 13.3487C9.67173 13.2635 9.44553 13.2413 9.2273 13.2847C9.00907 13.3281 8.80862 13.4352 8.65128 13.5926C8.49395 13.7499 8.3868 13.9504 8.34339 14.1686C8.29999 14.3868 8.32226 14.613 8.40741 14.8186C8.49256 15.0241 8.63676 15.1998 8.82176 15.3235C9.00677 15.4471 9.22427 15.5131 9.44678 15.5131C9.74515 15.5131 10.0313 15.3945 10.2423 15.1836C10.4533 14.9726 10.5718 14.6864 10.5718 14.3881ZM17.3218 14.3881C17.3218 14.1656 17.2558 13.9481 17.1322 13.763C17.0086 13.578 16.8329 13.4338 16.6273 13.3487C16.4217 13.2635 16.1955 13.2413 15.9773 13.2847C15.7591 13.3281 15.5586 13.4352 15.4013 13.5926C15.2439 13.7499 15.1368 13.9504 15.0934 14.1686C15.05 14.3868 15.0723 14.613 15.1574 14.8186C15.2426 15.0241 15.3868 15.1998 15.5718 15.3235C15.7568 15.4471 15.9743 15.5131 16.1968 15.5131C16.4951 15.5131 16.7813 15.3945 16.9923 15.1836C17.2032 14.9726 17.3218 14.6864 17.3218 14.3881ZM19.5718 7.26306H6.07178V11.0131H19.5718V7.26306Z" fill="black"/>
<path d="M30.2592 10.1381C30.2592 9.79195 30.1566 9.4536 29.9643 9.16581C29.772 8.87803 29.4987 8.65373 29.1789 8.52127C28.8592 8.38882 28.5073 8.35416 28.1678 8.42169C27.8284 8.48921 27.5166 8.65588 27.2718 8.90063C27.0271 9.14537 26.8604 9.45719 26.7929 9.79665C26.7253 10.1361 26.76 10.488 26.8925 10.8078C27.0249 11.1275 27.2492 11.4008 27.537 11.5931C27.8248 11.7854 28.1631 11.8881 28.5092 11.8881C28.9734 11.8881 29.4185 11.7037 29.7467 11.3755C30.0749 11.0473 30.2592 10.6022 30.2592 10.1381ZM25.4467 14.9506C27.013 14.9506 27.7332 14.2232 28.4956 13.4538C28.6886 13.2585 28.8882 13.0567 29.0971 12.8752C31.1206 11.1175 34.3592 14.1182 34.4959 14.2467C34.5773 14.3269 34.6241 14.4357 34.6264 14.5499C34.6286 14.6642 34.5861 14.7747 34.5079 14.858C34.4297 14.9413 34.322 14.9907 34.2078 14.9956C34.0937 15.0005 33.9822 14.9606 33.8971 14.8844C33.3881 14.4246 32.8281 14.0248 32.228 13.6927C31.4744 13.2892 30.8395 13.1333 30.3303 13.2235L33.2857 20.0261C33.3318 20.1325 33.3338 20.2529 33.2913 20.3607C33.2487 20.4686 33.1651 20.5552 33.0587 20.6014C33.0038 20.6257 32.9443 20.6382 32.8842 20.6381C32.799 20.6381 32.7156 20.6132 32.6443 20.5665C32.5729 20.5198 32.5168 20.4532 32.4828 20.375L30.6459 16.1493L28.9467 17.3634V20.2006C28.9467 20.3166 28.9007 20.4279 28.8186 20.5099C28.7366 20.592 28.6253 20.6381 28.5092 20.6381C28.3932 20.6381 28.2819 20.592 28.1999 20.5099C28.1178 20.4279 28.0717 20.3166 28.0717 20.2006V17.1381C28.0717 17.0684 28.0884 16.9998 28.1202 16.9379C28.1521 16.8759 28.1983 16.8225 28.255 16.782L30.2893 15.329L29.5549 13.6381C29.4105 13.7715 29.2672 13.9153 29.1174 14.0668C28.3425 14.8516 27.3778 15.8256 25.4467 15.8256C25.3307 15.8256 25.2194 15.7795 25.1374 15.6974C25.0553 15.6154 25.0092 15.5041 25.0092 15.3881C25.0092 15.272 25.0553 15.1607 25.1374 15.0787C25.2194 14.9967 25.3307 14.9506 25.4467 14.9506Z" fill="black"/>
<path d="M50.0125 17.5131V8.84706H47.0585V7.83906H54.0585V8.84706H51.1325V17.5131H50.0125ZM57.0529 17.6531C56.2689 17.6531 55.6576 17.5177 55.2189 17.2471C54.7896 16.9764 54.4863 16.5657 54.3089 16.0151C54.1409 15.4644 54.0569 14.7691 54.0569 13.9291C54.0569 13.1264 54.1503 12.4637 54.3369 11.9411C54.5329 11.4184 54.8503 11.0264 55.2889 10.7651C55.7276 10.5037 56.3156 10.3731 57.0529 10.3731C57.7996 10.3731 58.3923 10.5037 58.8309 10.7651C59.2696 11.0264 59.5823 11.4184 59.7689 11.9411C59.9649 12.4637 60.0629 13.1264 60.0629 13.9291C60.0629 14.7691 59.9743 15.4644 59.7969 16.0151C59.6289 16.5657 59.3256 16.9764 58.8869 17.2471C58.4576 17.5177 57.8463 17.6531 57.0529 17.6531ZM57.0529 16.7151C57.5943 16.7151 58.0003 16.6217 58.2709 16.4351C58.5416 16.2391 58.7189 15.9357 58.8029 15.5251C58.8963 15.1144 58.9429 14.5824 58.9429 13.9291C58.9429 13.2851 58.8869 12.7717 58.7749 12.3891C58.6629 12.0064 58.4716 11.7311 58.2009 11.5631C57.9303 11.3951 57.5476 11.3111 57.0529 11.3111C56.5676 11.3111 56.1849 11.3951 55.9049 11.5631C55.6343 11.7311 55.4429 12.0064 55.3309 12.3891C55.2189 12.7717 55.1629 13.2851 55.1629 13.9291C55.1629 14.5824 55.2049 15.1144 55.2889 15.5251C55.3823 15.9357 55.5643 16.2391 55.8349 16.4351C56.1056 16.6217 56.5116 16.7151 57.0529 16.7151Z" fill="#212121" fill-opacity="0.6"/>
</svg>
