<svg width="51" height="38" viewBox="0 0 51 38" fill="none" xmlns="http://www.w3.org/2000/svg">
<path d="M17.2305 6.97005V15.0784C17.2305 16.6617 18.3555 17.3117 19.7221 16.5284L21.6805 15.4117C22.1055 15.17 22.8138 15.145 23.2555 15.37L27.6305 17.5617C28.0721 17.7784 28.7805 17.7617 29.2055 17.52L32.8138 15.4534C33.2721 15.1867 33.6555 14.5367 33.6555 14.0034V5.89505C33.6555 4.31171 32.5305 3.66171 31.1638 4.44505L29.2055 5.56171C28.7805 5.80338 28.0721 5.82838 27.6305 5.60338L23.2555 3.42005C22.8138 3.20338 22.1055 3.22005 21.6805 3.46171L18.0721 5.52838C17.6055 5.79505 17.2305 6.44505 17.2305 6.97005Z" fill="url(#paint0_linear_95_4419)" stroke="url(#paint1_linear_95_4419)" stroke-width="1.5" stroke-linecap="round" stroke-linejoin="round"/>
<path d="M22.4561 3.82007V14.6534" stroke="white" stroke-width="1.5" stroke-linecap="round" stroke-linejoin="round"/>
<path d="M28.4307 6.00342V17.1534" stroke="white" stroke-width="1.5" stroke-linecap="round" stroke-linejoin="round"/>
<path d="M1.40637 30.4868V23.6568H4.12637C4.5797 23.6568 4.9697 23.7135 5.29637 23.8268C5.62303 23.9401 5.87637 24.1235 6.05637 24.3768C6.24303 24.6235 6.33637 24.9568 6.33637 25.3768C6.33637 25.6635 6.30637 25.9068 6.24637 26.1068C6.19303 26.3001 6.10637 26.4668 5.98637 26.6068C5.87303 26.7401 5.72303 26.8635 5.53637 26.9768C5.73637 27.0501 5.9097 27.1501 6.05637 27.2768C6.2097 27.3968 6.32637 27.5601 6.40637 27.7668C6.48637 27.9668 6.52637 28.2335 6.52637 28.5668C6.52637 28.9335 6.4697 29.2401 6.35637 29.4868C6.24303 29.7335 6.0797 29.9301 5.86637 30.0768C5.6597 30.2235 5.41637 30.3301 5.13637 30.3968C4.85637 30.4568 4.5497 30.4868 4.21637 30.4868H1.40637ZM2.78637 29.4668H4.11637C4.3497 29.4668 4.54303 29.4401 4.69637 29.3868C4.85637 29.3268 4.97637 29.2235 5.05637 29.0768C5.14303 28.9301 5.18637 28.7268 5.18637 28.4668C5.18637 28.2668 5.15303 28.1035 5.08637 27.9768C5.0197 27.8501 4.93303 27.7568 4.82637 27.6968C4.7197 27.6301 4.5997 27.5835 4.46637 27.5568C4.3397 27.5301 4.21303 27.5168 4.08637 27.5168H2.78637V29.4668ZM2.78637 26.5368H4.07637C4.30303 26.5368 4.48637 26.5035 4.62637 26.4368C4.76637 26.3635 4.8697 26.2568 4.93637 26.1168C5.00303 25.9701 5.03637 25.7868 5.03637 25.5668C5.03637 25.2535 4.95303 25.0268 4.78637 24.8868C4.62637 24.7468 4.37303 24.6768 4.02637 24.6768H2.78637V26.5368ZM9.04941 30.5968C8.61608 30.5968 8.27941 30.5068 8.03941 30.3268C7.80608 30.1401 7.63941 29.8601 7.53941 29.4868C7.44608 29.1135 7.39941 28.6435 7.39941 28.0768V25.4668H8.72941V28.0168C8.72941 28.3701 8.74608 28.6501 8.77941 28.8568C8.81941 29.0635 8.89608 29.2101 9.00941 29.2968C9.12275 29.3835 9.28608 29.4268 9.49941 29.4268C9.70608 29.4268 9.89941 29.4001 10.0794 29.3468C10.2594 29.2935 10.4027 29.2401 10.5094 29.1868V25.4668H11.8394V30.4868H10.5194V30.1768C10.2927 30.3035 10.0661 30.4068 9.83941 30.4868C9.61941 30.5601 9.35608 30.5968 9.04941 30.5968ZM14.7477 30.5968C14.5277 30.5968 14.291 30.5835 14.0377 30.5568C13.791 30.5368 13.5577 30.5101 13.3377 30.4768C13.1244 30.4435 12.941 30.4101 12.7877 30.3768L12.8277 29.3868C13.001 29.4068 13.1944 29.4301 13.4077 29.4568C13.6277 29.4835 13.841 29.5068 14.0477 29.5268C14.261 29.5401 14.4344 29.5468 14.5677 29.5468C14.7677 29.5468 14.931 29.5301 15.0577 29.4968C15.191 29.4635 15.291 29.4101 15.3577 29.3368C15.4244 29.2568 15.4577 29.1435 15.4577 28.9968C15.4577 28.8835 15.4277 28.7968 15.3677 28.7368C15.3144 28.6768 15.2077 28.6268 15.0477 28.5868C14.8944 28.5401 14.6677 28.4935 14.3677 28.4468C13.9944 28.3935 13.6844 28.3168 13.4377 28.2168C13.1977 28.1168 13.021 27.9701 12.9077 27.7768C12.7944 27.5768 12.7377 27.3068 12.7377 26.9668C12.7377 26.5535 12.8277 26.2301 13.0077 25.9968C13.1877 25.7635 13.4277 25.6001 13.7277 25.5068C14.0277 25.4068 14.3544 25.3568 14.7077 25.3568C14.941 25.3568 15.181 25.3701 15.4277 25.3968C15.6744 25.4168 15.9077 25.4435 16.1277 25.4768C16.3477 25.5101 16.531 25.5435 16.6777 25.5768L16.6377 26.5868C16.471 26.5601 16.2777 26.5368 16.0577 26.5168C15.8377 26.4901 15.6177 26.4701 15.3977 26.4568C15.1844 26.4435 15.0044 26.4368 14.8577 26.4368C14.7044 26.4368 14.5677 26.4535 14.4477 26.4868C14.3277 26.5135 14.2344 26.5601 14.1677 26.6268C14.1077 26.6935 14.0777 26.7935 14.0777 26.9268C14.0777 27.0201 14.1044 27.0968 14.1577 27.1568C14.211 27.2168 14.311 27.2701 14.4577 27.3168C14.611 27.3568 14.831 27.3968 15.1177 27.4368C15.531 27.4968 15.861 27.5801 16.1077 27.6868C16.3544 27.7935 16.531 27.9468 16.6377 28.1468C16.751 28.3468 16.8077 28.6168 16.8077 28.9568C16.8077 29.3568 16.7277 29.6768 16.5677 29.9168C16.4077 30.1568 16.1744 30.3301 15.8677 30.4368C15.561 30.5435 15.1877 30.5968 14.7477 30.5968ZM19.9415 30.4868V23.6568H22.6115C23.1582 23.6568 23.6149 23.7268 23.9815 23.8668C24.3549 24.0068 24.6315 24.2401 24.8115 24.5668C24.9982 24.8935 25.0915 25.3368 25.0915 25.8968C25.0915 26.3901 25.0015 26.8068 24.8215 27.1468C24.6482 27.4801 24.3815 27.7268 24.0215 27.8868L25.0915 30.4868H23.6415L22.7415 28.1968H21.3215V30.4868H19.9415ZM21.3215 27.0668H22.6415C22.8949 27.0668 23.0982 27.0201 23.2515 26.9268C23.4049 26.8268 23.5149 26.6901 23.5815 26.5168C23.6482 26.3368 23.6815 26.1335 23.6815 25.9068C23.6815 25.5335 23.5949 25.2535 23.4215 25.0668C23.2482 24.8801 22.9782 24.7868 22.6115 24.7868H21.3215V27.0668ZM28.0957 30.5968C27.5291 30.5968 27.0724 30.5035 26.7257 30.3168C26.3857 30.1301 26.1391 29.8435 25.9857 29.4568C25.8324 29.0635 25.7557 28.5568 25.7557 27.9368C25.7557 27.3368 25.8357 26.8501 25.9957 26.4768C26.1557 26.0968 26.4091 25.8168 26.7557 25.6368C27.1024 25.4501 27.5491 25.3568 28.0957 25.3568C28.6491 25.3568 29.0957 25.4501 29.4357 25.6368C29.7824 25.8168 30.0357 26.0968 30.1957 26.4768C30.3624 26.8501 30.4457 27.3368 30.4457 27.9368C30.4457 28.5568 30.3691 29.0635 30.2157 29.4568C30.0624 29.8435 29.8124 30.1301 29.4657 30.3168C29.1257 30.5035 28.6691 30.5968 28.0957 30.5968ZM28.0957 29.4968C28.3757 29.4968 28.5857 29.4468 28.7257 29.3468C28.8657 29.2401 28.9591 29.0735 29.0057 28.8468C29.0591 28.6135 29.0857 28.3101 29.0857 27.9368C29.0857 27.5701 29.0557 27.2801 28.9957 27.0668C28.9357 26.8468 28.8357 26.6901 28.6957 26.5968C28.5557 26.5035 28.3557 26.4568 28.0957 26.4568C27.8424 26.4568 27.6424 26.5035 27.4957 26.5968C27.3557 26.6901 27.2557 26.8468 27.1957 27.0668C27.1357 27.2801 27.1057 27.5701 27.1057 27.9368C27.1057 28.3101 27.1291 28.6135 27.1757 28.8468C27.2291 29.0735 27.3257 29.2401 27.4657 29.3468C27.6057 29.4468 27.8157 29.4968 28.0957 29.4968ZM32.9557 30.5968C32.5223 30.5968 32.1857 30.5068 31.9457 30.3268C31.7123 30.1401 31.5457 29.8601 31.4457 29.4868C31.3523 29.1135 31.3057 28.6435 31.3057 28.0768V25.4668H32.6357V28.0168C32.6357 28.3701 32.6523 28.6501 32.6857 28.8568C32.7257 29.0635 32.8023 29.2101 32.9157 29.2968C33.029 29.3835 33.1923 29.4268 33.4057 29.4268C33.6123 29.4268 33.8057 29.4001 33.9857 29.3468C34.1657 29.2935 34.309 29.2401 34.4157 29.1868V25.4668H35.7457V30.4868H34.4257V30.1768C34.199 30.3035 33.9723 30.4068 33.7457 30.4868C33.5257 30.5601 33.2623 30.5968 32.9557 30.5968ZM38.6039 30.6068C38.2373 30.6068 37.9406 30.5535 37.7139 30.4468C37.4873 30.3401 37.3239 30.1568 37.2239 29.8968C37.1306 29.6301 37.0839 29.2601 37.0839 28.7868V26.5768H36.4939V25.4668H37.0839V24.1368H38.4139V25.4668H39.6939V26.5768H38.4139V28.4368C38.4139 28.6968 38.4239 28.9001 38.4439 29.0468C38.4706 29.1935 38.5239 29.2968 38.6039 29.3568C38.6839 29.4168 38.8073 29.4468 38.9739 29.4468C39.0206 29.4468 39.0906 29.4435 39.1839 29.4368C39.2773 29.4301 39.3706 29.4235 39.4639 29.4168C39.5573 29.4101 39.6339 29.4035 39.6939 29.3968L39.7339 30.4668C39.6339 30.4868 39.5106 30.5068 39.3639 30.5268C39.2239 30.5468 39.0839 30.5635 38.9439 30.5768C38.8106 30.5968 38.6973 30.6068 38.6039 30.6068ZM42.4677 30.5968C41.9144 30.5968 41.4744 30.5035 41.1477 30.3168C40.8277 30.1301 40.5977 29.8468 40.4577 29.4668C40.3177 29.0868 40.2477 28.6101 40.2477 28.0368C40.2477 27.4168 40.3344 26.9101 40.5077 26.5168C40.6877 26.1235 40.9477 25.8335 41.2877 25.6468C41.6277 25.4535 42.0477 25.3568 42.5477 25.3568C43.2877 25.3568 43.8444 25.5435 44.2177 25.9168C44.5977 26.2901 44.7877 26.8801 44.7877 27.6868L44.7277 28.4268H41.5877C41.5944 28.8001 41.671 29.0801 41.8177 29.2668C41.9644 29.4535 42.2177 29.5468 42.5777 29.5468C42.7844 29.5468 43.011 29.5435 43.2577 29.5368C43.5044 29.5235 43.7477 29.5101 43.9877 29.4968C44.2344 29.4835 44.4444 29.4701 44.6177 29.4568L44.6477 30.3868C44.481 30.4135 44.271 30.4435 44.0177 30.4768C43.7644 30.5101 43.501 30.5368 43.2277 30.5568C42.961 30.5835 42.7077 30.5968 42.4677 30.5968ZM41.5877 27.5768H43.4577C43.4577 27.1235 43.3844 26.8068 43.2377 26.6268C43.0977 26.4468 42.8677 26.3568 42.5477 26.3568C42.3344 26.3568 42.1577 26.3968 42.0177 26.4768C41.8777 26.5568 41.771 26.6868 41.6977 26.8668C41.6244 27.0468 41.5877 27.2835 41.5877 27.5768ZM47.4821 30.5968C47.2621 30.5968 47.0254 30.5835 46.7721 30.5568C46.5254 30.5368 46.2921 30.5101 46.0721 30.4768C45.8587 30.4435 45.6754 30.4101 45.5221 30.3768L45.5621 29.3868C45.7354 29.4068 45.9287 29.4301 46.1421 29.4568C46.3621 29.4835 46.5754 29.5068 46.7821 29.5268C46.9954 29.5401 47.1687 29.5468 47.3021 29.5468C47.5021 29.5468 47.6654 29.5301 47.7921 29.4968C47.9254 29.4635 48.0254 29.4101 48.0921 29.3368C48.1587 29.2568 48.1921 29.1435 48.1921 28.9968C48.1921 28.8835 48.1621 28.7968 48.1021 28.7368C48.0487 28.6768 47.9421 28.6268 47.7821 28.5868C47.6287 28.5401 47.4021 28.4935 47.1021 28.4468C46.7287 28.3935 46.4187 28.3168 46.1721 28.2168C45.9321 28.1168 45.7554 27.9701 45.6421 27.7768C45.5287 27.5768 45.4721 27.3068 45.4721 26.9668C45.4721 26.5535 45.5621 26.2301 45.7421 25.9968C45.9221 25.7635 46.1621 25.6001 46.4621 25.5068C46.7621 25.4068 47.0887 25.3568 47.4421 25.3568C47.6754 25.3568 47.9154 25.3701 48.1621 25.3968C48.4087 25.4168 48.6421 25.4435 48.8621 25.4768C49.0821 25.5101 49.2654 25.5435 49.4121 25.5768L49.3721 26.5868C49.2054 26.5601 49.0121 26.5368 48.7921 26.5168C48.5721 26.4901 48.3521 26.4701 48.1321 26.4568C47.9187 26.4435 47.7387 26.4368 47.5921 26.4368C47.4387 26.4368 47.3021 26.4535 47.1821 26.4868C47.0621 26.5135 46.9687 26.5601 46.9021 26.6268C46.8421 26.6935 46.8121 26.7935 46.8121 26.9268C46.8121 27.0201 46.8387 27.0968 46.8921 27.1568C46.9454 27.2168 47.0454 27.2701 47.1921 27.3168C47.3454 27.3568 47.5654 27.3968 47.8521 27.4368C48.2654 27.4968 48.5954 27.5801 48.8421 27.6868C49.0887 27.7935 49.2654 27.9468 49.3721 28.1468C49.4854 28.3468 49.5421 28.6168 49.5421 28.9568C49.5421 29.3568 49.4621 29.6768 49.3021 29.9168C49.1421 30.1568 48.9087 30.3301 48.6021 30.4368C48.2954 30.5435 47.9221 30.5968 47.4821 30.5968Z" fill="url(#paint2_linear_95_4419)"/>
<defs>
<linearGradient id="paint0_linear_95_4419" x1="17.8728" y1="3.26831" x2="20.7453" y2="19.8427" gradientUnits="userSpaceOnUse">
<stop stop-color="#FF982C"/>
<stop offset="1" stop-color="#F77F00"/>
</linearGradient>
<linearGradient id="paint1_linear_95_4419" x1="17.8728" y1="3.26831" x2="20.7453" y2="19.8427" gradientUnits="userSpaceOnUse">
<stop stop-color="#FF982C"/>
<stop offset="1" stop-color="#F77F00"/>
</linearGradient>
<linearGradient id="paint2_linear_95_4419" x1="2.27757" y1="15.4868" x2="4.51522" y2="41.2939" gradientUnits="userSpaceOnUse">
<stop stop-color="#FF982C"/>
<stop offset="1" stop-color="#F77F00"/>
</linearGradient>
</defs>
</svg>
