<svg width="55" height="38" viewBox="0 0 55 38" fill="none" xmlns="http://www.w3.org/2000/svg">
<path d="M27.8388 2.91187C25.0804 2.91187 22.8388 5.15353 22.8388 7.91187V10.3202C22.8388 10.8285 22.6221 11.6035 22.3638 12.0369L21.4054 13.6285C20.8138 14.6119 21.2221 15.7035 22.3054 16.0702C25.8971 17.2702 29.7721 17.2702 33.3638 16.0702C34.3721 15.7369 34.8138 14.5452 34.2638 13.6285L33.3054 12.0369C33.0554 11.6035 32.8388 10.8285 32.8388 10.3202V7.91187C32.8388 5.16187 30.5888 2.91187 27.8388 2.91187Z" stroke="#171717" stroke-width="1.5" stroke-miterlimit="10" stroke-linecap="round"/>
<path d="M29.3802 3.15352C29.1219 3.07852 28.8552 3.02018 28.5802 2.98685C27.7802 2.88685 27.0135 2.94518 26.2969 3.15352C26.5385 2.53685 27.1385 2.10352 27.8385 2.10352C28.5385 2.10352 29.1385 2.53685 29.3802 3.15352Z" stroke="#171717" stroke-width="1.5" stroke-miterlimit="10" stroke-linecap="round" stroke-linejoin="round"/>
<path d="M30.3389 16.3701C30.3389 17.7451 29.2139 18.8701 27.8389 18.8701C27.1555 18.8701 26.5222 18.5868 26.0722 18.1368C25.6222 17.6868 25.3389 17.0535 25.3389 16.3701" stroke="#171717" stroke-width="1.5" stroke-miterlimit="10"/>
<path d="M1.66227 30.4868V23.5768H3.15227L5.75227 29.7768H5.95227V23.5768H6.75227V30.4868H5.29227L2.65227 24.2868H2.46227V30.4868H1.66227ZM10.181 30.5868C9.62102 30.5868 9.18435 30.4901 8.87102 30.2968C8.56435 30.1035 8.34768 29.8101 8.22102 29.4168C8.10102 29.0235 8.04102 28.5268 8.04102 27.9268C8.04102 27.3535 8.10768 26.8801 8.24102 26.5068C8.38102 26.1335 8.60768 25.8535 8.92102 25.6668C9.23435 25.4801 9.65435 25.3868 10.181 25.3868C10.7143 25.3868 11.1377 25.4801 11.451 25.6668C11.7643 25.8535 11.9877 26.1335 12.121 26.5068C12.261 26.8801 12.331 27.3535 12.331 27.9268C12.331 28.5268 12.2677 29.0235 12.141 29.4168C12.021 29.8101 11.8043 30.1035 11.491 30.2968C11.1843 30.4901 10.7477 30.5868 10.181 30.5868ZM10.181 29.9168C10.5677 29.9168 10.8577 29.8501 11.051 29.7168C11.2443 29.5768 11.371 29.3601 11.431 29.0668C11.4977 28.7735 11.531 28.3935 11.531 27.9268C11.531 27.4668 11.491 27.1001 11.411 26.8268C11.331 26.5535 11.1943 26.3568 11.001 26.2368C10.8077 26.1168 10.5343 26.0568 10.181 26.0568C9.83435 26.0568 9.56102 26.1168 9.36102 26.2368C9.16768 26.3568 9.03102 26.5535 8.95102 26.8268C8.87102 27.1001 8.83102 27.4668 8.83102 27.9268C8.83102 28.3935 8.86102 28.7735 8.92102 29.0668C8.98768 29.3601 9.11768 29.5768 9.31102 29.7168C9.50435 29.8501 9.79435 29.9168 10.181 29.9168ZM15.1647 30.5968C14.818 30.5968 14.5414 30.5435 14.3347 30.4368C14.1347 30.3301 13.9914 30.1468 13.9047 29.8868C13.818 29.6201 13.7747 29.2468 13.7747 28.7668V26.1568H13.0647V25.4868H13.7747V23.9568H14.5447V25.4868H16.1147V26.1568H14.5447V28.5368C14.5447 28.8901 14.558 29.1668 14.5847 29.3668C14.618 29.5601 14.6847 29.6968 14.7847 29.7768C14.8847 29.8568 15.0414 29.8968 15.2547 29.8968C15.3214 29.8968 15.408 29.8935 15.5147 29.8868C15.6214 29.8801 15.728 29.8735 15.8347 29.8668C15.948 29.8535 16.048 29.8435 16.1347 29.8368L16.1847 30.4868C16.0914 30.5001 15.9814 30.5135 15.8547 30.5268C15.728 30.5468 15.6014 30.5635 15.4747 30.5768C15.3547 30.5901 15.2514 30.5968 15.1647 30.5968ZM17.0305 30.4868V25.4868H17.8005V30.4868H17.0305ZM17.0305 24.3868V23.4868H17.8005V24.3868H17.0305ZM19.4476 30.4868V26.1568H18.8176V25.4868H19.4476V25.0468C19.4476 24.5668 19.4909 24.1935 19.5776 23.9268C19.6642 23.6601 19.8076 23.4768 20.0076 23.3768C20.2076 23.2701 20.4709 23.2168 20.7976 23.2168C20.8776 23.2168 20.9876 23.2201 21.1276 23.2268C21.2676 23.2335 21.4042 23.2435 21.5376 23.2568C21.6709 23.2635 21.7642 23.2735 21.8176 23.2868L21.8076 23.9368C21.6876 23.9301 21.5409 23.9268 21.3676 23.9268C21.2009 23.9201 21.0642 23.9168 20.9576 23.9168C20.7709 23.9168 20.6242 23.9501 20.5176 24.0168C20.4109 24.0768 20.3342 24.1901 20.2876 24.3568C20.2476 24.5235 20.2276 24.7568 20.2276 25.0568V25.4868H21.6676V26.1568H20.2276V30.4868H19.4476ZM22.5579 30.4868V25.4868H23.3279V30.4868H22.5579ZM22.5579 24.3868V23.4868H23.3279V24.3868H22.5579ZM26.6149 30.5868C26.0883 30.5868 25.6749 30.5001 25.3749 30.3268C25.0749 30.1468 24.8616 29.8601 24.7349 29.4668C24.6149 29.0735 24.5549 28.5535 24.5549 27.9068C24.5549 27.3001 24.6216 26.8135 24.7549 26.4468C24.8949 26.0735 25.1183 25.8035 25.4249 25.6368C25.7316 25.4701 26.1316 25.3868 26.6249 25.3868C26.7383 25.3868 26.8749 25.3968 27.0349 25.4168C27.2016 25.4301 27.3716 25.4501 27.5449 25.4768C27.7183 25.4968 27.8683 25.5168 27.9949 25.5368L27.9649 26.1768C27.8516 26.1635 27.7216 26.1501 27.5749 26.1368C27.4283 26.1235 27.2849 26.1135 27.1449 26.1068C27.0049 26.0935 26.8883 26.0868 26.7949 26.0868C26.4149 26.0868 26.1183 26.1468 25.9049 26.2668C25.6983 26.3868 25.5516 26.5801 25.4649 26.8468C25.3849 27.1068 25.3449 27.4601 25.3449 27.9068C25.3449 28.3935 25.3816 28.7835 25.4549 29.0768C25.5283 29.3635 25.6683 29.5701 25.8749 29.6968C26.0816 29.8235 26.3883 29.8868 26.7949 29.8868C26.8883 29.8868 27.0049 29.8835 27.1449 29.8768C27.2916 29.8635 27.4383 29.8501 27.5849 29.8368C27.7383 29.8235 27.8716 29.8135 27.9849 29.8068L28.0049 30.4468C27.8716 30.4668 27.7183 30.4868 27.5449 30.5068C27.3716 30.5268 27.2016 30.5435 27.0349 30.5568C26.8683 30.5768 26.7283 30.5868 26.6149 30.5868ZM30.2104 30.5868C29.7504 30.5868 29.4004 30.4568 29.1604 30.1968C28.9204 29.9368 28.8004 29.5568 28.8004 29.0568C28.8004 28.7301 28.8571 28.4635 28.9704 28.2568C29.0837 28.0501 29.2537 27.8935 29.4804 27.7868C29.7137 27.6735 30.0004 27.6035 30.3404 27.5768L31.8804 27.4268V26.9968C31.8804 26.6568 31.8037 26.4168 31.6504 26.2768C31.5037 26.1368 31.2837 26.0668 30.9904 26.0668C30.8237 26.0668 30.6237 26.0735 30.3904 26.0868C30.1637 26.1001 29.9371 26.1168 29.7104 26.1368C29.4837 26.1568 29.2837 26.1768 29.1104 26.1968L29.0704 25.6068C29.2304 25.5735 29.4237 25.5401 29.6504 25.5068C29.8771 25.4735 30.1137 25.4468 30.3604 25.4268C30.6071 25.4001 30.8337 25.3868 31.0404 25.3868C31.4204 25.3868 31.7304 25.4468 31.9704 25.5668C32.2104 25.6801 32.3837 25.8568 32.4904 26.0968C32.6037 26.3301 32.6604 26.6301 32.6604 26.9968V29.5268C32.6737 29.6735 32.7304 29.7801 32.8304 29.8468C32.9371 29.9135 33.0704 29.9568 33.2304 29.9768L33.2004 30.5868C33.1071 30.5868 33.0171 30.5835 32.9304 30.5768C32.8437 30.5701 32.7604 30.5568 32.6804 30.5368C32.6071 30.5235 32.5337 30.5068 32.4604 30.4868C32.3737 30.4535 32.2904 30.4135 32.2104 30.3668C32.1371 30.3201 32.0637 30.2635 31.9904 30.1968C31.8637 30.2501 31.7004 30.3068 31.5004 30.3668C31.3071 30.4268 31.0971 30.4768 30.8704 30.5168C30.6504 30.5635 30.4304 30.5868 30.2104 30.5868ZM30.3404 29.9368C30.5204 29.9368 30.7071 29.9201 30.9004 29.8868C31.0937 29.8535 31.2771 29.8135 31.4504 29.7668C31.6237 29.7201 31.7671 29.6768 31.8804 29.6368V28.0068L30.4304 28.1468C30.1304 28.1735 29.9137 28.2601 29.7804 28.4068C29.6537 28.5535 29.5904 28.7635 29.5904 29.0368C29.5904 29.3168 29.6537 29.5368 29.7804 29.6968C29.9071 29.8568 30.0937 29.9368 30.3404 29.9368ZM35.7213 30.5968C35.3747 30.5968 35.098 30.5435 34.8913 30.4368C34.6913 30.3301 34.548 30.1468 34.4613 29.8868C34.3747 29.6201 34.3313 29.2468 34.3313 28.7668V26.1568H33.6213V25.4868H34.3313V23.9568H35.1013V25.4868H36.6713V26.1568H35.1013V28.5368C35.1013 28.8901 35.1147 29.1668 35.1413 29.3668C35.1747 29.5601 35.2413 29.6968 35.3413 29.7768C35.4413 29.8568 35.598 29.8968 35.8113 29.8968C35.878 29.8968 35.9647 29.8935 36.0713 29.8868C36.178 29.8801 36.2847 29.8735 36.3913 29.8668C36.5047 29.8535 36.6047 29.8435 36.6913 29.8368L36.7413 30.4868C36.648 30.5001 36.538 30.5135 36.4113 30.5268C36.2847 30.5468 36.158 30.5635 36.0313 30.5768C35.9113 30.5901 35.808 30.5968 35.7213 30.5968ZM37.5872 30.4868V25.4868H38.3572V30.4868H37.5872ZM37.5872 24.3868V23.4868H38.3572V24.3868H37.5872ZM41.7142 30.5868C41.1542 30.5868 40.7176 30.4901 40.4042 30.2968C40.0976 30.1035 39.8809 29.8101 39.7542 29.4168C39.6342 29.0235 39.5742 28.5268 39.5742 27.9268C39.5742 27.3535 39.6409 26.8801 39.7742 26.5068C39.9142 26.1335 40.1409 25.8535 40.4542 25.6668C40.7676 25.4801 41.1876 25.3868 41.7142 25.3868C42.2476 25.3868 42.6709 25.4801 42.9842 25.6668C43.2976 25.8535 43.5209 26.1335 43.6542 26.5068C43.7942 26.8801 43.8642 27.3535 43.8642 27.9268C43.8642 28.5268 43.8009 29.0235 43.6742 29.4168C43.5542 29.8101 43.3376 30.1035 43.0242 30.2968C42.7176 30.4901 42.2809 30.5868 41.7142 30.5868ZM41.7142 29.9168C42.1009 29.9168 42.3909 29.8501 42.5842 29.7168C42.7776 29.5768 42.9042 29.3601 42.9642 29.0668C43.0309 28.7735 43.0642 28.3935 43.0642 27.9268C43.0642 27.4668 43.0242 27.1001 42.9442 26.8268C42.8642 26.5535 42.7276 26.3568 42.5342 26.2368C42.3409 26.1168 42.0676 26.0568 41.7142 26.0568C41.3676 26.0568 41.0942 26.1168 40.8942 26.2368C40.7009 26.3568 40.5642 26.5535 40.4842 26.8268C40.4042 27.1001 40.3642 27.4668 40.3642 27.9268C40.3642 28.3935 40.3942 28.7735 40.4542 29.0668C40.5209 29.3601 40.6509 29.5768 40.8442 29.7168C41.0376 29.8501 41.3276 29.9168 41.7142 29.9168ZM45.0872 30.4868V25.4868H45.8572V25.8368C45.9705 25.7701 46.1105 25.7035 46.2772 25.6368C46.4505 25.5701 46.6339 25.5135 46.8272 25.4668C47.0205 25.4135 47.2072 25.3868 47.3872 25.3868C47.7339 25.3868 48.0172 25.4335 48.2372 25.5268C48.4572 25.6135 48.6272 25.7568 48.7472 25.9568C48.8739 26.1501 48.9605 26.4035 49.0072 26.7168C49.0605 27.0235 49.0872 27.3968 49.0872 27.8368V30.4868H48.3072V27.8668C48.3072 27.4335 48.2805 27.0868 48.2272 26.8268C48.1805 26.5668 48.0805 26.3801 47.9272 26.2668C47.7805 26.1468 47.5539 26.0868 47.2472 26.0868C47.0805 26.0868 46.9072 26.1068 46.7272 26.1468C46.5539 26.1801 46.3905 26.2268 46.2372 26.2868C46.0839 26.3401 45.9572 26.3935 45.8572 26.4468V30.4868H45.0872ZM52.028 30.5868C51.8747 30.5868 51.688 30.5768 51.468 30.5568C51.2547 30.5368 51.0414 30.5135 50.828 30.4868C50.6147 30.4535 50.4247 30.4235 50.258 30.3968L50.298 29.7268C50.4647 29.7468 50.6514 29.7701 50.858 29.7968C51.0714 29.8235 51.278 29.8468 51.478 29.8668C51.678 29.8801 51.838 29.8868 51.958 29.8868C52.2314 29.8868 52.458 29.8635 52.638 29.8168C52.818 29.7635 52.9547 29.6768 53.048 29.5568C53.1414 29.4368 53.188 29.2668 53.188 29.0468C53.188 28.8801 53.1514 28.7501 53.078 28.6568C53.0114 28.5635 52.8814 28.4868 52.688 28.4268C52.5014 28.3668 52.228 28.3101 51.868 28.2568C51.4947 28.1968 51.1814 28.1235 50.928 28.0368C50.6814 27.9435 50.498 27.8068 50.378 27.6268C50.258 27.4468 50.198 27.1901 50.198 26.8568C50.198 26.4835 50.2847 26.1901 50.458 25.9768C50.6314 25.7635 50.8547 25.6135 51.128 25.5268C51.408 25.4335 51.698 25.3868 51.998 25.3868C52.1847 25.3868 52.388 25.3968 52.608 25.4168C52.8347 25.4368 53.0547 25.4635 53.268 25.4968C53.4814 25.5235 53.6647 25.5501 53.818 25.5768L53.798 26.2468C53.638 26.2201 53.4514 26.1968 53.238 26.1768C53.0247 26.1501 52.8114 26.1301 52.598 26.1168C52.3847 26.0968 52.198 26.0868 52.038 26.0868C51.838 26.0868 51.658 26.1101 51.498 26.1568C51.338 26.1968 51.2114 26.2701 51.118 26.3768C51.0247 26.4835 50.978 26.6335 50.978 26.8268C50.978 26.9735 51.0114 27.0935 51.078 27.1868C51.1447 27.2735 51.2714 27.3468 51.458 27.4068C51.6447 27.4668 51.9147 27.5268 52.268 27.5868C52.6814 27.6535 53.0114 27.7368 53.258 27.8368C53.5114 27.9368 53.6947 28.0768 53.808 28.2568C53.9214 28.4368 53.978 28.6901 53.978 29.0168C53.978 29.4035 53.898 29.7135 53.738 29.9468C53.5847 30.1735 53.3614 30.3368 53.068 30.4368C52.7814 30.5368 52.4347 30.5868 52.028 30.5868Z" fill="black"/>
</svg>
