<svg width="57" height="38" viewBox="0 0 57 38" fill="none" xmlns="http://www.w3.org/2000/svg">
<path d="M28.8388 2.91187C26.0804 2.91187 23.8388 5.15353 23.8388 7.91187V10.3202C23.8388 10.8285 23.6221 11.6035 23.3638 12.0369L22.4054 13.6285C21.8138 14.6119 22.2221 15.7035 23.3054 16.0702C26.8971 17.2702 30.7721 17.2702 34.3638 16.0702C35.3721 15.7369 35.8138 14.5452 35.2638 13.6285L34.3054 12.0369C34.0554 11.6035 33.8388 10.8285 33.8388 10.3202V7.91187C33.8388 5.16187 31.5888 2.91187 28.8388 2.91187Z" fill="url(#paint0_linear_99_942)" stroke="url(#paint1_linear_99_942)" stroke-width="1.5" stroke-miterlimit="10" stroke-linecap="round"/>
<path d="M30.3802 3.15352C30.1219 3.07852 29.8552 3.02018 29.5802 2.98685C28.7802 2.88685 28.0135 2.94518 27.2969 3.15352C27.5385 2.53685 28.1385 2.10352 28.8385 2.10352C29.5385 2.10352 30.1385 2.53685 30.3802 3.15352Z" stroke="#FE9425" stroke-width="1.5" stroke-miterlimit="10" stroke-linecap="round" stroke-linejoin="round"/>
<path d="M31.3389 16.3701C31.3389 17.7451 30.2139 18.8701 28.8389 18.8701C28.1555 18.8701 27.5222 18.5868 27.0722 18.1368C26.6222 17.6868 26.3389 17.0535 26.3389 16.3701" stroke="#F78001" stroke-width="1.5" stroke-miterlimit="10"/>
<path d="M1.45227 30.4868V23.6568H3.25227L5.44227 28.4568H5.62227V23.6568H7.00227V30.4868H5.22227L3.01227 25.6068H2.83227V30.4868H1.45227ZM10.2901 30.5968C9.72341 30.5968 9.26674 30.5035 8.92008 30.3168C8.58008 30.1301 8.33341 29.8435 8.18008 29.4568C8.02674 29.0635 7.95008 28.5568 7.95008 27.9368C7.95008 27.3368 8.03008 26.8501 8.19008 26.4768C8.35008 26.0968 8.60341 25.8168 8.95008 25.6368C9.29674 25.4501 9.74341 25.3568 10.2901 25.3568C10.8434 25.3568 11.2901 25.4501 11.6301 25.6368C11.9767 25.8168 12.2301 26.0968 12.3901 26.4768C12.5567 26.8501 12.6401 27.3368 12.6401 27.9368C12.6401 28.5568 12.5634 29.0635 12.4101 29.4568C12.2567 29.8435 12.0067 30.1301 11.6601 30.3168C11.3201 30.5035 10.8634 30.5968 10.2901 30.5968ZM10.2901 29.4968C10.5701 29.4968 10.7801 29.4468 10.9201 29.3468C11.0601 29.2401 11.1534 29.0735 11.2001 28.8468C11.2534 28.6135 11.2801 28.3101 11.2801 27.9368C11.2801 27.5701 11.2501 27.2801 11.1901 27.0668C11.1301 26.8468 11.0301 26.6901 10.8901 26.5968C10.7501 26.5035 10.5501 26.4568 10.2901 26.4568C10.0367 26.4568 9.83674 26.5035 9.69008 26.5968C9.55008 26.6901 9.45008 26.8468 9.39008 27.0668C9.33008 27.2801 9.30008 27.5701 9.30008 27.9368C9.30008 28.3101 9.32341 28.6135 9.37008 28.8468C9.42341 29.0735 9.52008 29.2401 9.66008 29.3468C9.80008 29.4468 10.0101 29.4968 10.2901 29.4968ZM15.2905 30.6068C14.9238 30.6068 14.6271 30.5535 14.4005 30.4468C14.1738 30.3401 14.0105 30.1568 13.9105 29.8968C13.8171 29.6301 13.7705 29.2601 13.7705 28.7868V26.5768H13.1805V25.4668H13.7705V24.1368H15.1005V25.4668H16.3805V26.5768H15.1005V28.4368C15.1005 28.6968 15.1105 28.9001 15.1305 29.0468C15.1571 29.1935 15.2105 29.2968 15.2905 29.3568C15.3705 29.4168 15.4938 29.4468 15.6605 29.4468C15.7071 29.4468 15.7771 29.4435 15.8705 29.4368C15.9638 29.4301 16.0571 29.4235 16.1505 29.4168C16.2438 29.4101 16.3205 29.4035 16.3805 29.3968L16.4205 30.4668C16.3205 30.4868 16.1971 30.5068 16.0505 30.5268C15.9105 30.5468 15.7705 30.5635 15.6305 30.5768C15.4971 30.5968 15.3838 30.6068 15.2905 30.6068ZM17.1242 30.4868V25.4668H18.4542V30.4868H17.1242ZM17.1242 24.6668V23.5268H18.4642V24.6668H17.1242ZM19.7656 30.4868V26.5768H19.2656V25.4668H19.7656V25.1768C19.7656 24.7035 19.809 24.3301 19.8956 24.0568C19.989 23.7835 20.1456 23.5901 20.3656 23.4768C20.5856 23.3635 20.8823 23.3068 21.2556 23.3068C21.3623 23.3068 21.489 23.3135 21.6356 23.3268C21.789 23.3335 21.9356 23.3435 22.0756 23.3568C22.2156 23.3701 22.3223 23.3835 22.3956 23.3968L22.3856 24.4168C22.279 24.4168 22.159 24.4168 22.0256 24.4168C21.899 24.4101 21.789 24.4068 21.6956 24.4068C21.549 24.4068 21.429 24.4301 21.3356 24.4768C21.249 24.5235 21.1856 24.6001 21.1456 24.7068C21.1123 24.8135 21.0956 24.9668 21.0956 25.1668V25.4668H22.2956V26.5768H21.0956V30.4868H19.7656ZM22.9836 30.4868V25.4668H24.3136V30.4868H22.9836ZM22.9836 24.6668V23.5268H24.3236V24.6668H22.9836ZM27.475 30.5968C26.9017 30.5968 26.4517 30.5101 26.125 30.3368C25.805 30.1568 25.5783 29.8701 25.445 29.4768C25.3183 29.0835 25.255 28.5668 25.255 27.9268C25.255 27.2935 25.3283 26.7901 25.475 26.4168C25.6217 26.0368 25.8583 25.7668 26.185 25.6068C26.5183 25.4401 26.9517 25.3568 27.485 25.3568C27.625 25.3568 27.7883 25.3668 27.975 25.3868C28.1617 25.4068 28.3483 25.4335 28.535 25.4668C28.7283 25.4935 28.8917 25.5201 29.025 25.5468L28.975 26.6168C28.8483 26.6035 28.705 26.5935 28.545 26.5868C28.385 26.5735 28.2283 26.5635 28.075 26.5568C27.9283 26.5435 27.8083 26.5368 27.715 26.5368C27.4283 26.5368 27.2017 26.5835 27.035 26.6768C26.875 26.7635 26.7617 26.9101 26.695 27.1168C26.635 27.3168 26.605 27.5868 26.605 27.9268C26.605 28.2935 26.635 28.5868 26.695 28.8068C26.755 29.0268 26.8617 29.1835 27.015 29.2768C27.175 29.3701 27.4083 29.4168 27.715 29.4168C27.8083 29.4168 27.9317 29.4135 28.085 29.4068C28.2383 29.3935 28.395 29.3801 28.555 29.3668C28.7217 29.3535 28.8683 29.3435 28.995 29.3368L29.035 30.4068C28.9017 30.4335 28.7417 30.4601 28.555 30.4868C28.3683 30.5201 28.1783 30.5468 27.985 30.5668C27.7983 30.5868 27.6283 30.5968 27.475 30.5968ZM31.2077 30.5968C30.6877 30.5968 30.2943 30.4668 30.0277 30.2068C29.7677 29.9401 29.6377 29.5401 29.6377 29.0068C29.6377 28.6335 29.7043 28.3435 29.8377 28.1368C29.971 27.9235 30.1677 27.7701 30.4277 27.6768C30.6943 27.5768 31.0177 27.5168 31.3977 27.4968L32.6177 27.3868V27.0868C32.6177 26.8468 32.5577 26.6801 32.4377 26.5868C32.3177 26.4868 32.141 26.4368 31.9077 26.4368C31.721 26.4368 31.5043 26.4435 31.2577 26.4568C31.0177 26.4701 30.7777 26.4868 30.5377 26.5068C30.3043 26.5268 30.101 26.5468 29.9277 26.5668L29.8877 25.6268C30.061 25.5868 30.2677 25.5468 30.5077 25.5068C30.7543 25.4601 31.011 25.4235 31.2777 25.3968C31.5443 25.3701 31.791 25.3568 32.0177 25.3568C32.4443 25.3568 32.801 25.4101 33.0877 25.5168C33.3743 25.6235 33.591 25.8001 33.7377 26.0468C33.8843 26.2868 33.9577 26.6135 33.9577 27.0268V29.3168C33.971 29.4101 34.021 29.4835 34.1077 29.5368C34.1943 29.5835 34.2943 29.6168 34.4077 29.6368L34.3777 30.5568C34.271 30.5568 34.1643 30.5568 34.0577 30.5568C33.9577 30.5635 33.861 30.5635 33.7677 30.5568C33.6743 30.5568 33.591 30.5501 33.5177 30.5368C33.3643 30.5168 33.231 30.4768 33.1177 30.4168C33.011 30.3568 32.9243 30.2935 32.8577 30.2268C32.751 30.2735 32.6077 30.3268 32.4277 30.3868C32.2477 30.4468 32.051 30.4968 31.8377 30.5368C31.631 30.5768 31.421 30.5968 31.2077 30.5968ZM31.5277 29.6068C31.6543 29.6068 31.7877 29.5935 31.9277 29.5668C32.0677 29.5401 32.1977 29.5101 32.3177 29.4768C32.4443 29.4368 32.5443 29.4001 32.6177 29.3668V28.2168L31.5977 28.3068C31.3777 28.3268 31.2177 28.3935 31.1177 28.5068C31.0243 28.6135 30.9777 28.7668 30.9777 28.9668C30.9777 29.1668 31.021 29.3235 31.1077 29.4368C31.201 29.5501 31.341 29.6068 31.5277 29.6068ZM36.8334 30.6068C36.4668 30.6068 36.1701 30.5535 35.9434 30.4468C35.7168 30.3401 35.5534 30.1568 35.4534 29.8968C35.3601 29.6301 35.3134 29.2601 35.3134 28.7868V26.5768H34.7234V25.4668H35.3134V24.1368H36.6434V25.4668H37.9234V26.5768H36.6434V28.4368C36.6434 28.6968 36.6534 28.9001 36.6734 29.0468C36.7001 29.1935 36.7534 29.2968 36.8334 29.3568C36.9134 29.4168 37.0368 29.4468 37.2034 29.4468C37.2501 29.4468 37.3201 29.4435 37.4134 29.4368C37.5068 29.4301 37.6001 29.4235 37.6934 29.4168C37.7868 29.4101 37.8634 29.4035 37.9234 29.3968L37.9634 30.4668C37.8634 30.4868 37.7401 30.5068 37.5934 30.5268C37.4534 30.5468 37.3134 30.5635 37.1734 30.5768C37.0401 30.5968 36.9268 30.6068 36.8334 30.6068ZM38.6672 30.4868V25.4668H39.9972V30.4868H38.6672ZM38.6672 24.6668V23.5268H40.0072V24.6668H38.6672ZM43.2686 30.5968C42.7019 30.5968 42.2453 30.5035 41.8986 30.3168C41.5586 30.1301 41.3119 29.8435 41.1586 29.4568C41.0053 29.0635 40.9286 28.5568 40.9286 27.9368C40.9286 27.3368 41.0086 26.8501 41.1686 26.4768C41.3286 26.0968 41.5819 25.8168 41.9286 25.6368C42.2753 25.4501 42.7219 25.3568 43.2686 25.3568C43.8219 25.3568 44.2686 25.4501 44.6086 25.6368C44.9553 25.8168 45.2086 26.0968 45.3686 26.4768C45.5353 26.8501 45.6186 27.3368 45.6186 27.9368C45.6186 28.5568 45.5419 29.0635 45.3886 29.4568C45.2353 29.8435 44.9853 30.1301 44.6386 30.3168C44.2986 30.5035 43.8419 30.5968 43.2686 30.5968ZM43.2686 29.4968C43.5486 29.4968 43.7586 29.4468 43.8986 29.3468C44.0386 29.2401 44.1319 29.0735 44.1786 28.8468C44.2319 28.6135 44.2586 28.3101 44.2586 27.9368C44.2586 27.5701 44.2286 27.2801 44.1686 27.0668C44.1086 26.8468 44.0086 26.6901 43.8686 26.5968C43.7286 26.5035 43.5286 26.4568 43.2686 26.4568C43.0153 26.4568 42.8153 26.5035 42.6686 26.5968C42.5286 26.6901 42.4286 26.8468 42.3686 27.0668C42.3086 27.2801 42.2786 27.5701 42.2786 27.9368C42.2786 28.3101 42.3019 28.6135 42.3486 28.8468C42.4019 29.0735 42.4986 29.2401 42.6386 29.3468C42.7786 29.4468 42.9886 29.4968 43.2686 29.4968ZM46.5285 30.4868V25.4668H47.8585V25.7868C47.9652 25.7201 48.0952 25.6568 48.2485 25.5968C48.4018 25.5301 48.5618 25.4735 48.7285 25.4268C48.9018 25.3801 49.0685 25.3568 49.2285 25.3568C49.5752 25.3568 49.8618 25.4035 50.0885 25.4968C50.3218 25.5835 50.5052 25.7268 50.6385 25.9268C50.7718 26.1268 50.8685 26.3901 50.9285 26.7168C50.9885 27.0368 51.0185 27.4268 51.0185 27.8868V30.4868H49.6785V27.9568C49.6785 27.6101 49.6585 27.3335 49.6185 27.1268C49.5785 26.9135 49.5018 26.7601 49.3885 26.6668C49.2752 26.5735 49.1085 26.5268 48.8885 26.5268C48.7685 26.5268 48.6418 26.5401 48.5085 26.5668C48.3818 26.5868 48.2585 26.6168 48.1385 26.6568C48.0252 26.6968 47.9318 26.7368 47.8585 26.7768V30.4868H46.5285ZM53.8659 30.5968C53.6459 30.5968 53.4092 30.5835 53.1559 30.5568C52.9092 30.5368 52.6759 30.5101 52.4559 30.4768C52.2425 30.4435 52.0592 30.4101 51.9059 30.3768L51.9459 29.3868C52.1192 29.4068 52.3125 29.4301 52.5259 29.4568C52.7459 29.4835 52.9592 29.5068 53.1659 29.5268C53.3792 29.5401 53.5525 29.5468 53.6859 29.5468C53.8859 29.5468 54.0492 29.5301 54.1759 29.4968C54.3092 29.4635 54.4092 29.4101 54.4759 29.3368C54.5425 29.2568 54.5759 29.1435 54.5759 28.9968C54.5759 28.8835 54.5459 28.7968 54.4859 28.7368C54.4325 28.6768 54.3259 28.6268 54.1659 28.5868C54.0125 28.5401 53.7859 28.4935 53.4859 28.4468C53.1125 28.3935 52.8025 28.3168 52.5559 28.2168C52.3159 28.1168 52.1392 27.9701 52.0259 27.7768C51.9125 27.5768 51.8559 27.3068 51.8559 26.9668C51.8559 26.5535 51.9459 26.2301 52.1259 25.9968C52.3059 25.7635 52.5459 25.6001 52.8459 25.5068C53.1459 25.4068 53.4725 25.3568 53.8259 25.3568C54.0592 25.3568 54.2992 25.3701 54.5459 25.3968C54.7925 25.4168 55.0259 25.4435 55.2459 25.4768C55.4659 25.5101 55.6492 25.5435 55.7959 25.5768L55.7559 26.5868C55.5892 26.5601 55.3959 26.5368 55.1759 26.5168C54.9559 26.4901 54.7359 26.4701 54.5159 26.4568C54.3025 26.4435 54.1225 26.4368 53.9759 26.4368C53.8225 26.4368 53.6859 26.4535 53.5659 26.4868C53.4459 26.5135 53.3525 26.5601 53.2859 26.6268C53.2259 26.6935 53.1959 26.7935 53.1959 26.9268C53.1959 27.0201 53.2225 27.0968 53.2759 27.1568C53.3292 27.2168 53.4292 27.2701 53.5759 27.3168C53.7292 27.3568 53.9492 27.3968 54.2359 27.4368C54.6492 27.4968 54.9792 27.5801 55.2259 27.6868C55.4725 27.7935 55.6492 27.9468 55.7559 28.1468C55.8692 28.3468 55.9259 28.6168 55.9259 28.9568C55.9259 29.3568 55.8459 29.6768 55.6859 29.9168C55.5259 30.1568 55.2925 30.3301 54.9859 30.4368C54.6792 30.5435 54.3059 30.5968 53.8659 30.5968Z" fill="url(#paint2_linear_99_942)"/>
<defs>
<linearGradient id="paint0_linear_99_942" x1="22.6566" y1="2.91187" x2="25.9579" y2="18.8428" gradientUnits="userSpaceOnUse">
<stop stop-color="#FF982C"/>
<stop offset="1" stop-color="#F77F00"/>
</linearGradient>
<linearGradient id="paint1_linear_99_942" x1="22.6566" y1="2.91187" x2="25.9579" y2="18.8428" gradientUnits="userSpaceOnUse">
<stop stop-color="#FF982C"/>
<stop offset="1" stop-color="#F77F00"/>
</linearGradient>
<linearGradient id="paint2_linear_99_942" x1="3.0122" y1="15.4868" x2="5.01313" y2="41.333" gradientUnits="userSpaceOnUse">
<stop stop-color="#FF982C"/>
<stop offset="1" stop-color="#F77F00"/>
</linearGradient>
</defs>
</svg>
