<svg width="50" height="38" viewBox="0 0 50 38" fill="none" xmlns="http://www.w3.org/2000/svg">
<path d="M17.2305 6.97005V15.0784C17.2305 16.6617 18.3555 17.3117 19.7221 16.5284L21.6805 15.4117C22.1055 15.17 22.8138 15.145 23.2555 15.37L27.6305 17.5617C28.0721 17.7784 28.7805 17.7617 29.2055 17.52L32.8138 15.4534C33.2721 15.1867 33.6555 14.5367 33.6555 14.0034V5.89505C33.6555 4.31171 32.5305 3.66171 31.1638 4.44505L29.2055 5.56171C28.7805 5.80338 28.0721 5.82838 27.6305 5.60338L23.2555 3.42005C22.8138 3.20338 22.1055 3.22005 21.6805 3.46171L18.0721 5.52838C17.6055 5.79505 17.2305 6.44505 17.2305 6.97005Z" stroke="#212121" stroke-width="1.5" stroke-linecap="round" stroke-linejoin="round"/>
<path d="M22.4561 3.82007V14.6534" stroke="#212121" stroke-width="1.5" stroke-linecap="round" stroke-linejoin="round"/>
<path d="M28.4307 6.00342V17.1534" stroke="#212121" stroke-width="1.5" stroke-linecap="round" stroke-linejoin="round"/>
<path d="M2.04605 30.4868V23.5768H4.56605C5.01939 23.5768 5.39605 23.6368 5.69605 23.7568C6.00272 23.8768 6.23272 24.0668 6.38605 24.3268C6.54606 24.5868 6.62606 24.9235 6.62606 25.3368C6.62606 25.6301 6.58939 25.8801 6.51605 26.0868C6.44939 26.2868 6.35272 26.4535 6.22606 26.5868C6.09939 26.7201 5.94272 26.8335 5.75605 26.9268C5.95605 26.9935 6.13605 27.0901 6.29605 27.2168C6.46272 27.3435 6.59272 27.5135 6.68606 27.7268C6.78605 27.9401 6.83605 28.2135 6.83605 28.5468C6.83605 28.9068 6.78605 29.2135 6.68606 29.4668C6.58606 29.7135 6.43939 29.9135 6.24605 30.0668C6.05939 30.2135 5.83272 30.3201 5.56605 30.3868C5.30605 30.4535 5.01272 30.4868 4.68605 30.4868H2.04605ZM2.84605 29.7868H4.65605C4.93605 29.7868 5.17605 29.7501 5.37605 29.6768C5.58272 29.6035 5.74272 29.4768 5.85606 29.2968C5.96939 29.1101 6.02605 28.8501 6.02605 28.5168C6.02605 28.2568 5.97605 28.0468 5.87605 27.8868C5.78272 27.7268 5.66272 27.6068 5.51605 27.5268C5.36939 27.4468 5.21605 27.3935 5.05605 27.3668C4.89605 27.3401 4.74939 27.3268 4.61605 27.3268H2.84605V29.7868ZM2.84605 26.6268H4.60605C4.89272 26.6268 5.12272 26.5835 5.29605 26.4968C5.47605 26.4035 5.60605 26.2668 5.68605 26.0868C5.77272 25.9068 5.81605 25.6801 5.81605 25.4068C5.81605 25.0135 5.70939 24.7268 5.49605 24.5468C5.28939 24.3668 4.96939 24.2768 4.53605 24.2768H2.84605V26.6268ZM9.5984 30.5868C9.17173 30.5868 8.84507 30.5001 8.6184 30.3268C8.39173 30.1535 8.23507 29.8835 8.1484 29.5168C8.0684 29.1501 8.0284 28.6768 8.0284 28.0968V25.4868H8.7984V28.0968C8.7984 28.5368 8.8184 28.8868 8.8584 29.1468C8.90507 29.4068 9.00173 29.5968 9.1484 29.7168C9.29507 29.8301 9.51507 29.8868 9.8084 29.8868C10.1017 29.8868 10.3684 29.8468 10.6084 29.7668C10.8484 29.6868 11.0417 29.6068 11.1884 29.5268V25.4868H11.9584V30.4868H11.1884V30.1368C10.9751 30.2568 10.7417 30.3635 10.4884 30.4568C10.2417 30.5435 9.94507 30.5868 9.5984 30.5868ZM14.9607 30.5868C14.8073 30.5868 14.6207 30.5768 14.4007 30.5568C14.1873 30.5368 13.974 30.5135 13.7607 30.4868C13.5473 30.4535 13.3573 30.4235 13.1907 30.3968L13.2307 29.7268C13.3973 29.7468 13.584 29.7701 13.7907 29.7968C14.004 29.8235 14.2107 29.8468 14.4107 29.8668C14.6107 29.8801 14.7707 29.8868 14.8907 29.8868C15.164 29.8868 15.3907 29.8635 15.5707 29.8168C15.7507 29.7635 15.8873 29.6768 15.9807 29.5568C16.074 29.4368 16.1207 29.2668 16.1207 29.0468C16.1207 28.8801 16.084 28.7501 16.0107 28.6568C15.944 28.5635 15.814 28.4868 15.6207 28.4268C15.434 28.3668 15.1607 28.3101 14.8007 28.2568C14.4273 28.1968 14.114 28.1235 13.8607 28.0368C13.614 27.9435 13.4307 27.8068 13.3107 27.6268C13.1907 27.4468 13.1307 27.1901 13.1307 26.8568C13.1307 26.4835 13.2173 26.1901 13.3907 25.9768C13.564 25.7635 13.7873 25.6135 14.0607 25.5268C14.3407 25.4335 14.6307 25.3868 14.9307 25.3868C15.1173 25.3868 15.3207 25.3968 15.5407 25.4168C15.7673 25.4368 15.9873 25.4635 16.2007 25.4968C16.414 25.5235 16.5973 25.5501 16.7507 25.5768L16.7307 26.2468C16.5707 26.2201 16.384 26.1968 16.1707 26.1768C15.9573 26.1501 15.744 26.1301 15.5307 26.1168C15.3173 26.0968 15.1307 26.0868 14.9707 26.0868C14.7707 26.0868 14.5907 26.1101 14.4307 26.1568C14.2707 26.1968 14.144 26.2701 14.0507 26.3768C13.9573 26.4835 13.9107 26.6335 13.9107 26.8268C13.9107 26.9735 13.944 27.0935 14.0107 27.1868C14.0773 27.2735 14.204 27.3468 14.3907 27.4068C14.5773 27.4668 14.8473 27.5268 15.2007 27.5868C15.614 27.6535 15.944 27.7368 16.1907 27.8368C16.444 27.9368 16.6273 28.0768 16.7407 28.2568C16.854 28.4368 16.9107 28.6901 16.9107 29.0168C16.9107 29.4035 16.8307 29.7135 16.6707 29.9468C16.5173 30.1735 16.294 30.3368 16.0007 30.4368C15.714 30.5368 15.3673 30.5868 14.9607 30.5868ZM20.3761 30.4868V23.5768H22.9461C23.4328 23.5768 23.8395 23.6501 24.1661 23.7968C24.4995 23.9435 24.7495 24.1735 24.9161 24.4868C25.0828 24.7935 25.1661 25.1901 25.1661 25.6768C25.1661 26.1835 25.0628 26.6101 24.8561 26.9568C24.6561 27.3035 24.3395 27.5468 23.9061 27.6868L25.2261 30.4868H24.3361L23.1161 27.8568H21.1761V30.4868H20.3761ZM21.1761 27.1568H22.9561C23.2961 27.1568 23.5661 27.0935 23.7661 26.9668C23.9728 26.8401 24.1195 26.6668 24.2061 26.4468C24.2928 26.2201 24.3361 25.9668 24.3361 25.6868C24.3361 25.2135 24.2228 24.8601 23.9961 24.6268C23.7695 24.3935 23.4195 24.2768 22.9461 24.2768H21.1761V27.1568ZM28.2504 30.5868C27.6904 30.5868 27.2537 30.4901 26.9404 30.2968C26.6337 30.1035 26.417 29.8101 26.2904 29.4168C26.1704 29.0235 26.1104 28.5268 26.1104 27.9268C26.1104 27.3535 26.177 26.8801 26.3104 26.5068C26.4504 26.1335 26.677 25.8535 26.9904 25.6668C27.3037 25.4801 27.7237 25.3868 28.2504 25.3868C28.7837 25.3868 29.207 25.4801 29.5204 25.6668C29.8337 25.8535 30.057 26.1335 30.1904 26.5068C30.3304 26.8801 30.4004 27.3535 30.4004 27.9268C30.4004 28.5268 30.337 29.0235 30.2104 29.4168C30.0904 29.8101 29.8737 30.1035 29.5604 30.2968C29.2537 30.4901 28.817 30.5868 28.2504 30.5868ZM28.2504 29.9168C28.637 29.9168 28.927 29.8501 29.1204 29.7168C29.3137 29.5768 29.4404 29.3601 29.5004 29.0668C29.567 28.7735 29.6004 28.3935 29.6004 27.9268C29.6004 27.4668 29.5604 27.1001 29.4804 26.8268C29.4004 26.5535 29.2637 26.3568 29.0704 26.2368C28.877 26.1168 28.6037 26.0568 28.2504 26.0568C27.9037 26.0568 27.6304 26.1168 27.4304 26.2368C27.237 26.3568 27.1004 26.5535 27.0204 26.8268C26.9404 27.1001 26.9004 27.4668 26.9004 27.9268C26.9004 28.3935 26.9304 28.7735 26.9904 29.0668C27.057 29.3601 27.187 29.5768 27.3804 29.7168C27.5737 29.8501 27.8637 29.9168 28.2504 29.9168ZM33.1433 30.5868C32.7167 30.5868 32.39 30.5001 32.1633 30.3268C31.9367 30.1535 31.78 29.8835 31.6933 29.5168C31.6133 29.1501 31.5733 28.6768 31.5733 28.0968V25.4868H32.3433V28.0968C32.3433 28.5368 32.3633 28.8868 32.4033 29.1468C32.45 29.4068 32.5467 29.5968 32.6933 29.7168C32.84 29.8301 33.06 29.8868 33.3533 29.8868C33.6467 29.8868 33.9133 29.8468 34.1533 29.7668C34.3933 29.6868 34.5867 29.6068 34.7333 29.5268V25.4868H35.5033V30.4868H34.7333V30.1368C34.52 30.2568 34.2867 30.3635 34.0333 30.4568C33.7867 30.5435 33.49 30.5868 33.1433 30.5868ZM38.5856 30.5968C38.2389 30.5968 37.9623 30.5435 37.7556 30.4368C37.5556 30.3301 37.4123 30.1468 37.3256 29.8868C37.2389 29.6201 37.1956 29.2468 37.1956 28.7668V26.1568H36.4856V25.4868H37.1956V23.9568H37.9656V25.4868H39.5356V26.1568H37.9656V28.5368C37.9656 28.8901 37.9789 29.1668 38.0056 29.3668C38.0389 29.5601 38.1056 29.6968 38.2056 29.7768C38.3056 29.8568 38.4623 29.8968 38.6756 29.8968C38.7423 29.8968 38.8289 29.8935 38.9356 29.8868C39.0423 29.8801 39.1489 29.8735 39.2556 29.8668C39.3689 29.8535 39.4689 29.8435 39.5556 29.8368L39.6056 30.4868C39.5123 30.5001 39.4023 30.5135 39.2756 30.5268C39.1489 30.5468 39.0223 30.5635 38.8956 30.5768C38.7756 30.5901 38.6723 30.5968 38.5856 30.5968ZM42.2214 30.5868C41.7214 30.5868 41.3248 30.4901 41.0314 30.2968C40.7448 30.1035 40.5381 29.8168 40.4114 29.4368C40.2848 29.0568 40.2214 28.5835 40.2214 28.0168C40.2214 27.3835 40.3081 26.8768 40.4814 26.4968C40.6548 26.1101 40.8981 25.8301 41.2114 25.6568C41.5248 25.4768 41.8948 25.3868 42.3214 25.3868C42.9881 25.3868 43.4914 25.5735 43.8314 25.9468C44.1714 26.3135 44.3414 26.9068 44.3414 27.7268L44.3014 28.3168H41.0114C41.0181 28.8368 41.1148 29.2301 41.3014 29.4968C41.4881 29.7635 41.8248 29.8968 42.3114 29.8968C42.4981 29.8968 42.7014 29.8935 42.9214 29.8868C43.1481 29.8735 43.3714 29.8601 43.5914 29.8468C43.8114 29.8335 43.9981 29.8201 44.1514 29.8068L44.1714 30.4168C44.0114 30.4435 43.8148 30.4701 43.5814 30.4968C43.3548 30.5235 43.1214 30.5435 42.8814 30.5568C42.6414 30.5768 42.4214 30.5868 42.2214 30.5868ZM41.0114 27.6868H43.5614C43.5614 27.0735 43.4614 26.6468 43.2614 26.4068C43.0681 26.1601 42.7548 26.0368 42.3214 26.0368C42.0414 26.0368 41.8048 26.0935 41.6114 26.2068C41.4181 26.3135 41.2681 26.4868 41.1614 26.7268C41.0614 26.9668 41.0114 27.2868 41.0114 27.6868ZM47.0603 30.5868C46.9069 30.5868 46.7203 30.5768 46.5003 30.5568C46.2869 30.5368 46.0736 30.5135 45.8603 30.4868C45.6469 30.4535 45.4569 30.4235 45.2903 30.3968L45.3303 29.7268C45.4969 29.7468 45.6836 29.7701 45.8903 29.7968C46.1036 29.8235 46.3103 29.8468 46.5103 29.8668C46.7103 29.8801 46.8703 29.8868 46.9903 29.8868C47.2636 29.8868 47.4903 29.8635 47.6703 29.8168C47.8503 29.7635 47.9869 29.6768 48.0803 29.5568C48.1736 29.4368 48.2203 29.2668 48.2203 29.0468C48.2203 28.8801 48.1836 28.7501 48.1103 28.6568C48.0436 28.5635 47.9136 28.4868 47.7203 28.4268C47.5336 28.3668 47.2603 28.3101 46.9003 28.2568C46.5269 28.1968 46.2136 28.1235 45.9603 28.0368C45.7136 27.9435 45.5303 27.8068 45.4103 27.6268C45.2903 27.4468 45.2303 27.1901 45.2303 26.8568C45.2303 26.4835 45.3169 26.1901 45.4903 25.9768C45.6636 25.7635 45.8869 25.6135 46.1603 25.5268C46.4403 25.4335 46.7303 25.3868 47.0303 25.3868C47.2169 25.3868 47.4203 25.3968 47.6403 25.4168C47.8669 25.4368 48.0869 25.4635 48.3003 25.4968C48.5136 25.5235 48.6969 25.5501 48.8503 25.5768L48.8303 26.2468C48.6703 26.2201 48.4836 26.1968 48.2703 26.1768C48.0569 26.1501 47.8436 26.1301 47.6303 26.1168C47.4169 26.0968 47.2303 26.0868 47.0703 26.0868C46.8703 26.0868 46.6903 26.1101 46.5303 26.1568C46.3703 26.1968 46.2436 26.2701 46.1503 26.3768C46.0569 26.4835 46.0103 26.6335 46.0103 26.8268C46.0103 26.9735 46.0436 27.0935 46.1103 27.1868C46.1769 27.2735 46.3036 27.3468 46.4903 27.4068C46.6769 27.4668 46.9469 27.5268 47.3003 27.5868C47.7136 27.6535 48.0436 27.7368 48.2903 27.8368C48.5436 27.9368 48.7269 28.0768 48.8403 28.2568C48.9536 28.4368 49.0103 28.6901 49.0103 29.0168C49.0103 29.4035 48.9303 29.7135 48.7703 29.9468C48.6169 30.1735 48.3936 30.3368 48.1003 30.4368C47.8136 30.5368 47.4669 30.5868 47.0603 30.5868Z" fill="#212121"/>
</svg>
