<svg width="27" height="38" viewBox="0 0 27 38" fill="none" xmlns="http://www.w3.org/2000/svg">
<path d="M12.2135 2.83685L6.4385 7.46184C5.7885 7.97851 5.37184 9.0702 5.5135 9.88687L6.62184 16.5202C6.82184 17.7035 7.95516 18.6618 9.15516 18.6618H18.4885C19.6802 18.6618 20.8218 17.6952 21.0218 16.5202L22.1302 9.88687C22.2635 9.0702 21.8468 7.97851 21.2052 7.46184L15.4302 2.84519C14.5385 2.12852 13.0968 2.12852 12.2135 2.83685Z" fill="url(#paint0_linear_35_3466)" stroke="url(#paint1_linear_35_3466)" stroke-width="1.5" stroke-linecap="round" stroke-linejoin="round"/>
<path d="M13.8216 13.4035C14.9722 13.4035 15.9049 12.4707 15.9049 11.3201C15.9049 10.1696 14.9722 9.23682 13.8216 9.23682C12.671 9.23682 11.7383 10.1696 11.7383 11.3201C11.7383 12.4707 12.671 13.4035 13.8216 13.4035Z" fill="white" stroke="white" stroke-width="1.5" stroke-linecap="round" stroke-linejoin="round"/>
<path d="M1.45178 30.4868V23.6568H2.83178V26.5068H5.48178V23.6568H6.86178V30.4868H5.48178V27.6668H2.83178V30.4868H1.45178ZM10.1529 30.5968C9.5862 30.5968 9.12954 30.5035 8.78287 30.3168C8.44287 30.1301 8.1962 29.8435 8.04287 29.4568C7.88954 29.0635 7.81287 28.5568 7.81287 27.9368C7.81287 27.3368 7.89287 26.8501 8.05287 26.4768C8.21287 26.0968 8.4662 25.8168 8.81287 25.6368C9.15954 25.4501 9.6062 25.3568 10.1529 25.3568C10.7062 25.3568 11.1529 25.4501 11.4929 25.6368C11.8395 25.8168 12.0929 26.0968 12.2529 26.4768C12.4195 26.8501 12.5029 27.3368 12.5029 27.9368C12.5029 28.5568 12.4262 29.0635 12.2729 29.4568C12.1195 29.8435 11.8695 30.1301 11.5229 30.3168C11.1829 30.5035 10.7262 30.5968 10.1529 30.5968ZM10.1529 29.4968C10.4329 29.4968 10.6429 29.4468 10.7829 29.3468C10.9229 29.2401 11.0162 29.0735 11.0629 28.8468C11.1162 28.6135 11.1429 28.3101 11.1429 27.9368C11.1429 27.5701 11.1129 27.2801 11.0529 27.0668C10.9929 26.8468 10.8929 26.6901 10.7529 26.5968C10.6129 26.5035 10.4129 26.4568 10.1529 26.4568C9.89954 26.4568 9.69954 26.5035 9.55287 26.5968C9.41287 26.6901 9.31287 26.8468 9.25287 27.0668C9.19287 27.2801 9.16287 27.5701 9.16287 27.9368C9.16287 28.3101 9.1862 28.6135 9.23287 28.8468C9.2862 29.0735 9.38287 29.2401 9.52287 29.3468C9.66287 29.4468 9.87287 29.4968 10.1529 29.4968ZM13.4128 30.4868V25.4668H14.7428V25.7868C14.8428 25.7201 14.9695 25.6568 15.1228 25.5968C15.2761 25.5301 15.4361 25.4735 15.6028 25.4268C15.7761 25.3801 15.9428 25.3568 16.1028 25.3568C16.4095 25.3568 16.6595 25.4001 16.8528 25.4868C17.0461 25.5668 17.2061 25.6868 17.3328 25.8468C17.4528 25.7735 17.6028 25.7001 17.7828 25.6268C17.9628 25.5535 18.1595 25.4901 18.3728 25.4368C18.5861 25.3835 18.7928 25.3568 18.9928 25.3568C19.3595 25.3568 19.6595 25.4068 19.8928 25.5068C20.1328 25.6001 20.3195 25.7501 20.4528 25.9568C20.5861 26.1568 20.6795 26.4168 20.7328 26.7368C20.7861 27.0501 20.8128 27.4301 20.8128 27.8768V30.4868H19.4828V27.9968C19.4828 27.6501 19.4628 27.3701 19.4228 27.1568C19.3895 26.9368 19.3161 26.7768 19.2028 26.6768C19.0961 26.5768 18.9328 26.5268 18.7128 26.5268C18.5928 26.5268 18.4661 26.5401 18.3328 26.5668C18.1995 26.5868 18.0761 26.6168 17.9628 26.6568C17.8561 26.6968 17.7695 26.7335 17.7028 26.7668C17.7361 26.9068 17.7595 27.0868 17.7728 27.3068C17.7928 27.5268 17.8028 27.7568 17.8028 27.9968V30.4868H16.4728V28.0168C16.4728 27.6635 16.4528 27.3768 16.4128 27.1568C16.3795 26.9368 16.3061 26.7768 16.1928 26.6768C16.0795 26.5768 15.9161 26.5268 15.7028 26.5268C15.5828 26.5268 15.4595 26.5401 15.3328 26.5668C15.2128 26.5868 15.0995 26.6168 14.9928 26.6568C14.8928 26.6968 14.8095 26.7335 14.7428 26.7668V30.4868H13.4128ZM23.8998 30.5968C23.3465 30.5968 22.9065 30.5035 22.5798 30.3168C22.2598 30.1301 22.0298 29.8468 21.8898 29.4668C21.7498 29.0868 21.6798 28.6101 21.6798 28.0368C21.6798 27.4168 21.7665 26.9101 21.9398 26.5168C22.1198 26.1235 22.3798 25.8335 22.7198 25.6468C23.0598 25.4535 23.4798 25.3568 23.9798 25.3568C24.7198 25.3568 25.2765 25.5435 25.6498 25.9168C26.0298 26.2901 26.2198 26.8801 26.2198 27.6868L26.1598 28.4268H23.0198C23.0265 28.8001 23.1032 29.0801 23.2498 29.2668C23.3965 29.4535 23.6498 29.5468 24.0098 29.5468C24.2165 29.5468 24.4432 29.5435 24.6898 29.5368C24.9365 29.5235 25.1798 29.5101 25.4198 29.4968C25.6665 29.4835 25.8765 29.4701 26.0498 29.4568L26.0798 30.3868C25.9132 30.4135 25.7032 30.4435 25.4498 30.4768C25.1965 30.5101 24.9332 30.5368 24.6598 30.5568C24.3932 30.5835 24.1398 30.5968 23.8998 30.5968ZM23.0198 27.5768H24.8898C24.8898 27.1235 24.8165 26.8068 24.6698 26.6268C24.5298 26.4468 24.2998 26.3568 23.9798 26.3568C23.7665 26.3568 23.5898 26.3968 23.4498 26.4768C23.3098 26.5568 23.2032 26.6868 23.1298 26.8668C23.0565 27.0468 23.0198 27.2835 23.0198 27.5768Z" fill="url(#paint2_linear_35_3466)"/>
<defs>
<linearGradient id="paint0_linear_35_3466" x1="6.13771" y1="2.30664" x2="9.7404" y2="20.9398" gradientUnits="userSpaceOnUse">
<stop stop-color="#FF982C"/>
<stop offset="1" stop-color="#F77F00"/>
</linearGradient>
<linearGradient id="paint1_linear_35_3466" x1="6.13771" y1="2.30664" x2="9.7404" y2="20.9398" gradientUnits="userSpaceOnUse">
<stop stop-color="#FF982C"/>
<stop offset="1" stop-color="#F77F00"/>
</linearGradient>
<linearGradient id="paint2_linear_35_3466" x1="1.83853" y1="15.4868" x2="6.05677" y2="40.7845" gradientUnits="userSpaceOnUse">
<stop stop-color="#FF982C"/>
<stop offset="1" stop-color="#F77F00"/>
</linearGradient>
</defs>
</svg>
