<svg width="150" height="175" viewBox="0 0 150 175" fill="none" xmlns="http://www.w3.org/2000/svg">
<g clip-path="url(#clip0_10_24)">
<path d="M116.122 24.4514C115.305 16.4689 114.005 10.2537 111.947 7.8108C103.462 -2.23388 44.0307 -2.96896 37.2829 7.8108C35.6323 10.4518 34.4747 16.645 33.6978 24.4646C31.191 24.7595 29.2388 26.8702 29.2388 29.454V39.2323C29.2388 41.4068 30.6166 43.2401 32.5401 43.9554C32.0845 59.3569 32.4543 75.4253 33.1365 83.4166C33.1365 89.5856 37.2807 88.5622 37.2807 88.5622H41.1652V95.2219C41.1652 97.863 43.8877 100 47.2418 100C50.6003 100 53.3227 97.863 53.3227 95.2219V88.5622H98.515V95.2219C98.515 97.863 101.235 100 104.594 100C107.948 100 110.67 97.863 110.67 95.2219V88.5622H111.947C111.947 88.5622 116.824 89.2312 117.136 86.3261C117.136 78.3568 117.638 60.695 117.224 44.0236C119.269 43.3831 120.761 41.4992 120.761 39.2323V29.454C120.763 26.8085 118.717 24.6627 116.122 24.4514ZM51.7975 9.24356H97.4322V16.1476H51.7975V9.24356ZM52.449 80.6985C48.866 80.6985 45.9631 77.7934 45.9631 74.2104C45.9631 70.6297 48.866 67.7267 52.449 67.7267C56.032 67.7267 58.9371 70.6297 58.9371 74.2104C58.9371 77.7934 56.0342 80.6985 52.449 80.6985ZM97.1879 80.6985C93.6071 80.6985 90.6976 77.7934 90.6976 74.2104C90.6976 70.6297 93.6049 67.7267 97.1879 67.7267C100.771 67.7267 103.674 70.6297 103.674 74.2104C103.676 77.7934 100.771 80.6985 97.1879 80.6985ZM105.434 52.3076H43.7952V19.9771H105.434V52.3076Z" fill="white"/>
</g>
<path d="M7.57859 152V124.68H16.4586L21.9786 142.92L27.3786 124.68H36.3786V152H30.8586V131.76H30.2986L24.5786 151.28H19.3786L13.6586 131.76H13.0986V152H7.57859ZM49.5314 152.44C47.2647 152.44 45.4381 152.067 44.0514 151.32C42.6914 150.573 41.7047 149.427 41.0914 147.88C40.4781 146.307 40.1714 144.28 40.1714 141.8C40.1714 139.4 40.4914 137.453 41.1314 135.96C41.7714 134.44 42.7847 133.32 44.1714 132.6C45.5581 131.853 47.3447 131.48 49.5314 131.48C51.7447 131.48 53.5314 131.853 54.8914 132.6C56.2781 133.32 57.2914 134.44 57.9314 135.96C58.5981 137.453 58.9314 139.4 58.9314 141.8C58.9314 144.28 58.6247 146.307 58.0114 147.88C57.3981 149.427 56.3981 150.573 55.0114 151.32C53.6514 152.067 51.8247 152.44 49.5314 152.44ZM49.5314 148.04C50.6514 148.04 51.4914 147.84 52.0514 147.44C52.6114 147.013 52.9847 146.347 53.1714 145.44C53.3847 144.507 53.4914 143.293 53.4914 141.8C53.4914 140.333 53.3714 139.173 53.1314 138.32C52.8914 137.44 52.4914 136.813 51.9314 136.44C51.3714 136.067 50.5714 135.88 49.5314 135.88C48.5181 135.88 47.7181 136.067 47.1314 136.44C46.5714 136.813 46.1714 137.44 45.9314 138.32C45.6914 139.173 45.5714 140.333 45.5714 141.8C45.5714 143.293 45.6647 144.507 45.8514 145.44C46.0647 146.347 46.4514 147.013 47.0114 147.44C47.5714 147.84 48.4114 148.04 49.5314 148.04ZM65.4186 152L60.6586 131.92H66.3786L69.7386 147.48H70.8986L74.3386 131.92H79.7386L74.9786 152H65.4186ZM90.3395 152.44C88.1262 152.44 86.3662 152.067 85.0595 151.32C83.7795 150.573 82.8595 149.44 82.2995 147.92C81.7395 146.4 81.4595 144.493 81.4595 142.2C81.4595 139.72 81.8062 137.693 82.4995 136.12C83.2195 134.547 84.2595 133.387 85.6195 132.64C86.9795 131.867 88.6595 131.48 90.6595 131.48C93.6195 131.48 95.8462 132.227 97.3395 133.72C98.8595 135.213 99.6195 137.573 99.6195 140.8L99.3795 143.76H86.8195C86.8462 145.253 87.1529 146.373 87.7395 147.12C88.3262 147.867 89.3395 148.24 90.7795 148.24C91.6062 148.24 92.5129 148.227 93.4995 148.2C94.4862 148.147 95.4595 148.093 96.4195 148.04C97.4062 147.987 98.2462 147.933 98.9395 147.88L99.0595 151.6C98.3929 151.707 97.5529 151.827 96.5395 151.96C95.5262 152.093 94.4729 152.2 93.3795 152.28C92.3129 152.387 91.2995 152.44 90.3395 152.44ZM86.8195 140.36H94.2995C94.2995 138.547 94.0062 137.28 93.4195 136.56C92.8595 135.84 91.9395 135.48 90.6595 135.48C89.8062 135.48 89.0995 135.64 88.5395 135.96C87.9795 136.28 87.5529 136.8 87.2595 137.52C86.9662 138.24 86.8195 139.187 86.8195 140.36ZM103.477 152V124.68H121.637V129.28H108.997V135.92H119.237V140.44H108.997V147.4H121.637V152H103.477ZM124.348 152.04V147.04L136.548 130.12V129.32H124.348V124.68H143.548V129.8L131.388 146.6V147.36H143.548V152.04H124.348Z" fill="white"/>
<defs>
<clipPath id="clip0_10_24">
<rect width="100" height="100" fill="white" transform="translate(25)"/>
</clipPath>
</defs>
</svg>
