<svg width="316" height="172" viewBox="0 0 316 172" fill="none" xmlns="http://www.w3.org/2000/svg">
<g clip-path="url(#clip0_21_1523)">
<path d="M56.8584 137.483V159.983H89.7607H126.051V137.483H56.8584Z" fill="#F5F5F5"/>
<path d="M53.9556 131.193V137.483H128.47V131.193H89.7606H53.9556Z" fill="#E0E0E0"/>
<path d="M91.2125 159.983H126.051V137.483H128.47V131.193H89.7607V136.901L91.2125 159.983Z" fill="#E0E0E0"/>
<path d="M80.5674 141.112H66.5356V144.498H80.5674V141.112Z" fill="#E0E0E0"/>
<path d="M82.748 148.733H64.73V155.884H82.748V148.733Z" fill="white"/>
<path d="M266.42 96.9434L250.518 161.243H254.704L270.998 96.9434H266.42Z" fill="#F5F5F5"/>
<path d="M296.373 96.9434L311.252 161.243H307.066L291.795 96.9434H296.373Z" fill="#F5F5F5"/>
<path d="M283.94 160.298H279.067L278.342 86.4988H283.215L283.94 160.298Z" fill="#F5F5F5"/>
<path d="M315.157 43.158H246.399V87.2094H315.157V43.158Z" fill="#EBEBEB"/>
<path d="M298.053 96.2673H263.542V100.521H298.053V96.2673Z" fill="#F5F5F5"/>
<path d="M250.969 81.4625C250.985 81.4625 251.001 81.7159 251.016 82.2685H250.922C250.851 80.1143 250.799 72.9767 250.799 64.5179C250.818 59.4135 250.836 54.7944 250.849 51.3947C250.871 49.7507 250.889 48.4034 250.902 47.4178C250.916 46.9787 250.926 46.6212 250.934 46.3365C250.945 46.0892 250.957 45.9595 250.968 45.9595C250.98 45.9595 250.992 46.0892 251.002 46.3365C251.011 46.6207 251.021 46.9787 251.034 47.4178C251.048 48.4029 251.066 49.7502 251.088 51.3947C251.1 54.7944 251.118 59.4135 251.137 64.5179C251.137 72.9762 251.085 80.1139 251.015 82.2685H250.921C250.937 81.7159 250.952 81.4625 250.969 81.4625Z" fill="#F5F5F5"/>
<path d="M256.086 81.4625C256.102 81.4625 256.118 81.7159 256.133 82.2685H256.039C255.968 80.1143 255.917 72.9767 255.917 64.5179C255.936 59.4135 255.953 54.7944 255.966 51.3947C255.988 49.7507 256.007 48.4034 256.02 47.4178C256.033 46.9787 256.043 46.6212 256.051 46.3365C256.063 46.0892 256.074 45.9595 256.085 45.9595C256.097 45.9595 256.109 46.0892 256.12 46.3365C256.128 46.6207 256.138 46.9787 256.151 47.4178C256.165 48.4029 256.183 49.7502 256.205 51.3947C256.217 54.7944 256.235 59.4135 256.254 64.5179C256.254 72.9762 256.203 80.1139 256.132 82.2685H256.038C256.054 81.7159 256.07 81.4625 256.086 81.4625Z" fill="#F5F5F5"/>
<path d="M261.204 81.4625C261.22 81.4625 261.236 81.7159 261.251 82.2685H261.156C261.086 80.1143 261.034 72.9767 261.034 64.5179C261.053 59.4135 261.071 54.7944 261.084 51.3947C261.106 49.7507 261.124 48.4034 261.137 47.4178C261.15 46.9787 261.161 46.6212 261.169 46.3365C261.18 46.0892 261.191 45.9595 261.203 45.9595C261.215 45.9595 261.226 46.0892 261.237 46.3365C261.246 46.6207 261.256 46.9787 261.269 47.4178C261.282 48.4029 261.301 49.7502 261.323 51.3947C261.336 54.7944 261.353 59.4135 261.372 64.5179C261.372 72.9762 261.32 80.1139 261.25 82.2685H261.156C261.171 81.7159 261.187 81.4625 261.204 81.4625Z" fill="#F5F5F5"/>
<path d="M266.321 81.4625C266.337 81.4625 266.353 81.7159 266.368 82.2685H266.274C266.203 80.1143 266.151 72.9767 266.151 64.5179C266.171 59.4135 266.188 54.7944 266.201 51.3947C266.223 49.7507 266.241 48.4034 266.255 47.4178C266.268 46.9787 266.278 46.6212 266.286 46.3365C266.297 46.0892 266.309 45.9595 266.32 45.9595C266.332 45.9595 266.344 46.0892 266.354 46.3365C266.363 46.6207 266.373 46.9787 266.386 47.4178C266.4 48.4029 266.418 49.7502 266.44 51.3947C266.453 54.7944 266.471 59.4135 266.49 64.5179C266.49 72.9762 266.438 80.1139 266.368 82.2685H266.273C266.289 81.7159 266.304 81.4625 266.321 81.4625Z" fill="#F5F5F5"/>
<path d="M271.438 81.4625C271.455 81.4625 271.471 81.7159 271.486 82.2685H271.391C271.32 80.1143 271.269 72.9767 271.269 64.5179C271.288 59.4135 271.306 54.7944 271.319 51.3947C271.341 49.7507 271.359 48.4034 271.373 47.4178C271.386 46.9787 271.396 46.6212 271.404 46.3365C271.416 46.0892 271.427 45.9595 271.438 45.9595C271.45 45.9595 271.461 46.0892 271.472 46.3365C271.481 46.6207 271.491 46.9787 271.504 47.4178C271.518 48.4029 271.536 49.7502 271.558 51.3947C271.571 54.7944 271.588 59.4135 271.607 64.5179C271.607 72.9762 271.556 80.1139 271.486 82.2685H271.391C271.406 81.7159 271.422 81.4625 271.438 81.4625Z" fill="#F5F5F5"/>
<path d="M276.556 81.4625C276.572 81.4625 276.588 81.7159 276.603 82.2685H276.509C276.439 80.1143 276.387 72.9767 276.387 64.5179C276.406 59.4135 276.424 54.7944 276.436 51.3947C276.459 49.7507 276.477 48.4034 276.49 47.4178C276.503 46.9787 276.514 46.6212 276.522 46.3365C276.533 46.0892 276.544 45.9595 276.556 45.9595C276.568 45.9595 276.579 46.0892 276.59 46.3365C276.599 46.6207 276.609 46.9787 276.622 47.4178C276.635 48.4029 276.654 49.7502 276.676 51.3947C276.689 54.7944 276.706 59.4135 276.726 64.5179C276.726 72.9762 276.674 80.1139 276.603 82.2685H276.509C276.524 81.7159 276.54 81.4625 276.556 81.4625Z" fill="#F5F5F5"/>
<path d="M281.673 81.4625C281.69 81.4625 281.706 81.7159 281.72 82.2685H281.626C281.556 80.1143 281.504 72.9767 281.504 64.5179C281.523 59.4135 281.541 54.7944 281.553 51.3947C281.576 49.7507 281.594 48.4034 281.607 47.4178C281.62 46.9787 281.63 46.6212 281.639 46.3365C281.65 46.0892 281.661 45.9595 281.673 45.9595C281.685 45.9595 281.696 46.0892 281.707 46.3365C281.715 46.6207 281.726 46.9787 281.739 47.4178C281.752 48.4029 281.77 49.7502 281.792 51.3947C281.805 54.7944 281.823 59.4135 281.842 64.5179C281.842 72.9762 281.79 80.1139 281.719 82.2685H281.625C281.641 81.7159 281.657 81.4625 281.673 81.4625Z" fill="#F5F5F5"/>
<path d="M286.791 81.4625C286.807 81.4625 286.823 81.7159 286.838 82.2685H286.744C286.673 80.1143 286.622 72.9767 286.622 64.5179C286.641 59.4135 286.658 54.7944 286.671 51.3947C286.693 49.7507 286.712 48.4034 286.725 47.4178C286.738 46.9787 286.748 46.6212 286.756 46.3365C286.767 46.0892 286.779 45.9595 286.791 45.9595C286.802 45.9595 286.813 46.0892 286.825 46.3365C286.833 46.6207 286.843 46.9787 286.856 47.4178C286.87 48.4029 286.888 49.7502 286.91 51.3947C286.923 54.7944 286.94 59.4135 286.96 64.5179C286.96 72.9762 286.909 80.1139 286.838 82.2685H286.744C286.759 81.7159 286.775 81.4625 286.791 81.4625Z" fill="#F5F5F5"/>
<path d="M291.908 81.4625C291.924 81.4625 291.94 81.7159 291.955 82.2685H291.861C291.791 80.1143 291.739 72.9767 291.739 64.5179C291.758 59.4135 291.776 54.7944 291.788 51.3947C291.811 49.7507 291.829 48.4034 291.842 47.4178C291.855 46.9787 291.865 46.6212 291.874 46.3365C291.885 46.0892 291.896 45.9595 291.908 45.9595C291.919 45.9595 291.931 46.0892 291.942 46.3365C291.95 46.6207 291.961 46.9787 291.973 47.4178C291.987 48.4029 292.005 49.7502 292.027 51.3947C292.04 54.7944 292.058 59.4135 292.077 64.5179C292.077 72.9762 292.025 80.1139 291.954 82.2685H291.86C291.876 81.7159 291.892 81.4625 291.908 81.4625Z" fill="#F5F5F5"/>
<path d="M297.026 81.4625C297.042 81.4625 297.058 81.7159 297.073 82.2685H296.979C296.908 80.1143 296.856 72.9767 296.856 64.5179C296.876 59.4135 296.893 54.7944 296.906 51.3947C296.928 49.7507 296.947 48.4034 296.96 47.4178C296.973 46.9787 296.983 46.6212 296.991 46.3365C297.003 46.0892 297.014 45.9595 297.025 45.9595C297.037 45.9595 297.048 46.0892 297.059 46.3365C297.068 46.6207 297.078 46.9787 297.091 47.4178C297.105 48.4029 297.123 49.7502 297.145 51.3947C297.158 54.7944 297.175 59.4135 297.194 64.5179C297.194 72.9762 297.143 80.1139 297.072 82.2685H296.978C296.994 81.7159 297.01 81.4625 297.026 81.4625Z" fill="#F5F5F5"/>
<path d="M302.143 81.4625C302.159 81.4625 302.175 81.7159 302.19 82.2685H302.096C302.025 80.1143 301.974 72.9767 301.974 64.5179C301.993 59.4135 302.01 54.7944 302.023 51.3947C302.045 49.7507 302.064 48.4034 302.077 47.4178C302.09 46.9787 302.101 46.6212 302.109 46.3365C302.12 46.0892 302.131 45.9595 302.143 45.9595C302.155 45.9595 302.166 46.0892 302.177 46.3365C302.185 46.6207 302.196 46.9787 302.209 47.4178C302.222 48.4029 302.241 49.7502 302.262 51.3947C302.276 54.7944 302.293 59.4135 302.312 64.5179C302.312 72.9762 302.26 80.1139 302.19 82.2685H302.096C302.111 81.7159 302.127 81.4625 302.143 81.4625Z" fill="#F5F5F5"/>
<path d="M307.261 81.4625C307.277 81.4625 307.293 81.7159 307.308 82.2685H307.214C307.143 80.1143 307.091 72.9767 307.091 64.5179C307.11 59.4135 307.128 54.7944 307.141 51.3947C307.163 49.7507 307.181 48.4034 307.194 47.4178C307.207 46.9787 307.218 46.6212 307.226 46.3365C307.237 46.0892 307.249 45.9595 307.26 45.9595C307.272 45.9595 307.283 46.0892 307.294 46.3365C307.303 46.6207 307.313 46.9787 307.326 47.4178C307.34 48.4029 307.358 49.7502 307.38 51.3947C307.392 54.7944 307.41 59.4135 307.429 64.5179C307.429 72.9762 307.377 80.1139 307.307 82.2685H307.213C307.228 81.7159 307.244 81.4625 307.261 81.4625Z" fill="#F5F5F5"/>
<path d="M312.378 81.4625C312.394 81.4625 312.41 81.7159 312.425 82.2685H312.331C312.26 80.1143 312.208 72.9767 312.208 64.5179C312.228 59.4135 312.245 54.7944 312.258 51.3947C312.28 49.7507 312.299 48.4034 312.312 47.4178C312.325 46.9787 312.335 46.6212 312.343 46.3365C312.354 46.0892 312.366 45.9595 312.377 45.9595C312.389 45.9595 312.4 46.0892 312.412 46.3365C312.42 46.6207 312.43 46.9787 312.443 47.4178C312.457 48.4029 312.475 49.7502 312.497 51.3947C312.51 54.7944 312.527 59.4135 312.546 64.5179C312.546 72.9762 312.495 80.1139 312.424 82.2685H312.33C312.346 81.7159 312.362 81.4625 312.378 81.4625Z" fill="#F5F5F5"/>
<path d="M300.584 159.983C300.584 160.05 234.279 160.104 152.508 160.104C70.707 160.104 4.4165 160.05 4.4165 159.983C4.4165 159.916 70.707 159.862 152.508 159.862C234.279 159.862 300.584 159.916 300.584 159.983Z" fill="#263238"/>
<path d="M254.533 0.181763H30.6821V111.399H254.533V0.181763Z" fill="white"/>
<path d="M254.533 0.181763H30.6821V13.9802H254.533V0.181763Z" fill="#E0E0E0"/>
<path d="M254.533 111.399C254.533 110.684 254.498 68.7654 254.443 0.181737L254.533 0.271804C195.891 0.280204 117.112 0.290938 30.6982 0.303072H30.6823L30.8037 0.181737C30.8013 39.3836 30.799 77.0105 30.7967 111.399L30.6823 111.285C161.337 111.352 253.475 111.399 254.533 111.399C253.476 111.4 161.337 111.447 30.6823 111.513H30.5676V111.399C30.5652 77.01 30.5629 39.3831 30.5605 0.181271V0.0599365H30.6819H30.6977C117.111 0.0720699 195.89 0.0832705 254.533 0.0912038H254.623V0.181271C254.568 68.7654 254.533 110.684 254.533 111.399Z" fill="#263238"/>
<path d="M230.611 68.9362H50.961C49.5404 68.9362 48.3892 67.785 48.3892 66.3644V44.4978C48.3892 43.0773 49.5404 41.926 50.961 41.926H230.611C232.031 41.926 233.183 43.0773 233.183 44.4978V66.3644C233.183 67.7845 232.031 68.9362 230.611 68.9362Z" fill="#FAFAFA"/>
<path d="M230.611 68.9363C230.604 68.9139 230.995 68.9825 231.656 68.6992C231.975 68.5494 232.362 68.3007 232.67 67.8699C232.984 67.449 233.2 66.8433 233.158 66.1447C233.153 63.3498 233.145 59.2329 233.135 53.9315C233.132 51.2799 233.129 48.332 233.125 45.1055C233.117 44.7009 233.155 44.2916 233.05 43.9029C232.954 43.5127 232.765 43.1385 232.488 42.8342C232.216 42.5267 231.866 42.2821 231.47 42.1421C231.275 42.0656 231.066 42.0278 230.857 42.0007C230.648 41.9858 230.429 41.9881 230.21 41.9891C228.46 41.9905 226.642 41.9923 224.759 41.9942C217.225 41.9993 208.647 42.0054 199.165 42.0124C161.235 42.0217 108.84 42.0339 50.9717 42.0479C50.1074 42.0432 49.2576 42.5229 48.8376 43.2799C48.6202 43.6513 48.5147 44.0811 48.511 44.5105V45.8601C48.511 47.6581 48.511 49.4506 48.511 51.237C48.511 54.8098 48.5105 58.3593 48.5105 61.8831C48.5105 62.7641 48.5105 63.6433 48.5105 64.5207V65.8357C48.511 66.28 48.4918 66.7023 48.623 67.1004C48.8731 67.8951 49.5488 68.5466 50.3608 68.7389C50.7575 68.8499 51.1906 68.8079 51.6297 68.8163H52.9322C56.4018 68.8168 59.8435 68.8173 63.2548 68.8173C76.9006 68.8196 90.063 68.8219 102.602 68.8243C127.679 68.8341 150.261 68.8429 169.226 68.8504C188.189 68.8667 203.534 68.8798 214.142 68.8891C219.443 68.8989 223.559 68.9069 226.353 68.912C227.747 68.9171 228.811 68.9213 229.529 68.9241C230.245 68.9279 230.611 68.9363 230.611 68.9363C230.611 68.9363 230.245 68.9447 229.529 68.9489C228.811 68.9517 227.747 68.9559 226.353 68.961C223.559 68.9661 219.443 68.9741 214.142 68.9839C203.534 68.9932 188.189 69.0063 169.226 69.0226C150.261 69.0301 127.679 69.0389 102.602 69.0487C90.063 69.0511 76.9006 69.0534 63.2548 69.0557C59.8435 69.0562 56.4018 69.0567 52.9322 69.0567H51.6297H50.9773C50.7514 69.0506 50.5218 69.0329 50.302 68.9722C49.4098 68.7603 48.6682 68.0473 48.3934 67.1727C48.2482 66.7317 48.2702 66.2637 48.2692 65.8357V64.5207C48.2692 63.6429 48.2692 62.7637 48.2692 61.8831C48.2692 58.3597 48.2688 54.8103 48.2688 51.237C48.2688 49.4506 48.2688 47.6581 48.2688 45.8601V44.5105C48.272 44.0415 48.3887 43.5664 48.6276 43.1585C49.0887 42.3274 50.0239 41.7987 50.9722 41.8047C108.841 41.8187 161.235 41.8313 199.166 41.8402C208.648 41.8467 217.226 41.8528 224.759 41.8579C226.643 41.8598 228.46 41.8612 230.211 41.8631C230.43 41.8631 230.646 41.8607 230.87 41.8766C231.09 41.9046 231.309 41.9452 231.513 42.0259C231.928 42.1739 232.295 42.4305 232.58 42.7535C232.869 43.0727 233.066 43.4656 233.165 43.8744C233.275 44.2883 233.234 44.7065 233.241 45.105C233.238 48.3315 233.234 51.2795 233.231 53.9311C233.221 59.2329 233.213 63.3498 233.208 66.1442C233.247 66.8484 233.023 67.4686 232.7 67.8914C232.385 68.3259 231.991 68.5741 231.666 68.7211C231.337 68.8672 231.063 68.9036 230.884 68.9269C230.702 68.9367 230.611 68.9363 230.611 68.9363Z" fill="#263238"/>
<path d="M57.5827 27.2148V34.318H56.4972L52.58 29.508V34.318H51.271V27.2148H52.3569L56.2737 32.0248V27.2148H57.5827Z" fill="#263238"/>
<path d="M63.9034 31.1418V34.318H62.7059V33.6581C62.4017 34.1252 61.8132 34.3889 61.0012 34.3889C59.7631 34.3889 58.9819 33.709 58.9819 32.7654C58.9819 31.8619 59.5909 31.1516 61.2345 31.1516H62.635V31.0704C62.635 30.3298 62.1884 29.8935 61.2854 29.8935C60.6764 29.8935 60.0473 30.0965 59.6418 30.4316L59.1448 29.508C59.723 29.0614 60.5653 28.8384 61.438 28.8384C63.0004 28.8384 63.9034 29.579 63.9034 31.1418ZM62.635 32.623V31.994H61.326C60.4636 31.994 60.2303 32.3188 60.2303 32.7145C60.2303 33.1714 60.6157 33.4654 61.2653 33.4654C61.8841 33.4654 62.4217 33.1816 62.635 32.623Z" fill="#263238"/>
<path d="M74.5872 31.2128V34.318H73.3188V31.3752C73.3188 30.4111 72.8722 29.9444 72.1012 29.9444C71.2692 29.9444 70.691 30.4923 70.691 31.5679V34.318H69.4226V31.3752C69.4226 30.4111 68.976 29.9444 68.205 29.9444C67.3627 29.9444 66.7948 30.4923 66.7948 31.5679V34.318H65.5264V28.8995H66.7336V29.5897C67.1396 29.103 67.7687 28.8389 68.5093 28.8389C69.3008 28.8389 69.9602 29.1333 70.3354 29.7419C70.7717 29.1837 71.5025 28.8389 72.3649 28.8389C73.6739 28.8384 74.5872 29.579 74.5872 31.2128Z" fill="#263238"/>
<path d="M81.3332 32.0145H77.0819C77.234 32.806 77.8934 33.3132 78.8375 33.3132C79.446 33.3132 79.9229 33.1205 80.3089 32.7248L80.9888 33.506C80.5016 34.0846 79.7409 34.3889 78.8071 34.3889C76.9909 34.3889 75.8135 33.2218 75.8135 31.6085C75.8135 29.9952 77.0007 28.8384 78.6144 28.8384C80.1973 28.8384 81.3542 29.9444 81.3542 31.6388C81.3537 31.7406 81.3435 31.8927 81.3332 32.0145ZM77.0716 31.1722H80.146C80.0447 30.391 79.446 29.8529 78.6139 29.8529C77.7921 29.8529 77.1934 30.3807 77.0716 31.1722Z" fill="#263238"/>
<path d="M65.6411 57.0974V57.824H62.1421V53.1587H65.5478V53.8853H63.0087V55.0986H65.2613V55.8117H63.0087V57.0978H65.6411V57.0974Z" fill="#E0E0E0"/>
<path d="M70.0315 55.7842V57.824H69.1985V55.8911C69.1985 55.2583 68.8853 54.9512 68.3519 54.9512C67.7588 54.9512 67.3589 55.311 67.3589 56.0246V57.824H66.5254V54.2652H67.3187V54.7249C67.5917 54.3982 68.0253 54.2251 68.5451 54.2251C69.3982 54.2246 70.0315 54.7114 70.0315 55.7842Z" fill="#E0E0E0"/>
<path d="M73.2291 57.6307C73.0289 57.7907 72.7293 57.8705 72.4292 57.8705C71.6494 57.8705 71.2028 57.4571 71.2028 56.6707V54.9581H70.6162V54.2912H71.2028V53.4783H72.0358V54.2912H72.9887V54.9581H72.0358V56.6511C72.0358 56.9979 72.2089 57.1845 72.5291 57.1845C72.7027 57.1845 72.8693 57.1379 72.9957 57.038L73.2291 57.6307Z" fill="#E0E0E0"/>
<path d="M77.1265 56.3109H74.334C74.4338 56.8307 74.8674 57.1639 75.4871 57.1639C75.887 57.1639 76.2002 57.0375 76.4536 56.7775L76.9002 57.2909C76.58 57.6707 76.0802 57.8709 75.467 57.8709C74.2742 57.8709 73.501 57.1042 73.501 56.0449C73.501 54.9855 74.2808 54.2253 75.3406 54.2253C76.3803 54.2253 77.14 54.9519 77.14 56.0649C77.14 56.1307 77.1335 56.2306 77.1265 56.3109ZM74.3274 55.7579H76.3467C76.28 55.2445 75.887 54.8913 75.3406 54.8913C74.8006 54.8913 74.4072 55.2375 74.3274 55.7579Z" fill="#E0E0E0"/>
<path d="M79.9984 54.2246V55.0179C79.9251 55.0044 79.8649 54.9979 79.8052 54.9979C79.1719 54.9979 78.772 55.3712 78.772 56.0973V57.8235H77.939V54.2647H78.7318V54.7846C78.9717 54.4113 79.4048 54.2246 79.9984 54.2246Z" fill="#E0E0E0"/>
<path d="M85.9079 54.2646L84.2414 58.1104C83.9147 58.9168 83.4616 59.1632 82.8685 59.1632C82.5152 59.1632 82.1419 59.0433 81.9155 58.8366L82.2487 58.2234C82.4088 58.3769 82.6356 58.4698 82.8619 58.4698C83.155 58.4698 83.3286 58.3298 83.4887 57.9765L83.5484 57.8365L81.9953 54.2642H82.8615L83.981 56.8966L85.1075 54.2642H85.9079V54.2646Z" fill="#E0E0E0"/>
<path d="M86.0327 56.0441C86.0327 54.9778 86.8326 54.2246 87.926 54.2246C89.0324 54.2246 89.8253 54.9778 89.8253 56.0441C89.8253 57.1105 89.032 57.8702 87.926 57.8702C86.8326 57.8707 86.0327 57.1105 86.0327 56.0441ZM88.9858 56.0441C88.9858 55.3642 88.5326 54.9311 87.926 54.9311C87.3258 54.9311 86.8727 55.3647 86.8727 56.0441C86.8727 56.7241 87.3258 57.1571 87.926 57.1571C88.5322 57.1571 88.9858 56.7241 88.9858 56.0441Z" fill="#E0E0E0"/>
<path d="M94.0696 54.2646V57.8234H93.2763V57.3703C93.0098 57.697 92.5898 57.8701 92.1302 57.8701C91.2169 57.8701 90.5972 57.3703 90.5972 56.297V54.2642H91.4302V56.1836C91.4302 56.8299 91.7368 57.1365 92.2632 57.1365C92.8432 57.1365 93.2362 56.7767 93.2362 56.0636V54.2642H94.0696V54.2646Z" fill="#E0E0E0"/>
<path d="M97.22 54.2246V55.0179C97.1468 55.0044 97.0866 54.9979 97.0268 54.9979C96.3936 54.9979 95.9936 55.3712 95.9936 56.0973V57.8235H95.1606V54.2647H95.9535V54.7846C96.1934 54.4113 96.6269 54.2246 97.22 54.2246Z" fill="#E0E0E0"/>
<path d="M103.303 55.7842V57.824H102.47V55.8911C102.47 55.2583 102.157 54.9512 101.623 54.9512C101.03 54.9512 100.63 55.311 100.63 56.0246V57.824H99.7969V54.2652H100.59V54.7249C100.863 54.3982 101.297 54.2251 101.817 54.2251C102.67 54.2246 103.303 54.7114 103.303 55.7842Z" fill="#E0E0E0"/>
<path d="M107.34 55.738V57.824H106.554V57.391C106.354 57.6976 105.967 57.8707 105.434 57.8707C104.621 57.8707 104.108 57.4241 104.108 56.8044C104.108 56.2112 104.508 55.7446 105.587 55.7446H106.507V55.6914C106.507 55.2051 106.214 54.9181 105.621 54.9181C105.221 54.9181 104.807 55.0516 104.541 55.2714L104.214 54.6647C104.594 54.3716 105.148 54.2251 105.721 54.2251C106.747 54.2246 107.34 54.7114 107.34 55.738ZM106.507 56.711V56.298H105.647C105.081 56.298 104.928 56.5113 104.928 56.7712C104.928 57.0713 105.181 57.2645 105.608 57.2645C106.014 57.264 106.367 57.0774 106.507 56.711Z" fill="#E0E0E0"/>
<path d="M114.357 55.7842V57.824H113.524V55.8911C113.524 55.2583 113.231 54.9512 112.724 54.9512C112.177 54.9512 111.797 55.311 111.797 56.0176V57.824H110.964V55.8911C110.964 55.2583 110.671 54.9512 110.164 54.9512C109.611 54.9512 109.238 55.311 109.238 56.0176V57.824H108.404V54.2652H109.198V54.7184C109.464 54.3982 109.878 54.2251 110.364 54.2251C110.884 54.2251 111.317 54.4183 111.564 54.8182C111.85 54.4514 112.33 54.2251 112.896 54.2251C113.757 54.2246 114.357 54.7114 114.357 55.7842Z" fill="#E0E0E0"/>
<path d="M118.787 56.3109H115.994C116.094 56.8307 116.528 57.1639 117.147 57.1639C117.547 57.1639 117.86 57.0375 118.114 56.7775L118.56 57.2909C118.241 57.6707 117.74 57.8709 117.127 57.8709C115.934 57.8709 115.161 57.1042 115.161 56.0449C115.161 54.9855 115.941 54.2253 117 54.2253C118.04 54.2253 118.8 54.9519 118.8 56.0649C118.8 56.1307 118.793 56.2306 118.787 56.3109ZM115.987 55.7579H118.007C117.94 55.2445 117.547 54.8913 117 54.8913C116.46 54.8913 116.067 55.2375 115.987 55.7579Z" fill="#E0E0E0"/>
<path d="M124.942 55.7841V57.8239H124.109V55.891C124.109 55.2582 123.796 54.9511 123.263 54.9511C122.669 54.9511 122.27 55.3109 122.27 56.0245V57.8239H121.437V52.8787H122.27V54.6781C122.543 54.3851 122.963 54.225 123.456 54.225C124.309 54.2245 124.942 54.7113 124.942 55.7841Z" fill="#E0E0E0"/>
<path d="M129.366 56.3109H126.573C126.673 56.8307 127.107 57.1639 127.726 57.1639C128.126 57.1639 128.439 57.0375 128.693 56.7775L129.139 57.2909C128.82 57.6707 128.32 57.8709 127.706 57.8709C126.514 57.8709 125.74 57.1042 125.74 56.0449C125.74 54.9855 126.52 54.2253 127.58 54.2253C128.62 54.2253 129.379 54.9519 129.379 56.0649C129.379 56.1307 129.372 56.2306 129.366 56.3109ZM126.567 55.7579H128.586C128.519 55.2445 128.126 54.8913 127.58 54.8913C127.04 54.8913 126.646 55.2375 126.567 55.7579Z" fill="#E0E0E0"/>
<path d="M132.237 54.2246V55.0179C132.163 55.0044 132.103 54.9979 132.043 54.9979C131.41 54.9979 131.01 55.3712 131.01 56.0973V57.8235H130.177V54.2647H130.97V54.7846C131.21 54.4113 131.644 54.2246 132.237 54.2246Z" fill="#E0E0E0"/>
<path d="M136.241 56.3109H133.449C133.549 56.8307 133.982 57.1639 134.602 57.1639C135.002 57.1639 135.315 57.0375 135.568 56.7775L136.015 57.2909C135.695 57.6707 135.195 57.8709 134.582 57.8709C133.389 57.8709 132.616 57.1042 132.616 56.0449C132.616 54.9855 133.396 54.2253 134.455 54.2253C135.495 54.2253 136.255 54.9519 136.255 56.0649C136.255 56.1307 136.248 56.2306 136.241 56.3109ZM133.442 55.7579H135.461C135.395 55.2445 135.002 54.8913 134.455 54.8913C133.915 54.8913 133.522 55.2375 133.442 55.7579Z" fill="#E0E0E0"/>
<path d="M96.7108 95.8938H56.9359C51.4792 95.8938 47.0552 91.4703 47.0552 86.0131C47.0552 80.5559 51.4787 76.1323 56.9359 76.1323H96.7108C102.168 76.1323 106.592 80.5559 106.592 86.0131C106.592 91.4703 102.168 95.8938 96.7108 95.8938Z" fill="url(#paint0_linear_21_1523)"/>
<path d="M60.5799 49.3745H59.8164V61.9745H60.5799V49.3745Z" fill="url(#paint1_linear_21_1523)"/>
<path d="M59.7793 85.7639C59.7793 84.3042 60.897 83.249 62.3987 83.249C63.1953 83.249 63.8794 83.5351 64.3335 84.0662L63.7469 84.6182C63.3904 84.2342 62.9503 84.0452 62.4407 84.0452C61.4276 84.0452 60.6944 84.7578 60.6944 85.7639C60.6944 86.7696 61.428 87.4826 62.4407 87.4826C62.9508 87.4826 63.3908 87.2941 63.7469 86.903L64.3335 87.4616C63.8794 87.9927 63.1948 88.2787 62.3912 88.2787C60.897 88.2787 59.7793 87.2241 59.7793 85.7639Z" fill="#FAFAFA"/>
<path d="M62.3916 88.2904C61.6632 88.2904 60.9972 88.037 60.5166 87.5773C60.0336 87.1148 59.7676 86.4708 59.7676 85.7638C59.7676 85.0564 60.034 84.4124 60.5175 83.9504C60.9991 83.4907 61.6669 83.2373 62.3986 83.2373C63.199 83.2373 63.8896 83.529 64.3428 84.0586L64.3502 84.0675L64.3418 84.0754L63.7468 84.635L63.7384 84.6261C63.388 84.2486 62.9517 84.0572 62.4407 84.0572C61.9525 84.0572 61.5106 84.2271 61.196 84.5356C60.8801 84.8454 60.706 85.2818 60.706 85.7638C60.706 86.2459 60.8801 86.6822 61.196 86.9921C61.511 87.3006 61.953 87.4704 62.4407 87.4704C62.9535 87.4704 63.3903 87.2768 63.7384 86.895L63.7464 86.8857L63.7552 86.8941L64.3498 87.4606L64.3428 87.4695C63.8896 87.9987 63.1966 88.2904 62.3916 88.2904ZM62.3986 83.2611C61.673 83.2611 61.0108 83.5117 60.5338 83.9676C60.0546 84.4259 59.7909 85.0634 59.7909 85.7643C59.7909 86.4648 60.0546 87.1027 60.5329 87.561C61.0094 88.0169 61.6692 88.2675 62.3916 88.2675C63.1854 88.2675 63.8691 87.9824 64.3176 87.463L63.7473 86.9202C63.3959 87.301 62.9563 87.4947 62.4407 87.4947C61.4219 87.4947 60.6827 86.7672 60.6827 85.7643C60.6827 84.7619 61.4219 84.0339 62.4407 84.0339C62.954 84.0339 63.394 84.2252 63.7473 84.6023L64.3176 84.0661C63.8691 83.5462 63.1882 83.2611 62.3986 83.2611Z" fill="#263238"/>
<path d="M64.6782 86.3438C64.6782 85.2261 65.5164 84.437 66.662 84.437C67.8217 84.437 68.6528 85.2261 68.6528 86.3438C68.6528 87.4619 67.8217 88.2581 66.662 88.2581C65.5164 88.2576 64.6782 87.4615 64.6782 86.3438ZM67.7727 86.3438C67.7727 85.6317 67.2976 85.1776 66.662 85.1776C66.0334 85.1776 65.5584 85.6317 65.5584 86.3438C65.5584 87.0564 66.0334 87.5105 66.662 87.5105C67.2976 87.5105 67.7727 87.0564 67.7727 86.3438Z" fill="#FAFAFA"/>
<path d="M66.662 88.2697C65.5056 88.2697 64.6665 87.4596 64.6665 86.3438C64.6665 85.2322 65.5056 84.4253 66.662 84.4253C67.2266 84.4253 67.7376 84.6162 68.1002 84.9629C68.4642 85.3106 68.6644 85.801 68.6644 86.3438C68.6644 86.8874 68.4642 87.3793 68.1002 87.7284C67.7367 88.077 67.2262 88.2697 66.662 88.2697ZM66.662 84.4486C65.5191 84.4486 64.6898 85.2452 64.6898 86.3433C64.6898 87.4456 65.5191 88.2454 66.662 88.2454C67.2201 88.2454 67.725 88.056 68.0839 87.7106C68.4432 87.3662 68.6411 86.8804 68.6411 86.3428C68.6411 85.8066 68.4432 85.3218 68.0844 84.9788C67.7255 84.6367 67.2206 84.4486 66.662 84.4486ZM66.662 87.5221C66.0054 87.5221 65.5466 87.0372 65.5466 86.3438C65.5466 85.6503 66.0049 85.1659 66.662 85.1659C67.3228 85.1659 67.7843 85.6503 67.7843 86.3438C67.7843 87.0372 67.3228 87.5221 66.662 87.5221ZM66.662 85.1892C66.0194 85.1892 65.57 85.6638 65.57 86.3438C65.57 87.0237 66.0189 87.4988 66.662 87.4988C67.3092 87.4988 67.761 87.0237 67.761 86.3438C67.761 85.6638 67.3088 85.1892 66.662 85.1892Z" fill="#263238"/>
<path d="M73.1677 86.0715V88.2088H72.2946V86.183C72.2946 85.5194 71.9661 85.1984 71.4075 85.1984C70.7854 85.1984 70.3668 85.5754 70.3668 86.3226V88.2088H69.4937V84.4788H70.3248V84.9604C70.6113 84.6183 71.0649 84.4368 71.61 84.4368C72.5041 84.4372 73.1677 84.9468 73.1677 86.0715Z" fill="#FAFAFA"/>
<path d="M73.1788 88.2209H72.2824V86.1835C72.2824 85.5469 71.9795 85.2105 71.4069 85.2105C70.7531 85.2105 70.3774 85.6155 70.3774 86.323V88.2209H69.481V84.467H70.3354V84.9291C70.6215 84.6038 71.0728 84.425 71.609 84.425C72.0728 84.425 72.4611 84.5632 72.7313 84.8241C73.0281 85.1101 73.1784 85.5301 73.1784 86.0715V88.2209H73.1788ZM72.3057 88.1971H73.1555V86.0715C73.1555 85.0401 72.5918 84.4489 71.6094 84.4489C71.0667 84.4489 70.6136 84.6327 70.3331 84.9678L70.3126 84.9925V84.4909H69.5048V88.1971H70.3546V86.3225C70.3546 85.6113 70.748 85.1862 71.4069 85.1862C71.9949 85.1862 72.3057 85.531 72.3057 86.183V88.1971Z" fill="#263238"/>
<path d="M76.5226 88.0062C76.3131 88.1737 75.9985 88.2577 75.6845 88.2577C74.8669 88.2577 74.3993 87.8247 74.3993 87.0005V85.2053H73.7847V84.5067H74.3993V83.6545H75.2724V84.5067H76.2715V85.2053H75.2724V86.9795C75.2724 87.3426 75.4539 87.5382 75.7895 87.5382C75.971 87.5382 76.1455 87.4896 76.2781 87.3846L76.5226 88.0062Z" fill="#FAFAFA"/>
<path d="M75.6844 88.2698C74.8477 88.2698 74.3875 87.819 74.3875 87.0005V85.2174H73.7729V84.495H74.3875V83.6428H75.284V84.495H76.2831V85.2174H75.284V86.9795C75.284 87.3374 75.4585 87.5264 75.7894 87.5264C75.9793 87.5264 76.1459 87.4746 76.271 87.3757L76.2831 87.3659L76.2892 87.3804L76.5365 88.0099L76.53 88.0155C76.3284 88.1765 76.02 88.2698 75.6844 88.2698ZM73.7958 85.1936H74.4104V87.0005C74.4104 87.8041 74.8626 88.246 75.6844 88.246C76.0111 88.246 76.3107 88.1574 76.5085 88.0024L76.2729 87.4032C76.1455 87.4994 75.9784 87.5498 75.7894 87.5498C75.4487 87.5498 75.2607 87.3468 75.2607 86.979V85.1931H76.2598V84.5183H75.2607V83.6662H74.4109V84.5183H73.7963L73.7958 85.1936Z" fill="#263238"/>
<path d="M77.1245 83.34C77.1245 83.0469 77.362 82.8164 77.6831 82.8164C78.0042 82.8164 78.2422 83.0329 78.2422 83.319C78.2422 83.6265 78.0116 83.8641 77.6831 83.8641C77.362 83.8641 77.1245 83.6335 77.1245 83.34ZM77.2435 84.4787H78.1166V88.2087H77.2435V84.4787Z" fill="#FAFAFA"/>
<path d="M78.1283 88.2208H77.2318V84.4669H78.1283V88.2208ZM77.2547 88.197H78.1045V84.4907H77.2547V88.197ZM77.6831 83.8757C77.3578 83.8757 77.1128 83.6451 77.1128 83.3399C77.1128 83.0347 77.3578 82.8042 77.6831 82.8042C78.0083 82.8042 78.2538 83.0259 78.2538 83.3189C78.2538 83.6414 78.0139 83.8757 77.6831 83.8757ZM77.6831 82.828C77.3713 82.828 77.1361 83.0483 77.1361 83.3399C77.1361 83.6321 77.3713 83.8523 77.6831 83.8523C78.0004 83.8523 78.2305 83.6283 78.2305 83.3189C78.2305 83.0394 77.9953 82.828 77.6831 82.828Z" fill="#263238"/>
<path d="M82.9372 86.0715V88.2088H82.0641V86.183C82.0641 85.5194 81.7356 85.1984 81.177 85.1984C80.5549 85.1984 80.1358 85.5754 80.1358 86.3226V88.2088H79.2627V84.4788H80.0938V84.9604C80.3804 84.6183 80.834 84.4368 81.379 84.4368C82.2736 84.4372 82.9372 84.9468 82.9372 86.0715Z" fill="#FAFAFA"/>
<path d="M82.9488 88.2209H82.0524V86.1835C82.0524 85.5469 81.7495 85.2105 81.1769 85.2105C80.5231 85.2105 80.1474 85.6155 80.1474 86.323V88.2209H79.251V84.467H80.1054V84.9291C80.3915 84.6038 80.8428 84.425 81.3794 84.425C81.8433 84.425 82.2316 84.5632 82.5018 84.8241C82.7986 85.1101 82.9488 85.5301 82.9488 86.0715V88.2209ZM82.0752 88.1971H82.925V86.0715C82.925 85.0401 82.3613 84.4489 81.379 84.4489C80.8362 84.4489 80.3831 84.6327 80.1026 84.9678L80.0821 84.9925V84.4909H79.2738V88.1971H80.1236V86.3225C80.1236 85.6113 80.517 85.1862 81.176 85.1862C81.764 85.1862 82.0748 85.531 82.0748 86.183L82.0752 88.1971Z" fill="#263238"/>
<path d="M87.661 84.4788V88.2088H86.8299V87.7337C86.5504 88.0758 86.1103 88.2574 85.6282 88.2574C84.6711 88.2574 84.0215 87.7338 84.0215 86.6091V84.4788H84.8946V86.4906C84.8946 87.1682 85.2157 87.4897 85.7678 87.4897C86.3754 87.4897 86.7879 87.1122 86.7879 86.365V84.4792L87.661 84.4788Z" fill="#FAFAFA"/>
<path d="M85.6282 88.2699C85.1312 88.2699 84.7373 88.1332 84.4578 87.8639C84.1605 87.5779 84.0098 87.1555 84.0098 86.6095V84.467H84.9062V86.4905C84.9062 87.1364 85.2044 87.4775 85.7677 87.4775C86.4084 87.4775 86.7762 87.072 86.7762 86.3645V84.467H87.6726V88.2209H86.8182V87.7659C86.5428 88.0865 86.1112 88.2699 85.6282 88.2699ZM84.0331 84.4909V86.6095C84.0331 87.149 84.1815 87.5657 84.4741 87.8471C84.749 88.1117 85.1377 88.2456 85.6282 88.2456C86.1168 88.2456 86.5512 88.0566 86.8205 87.7267L86.841 87.7011V88.1971H87.6488V84.4909H86.799V86.365C86.799 87.0762 86.4136 87.5018 85.7677 87.5018C85.189 87.5018 84.8829 87.1522 84.8829 86.491V84.4913L84.0331 84.4909Z" fill="#263238"/>
<path d="M92.302 86.6233H89.3751C89.4801 87.1679 89.9337 87.5175 90.5838 87.5175C91.0028 87.5175 91.3314 87.3844 91.5964 87.1119L92.0645 87.65C91.729 88.0481 91.2054 88.2576 90.5628 88.2576C89.3121 88.2576 88.502 87.4545 88.502 86.3433C88.502 85.2327 89.3196 84.4365 90.4298 84.4365C91.5194 84.4365 92.316 85.1981 92.316 86.3643C92.3156 86.4348 92.309 86.5393 92.302 86.6233ZM89.3676 86.0433H91.4844C91.4149 85.5057 91.0024 85.1356 90.4298 85.1356C89.8637 85.1356 89.4516 85.4987 89.3676 86.0433Z" fill="#FAFAFA"/>
<path d="M90.5622 88.2697C89.9518 88.2697 89.4305 88.0816 89.0549 87.726C88.6904 87.3812 88.4897 86.8902 88.4897 86.3438C88.4897 85.2322 89.3055 84.4253 90.4292 84.4253C91.5469 84.4253 92.3267 85.2228 92.3267 86.3648C92.3267 86.4502 92.3169 86.5748 92.3127 86.6247L92.3117 86.6354H89.3881C89.4982 87.1726 89.9546 87.5058 90.5823 87.5058C90.9948 87.5058 91.3233 87.3746 91.5865 87.104L91.5954 87.0946L91.6038 87.1044L92.0784 87.6504L92.0719 87.6584C91.7359 88.0578 91.2132 88.2697 90.5622 88.2697ZM90.4297 84.4486C89.3195 84.4486 88.5135 85.2452 88.5135 86.3433C88.5135 86.8832 88.7119 87.3681 89.0712 87.7088C89.4427 88.0602 89.9583 88.2454 90.5627 88.2454C91.2025 88.2454 91.7163 88.0396 92.0495 87.65L91.5963 87.1292C91.3294 87.398 90.9985 87.5291 90.5841 87.5291C89.9387 87.5291 89.4711 87.1828 89.3643 86.6256L89.3615 86.6116H92.2917C92.2963 86.557 92.3047 86.4436 92.3047 86.3648C92.3038 85.2364 91.5333 84.4486 90.4297 84.4486ZM91.4974 86.0549H89.354L89.3559 86.0414C89.4417 85.4842 89.8631 85.1234 90.4292 85.1234C90.9957 85.1234 91.4241 85.4926 91.4955 86.0418L91.4974 86.0549ZM89.3815 86.0316H91.4713C91.3966 85.5019 90.9799 85.1472 90.4297 85.1472C89.8804 85.1472 89.4702 85.4935 89.3815 86.0316Z" fill="#263238"/>
<path d="M38.8742 8.75721C40.1005 8.75721 41.0946 7.7631 41.0946 6.5368C41.0946 5.31051 40.1005 4.31641 38.8742 4.31641C37.6479 4.31641 36.6538 5.31051 36.6538 6.5368C36.6538 7.7631 37.6479 8.75721 38.8742 8.75721Z" fill="white"/>
<path d="M47.0559 8.75721C48.2821 8.75721 49.2763 7.7631 49.2763 6.5368C49.2763 5.31051 48.2821 4.31641 47.0559 4.31641C45.8296 4.31641 44.8354 5.31051 44.8354 6.5368C44.8354 7.7631 45.8296 8.75721 47.0559 8.75721Z" fill="white"/>
<path d="M55.2375 8.75721C56.4638 8.75721 57.4579 7.7631 57.4579 6.5368C57.4579 5.31051 56.4638 4.31641 55.2375 4.31641C54.0112 4.31641 53.0171 5.31051 53.0171 6.5368C53.0171 7.7631 54.0112 8.75721 55.2375 8.75721Z" fill="white"/>
<path d="M32.477 108.004C35.3727 106.51 38.7822 106.316 41.9966 106.847C43.7237 107.133 45.5241 107.65 46.6992 108.946C47.8742 110.244 48.0968 112.526 46.7477 113.641C45.9446 114.305 44.8246 114.405 43.7825 114.393C41.2658 114.364 38.4742 113.921 36.4638 115.435C35.3167 116.299 34.5532 117.735 33.1817 118.16C31.84 118.576 30.3262 117.784 29.615 116.573C28.9038 115.362 28.88 113.848 29.2113 112.484C29.2113 112.484 29.5604 109.509 32.477 108.004Z" fill="#455A64"/>
<path d="M25.8431 95.1983C27.6137 97.7267 31.0549 96.8895 32.6504 95.3462C34.2459 93.8025 34.9203 91.5658 35.5339 89.4322C36.9367 84.5578 38.3507 79.4446 37.3077 74.4811C36.996 72.9971 36.4411 71.5173 35.3981 70.4164C34.3551 69.3156 32.7517 68.6608 31.2859 69.0482C29.5508 69.5064 28.4723 71.206 27.693 72.8226C25.4021 77.5742 24.1888 82.8419 24.1711 88.1171C24.1631 90.5806 24.4534 93.1641 25.8431 95.1983Z" fill="#455A64"/>
<path d="M20.981 98.8267C22.9032 96.5452 23.2682 93.2174 22.4128 90.3595C21.5574 87.5012 19.6249 85.0698 17.398 83.0846C14.7865 80.7574 11.7172 78.9462 8.41742 77.7861C7.11869 77.3297 5.74902 76.9694 4.37889 77.1001C3.00829 77.2308 1.62836 77.9312 0.989491 79.1506C0.0444905 80.9529 0.950758 83.1397 1.93076 84.9233C3.65742 88.0658 5.63142 91.0721 7.82896 93.9052C9.59669 96.1844 11.622 98.4328 14.3166 99.4628C17.0111 100.493 19.8097 100.372 21.2382 98.5033" fill="#455A64"/>
<path d="M25.7233 133.343C25.7564 133.345 25.8101 132.935 25.8834 132.194C25.9646 131.358 26.0672 130.308 26.1886 129.058C26.3346 127.739 26.5274 126.169 26.8942 124.459C27.2596 122.753 27.8312 120.905 28.5658 119.03C29.3264 117.167 30.2542 115.473 31.3378 114.118C32.4139 112.757 33.666 111.772 34.8424 111.204C36.0152 110.625 37.067 110.39 37.7936 110.286C38.5268 110.21 38.9374 110.153 38.9379 110.12C38.9384 110.087 38.5268 110.082 37.7736 110.102C37.0274 110.152 35.9321 110.341 34.6959 110.903C33.456 111.453 32.1278 112.453 30.999 113.842C29.8608 115.225 28.8994 116.956 28.1257 118.853C27.3786 120.761 26.8148 122.628 26.4658 124.371C26.1176 126.11 25.9585 127.698 25.8544 129.028C25.755 130.36 25.7172 131.438 25.699 132.183C25.6827 132.929 25.6911 133.341 25.7233 133.343Z" fill="#263238"/>
<path d="M25.9391 130.931C25.9555 130.93 25.9657 130.746 25.9699 130.397C25.9685 129.997 25.9676 129.492 25.9657 128.873C25.962 127.55 25.9629 125.635 26.0334 123.27C26.1505 118.542 26.5579 113.452 27.3443 106.277C28.0891 99.5295 29.0887 91.6774 30.1433 86.5725C30.3697 85.4115 30.5974 84.3666 30.8121 83.4519C31.0165 82.5349 31.191 81.7444 31.3595 81.1046C31.5041 80.5026 31.6222 80.0121 31.7155 79.6225C31.7921 79.2823 31.8247 79.1007 31.8089 79.0965C31.793 79.0919 31.7295 79.2641 31.6236 79.5963C31.5074 79.9799 31.3609 80.4634 31.1807 81.0575C30.9843 81.6912 30.7831 82.4766 30.5535 83.3899C30.3141 84.3008 30.0626 85.3433 29.8148 86.5025C28.7709 91.1281 27.6663 97.5933 26.872 104.786C26.0838 111.976 25.7291 118.523 25.6974 123.264C25.6694 125.634 25.7198 127.553 25.78 128.877C25.8178 129.497 25.8486 130.001 25.8729 130.401C25.9009 130.749 25.9228 130.932 25.9391 130.931Z" fill="#263238"/>
<path d="M25.9708 118.303C26.004 118.302 25.9984 117.736 25.9597 116.711C25.9009 115.687 25.7604 114.208 25.472 112.396C25.1663 110.588 24.7393 108.441 24.0687 106.109C23.778 105.043 23.0948 102.488 21.44 98.6698C19.2592 93.4968 16.2968 89.2679 13.7194 86.648C13.1151 85.9527 12.4417 85.451 11.9032 84.9596C11.6246 84.724 11.3782 84.4892 11.1271 84.303C10.8751 84.129 10.6399 83.9675 10.4224 83.8172C9.57405 83.2372 9.09898 82.931 9.08171 82.959C9.00565 83.0622 10.9815 84.2256 13.4768 86.88C15.9618 89.5288 18.8416 93.7288 21.0046 98.8584C22.2109 101.641 23.0518 104.122 23.6482 106.229C24.3375 108.539 24.7958 110.664 25.1416 112.453C25.4706 114.247 25.661 115.712 25.7758 116.726C25.8705 117.742 25.9382 118.305 25.9708 118.303Z" fill="#263238"/>
<path d="M13.7661 140.578L17.5312 159.785H35.307L38.5657 140.578H13.7661Z" fill="url(#paint2_linear_21_1523)"/>
<path d="M41.2234 133.745H11.6157V140.577H41.2234V133.745Z" fill="url(#paint3_linear_21_1523)"/>
<path d="M37.6567 146.243C37.6613 146.247 37.6277 146.301 37.5568 146.402C37.4718 146.519 37.3668 146.665 37.2376 146.843C36.9338 147.248 36.517 147.804 35.9921 148.503L35.9365 148.577L35.8828 148.5C35.0998 147.372 34.0544 145.866 32.8229 144.092H32.9988C32.0889 145.434 31.0748 146.93 29.9865 148.535L29.8922 148.674L29.7868 148.543C28.6752 147.165 27.4679 145.669 26.214 144.115L26.4198 144.112C26.3577 144.194 26.2905 144.281 26.2233 144.369C25.1154 145.817 24.0431 147.217 23.029 148.541L22.9226 148.68L22.8241 148.535C21.7396 146.937 20.7264 145.444 19.8099 144.094L19.9854 144.103C18.5 145.865 17.2404 147.36 16.2735 148.507L16.2077 148.586L16.1573 148.498C15.6682 147.641 15.2781 146.959 14.9953 146.464C14.874 146.243 14.7755 146.065 14.6971 145.923C14.6313 145.799 14.6005 145.733 14.6061 145.729C14.6117 145.726 14.6542 145.784 14.7307 145.901C14.8175 146.038 14.9262 146.21 15.0606 146.422C15.3574 146.908 15.7672 147.579 16.2805 148.419L16.1643 148.409C17.1154 147.248 18.3548 145.735 19.8164 143.951L19.9084 143.838L19.9919 143.959C20.9164 145.303 21.9388 146.79 23.0327 148.381L22.8279 148.375C23.8396 147.049 24.9092 145.647 26.0147 144.198C26.0819 144.11 26.1491 144.022 26.2112 143.941L26.3129 143.808L26.4174 143.938C27.6676 145.494 28.8712 146.994 29.98 148.374L29.7798 148.382C30.8792 146.784 31.9031 145.297 32.822 143.961L32.9111 143.832L32.9984 143.961C34.2038 145.754 35.2272 147.277 35.9935 148.417L35.8847 148.413C36.4307 147.731 36.8642 147.19 37.1802 146.795C37.3206 146.626 37.435 146.488 37.5269 146.377C37.6081 146.285 37.652 146.239 37.6567 146.243Z" fill="white"/>
<path d="M38.8759 140.463C38.8759 140.54 33.2959 140.602 26.4145 140.602C19.5302 140.602 13.9517 140.54 13.9517 140.463C13.9517 140.387 19.5302 140.324 26.4145 140.324C33.2959 140.324 38.8759 140.387 38.8759 140.463Z" fill="#263238"/>
<path d="M204.056 81.5921L207.67 85.4705C207.67 85.4705 222.785 110.818 224.944 112.446C227.103 114.074 230.709 115.949 232.873 115.661C235.037 115.372 240.778 111.477 240.778 111.477L235.765 96.0755L230.061 94.5136L214.663 76.6692L204.056 81.5921Z" fill="#FFBE9D"/>
<path d="M206.948 84.6474C205.664 83.1013 202.354 79.9238 202.354 79.9238L200.96 78.4347C200.895 78.5546 200.847 78.6867 200.805 78.8164C200.724 79.0633 200.641 79.3241 200.45 79.5001C200.089 79.8342 199.501 79.7255 199.071 79.4847C198.172 78.9807 197.581 77.9708 197.581 76.9404C197.58 75.9501 198.129 74.9837 198.969 74.461C199.04 74.2099 199.159 73.9561 199.352 73.7083C200.537 72.1888 203.31 72.3927 203.31 72.3927L202.895 71.8029C202.895 71.8029 201.004 70.6245 197.859 72.6186C197.39 72.9163 196.824 73.0563 196.275 72.9639C195.94 72.9075 195.614 72.7642 195.43 72.4515C194.971 71.6727 195.404 71.1444 197.35 69.8727C199.297 68.6011 201.593 68.0196 203.051 68.5605C204.51 69.1013 205.045 69.4075 205.045 69.4075C205.045 69.4075 201.611 63.8644 201.408 63.5051C200.82 62.4649 200.792 61.3295 201.447 60.8684C201.868 60.5725 202.615 60.5105 203.336 61.7005C203.961 62.7304 211.702 72.4627 211.702 72.4627L214.874 76.9703L206.948 84.6474Z" fill="#FFBE9D"/>
<path d="M213.726 77.1438C213.24 77.659 212.38 77.5955 211.751 77.2707C211.121 76.9459 210.621 76.4172 210.016 76.0476C208.208 74.943 205.737 75.3943 203.984 74.2043C203.74 74.0386 203.49 73.7572 203.601 73.4833C203.703 73.2294 204.034 73.1795 204.308 73.1683C206.645 73.0721 208.982 72.976 211.319 72.8794" fill="#FFBE9D"/>
<path d="M211.32 72.8794C211.319 72.8519 211.048 72.8365 210.558 72.8327C210.069 72.829 209.362 72.8365 208.488 72.8542C207.579 72.8789 206.547 72.9069 205.42 72.9377C205.13 72.9475 204.835 72.9573 204.533 72.9676C204.253 72.9984 203.873 72.9144 203.519 73.2481C203.351 73.4231 203.344 73.7245 203.447 73.9079C203.542 74.0979 203.681 74.2271 203.828 74.3377C204.119 74.5319 204.417 74.698 204.742 74.8221C206.042 75.3238 207.34 75.3462 208.437 75.6225C208.987 75.7517 209.491 75.9314 209.916 76.1825C210.341 76.4326 210.703 76.7471 211.067 77.0024C211.777 77.5521 212.585 77.7122 213.081 77.5699C213.592 77.4359 213.743 77.1443 213.725 77.1443C213.701 77.1116 213.516 77.3449 213.051 77.4168C212.586 77.4943 211.897 77.3263 211.235 76.7747C210.894 76.5152 210.542 76.1848 210.088 75.8987C209.634 75.6127 209.096 75.4092 208.525 75.2645C207.387 74.9617 206.091 74.9192 204.89 74.4507C204.591 74.3382 204.312 74.1805 204.062 74.0167C203.824 73.8491 203.696 73.6093 203.814 73.5061C203.925 73.3736 204.247 73.3596 204.548 73.3503C204.849 73.3358 205.144 73.3213 205.434 73.3069C206.559 73.2448 207.591 73.1879 208.498 73.1375C209.371 73.0833 210.076 73.0329 210.563 72.9886C211.052 72.9447 211.321 72.9069 211.32 72.8794Z" fill="#EB996E"/>
<path d="M203.402 72.3768C203.363 72.4132 203.139 71.8751 202.384 71.527C202.014 71.358 201.517 71.2964 200.988 71.414C200.456 71.5246 199.908 71.7902 199.352 72.1126C198.793 72.4332 198.248 72.7538 197.696 72.9321C197.147 73.108 196.611 73.1631 196.171 73.06C195.723 72.9624 195.447 72.6526 195.356 72.4276C195.259 72.198 195.265 72.0594 195.275 72.058C195.299 72.0515 195.329 72.1831 195.445 72.3805C195.559 72.5751 195.809 72.815 196.209 72.8812C196.603 72.9522 197.106 72.885 197.619 72.7067C198.135 72.527 198.66 72.212 199.224 71.8882C199.786 71.5624 200.367 71.2862 200.941 71.1807C201.514 71.0659 202.07 71.155 202.462 71.3622C202.859 71.5638 203.104 71.8373 203.241 72.0366C203.377 72.2391 203.415 72.3702 203.402 72.3768Z" fill="#EB996E"/>
<path d="M201.187 63.1006C201.22 63.0838 201.472 63.5094 201.877 64.1982C202.332 64.9626 202.872 65.874 203.471 66.8806C204.084 67.8788 204.639 68.7818 205.104 69.5396C205.525 70.2182 205.784 70.6396 205.755 70.661C205.727 70.6811 205.413 70.2956 204.952 69.6404C204.489 68.9862 203.882 68.0603 203.249 67.0145C202.618 65.9682 202.081 64.9999 201.717 64.2864C201.352 63.5728 201.156 63.1164 201.187 63.1006Z" fill="#EB996E"/>
<path d="M202.909 74.3967C202.91 74.4163 202.764 74.4303 202.509 74.4681C202.267 74.5087 201.861 74.5839 201.629 74.9479C201.515 75.1233 201.512 75.3557 201.622 75.5858C201.724 75.8168 201.916 76.0296 202.113 76.2737C202.305 76.5117 202.525 76.8285 202.511 77.2257C202.492 77.6116 202.262 77.97 201.931 78.1823C201.592 78.4007 201.178 78.4245 200.83 78.3354C200.479 78.243 200.173 78.0666 199.947 77.8113C199.537 77.3148 199.289 76.8094 199.102 76.3731C198.923 75.9339 198.836 75.5531 198.827 75.2843C198.82 75.0141 198.878 74.8713 198.889 74.8755C198.912 74.8797 198.89 75.023 198.927 75.2745C198.965 75.5265 199.075 75.8835 199.269 76.2993C199.468 76.7091 199.736 77.2047 200.124 77.6522C200.496 78.0563 201.243 78.3107 201.792 77.9649C202.059 77.795 202.242 77.5019 202.258 77.214C202.274 76.9237 202.109 76.6563 201.925 76.4202C201.742 76.1813 201.539 75.9475 201.425 75.6698C201.3 75.4024 201.315 75.0617 201.475 74.8489C201.792 74.4149 202.252 74.3827 202.5 74.3678C202.765 74.3603 202.908 74.3809 202.909 74.3967Z" fill="#EB996E"/>
<path d="M200.818 78.1109C200.827 78.1025 200.93 78.2023 200.978 78.4441C201.024 78.6769 200.992 79.0731 200.679 79.4091C200.374 79.7372 199.804 79.9225 199.231 79.7745C198.658 79.6313 198.138 79.201 197.795 78.6401C197.451 78.0754 197.318 77.4319 197.366 76.8639C197.41 76.2913 197.632 75.8097 197.875 75.4625C198.12 75.1121 198.39 74.8899 198.586 74.7602C198.784 74.6314 198.908 74.5885 198.915 74.602C198.947 74.6417 198.46 74.8773 198.027 75.5633C197.817 75.9026 197.631 76.3562 197.603 76.8803C197.571 77.4015 197.701 77.99 198.015 78.5057C198.327 79.019 198.798 79.4101 199.291 79.5445C199.781 79.684 200.277 79.5421 200.55 79.2794C200.828 79.0143 200.891 78.6695 200.877 78.4562C200.865 78.2355 200.797 78.1211 200.818 78.1109Z" fill="#EB996E"/>
<path d="M206.917 79.4997C206.904 79.4805 207.079 79.3181 207.453 79.1833C207.821 79.0498 208.41 78.9658 209.04 79.1795L208.886 79.348C208.768 79.0997 208.654 78.8235 208.557 78.5309C208.007 76.9008 208.229 75.4877 208.291 75.5083C208.369 75.5069 208.271 76.8812 208.802 78.4492C208.896 78.7325 209.002 79.0008 209.11 79.2439L209.229 79.5127L208.956 79.4119C208.396 79.2057 207.854 79.2467 207.497 79.3321C207.135 79.418 206.934 79.5295 206.917 79.4997Z" fill="#EB996E"/>
<path d="M201.045 70.086C201.113 70.08 201.141 70.6101 200.78 71.1174C200.422 71.6279 199.913 71.7782 199.896 71.7119C199.864 71.6442 200.26 71.4142 200.569 70.9685C200.886 70.5284 200.971 70.0781 201.045 70.086Z" fill="#EB996E"/>
<path d="M195.052 158.939C195.052 158.939 188.968 160.254 183.537 159.439C178.445 158.676 167.044 159.466 167.048 166.177C167.053 173.662 182.256 171.813 188.188 170.626C194.12 169.44 200.027 168.365 200.027 168.365L195.052 158.939Z" fill="#455A64"/>
<path d="M181.398 168.528C181.319 168.546 180.99 167.379 180.663 165.923C180.336 164.467 180.134 163.272 180.213 163.254C180.291 163.237 180.62 164.403 180.948 165.859C181.275 167.315 181.476 168.51 181.398 168.528Z" fill="#263238"/>
<path d="M183.472 168.627C183.393 168.638 183.163 167.442 182.959 165.956C182.755 164.47 182.655 163.257 182.734 163.245C182.814 163.234 183.044 164.43 183.248 165.917C183.452 167.402 183.552 168.616 183.472 168.627Z" fill="#263238"/>
<path d="M185.476 167.844C185.396 167.854 185.205 166.809 185.048 165.51C184.891 164.212 184.829 163.151 184.909 163.142C184.989 163.132 185.18 164.177 185.337 165.475C185.494 166.774 185.556 167.834 185.476 167.844Z" fill="#263238"/>
<path d="M188.624 167.059C188.553 167.09 188.121 166.217 187.841 165.055C187.557 163.894 187.541 162.92 187.618 162.915C187.701 162.907 187.846 163.85 188.124 164.986C188.398 166.124 188.702 167.028 188.624 167.059Z" fill="#263238"/>
<path d="M189.298 164.323C189.297 164.306 189.578 164.258 190.093 164.27C190.606 164.285 191.359 164.368 192.229 164.688C192.449 164.77 192.677 164.876 192.887 165.042C193.095 165.203 193.291 165.463 193.299 165.784C193.305 166.446 192.579 166.923 191.921 166.785C191.257 166.658 190.751 166.171 190.333 165.654C189.91 165.124 189.604 164.477 189.435 163.782C189.101 162.386 189.349 160.942 190.105 159.906C190.215 159.782 190.366 159.663 190.556 159.635C190.741 159.603 190.94 159.675 191.062 159.792C191.311 160.03 191.399 160.328 191.443 160.609C191.514 161.158 191.475 161.678 191.363 162.131C191.144 163.045 190.687 163.678 190.337 164.051C190.157 164.237 190.002 164.366 189.892 164.445C189.781 164.523 189.721 164.559 189.714 164.551C189.698 164.53 189.926 164.36 190.252 163.976C190.568 163.591 190.979 162.963 191.162 162.086C191.256 161.652 191.28 161.158 191.204 160.645C191.165 160.403 191.068 160.141 190.893 159.985C190.721 159.827 190.475 159.871 190.306 160.084C189.649 161.008 189.394 162.406 189.718 163.714C189.878 164.37 190.164 164.979 190.558 165.478C190.946 165.97 191.425 166.416 191.969 166.52C192.489 166.648 193.068 166.242 193.057 165.789C193.056 165.563 192.922 165.36 192.745 165.215C192.568 165.068 192.359 164.962 192.155 164.879C191.319 164.545 190.589 164.431 190.086 164.383C189.582 164.337 189.299 164.347 189.298 164.323Z" fill="#263238"/>
<path d="M199.424 167.375C199.425 167.379 199.373 167.396 199.271 167.423C199.153 167.453 199.002 167.49 198.815 167.537C198.391 167.633 197.802 167.768 197.051 167.939C195.516 168.276 193.291 168.75 190.525 169.284C187.759 169.814 184.456 170.421 180.752 170.925C178.906 171.173 176.928 171.398 174.881 171.218C173.859 171.143 172.819 170.967 171.805 170.63C171.304 170.449 170.799 170.253 170.329 169.974C169.858 169.695 169.405 169.391 169.033 168.93L169.055 168.955C168.867 168.773 168.671 168.565 168.526 168.32C167.905 167.326 167.884 166.092 168.217 165.044C168.558 163.974 169.32 163.121 170.167 162.495C171.026 161.87 171.981 161.434 172.939 161.121C173.425 160.983 173.897 160.817 174.378 160.708C174.861 160.612 175.333 160.484 175.809 160.418C179.622 159.816 183.09 160.122 185.972 160.123C187.416 160.149 188.721 160.11 189.864 160.04C191.007 159.954 191.986 159.825 192.777 159.672C193.169 159.589 193.519 159.516 193.827 159.452C194.12 159.368 194.371 159.296 194.582 159.237C194.774 159.184 194.928 159.141 195.049 159.108C195.155 159.081 195.21 159.069 195.211 159.074C195.213 159.078 195.161 159.1 195.058 159.136C194.939 159.177 194.788 159.228 194.6 159.293C194.39 159.36 194.14 159.441 193.849 159.536C193.542 159.608 193.192 159.691 192.8 159.784C192.008 159.954 191.025 160.101 189.878 160.203C188.73 160.289 187.418 160.343 185.971 160.329C183.083 160.353 179.617 160.072 175.855 160.683C175.384 160.75 174.92 160.878 174.444 160.974C173.97 161.083 173.506 161.249 173.029 161.385C172.089 161.695 171.161 162.122 170.337 162.725C169.524 163.328 168.808 164.139 168.493 165.133C168.182 166.114 168.209 167.268 168.773 168.165C168.903 168.387 169.081 168.573 169.249 168.738L169.259 168.747L169.272 168.763C169.58 169.146 170.03 169.464 170.474 169.722C170.923 169.99 171.412 170.179 171.897 170.355C172.881 170.684 173.899 170.859 174.905 170.935C176.92 171.116 178.87 170.901 180.718 170.661C184.414 170.172 187.719 169.587 190.488 169.083C193.256 168.575 195.487 168.132 197.028 167.829C197.783 167.68 198.376 167.564 198.802 167.48C198.992 167.445 199.144 167.416 199.264 167.394C199.369 167.377 199.423 167.37 199.424 167.375Z" fill="#263238"/>
<path d="M177.179 170.979C177.136 170.98 177.101 170.384 177.031 169.424C176.963 168.465 176.848 167.142 176.654 165.688C176.459 164.235 176.221 162.929 176.035 161.985C175.849 161.041 175.726 160.457 175.768 160.446C175.804 160.436 175.997 161.003 176.236 161.94C176.474 162.876 176.746 164.186 176.943 165.65C177.138 167.113 177.221 168.449 177.237 169.415C177.254 170.381 177.216 170.979 177.179 170.979Z" fill="#263238"/>
<g opacity="0.4">
<path d="M193.179 159.263L197.034 168.919L200.026 168.365L194.296 158.939L193.179 159.263Z" fill="black"/>
</g>
<path d="M232.289 136.734L241.344 116.532L236.102 99.1976C234.512 93.9406 234.883 88.2851 237.148 83.2815L245.986 66.1501L253.878 63.3371L272.397 60.8684C272.725 60.9776 273.654 61.0327 279.139 62.8559C283.748 64.3885 287.652 67.5273 290.139 71.6997L275.178 115.337C275.178 115.337 285.325 137.539 284.053 147.718L232.289 136.734Z" fill="url(#paint4_linear_21_1523)"/>
<path d="M247.469 65.6997C247.469 65.6997 237.11 67.9929 233.334 82.1282L228.687 97.1801L237.188 97.7037L247.469 65.6997Z" fill="url(#paint5_linear_21_1523)"/>
<path d="M236.418 98.1934C236.411 98.1962 236.379 98.1239 236.324 97.9835C236.272 97.8421 236.185 97.6367 236.1 97.3628C235.937 96.814 235.739 96.002 235.662 94.9763C235.495 92.9327 235.901 90.0328 237.255 87.195C237.592 86.489 237.97 85.8165 238.35 85.1912C238.723 84.5593 239.08 83.948 239.401 83.3563C240.05 82.1765 240.505 81.0532 240.824 80.0863C241.144 79.1189 241.374 78.3251 241.543 77.7791C241.622 77.5252 241.687 77.318 241.739 77.1514C241.786 77.0086 241.814 76.9344 241.822 76.9363C241.829 76.9382 241.815 77.0161 241.781 77.1631C241.739 77.3325 241.687 77.5435 241.623 77.802C241.48 78.355 241.272 79.1553 240.969 80.1335C240.667 81.1107 240.22 82.2573 239.576 83.4501C239.258 84.0483 238.903 84.6634 238.532 85.298C238.151 85.9304 237.784 86.5865 237.449 87.287C236.112 90.0921 235.689 92.9458 235.813 94.9665C235.87 95.981 236.043 96.7883 236.181 97.3399C236.337 97.8859 236.435 98.1869 236.418 98.1934Z" fill="#263238"/>
<path d="M210.706 145.021C210.658 145.085 205.799 141.543 199.854 137.109C193.908 132.674 189.128 129.027 189.176 128.963C189.224 128.898 194.082 132.44 200.028 136.875C205.973 141.309 210.754 144.957 210.706 145.021Z" fill="#455A64"/>
<path d="M283.215 145.689L268.515 133.605C266.894 124.602 258.599 117.875 248.983 118.75C245.359 119.08 241.917 120.491 239.104 122.799L230.583 129.478C217.336 125.865 197.199 120.219 186.851 117.309C182.619 116.119 178.082 116.806 174.392 119.195L174.198 119.32C168.781 122.826 166.145 129.353 167.607 135.638C168.536 139.628 171.022 143.077 174.516 145.218C179.743 148.42 187.839 153.36 194.799 157.522L193.876 158.246L200.027 168.365L212.691 164.46C221.252 163.239 239.326 160.888 239.326 160.888L234.157 157.842L235.34 157.477C245.183 165.863 257.219 169.724 272.121 163.218C279.475 159.771 284.066 151.487 283.215 145.689Z" fill="#263238"/>
<path d="M258.027 144.34C258.03 144.344 257.989 144.382 257.907 144.452C257.811 144.531 257.69 144.631 257.537 144.756C257.192 145.032 256.71 145.416 256.097 145.905C255.781 146.155 255.432 146.43 255.052 146.731C254.67 147.034 254.22 147.314 253.756 147.642C253.286 147.964 252.784 148.308 252.253 148.672C251.986 148.853 251.715 149.046 251.43 149.23C251.138 149.406 250.838 149.586 250.532 149.771C249.303 150.504 247.976 151.345 246.473 152.104C245.727 152.494 244.966 152.919 244.163 153.317C243.352 153.701 242.518 154.096 241.663 154.502C238.22 156.071 234.363 157.65 230.229 159.056C221.968 161.903 214.33 163.952 208.86 165.61C207.488 166.014 206.252 166.392 205.17 166.734C204.085 167.069 203.15 167.358 202.394 167.615C201.649 167.857 201.063 168.047 200.643 168.184C200.455 168.242 200.304 168.289 200.185 168.325C200.081 168.355 200.027 168.368 200.025 168.364C200.024 168.359 200.074 168.337 200.175 168.297C200.291 168.253 200.439 168.198 200.623 168.128C201.04 167.98 201.62 167.771 202.357 167.507C203.109 167.233 204.039 166.928 205.12 166.578C206.199 166.221 207.432 165.829 208.8 165.413C214.258 163.703 221.886 161.622 230.133 158.78C234.261 157.376 238.11 155.809 241.55 154.257C242.405 153.857 243.238 153.466 244.048 153.087C244.852 152.694 245.612 152.275 246.358 151.89C247.863 151.142 249.191 150.315 250.424 149.594C250.731 149.413 251.031 149.236 251.324 149.064C251.611 148.883 251.882 148.693 252.151 148.516C252.686 148.159 253.189 147.822 253.662 147.507C254.13 147.186 254.583 146.913 254.969 146.617C255.354 146.325 255.708 146.057 256.028 145.814C256.654 145.344 257.146 144.974 257.5 144.709C257.659 144.593 257.787 144.5 257.887 144.427C257.977 144.366 258.023 144.336 258.027 144.34Z" fill="#455A64"/>
<path d="M259.124 149.071C259.132 149.09 258.97 149.174 258.668 149.31C258.368 149.448 257.925 149.628 257.371 149.834C256.263 150.247 254.7 150.736 252.936 151.117C251.169 151.495 249.543 151.691 248.364 151.769C247.775 151.809 247.296 151.827 246.966 151.824C246.636 151.824 246.453 151.814 246.452 151.794C246.45 151.749 247.177 151.695 248.345 151.564C249.513 151.434 251.122 151.207 252.874 150.832C254.626 150.454 256.185 150 257.304 149.639C258.422 149.279 259.108 149.03 259.124 149.071Z" fill="#455A64"/>
<path d="M237.294 124.499C237.343 124.563 227.663 132.17 215.675 141.487C203.683 150.808 193.925 158.309 193.876 158.246C193.826 158.182 203.504 150.578 215.496 141.257C227.484 131.939 237.244 124.436 237.294 124.499Z" fill="#455A64"/>
<path d="M272.104 157.143C272.093 157.143 272.083 157.034 272.074 156.828C272.067 156.584 272.06 156.287 272.05 155.926C272.042 155.143 272.008 154.01 271.94 152.613C271.806 149.818 271.453 145.963 270.67 141.766C269.881 137.57 268.816 133.847 267.929 131.194C267.487 129.866 267.109 128.798 266.833 128.065C266.712 127.725 266.611 127.445 266.529 127.216C266.463 127.02 266.433 126.915 266.443 126.911C266.453 126.907 266.503 127.003 266.589 127.191C266.687 127.415 266.806 127.688 266.951 128.019C267.263 128.738 267.675 129.797 268.146 131.119C269.091 133.761 270.196 137.491 270.989 141.706C271.774 145.921 272.094 149.798 272.168 152.603C272.208 154.006 272.207 155.142 272.176 155.926C272.161 156.287 272.149 156.585 272.139 156.829C272.127 157.035 272.115 157.143 272.104 157.143Z" fill="#455A64"/>
<path d="M234.77 156.99C234.774 156.985 234.817 157.017 234.896 157.083C234.989 157.161 235.103 157.258 235.243 157.378C235.549 157.634 235.974 158.043 236.562 158.522C237.742 159.471 239.499 160.798 241.876 162.096C244.25 163.391 247.256 164.629 250.742 165.43C251.175 165.546 251.62 165.623 252.072 165.701C252.522 165.779 252.977 165.869 253.439 165.94C254.369 166.037 255.314 166.194 256.287 166.219C258.227 166.362 260.248 166.28 262.294 166.04C262.804 165.969 263.312 165.898 263.816 165.828C264.315 165.726 264.811 165.625 265.302 165.525C266.287 165.326 267.239 165.051 268.165 164.757C270.012 164.151 271.736 163.393 273.283 162.502C276.395 160.737 278.732 158.413 280.221 156.166C281.736 153.922 282.443 151.809 282.783 150.342C282.948 149.604 283.036 149.021 283.083 148.626C283.105 148.443 283.123 148.295 283.138 148.174C283.152 148.073 283.162 148.021 283.167 148.021C283.173 148.022 283.174 148.074 283.171 148.177C283.165 148.298 283.157 148.448 283.148 148.632C283.121 149.032 283.054 149.62 282.906 150.369C282.602 151.855 281.921 154.004 280.412 156.292C278.93 158.583 276.574 160.96 273.433 162.76C271.871 163.669 270.129 164.441 268.264 165.058C267.329 165.357 266.367 165.637 265.373 165.838C264.876 165.94 264.375 166.043 263.872 166.146C263.363 166.217 262.85 166.288 262.334 166.36C260.268 166.603 258.227 166.683 256.269 166.535C255.286 166.507 254.333 166.346 253.395 166.246C252.929 166.173 252.471 166.08 252.016 166C251.561 165.919 251.112 165.838 250.677 165.72C247.163 164.896 244.142 163.625 241.767 162.296C239.386 160.963 237.641 159.6 236.481 158.617C235.904 158.122 235.491 157.696 235.198 157.424C235.067 157.295 234.96 157.19 234.873 157.105C234.801 157.033 234.766 156.993 234.77 156.99Z" fill="#455A64"/>
<path d="M241.721 159.984C239.17 158.623 236.306 159.427 233.864 160.25C232.239 160.798 230.551 161.665 228.901 161.2C227.708 160.864 226.82 159.897 225.909 159.057C222.233 155.667 217.163 153.817 212.16 154.131C210.738 154.22 209.349 154.792 208.384 155.838C205.878 158.552 207.768 162.084 210.007 164.367C213.961 168.396 219.344 170.993 224.959 171.579C229.625 172.066 236.041 171.421 240.774 169.395C243.692 168.146 245.189 164.704 243.658 161.924C243.212 161.113 242.56 160.431 241.721 159.984Z" fill="#455A64"/>
<g opacity="0.4">
<path d="M241.716 162.156C239.165 160.795 236.3 161.6 233.859 162.423C232.234 162.97 230.546 163.837 228.896 163.373C227.702 163.037 226.815 162.07 225.903 161.229C222.227 157.839 217.158 155.99 212.154 156.303C210.733 156.392 209.345 156.964 208.379 158.01C207.824 158.611 207.494 159.254 207.327 159.913C207.698 161.544 208.796 163.137 210.002 164.367C213.956 168.396 219.339 170.993 224.954 171.579C229.62 172.067 236.036 171.422 240.769 169.395C242.524 168.645 243.757 167.099 244.135 165.384C244.037 164.947 243.883 164.514 243.653 164.096C243.206 163.286 242.554 162.603 241.716 162.156Z" fill="black"/>
</g>
<path d="M244.135 165.383C244.088 165.399 244.101 164.76 243.51 163.872C243.213 163.438 242.772 162.949 242.145 162.537C241.527 162.119 240.727 161.758 239.799 161.639C237.905 161.416 235.71 162.214 233.271 162.874C232.066 163.193 230.749 163.681 229.308 163.5C228.604 163.409 227.899 163.175 227.27 162.794C226.643 162.419 226.073 161.955 225.518 161.475C223.416 159.424 220.924 158.139 218.541 157.329C217.348 156.929 216.177 156.666 215.069 156.523C213.96 156.377 212.916 156.359 211.981 156.505C211.048 156.65 210.237 156.957 209.593 157.339C208.951 157.727 208.475 158.178 208.13 158.579C207.453 159.399 207.224 159.96 207.188 159.939C207.188 159.939 207.368 159.358 208.027 158.494C208.363 158.071 208.839 157.593 209.492 157.175C210.148 156.765 210.982 156.431 211.942 156.266C212.902 156.099 213.977 156.105 215.104 156.241C216.233 156.374 217.426 156.631 218.64 157.029C219.856 157.425 221.09 157.965 222.303 158.646C222.903 158.995 223.514 159.357 224.085 159.806C224.653 160.252 225.191 160.74 225.742 161.216C226.292 161.692 226.849 162.143 227.445 162.501C228.036 162.862 228.688 163.077 229.351 163.167C230.687 163.344 231.967 162.887 233.189 162.569C235.616 161.934 237.849 161.139 239.829 161.399C241.795 161.712 243.061 162.892 243.622 163.8C243.909 164.263 244.037 164.673 244.094 164.952C244.141 165.233 244.144 165.383 244.135 165.383Z" fill="#263238"/>
<path d="M244.135 165.383C244.088 165.399 244.101 164.76 243.51 163.872C243.213 163.438 242.772 162.949 242.145 162.537C241.527 162.119 240.727 161.758 239.799 161.639C237.905 161.416 235.71 162.214 233.271 162.874C232.066 163.193 230.749 163.681 229.308 163.5C228.604 163.409 227.899 163.175 227.27 162.794C226.643 162.419 226.073 161.955 225.518 161.475C223.416 159.424 220.924 158.139 218.541 157.329C217.348 156.929 216.177 156.666 215.069 156.523C213.96 156.377 212.916 156.359 211.981 156.505C211.048 156.65 210.237 156.957 209.593 157.339C208.951 157.727 208.475 158.178 208.13 158.579C207.453 159.399 207.224 159.96 207.188 159.939C207.188 159.939 207.368 159.358 208.027 158.494C208.363 158.071 208.839 157.593 209.492 157.175C210.148 156.765 210.982 156.431 211.942 156.266C212.902 156.099 213.977 156.105 215.104 156.241C216.233 156.374 217.426 156.631 218.64 157.029C219.856 157.425 221.09 157.965 222.303 158.646C222.903 158.995 223.514 159.357 224.085 159.806C224.653 160.252 225.191 160.74 225.742 161.216C226.292 161.692 226.849 162.143 227.445 162.501C228.036 162.862 228.688 163.077 229.351 163.167C230.687 163.344 231.967 162.887 233.189 162.569C235.616 161.934 237.849 161.139 239.829 161.399C241.795 161.712 243.061 162.892 243.622 163.8C243.909 164.263 244.037 164.673 244.094 164.952C244.141 165.233 244.144 165.383 244.135 165.383Z" fill="#263238"/>
<path d="M212.492 164.769C212.469 164.731 212.961 164.374 213.799 163.864C214.636 163.353 215.824 162.697 217.179 162.059C218.534 161.423 219.798 160.926 220.725 160.608C221.653 160.288 222.241 160.137 222.256 160.179C222.272 160.226 221.712 160.459 220.812 160.834C219.911 161.21 218.671 161.738 217.325 162.37C215.979 163.003 214.782 163.621 213.918 164.075C213.054 164.529 212.518 164.812 212.492 164.769Z" fill="#263238"/>
<path d="M213.369 167.321C213.328 167.236 215.559 166.072 218.352 164.722C221.146 163.371 223.444 162.346 223.485 162.431C223.526 162.516 221.295 163.68 218.501 165.031C215.708 166.381 213.41 167.407 213.369 167.321Z" fill="#263238"/>
<path d="M223.938 168.428C223.888 168.508 221.169 166.886 217.867 164.805C214.563 162.723 211.927 160.972 211.977 160.892C212.028 160.812 214.746 162.434 218.05 164.515C221.352 166.595 223.989 168.347 223.938 168.428Z" fill="#263238"/>
<path d="M225.469 165.78C225.438 165.818 224.938 165.467 224.138 164.891C223.338 164.314 222.235 163.517 221 162.661C219.764 161.805 218.631 161.051 217.811 160.504C216.99 159.957 216.486 159.612 216.511 159.57C216.534 159.531 217.083 159.803 217.939 160.299C218.795 160.794 219.954 161.519 221.195 162.379C222.435 163.24 223.521 164.071 224.285 164.698C225.05 165.326 225.497 165.745 225.469 165.78Z" fill="#263238"/>
<path d="M244.968 60.8679C244.912 60.8535 245.206 60.4153 245.068 59.5846C244.997 59.1777 244.817 58.6909 244.485 58.2047C244.152 57.7175 243.658 57.2424 243.097 56.7216C242.535 56.2064 241.908 55.5871 241.433 54.7831C240.957 53.986 240.605 53.0354 240.467 51.9961C240.325 50.9606 240.422 49.8266 240.784 48.7509C241.134 47.6697 241.689 46.6467 242.235 45.6159C242.785 44.5878 243.287 43.5742 243.572 42.5396C243.865 41.5073 243.891 40.4681 243.634 39.5217C243.116 37.6181 241.981 36.1169 241.406 34.6688C240.774 33.2343 240.716 31.8907 240.936 31.0423C241.038 30.6139 241.187 30.3031 241.306 30.1076C241.425 29.9107 241.51 29.8239 241.522 29.8318C241.568 29.8556 241.272 30.2518 241.13 31.082C240.981 31.9061 241.085 33.1568 241.736 34.5251C242.328 35.9115 243.5 37.3741 244.088 39.4031C244.38 40.4149 244.361 41.5792 244.053 42.6712C243.757 43.7716 243.238 44.8221 242.685 45.8553C242.136 46.8894 241.594 47.8857 241.258 48.9073C240.91 49.9237 240.813 50.9625 240.932 51.9378C241.049 52.9117 241.364 53.811 241.797 54.5693C242.229 55.3342 242.796 55.9259 243.346 56.4621C243.891 56.9993 244.389 57.5107 244.723 58.0488C245.055 58.585 245.219 59.1165 245.264 59.558C245.308 60.0027 245.231 60.349 245.145 60.5637C245.062 60.7811 244.977 60.8735 244.968 60.8679Z" fill="#263238"/>
<path d="M271.578 51.634C272.232 53.3014 274.014 54.4093 275.805 54.4139C277.596 54.4186 279.318 53.3975 280.315 51.9093C281.311 50.4211 281.609 48.5209 281.284 46.7597C281.137 45.9626 280.868 45.166 280.961 44.361C281.093 43.2191 281.924 42.2759 282.208 41.1625C282.721 39.1572 281.255 37.039 279.347 36.2368C277.439 35.4346 275.249 35.6824 273.256 36.2391" fill="#263238"/>
<path d="M242.519 28.4402C240.68 30.2886 241.382 32.7148 242.24 34.358C243.099 36.0011 244.129 37.6666 244.148 39.5198C244.168 41.4149 243.127 43.1378 242.607 44.9606C241.951 47.258 242.149 49.7888 243.153 51.9569C243.909 53.5907 245.091 54.9977 245.857 56.6268C246.622 58.2564 246.905 60.3074 245.864 61.776C246.857 61.6169 247.684 60.8623 248.129 59.9612C248.574 59.06 248.683 58.0278 248.662 57.0226C248.583 53.2062 246.755 49.499 247.212 45.7092C247.478 43.506 248.512 41.3911 248.366 39.1768C248.22 36.955 246.916 35.008 245.974 32.9906C245.032 30.9732 244.474 28.4574 245.73 26.6188" fill="#263238"/>
<path d="M247.037 21.2022C244.784 21.4934 242.552 22.6718 241.463 24.6644C240.374 26.6571 240.749 29.4776 242.609 30.7792C244.364 32.0065 246.852 31.6019 248.654 30.4455C249.984 29.5924 251.091 28.3357 251.574 26.8312C252.056 25.3266 251.852 23.5734 250.875 22.332C249.898 21.0907 248.116 20.4812 246.638 21.038" fill="#263238"/>
<path d="M245.199 20.9712C246.191 18.2314 248.627 16.1631 251.372 15.1845C254.116 14.2059 257.137 14.2241 260.001 14.7631C262.865 15.3017 265.607 16.3391 268.332 17.3709C270.316 18.1222 272.343 18.8987 273.956 20.2768C275.551 21.6404 276.641 23.5187 277.366 25.4885C278.727 29.1901 278.784 31.901 277.189 35.5083C276.494 37.0787 277.06 38.8357 276.438 40.4359C275.816 42.0361 272.928 43.9401 273.825 45.404" fill="#263238"/>
<path d="M272.397 60.8684L271.206 25.7489C271.152 24.1758 269.903 22.9055 268.331 22.8248L252.044 19.6328C246.869 19.3668 243.791 25.8875 243.745 31.0689C243.694 36.8257 243.858 43.856 244.769 48.0999C246.602 56.6334 253.259 57.3721 253.259 57.3721C253.259 57.3548 253.447 60.7022 253.621 63.7085L253.343 76.9362L272.397 60.8684Z" fill="#FFBE9D"/>
<path d="M245.966 37.2606C245.976 37.8449 246.48 38.3171 247.09 38.3167C247.699 38.3162 248.185 37.8439 248.174 37.2597C248.163 36.6759 247.66 36.2027 247.051 36.2031C246.441 36.2031 245.955 36.6763 245.966 37.2606Z" fill="#263238"/>
<path d="M245.434 34.0803C245.579 34.217 246.381 33.5525 247.57 33.4918C248.755 33.4139 249.66 33.9776 249.782 33.825C249.841 33.7574 249.688 33.5049 249.293 33.2492C248.905 32.9944 248.253 32.761 247.513 32.804C246.773 32.8478 246.165 33.154 245.822 33.4522C245.473 33.7522 245.363 34.0196 245.434 34.0803Z" fill="#263238"/>
<path d="M256.963 37.0893C256.974 37.6731 257.477 38.1459 258.087 38.1459C258.696 38.1454 259.183 37.6731 259.171 37.0889C259.161 36.5051 258.657 36.0319 258.048 36.0319C257.438 36.0319 256.952 36.5055 256.963 37.0893Z" fill="#263238"/>
<path d="M257.154 34.2282C257.299 34.3645 258.103 33.7005 259.29 33.6398C260.476 33.5614 261.381 34.1256 261.501 33.973C261.561 33.9053 261.409 33.6529 261.013 33.3971C260.625 33.1419 259.973 32.909 259.233 32.9519C258.494 32.9962 257.886 33.3024 257.543 33.6006C257.194 33.9002 257.083 34.1671 257.154 34.2282Z" fill="#263238"/>
<path d="M253.319 43.2708C253.321 43.2032 252.576 43.1154 251.371 43.0272C251.065 43.0123 250.775 42.9675 250.713 42.7636C250.63 42.548 250.739 42.2143 250.867 41.8536C251.113 41.1041 251.37 40.3187 251.639 39.4955C252.707 36.1397 253.463 33.3868 253.327 33.3448C253.192 33.3033 252.216 35.9894 251.149 39.3452C250.892 40.1726 250.647 40.9608 250.415 41.7154C250.319 42.0664 250.142 42.4682 250.322 42.9143C250.416 43.1364 250.648 43.289 250.845 43.331C251.042 43.38 251.213 43.374 251.364 43.3749C252.571 43.3735 253.319 43.3385 253.319 43.2708Z" fill="#263238"/>
<path d="M253.259 57.3726C253.259 57.3726 259.07 57.4328 264.62 53.6743C264.62 53.6743 262.032 59.7498 253.374 59.4106L253.259 57.3726Z" fill="#EB996E"/>
<path d="M256.437 30.7791C256.572 31.0955 257.75 30.8785 259.152 30.9709C260.557 31.0353 261.703 31.3825 261.872 31.0829C261.947 30.9396 261.735 30.6466 261.264 30.3586C260.796 30.0707 260.061 29.8131 259.22 29.765C258.378 29.7188 257.619 29.8929 257.122 30.1272C256.623 30.361 256.379 30.6288 256.437 30.7791Z" fill="#263238"/>
<path d="M245.717 31.1762C245.94 31.4348 246.744 31.1104 247.726 31.0442C248.707 30.9434 249.553 31.1272 249.73 30.8346C249.807 30.6932 249.661 30.43 249.283 30.1944C248.911 29.9592 248.299 29.7837 247.624 29.8406C246.949 29.8985 246.377 30.1752 246.049 30.4697C245.716 30.7656 245.617 31.0498 245.717 31.1762Z" fill="#263238"/>
<path d="M253.977 45.9743C254.347 45.4259 255.029 45.0993 255.727 45.1361C256.21 45.1618 256.708 45.3676 257.022 45.7433C257.335 46.1189 257.426 46.6715 257.181 47.0588C256.904 47.4956 256.285 47.6263 255.749 47.5045C255.211 47.3827 254.738 47.0593 254.287 46.7359C254.162 46.6463 254.034 46.5529 253.953 46.4255C253.871 46.2981 253.845 46.1269 253.932 46.013" fill="#EB996E"/>
<path d="M256.666 43.92C256.485 43.9191 256.547 45.1217 255.565 46.0307C254.584 46.9426 253.294 46.8768 253.294 47.0453C253.282 47.1218 253.593 47.2632 254.134 47.2487C254.665 47.2385 255.431 47.0257 256.033 46.4699C256.632 45.9127 256.865 45.1996 256.879 44.704C256.898 44.1991 256.748 43.9088 256.666 43.92Z" fill="#263238"/>
<path d="M245.053 23.2816C245.616 25.9822 249.946 26.1852 252.62 25.51C254.529 27.7346 257.631 28.8681 260.524 28.3986C260.918 28.3347 261.331 28.2451 261.705 28.3804C262.102 28.5237 262.369 28.8868 262.64 29.2102C263.851 30.6564 265.617 31.6261 267.487 31.872C268.004 34.5712 270.331 36.8266 273.045 37.2602C273.045 37.2602 273.904 36.7734 273.397 33.3122C272.889 29.8509 272.86 22.5938 272.86 22.5938L263.196 18.8451L251.812 17.3788C251.812 17.3788 244.1 18.7111 245.053 23.2816Z" fill="#263238"/>
<path d="M277.052 35.9064C276.976 35.9223 277.031 34.9539 276.331 33.5208C275.976 32.8175 275.407 32.0139 274.525 31.3587C273.652 30.7045 272.464 30.2014 271.119 30.1431L270.968 30.1365L270.922 29.9891C270.502 28.639 269.768 27.1765 268.472 26.168C267.222 25.1777 265.25 24.7605 263.715 25.6374L263.461 25.7825L263.346 25.503C263.306 25.4059 263.263 25.3014 263.22 25.1964C262.187 22.766 259.684 21.31 257.434 21.2139C256.863 21.1924 256.325 21.2517 255.771 21.3534C255.221 21.4453 254.633 21.5298 254.065 21.3711C253.491 21.2073 253.081 20.8163 252.737 20.4751C252.392 20.1205 252.077 19.8087 251.717 19.5787C250.253 18.6397 248.69 18.7671 247.787 19.0476C246.849 19.3416 246.433 19.7369 246.403 19.6911C246.392 19.6776 246.492 19.5819 246.697 19.4107C246.915 19.2618 247.242 19.0308 247.724 18.8595C248.648 18.5114 250.291 18.2986 251.911 19.2753C252.737 19.7331 253.265 20.7099 254.178 20.9637C255.094 21.2022 256.216 20.6669 257.454 20.7444C259.878 20.8261 262.559 22.3553 263.689 24.9976C263.736 25.1119 263.783 25.2263 263.826 25.3317L263.458 25.1973C265.243 24.1912 267.404 24.6901 268.771 25.783C270.175 26.8969 270.92 28.4547 271.335 29.8663L271.139 29.7123C272.584 29.7991 273.833 30.3633 274.739 31.0801C275.653 31.7997 276.222 32.6668 276.556 33.4135C276.894 34.1657 277.009 34.8074 277.053 35.2395C277.094 35.674 277.07 35.9059 277.052 35.9064Z" fill="#455A64"/>
<path d="M261.667 27.6421C261.676 27.6701 261.435 27.7854 260.971 27.9156C260.508 28.0467 259.81 28.1606 258.939 28.1433C257.228 28.1303 254.694 27.3957 252.894 25.3139L253.211 25.3713C253.124 25.4166 253.03 25.4661 252.935 25.5151C251.672 26.1339 250.29 26.2781 249.099 26.0895C247.899 25.9019 246.908 25.3732 246.204 24.8118C245.494 24.2453 245.054 23.6475 244.801 23.2181C244.548 22.7846 244.467 22.5181 244.494 22.5046C244.575 22.4467 245.025 23.5023 246.421 24.5243C247.115 25.0204 248.053 25.4763 249.167 25.6252C250.275 25.775 251.55 25.6261 252.71 25.0573C252.797 25.012 252.884 24.9672 252.964 24.9257L253.149 24.8295L253.281 24.9831C254.955 26.9277 257.319 27.6865 258.957 27.7882C260.63 27.9128 261.646 27.5455 261.667 27.6421Z" fill="#455A64"/>
<path d="M256.534 22.8248C256.523 22.9751 255.272 22.9373 253.828 23.3648C252.378 23.7736 251.34 24.4726 251.251 24.3518C251.158 24.2584 252.126 23.319 253.687 22.8752C255.243 22.4188 256.562 22.697 256.534 22.8248Z" fill="#455A64"/>
<path d="M253.259 22.7268C253.153 22.8239 252.692 22.4841 252.114 22.1164C251.539 21.7431 251.039 21.4654 251.083 21.3277C251.122 21.1961 251.75 21.2741 252.39 21.6875C253.031 22.0977 253.363 22.6372 253.259 22.7268Z" fill="#455A64"/>
<path d="M266.916 26.9767C266.87 27.12 265.762 26.8278 264.392 26.9515C263.021 27.0556 261.977 27.5269 261.907 27.3934C261.83 27.2866 262.853 26.5618 264.35 26.4433C265.846 26.3126 266.975 26.8582 266.916 26.9767Z" fill="#455A64"/>
<path d="M269.561 31.4511C269.573 31.5809 267.946 31.7414 266.04 31.1837C264.13 30.6391 262.84 29.6358 262.92 29.5322C262.999 29.4034 264.356 30.1753 266.182 30.6937C268.002 31.229 269.562 31.2999 269.561 31.4511Z" fill="#455A64"/>
<path d="M275.623 34.4145C275.515 34.519 274.67 33.6706 273.309 33.2861C271.957 32.8735 270.788 33.1307 270.753 32.9841C270.686 32.8665 271.935 32.342 273.453 32.7975C274.976 33.2352 275.743 34.3515 275.623 34.4145Z" fill="#455A64"/>
<path d="M274.756 22.0604C274.715 22.0767 274.603 21.7794 274.272 21.3389C273.939 20.9021 273.341 20.3538 272.451 19.9198C270.678 19.0574 267.884 18.5198 264.845 18.6556C261.79 18.7914 259.087 19.531 257.167 20.1167C255.244 20.7168 254.07 21.155 254.041 21.0827C254.028 21.0514 254.305 20.9002 254.822 20.6678C255.339 20.4354 256.097 20.119 257.052 19.7751C258.959 19.0975 261.692 18.2864 264.822 18.1469C267.944 18.0106 270.792 18.6103 272.619 19.601C273.532 20.098 274.136 20.7299 274.435 21.2269C274.734 21.729 274.781 22.0543 274.756 22.0604Z" fill="#455A64"/>
<path d="M275.72 26.6855C275.624 26.7247 275.359 25.6444 274.257 24.334C273.184 23.0254 271.171 21.6068 268.629 21.0304C266.079 20.4606 263.666 20.6828 261.962 20.8932C260.247 21.1163 259.189 21.3221 259.172 21.2446C259.159 21.1849 260.187 20.855 261.907 20.5372C263.615 20.2343 266.086 19.9417 268.742 20.5339C271.404 21.1359 273.49 22.6806 274.538 24.109C275.072 24.8202 275.391 25.4722 275.548 25.9398C275.708 26.4064 275.748 26.6776 275.72 26.6855Z" fill="#455A64"/>
<path d="M243.683 32.0984C243.675 32.1446 242.886 31.929 242.024 30.9989C241.177 30.1094 240.332 28.3622 240.725 26.4097C241.15 24.4628 242.627 23.2032 243.76 22.7295C244.923 22.2246 245.732 22.3446 245.721 22.3903C245.733 22.4832 244.959 22.5009 243.917 23.0539C242.895 23.5775 241.601 24.7773 241.224 26.5147C240.871 28.2563 241.573 29.8752 242.299 30.7655C243.03 31.691 243.731 32.0186 243.683 32.0984Z" fill="#455A64"/>
<path d="M279.566 43.6349C279.518 43.557 280.39 43.0964 281.622 42.1719C282.224 41.7006 282.897 41.064 283.357 40.1872C283.824 39.3243 283.975 38.1894 283.506 37.1557C283.062 36.1216 282.196 35.353 281.291 35.0067C280.372 34.659 279.441 34.6861 278.706 34.842C277.213 35.1766 276.483 35.8971 276.43 35.8136C276.411 35.7916 276.564 35.5961 276.918 35.3208C277.273 35.0552 277.837 34.7038 278.621 34.492C279.396 34.2796 280.412 34.2026 281.453 34.5662C282.488 34.9339 283.469 35.7814 283.974 36.955C284.514 38.1273 284.315 39.4816 283.771 40.4098C283.239 41.3641 282.487 42.0104 281.836 42.4622C281.177 42.9139 280.606 43.2009 280.209 43.3918C279.812 43.5794 279.583 43.6652 279.566 43.6349Z" fill="#263238"/>
<path d="M279.968 43.6843C280 43.6717 280.143 43.9344 280.365 44.4272C280.584 44.9205 280.888 45.6433 281.174 46.5734C281.453 47.5016 281.723 48.6501 281.715 49.9595C281.708 51.2541 281.421 52.7381 280.555 54.0186C279.683 55.2949 278.322 56.1083 276.988 56.2787C275.638 56.4817 274.408 55.8969 273.732 55.1685C273.025 54.4428 272.754 53.6224 272.724 53.0713C272.688 52.5122 272.809 52.2187 272.831 52.2257C272.877 52.2313 272.828 52.5318 272.92 53.0447C273.007 53.5519 273.309 54.2809 273.984 54.9104C274.643 55.5451 275.72 56.0159 276.924 55.8134C278.111 55.6393 279.345 54.8875 280.134 53.7321C280.925 52.5631 281.214 51.1841 281.246 49.9521C281.279 48.7107 281.057 47.5917 280.827 46.6705C280.335 44.8271 279.885 43.7141 279.968 43.6843Z" fill="#263238"/>
<path d="M266.638 27.5741C265.564 29.7133 266.386 32.3052 267.486 34.4308C268.587 36.5565 269.991 38.6621 270.083 41.0542C270.237 45.0606 266.658 48.603 267.152 52.5818C267.446 54.9488 269.339 57.0324 271.667 57.5528C269.772 56.2783 269.599 53.4909 270.324 51.3251C271.048 49.1588 274.554 43.4506 275.062 41.2236C276.769 33.7439 276.04 32.8745 273.426 30.2448" fill="#263238"/>
<path d="M273.849 32.9067C273.855 32.9678 273.323 33.0905 272.46 32.9659C271.608 32.8483 270.421 32.4209 269.429 31.5057C268.437 30.5892 267.916 29.4412 267.731 28.6007C267.537 27.7509 267.617 27.211 267.678 27.2115C267.761 27.2063 267.816 27.7262 268.086 28.4971C268.35 29.2639 268.881 30.2854 269.784 31.1203C270.689 31.9542 271.749 32.4008 272.535 32.6029C273.325 32.8105 273.848 32.8241 273.849 32.9067Z" fill="#455A64"/>
<path d="M270.734 55.1732C270.723 55.1872 270.632 55.1289 270.468 55.0024C270.305 54.875 270.082 54.6617 269.839 54.3495C269.366 53.7303 268.808 52.6415 268.827 51.193C268.829 50.4767 269.001 49.6815 269.408 48.9269C269.819 48.176 270.447 47.5259 271.073 46.8675C271.707 46.2104 272.311 45.5029 272.691 44.6195C273.079 43.7455 273.271 42.7454 273.226 41.7318C273.181 40.7149 272.891 39.7494 272.406 38.9159C271.931 38.0745 271.318 37.3437 270.735 36.6405C269.534 35.2559 268.582 33.8442 268.022 32.5548C267.448 31.2668 267.249 30.123 267.215 29.3418C267.182 28.5564 267.276 28.1285 267.302 28.1317C267.41 28.1135 267.151 29.9153 268.359 32.3994C268.949 33.6361 269.887 34.9647 271.104 36.3292C271.697 37.0264 272.339 37.7684 272.852 38.6621C273.377 39.5469 273.704 40.6132 273.749 41.7089C273.798 42.8056 273.587 43.885 273.16 44.8295C272.742 45.7857 272.065 46.5571 271.422 47.203C270.78 47.8573 270.176 48.4658 269.787 49.1425C269.403 49.8154 269.222 50.5392 269.197 51.2056C269.133 52.5524 269.602 53.6057 270.006 54.2333C270.426 54.8652 270.767 55.1368 270.734 55.1732Z" fill="#455A64"/>
<path d="M274.723 32.6253C274.744 32.6033 274.954 32.7517 275.273 33.0887C275.594 33.4228 275.994 33.9753 276.343 34.7351C277.054 36.2405 277.372 38.6681 276.616 41.12C275.854 43.5616 274.44 45.4227 273.383 46.6575C272.308 47.8955 271.55 48.5671 271.504 48.5232C271.444 48.4691 272.107 47.7061 273.096 46.4241C274.069 45.1436 275.39 43.2984 276.116 40.9669C276.831 38.6397 276.591 36.3446 276.002 34.8788C275.423 33.3864 274.644 32.6915 274.723 32.6253Z" fill="#455A64"/>
<path d="M238.93 96.5863L234.111 87.6954C233.791 87.105 233.173 86.7373 232.502 86.7373H198.194C197.515 86.7373 196.892 87.1134 196.575 87.7145L230.584 110.57L245.633 112.298C245.956 111.684 245.967 110.952 245.662 110.329L238.93 96.5863Z" fill="#263238"/>
<g opacity="0.3">
<path d="M275.212 116.936C269.185 114.309 262.257 113.928 256.591 110.593C254.425 109.317 252.506 107.642 250.291 106.454C248.076 105.266 245.385 104.599 243.047 105.523C240.709 106.447 238.937 109.957 240.15 112.16C240.613 113.333 242.831 114.434 244.088 114.326C245.345 114.218 246.535 113.7 247.787 113.542C250.475 113.201 253.057 114.527 255.481 115.738C260.702 118.345 266.104 120.594 271.634 122.461C272.925 122.897 274.282 123.318 275.63 123.117C276.978 122.916 278.306 121.898 278.395 120.538C278.508 118.829 276.781 117.62 275.212 116.936Z" fill="black"/>
</g>
<path d="M245.632 112.298L233.6 88.7389C233.279 88.1103 232.633 87.7146 231.927 87.7146H196.41L209.642 111.548L245.632 112.298Z" fill="#455A64"/>
<path d="M217.791 96.1897C218.287 96.5869 219.011 96.5071 219.408 96.0115C219.806 95.5159 219.725 94.7916 219.23 94.3945C218.734 93.9973 218.01 94.0771 217.613 94.5727C217.215 95.0683 217.295 95.7926 217.791 96.1897Z" fill="#EBEBEB"/>
<path d="M249.045 100.006L245.471 97.2462C244.003 95.4248 241.789 94.366 239.45 94.366H237.503L236.175 95.8607C236.175 95.8607 226.644 96.276 226.293 97.4516L226.284 97.831L226.279 98.0531L234.431 98.601C234.431 98.601 227.496 98.5795 227.081 98.5949C226.624 98.6117 225.146 98.4787 225.176 99.2926C225.201 99.9618 225.992 100.489 227.191 100.664C227.684 100.736 233.691 101.258 233.691 101.258C233.691 101.258 227.384 101.198 227.079 101.196C226.338 101.192 226.432 102.381 226.872 102.53C227.22 102.647 235.689 105.119 235.689 105.119C235.689 105.119 234.265 106.074 233.103 105.991C231.94 105.908 229.947 104.413 229.532 105.119C229.117 105.825 229.2 106.24 229.449 106.406C229.698 106.572 232.438 107.984 233.351 108.233C234.265 108.482 241.721 109.662 241.721 109.662L247.906 108.87L249.045 100.006Z" fill="#FFBE9D"/>
<path d="M232.93 95.9751C232.93 95.9172 234.427 95.8626 236.274 95.8528C238.122 95.843 239.62 95.8822 239.62 95.9396C239.62 95.9975 238.123 96.0521 236.275 96.0619C234.429 96.0717 232.931 96.033 232.93 95.9751Z" fill="#EB996E"/>
<path d="M249.045 100.006L275.282 105L277.914 72.012C277.914 72.012 284.99 66.0606 288.734 70.1215C292.477 74.182 292.753 78.9877 292.514 81.3827C292.274 83.7771 289.89 111.967 287.912 116.738C285.146 123.408 278.063 123.049 276.085 122.565C274.107 122.08 245.883 108.732 245.883 108.732L249.045 100.006Z" fill="#FFBE9D"/>
<path d="M276.948 71.8412C276.024 79.2902 274.207 90.688 274.105 98.1934C274.105 98.4977 292.15 100.006 292.15 100.006C292.15 100.006 293.09 83.0123 292.411 77.8454C291.64 71.9812 287.251 67.939 287.251 67.939H281.588L276.948 71.8412Z" fill="url(#paint6_linear_21_1523)"/>
<path d="M292.15 100.006C292.149 100.014 292.023 100.01 291.784 99.9934C291.523 99.9729 291.175 99.9453 290.738 99.9108C289.805 99.8263 288.495 99.7078 286.884 99.5617C283.605 99.2421 279.103 98.8029 274.093 98.3143L273.976 98.3031L273.984 98.1851C274 97.9536 274.017 97.7044 274.033 97.4538C274.398 92.2654 274.727 87.5703 274.968 84.1426C275.098 82.4584 275.204 81.0873 275.279 80.1106C275.32 79.6523 275.352 79.2879 275.377 79.0153C275.401 78.7652 275.419 78.6341 275.427 78.6345C275.435 78.635 275.434 78.7675 275.426 79.0186C275.413 79.2921 275.396 79.6579 275.374 80.1171C275.318 81.0948 275.238 82.4677 275.14 84.1543C274.918 87.5833 274.613 92.2803 274.277 97.4711C274.26 97.7217 274.243 97.9709 274.227 98.2023L274.118 98.0731C279.125 98.5906 283.625 99.0559 286.902 99.3947C288.51 99.572 289.817 99.7167 290.748 99.8193C291.183 99.8725 291.53 99.9145 291.79 99.9463C292.026 99.9775 292.151 99.9981 292.15 100.006Z" fill="#263238"/>
</g>
<defs>
<linearGradient id="paint0_linear_21_1523" x1="49.3834" y1="76.1323" x2="50.9046" y2="99.3883" gradientUnits="userSpaceOnUse">
<stop stop-color="#FF982C"/>
<stop offset="1" stop-color="#F77F00"/>
</linearGradient>
<linearGradient id="paint1_linear_21_1523" x1="59.8463" y1="49.3745" x2="64.0296" y2="50.6608" gradientUnits="userSpaceOnUse">
<stop stop-color="#FF982C"/>
<stop offset="1" stop-color="#F77F00"/>
</linearGradient>
<linearGradient id="paint2_linear_21_1523" x1="14.7359" y1="140.578" x2="18.1216" y2="162.761" gradientUnits="userSpaceOnUse">
<stop stop-color="#FF982C"/>
<stop offset="1" stop-color="#F77F00"/>
</linearGradient>
<linearGradient id="paint3_linear_21_1523" x1="12.7736" y1="133.745" x2="13.14" y2="141.803" gradientUnits="userSpaceOnUse">
<stop stop-color="#FF982C"/>
<stop offset="1" stop-color="#F77F00"/>
</linearGradient>
<linearGradient id="paint4_linear_21_1523" x1="234.551" y1="60.8684" x2="262.474" y2="155.252" gradientUnits="userSpaceOnUse">
<stop stop-color="#FF982C"/>
<stop offset="1" stop-color="#F77F00"/>
</linearGradient>
<linearGradient id="paint5_linear_21_1523" x1="229.422" y1="65.6997" x2="240.835" y2="99.6917" gradientUnits="userSpaceOnUse">
<stop stop-color="#FF982C"/>
<stop offset="1" stop-color="#F77F00"/>
</linearGradient>
<linearGradient id="paint6_linear_21_1523" x1="274.83" y1="67.939" x2="286.397" y2="101.898" gradientUnits="userSpaceOnUse">
<stop stop-color="#FF982C"/>
<stop offset="1" stop-color="#F77F00"/>
</linearGradient>
<clipPath id="clip0_21_1523">
<rect width="315" height="172" fill="white" transform="translate(0.5)"/>
</clipPath>
</defs>
</svg>
