<svg width="364" height="271" viewBox="0 0 364 271" fill="none" xmlns="http://www.w3.org/2000/svg">
<path d="M317.751 124.69C325.309 231.601 250.16 270.969 172.48 270.969C94.799 270.969 6.21485 233.917 6.21484 132.795C6.21484 61.3864 51.4335 -48.3698 148.968 24.726C237.769 141.02 311.052 29.9277 317.751 124.69Z" fill="#D9D9D9" fill-opacity="0.25"/>
<path d="M283.836 58.578H258.922V123.609H283.836V58.578Z" fill="#EBEBEB"/>
<path d="M283.836 58.578H271.379V123.609H283.836V58.578Z" fill="#E0E0E0"/>
<path d="M270.564 50.848H261.767V58.5785H270.564V50.848Z" fill="#EBEBEB"/>
<path d="M270.564 50.848H268.468V58.5785H270.564V50.848Z" fill="#E0E0E0"/>
<path d="M284.565 58.1274H256.846V58.578H284.565V58.1274Z" fill="#E0E0E0"/>
<path d="M265.948 61.9496H263.84V66.384H265.948V61.9496Z" fill="white"/>
<path d="M271.379 68.1244C271.379 68.1713 268.59 68.2091 265.15 68.2091C261.71 68.2091 258.922 68.1713 258.922 68.1244C258.922 68.0774 261.71 68.0397 265.15 68.0397C268.59 68.0397 271.379 68.0774 271.379 68.1244Z" fill="#E0E0E0"/>
<path d="M278.514 61.9496H276.405V66.384H278.514V61.9496Z" fill="#F5F5F5"/>
<path d="M283.944 68.1245C283.944 68.1714 281.155 68.2092 277.716 68.2092C274.276 68.2092 271.488 68.1714 271.488 68.1245C271.488 68.0775 274.276 68.0398 277.716 68.0398C281.155 68.0398 283.944 68.0775 283.944 68.1245Z" fill="#EBEBEB"/>
<path d="M278.514 70.7535H276.405V75.1879H278.514V70.7535Z" fill="#F5F5F5"/>
<path d="M283.944 76.9285C283.944 76.9754 281.155 77.0131 277.716 77.0131C274.276 77.0131 271.488 76.9754 271.488 76.9285C271.488 76.8815 274.276 76.8438 277.716 76.8438C281.155 76.8438 283.944 76.8815 283.944 76.9285Z" fill="#EBEBEB"/>
<path d="M278.514 79.8231H276.405V84.2575H278.514V79.8231Z" fill="#F5F5F5"/>
<path d="M283.944 85.998C283.944 86.0445 281.155 86.0827 277.716 86.0827C274.276 86.0827 271.488 86.045 271.488 85.998C271.488 85.9511 274.276 85.9133 277.716 85.9133C281.155 85.9133 283.944 85.9511 283.944 85.998Z" fill="#EBEBEB"/>
<path d="M278.514 88.8928H276.405V93.3272H278.514V88.8928Z" fill="#F5F5F5"/>
<path d="M283.944 95.0677C283.944 95.1142 281.155 95.1524 277.716 95.1524C274.276 95.1524 271.488 95.1147 271.488 95.0677C271.488 95.0213 274.276 94.983 277.716 94.983C281.155 94.983 283.944 95.0213 283.944 95.0677Z" fill="#EBEBEB"/>
<path d="M278.514 97.7036H276.405V102.138H278.514V97.7036Z" fill="#F5F5F5"/>
<path d="M283.944 103.879C283.944 103.925 281.155 103.963 277.716 103.963C274.276 103.963 271.488 103.925 271.488 103.879C271.488 103.832 274.276 103.794 277.716 103.794C281.155 103.793 283.944 103.832 283.944 103.879Z" fill="#EBEBEB"/>
<path d="M278.514 106.549H276.405V110.984H278.514V106.549Z" fill="#F5F5F5"/>
<path d="M278.514 115.511H276.405V119.946H278.514V115.511Z" fill="#F5F5F5"/>
<path d="M283.944 112.724C283.944 112.771 281.155 112.809 277.716 112.809C274.276 112.809 271.488 112.771 271.488 112.724C271.488 112.678 274.276 112.639 277.716 112.639C281.155 112.639 283.944 112.678 283.944 112.724Z" fill="#EBEBEB"/>
<path d="M265.948 70.8881H263.84V75.3225H265.948V70.8881Z" fill="white"/>
<path d="M271.379 77.0625C271.379 77.1094 268.59 77.1472 265.15 77.1472C261.71 77.1472 258.922 77.1094 258.922 77.0625C258.922 77.016 261.71 76.9778 265.15 76.9778C268.59 76.9783 271.379 77.016 271.379 77.0625Z" fill="#E0E0E0"/>
<path d="M265.948 79.8265H263.84V84.2609H265.948V79.8265Z" fill="white"/>
<path d="M271.379 86.0014C271.379 86.0479 268.59 86.0862 265.15 86.0862C261.71 86.0862 258.922 86.0484 258.922 86.0014C258.922 85.9545 261.71 85.9167 265.15 85.9167C268.59 85.9167 271.379 85.9545 271.379 86.0014Z" fill="#E0E0E0"/>
<path d="M265.948 88.765H263.84V93.1994H265.948V88.765Z" fill="white"/>
<path d="M271.379 94.9399C271.379 94.9869 268.59 95.0246 265.15 95.0246C261.71 95.0246 258.922 94.9869 258.922 94.9399C258.922 94.893 261.71 94.8552 265.15 94.8552C268.59 94.8552 271.379 94.893 271.379 94.9399Z" fill="#E0E0E0"/>
<path d="M265.948 97.7036H263.84V102.138H265.948V97.7036Z" fill="white"/>
<path d="M271.379 103.878C271.379 103.925 268.59 103.963 265.15 103.963C261.71 103.963 258.922 103.925 258.922 103.878C258.922 103.831 261.71 103.794 265.15 103.794C268.59 103.793 271.379 103.831 271.379 103.878Z" fill="#E0E0E0"/>
<path d="M265.948 106.642H263.84V111.076H265.948V106.642Z" fill="white"/>
<path d="M271.379 112.817C271.379 112.864 268.59 112.902 265.15 112.902C261.71 112.902 258.922 112.864 258.922 112.817C258.922 112.77 261.71 112.732 265.15 112.732C268.59 112.732 271.379 112.77 271.379 112.817Z" fill="#E0E0E0"/>
<path d="M265.948 115.581H263.84V120.015H265.948V115.581Z" fill="white"/>
<path d="M224.299 132.171H194.883V187.845H224.299V132.171Z" fill="#E0E0E0"/>
<path d="M224.299 132.171H210.506V187.845H224.299V132.171Z" fill="#EBEBEB"/>
<path d="M203.696 137.41H201.051V143.818H203.696V137.41Z" fill="#F5F5F5"/>
<path d="M203.696 162.49H201.051V168.898H203.696V162.49Z" fill="#F5F5F5"/>
<path d="M210.506 146.333C210.506 146.388 207.009 146.433 202.695 146.433C198.38 146.433 194.883 146.388 194.883 146.333C194.883 146.277 198.38 146.233 202.695 146.233C207.009 146.233 210.506 146.277 210.506 146.333Z" fill="#F5F5F5"/>
<path d="M203.696 150.045H201.051V156.453H203.696V150.045Z" fill="#F5F5F5"/>
<path d="M210.506 158.968C210.506 159.023 207.009 159.068 202.695 159.068C198.38 159.068 194.883 159.024 194.883 158.968C194.883 158.913 198.38 158.868 202.695 158.868C207.009 158.868 210.506 158.913 210.506 158.968Z" fill="#F5F5F5"/>
<path d="M216.08 137.41H213.435V143.818H216.08V137.41Z" fill="#E0E0E0"/>
<path d="M221.818 137.41H219.173V143.818H221.818V137.41Z" fill="#E0E0E0"/>
<path d="M216.08 149.569H213.435V155.977H216.08V149.569Z" fill="#E0E0E0"/>
<path d="M221.818 149.569H219.173V155.977H221.818V149.569Z" fill="#E0E0E0"/>
<path d="M216.08 161.729H213.435V168.137H216.08V161.729Z" fill="#E0E0E0"/>
<path d="M221.818 161.729H219.173V168.137H221.818V161.729Z" fill="#E0E0E0"/>
<path d="M226.51 130.824H192.671V132.22H226.51V130.824Z" fill="#E0E0E0"/>
<path d="M224.504 132.351C224.504 132.406 217.93 132.451 209.821 132.451C201.71 132.451 195.136 132.406 195.136 132.351C195.136 132.296 201.71 132.251 209.821 132.251C217.93 132.251 224.504 132.296 224.504 132.351Z" fill="#EBEBEB"/>
<path d="M334.663 92.0649H309.511V171.559H334.663V92.0649Z" fill="#F5F5F5"/>
<path d="M334.663 92.0649H322.087V171.34H334.663V92.0649Z" fill="#EBEBEB"/>
<path d="M321.264 84.261H312.383V92.065H321.264V84.261Z" fill="#F5F5F5"/>
<path d="M321.265 84.261H319.148V92.065H321.265V84.261Z" fill="#EBEBEB"/>
<path d="M307.414 92.0649V91.61H335.399V92.0649" fill="#E0E0E0"/>
<path d="M316.604 95.4685H314.475V99.9455H316.604V95.4685Z" fill="#FAFAFA"/>
<path d="M322.087 101.702C322.087 101.75 319.272 101.788 315.799 101.788C312.325 101.788 309.51 101.75 309.51 101.702C309.51 101.655 312.325 101.617 315.799 101.617C319.272 101.617 322.087 101.655 322.087 101.702Z" fill="#E0E0E0"/>
<path d="M329.29 95.4685H327.161V99.9455H329.29V95.4685Z" fill="#E0E0E0"/>
<path d="M334.772 101.702C334.772 101.75 331.957 101.788 328.485 101.788C325.011 101.788 322.197 101.75 322.197 101.702C322.197 101.655 325.011 101.617 328.485 101.617C331.957 101.617 334.772 101.655 334.772 101.702Z" fill="#E0E0E0"/>
<path d="M329.29 104.357H327.161V108.834H329.29V104.357Z" fill="#E0E0E0"/>
<path d="M334.772 110.591C334.772 110.638 331.957 110.676 328.485 110.676C325.011 110.676 322.197 110.638 322.197 110.591C322.197 110.544 325.011 110.505 328.485 110.505C331.957 110.505 334.772 110.544 334.772 110.591Z" fill="#E0E0E0"/>
<path d="M329.29 113.513H327.161V117.99H329.29V113.513Z" fill="#E0E0E0"/>
<path d="M334.772 119.748C334.772 119.795 331.957 119.833 328.485 119.833C325.011 119.833 322.197 119.795 322.197 119.748C322.197 119.7 325.011 119.662 328.485 119.662C331.957 119.662 334.772 119.7 334.772 119.748Z" fill="#E0E0E0"/>
<path d="M329.29 122.67H327.161V127.147H329.29V122.67Z" fill="#E0E0E0"/>
<path d="M334.772 128.904C334.772 128.952 331.957 128.99 328.485 128.99C325.011 128.99 322.197 128.952 322.197 128.904C322.197 128.857 325.011 128.819 328.485 128.819C331.957 128.818 334.772 128.857 334.772 128.904Z" fill="#E0E0E0"/>
<path d="M329.29 131.565H327.161V136.042H329.29V131.565Z" fill="#E0E0E0"/>
<path d="M334.772 137.799C334.772 137.846 331.957 137.884 328.485 137.884C325.011 137.884 322.197 137.846 322.197 137.799C322.197 137.751 325.011 137.713 328.485 137.713C331.957 137.713 334.772 137.752 334.772 137.799Z" fill="#E0E0E0"/>
<path d="M329.29 140.495H327.161V144.972H329.29V140.495Z" fill="#E0E0E0"/>
<path d="M329.29 149.543H327.161V154.02H329.29V149.543Z" fill="#E0E0E0"/>
<path d="M334.772 146.729C334.772 146.776 331.957 146.815 328.485 146.815C325.011 146.815 322.197 146.777 322.197 146.729C322.197 146.682 325.011 146.644 328.485 146.644C331.957 146.644 334.772 146.683 334.772 146.729Z" fill="#E0E0E0"/>
<path d="M316.604 104.493H314.475V108.97H316.604V104.493Z" fill="#FAFAFA"/>
<path d="M322.087 110.727C322.087 110.774 319.272 110.812 315.799 110.812C312.325 110.812 309.51 110.773 309.51 110.727C309.51 110.679 312.325 110.641 315.799 110.641C319.272 110.641 322.087 110.68 322.087 110.727Z" fill="#E0E0E0"/>
<path d="M316.604 113.517H314.475V117.994H316.604V113.517Z" fill="#FAFAFA"/>
<path d="M322.087 119.751C322.087 119.798 319.272 119.836 315.799 119.836C312.325 119.836 309.51 119.798 309.51 119.751C309.51 119.703 312.325 119.666 315.799 119.666C319.272 119.665 322.087 119.703 322.087 119.751Z" fill="#E0E0E0"/>
<path d="M316.604 122.541H314.475V127.018H316.604V122.541Z" fill="#FAFAFA"/>
<path d="M322.087 128.775C322.087 128.822 319.272 128.861 315.799 128.861C312.325 128.861 309.51 128.822 309.51 128.775C309.51 128.728 312.325 128.689 315.799 128.689C319.272 128.689 322.087 128.728 322.087 128.775Z" fill="#E0E0E0"/>
<path d="M316.604 131.565H314.475V136.042H316.604V131.565Z" fill="#FAFAFA"/>
<path d="M322.087 137.799C322.087 137.846 319.272 137.884 315.799 137.884C312.325 137.884 309.51 137.846 309.51 137.799C309.51 137.751 312.325 137.713 315.799 137.713C319.272 137.713 322.087 137.752 322.087 137.799Z" fill="#E0E0E0"/>
<path d="M316.604 140.589H314.475V145.066H316.604V140.589Z" fill="#FAFAFA"/>
<path d="M322.087 146.823C322.087 146.87 319.272 146.909 315.799 146.909C312.325 146.909 309.51 146.87 309.51 146.823C309.51 146.776 312.325 146.738 315.799 146.738C319.272 146.738 322.087 146.776 322.087 146.823Z" fill="#E0E0E0"/>
<path d="M316.604 149.613H314.475V154.09H316.604V149.613Z" fill="#FAFAFA"/>
<path d="M350.902 134.096H309.622V188.394H350.902V134.096Z" fill="#EBEBEB"/>
<path d="M350.902 134.096H331.546V188.394H350.902V134.096Z" fill="#E0E0E0"/>
<path d="M321.989 141.448H318.277V150.44H321.989V141.448Z" fill="#F5F5F5"/>
<path d="M321.989 176.644H318.277V185.636H321.989V176.644Z" fill="#F5F5F5"/>
<path d="M331.546 153.97C331.546 154.071 326.638 154.153 320.585 154.153C314.529 154.153 309.622 154.071 309.622 153.97C309.622 153.869 314.529 153.787 320.585 153.787C326.638 153.787 331.546 153.868 331.546 153.97Z" fill="#F5F5F5"/>
<path d="M321.989 159.179H318.277V168.172H321.989V159.179Z" fill="#F5F5F5"/>
<path d="M331.546 171.701C331.546 171.802 326.638 171.884 320.585 171.884C314.529 171.884 309.622 171.802 309.622 171.701C309.622 171.6 314.529 171.518 320.585 171.518C326.638 171.518 331.546 171.6 331.546 171.701Z" fill="#F5F5F5"/>
<path d="M339.368 141.448H335.656V150.44H339.368V141.448Z" fill="#F5F5F5"/>
<path d="M347.421 141.448H343.709V150.44H347.421V141.448Z" fill="#F5F5F5"/>
<path d="M339.368 158.512H335.656V167.505H339.368V158.512Z" fill="#F5F5F5"/>
<path d="M347.421 158.512H343.709V167.505H347.421V158.512Z" fill="#F5F5F5"/>
<path d="M339.368 175.576H335.656V184.569H339.368V175.576Z" fill="#F5F5F5"/>
<path d="M347.421 175.576H343.709V184.569H347.421V175.576Z" fill="#F5F5F5"/>
<path d="M354.005 132.206H306.519V134.164H354.005V132.206Z" fill="#E0E0E0"/>
<path d="M351.19 134.348C351.19 134.449 341.963 134.531 330.585 134.531C319.202 134.531 309.978 134.449 309.978 134.348C309.978 134.248 319.202 134.165 330.585 134.165C341.963 134.165 351.19 134.248 351.19 134.348Z" fill="#EBEBEB"/>
<path d="M307.744 188.104H266.135L265.954 122.524H307.563L307.744 188.104Z" fill="#EBEBEB"/>
<path d="M307.563 122.524H286.759V188.104H307.563V122.524Z" fill="#E0E0E0"/>
<path d="M285.398 109.614H270.705V122.525H285.398V109.614Z" fill="#EBEBEB"/>
<path d="M285.399 109.614H281.896V122.525H285.399V109.614Z" fill="#E0E0E0"/>
<path d="M308.781 121.771H262.487V122.525H308.781V121.771Z" fill="#E0E0E0"/>
<path d="M277.69 128.155H274.167V135.561H277.69V128.155Z" fill="white"/>
<path d="M286.759 138.468C286.759 138.546 282.101 138.609 276.357 138.609C270.611 138.609 265.954 138.546 265.954 138.468C265.954 138.39 270.611 138.327 276.357 138.327C282.101 138.326 286.759 138.39 286.759 138.468Z" fill="#E0E0E0"/>
<path d="M298.675 128.155H295.153V135.561H298.675V128.155Z" fill="#F5F5F5"/>
<path d="M307.744 138.468C307.744 138.546 303.087 138.609 297.343 138.609C291.596 138.609 286.94 138.546 286.94 138.468C286.94 138.39 291.596 138.327 297.343 138.327C303.087 138.326 307.744 138.39 307.744 138.468Z" fill="#EBEBEB"/>
<path d="M298.675 142.859H295.153V150.265H298.675V142.859Z" fill="#F5F5F5"/>
<path d="M307.744 153.172C307.744 153.25 303.087 153.313 297.343 153.313C291.596 153.313 286.94 153.25 286.94 153.172C286.94 153.094 291.596 153.031 297.343 153.031C303.087 153.03 307.744 153.094 307.744 153.172Z" fill="#EBEBEB"/>
<path d="M298.675 158.007H295.153V165.413H298.675V158.007Z" fill="#F5F5F5"/>
<path d="M307.744 168.319C307.744 168.397 303.087 168.461 297.343 168.461C291.596 168.461 286.94 168.397 286.94 168.319C286.94 168.241 291.596 168.178 297.343 168.178C303.087 168.178 307.744 168.241 307.744 168.319Z" fill="#EBEBEB"/>
<path d="M298.675 173.154H295.153V180.561H298.675V173.154Z" fill="#F5F5F5"/>
<path d="M307.744 183.467C307.744 183.545 303.087 183.608 297.343 183.608C291.596 183.608 286.94 183.545 286.94 183.467C286.94 183.389 291.596 183.326 297.343 183.326C303.087 183.326 307.744 183.389 307.744 183.467Z" fill="#EBEBEB"/>
<path d="M277.69 143.083H274.167V150.49H277.69V143.083Z" fill="white"/>
<path d="M286.759 153.396C286.759 153.474 282.101 153.537 276.357 153.537C270.611 153.537 265.954 153.474 265.954 153.396C265.954 153.318 270.611 153.255 276.357 153.255C282.101 153.255 286.759 153.318 286.759 153.396Z" fill="#E0E0E0"/>
<path d="M277.69 158.012H274.167V165.418H277.69V158.012Z" fill="white"/>
<path d="M286.759 168.325C286.759 168.402 282.101 168.466 276.357 168.466C270.611 168.466 265.954 168.402 265.954 168.325C265.954 168.247 270.611 168.183 276.357 168.183C282.101 168.183 286.759 168.247 286.759 168.325Z" fill="#E0E0E0"/>
<path d="M277.69 172.94H274.167V180.347H277.69V172.94Z" fill="white"/>
<path d="M286.759 183.253C286.759 183.331 282.101 183.394 276.357 183.394C270.611 183.394 265.954 183.331 265.954 183.253C265.954 183.175 270.611 183.112 276.357 183.112C282.101 183.112 286.759 183.175 286.759 183.253Z" fill="#E0E0E0"/>
<path d="M256.42 67.1598H222.245V188.224H256.42V67.1598Z" fill="#EBEBEB"/>
<path d="M228.063 71.3367H225.02V77.7361H228.063V71.3367Z" fill="white"/>
<path d="M234.459 71.3367H231.416V77.7361H234.459V71.3367Z" fill="white"/>
<path d="M240.854 71.3367H237.811V77.7361H240.854V71.3367Z" fill="white"/>
<path d="M247.25 71.3367H244.207V77.7361H247.25V71.3367Z" fill="white"/>
<path d="M253.645 71.3367H250.602V77.7361H253.645V71.3367Z" fill="white"/>
<path d="M228.063 80.2872H225.02V86.6867H228.063V80.2872Z" fill="white"/>
<path d="M234.459 80.2872H231.416V86.6867H234.459V80.2872Z" fill="white"/>
<path d="M240.854 80.2872H237.811V86.6867H240.854V80.2872Z" fill="white"/>
<path d="M247.25 80.2872H244.207V86.6867H247.25V80.2872Z" fill="white"/>
<path d="M253.645 80.2872H250.602V86.6867H253.645V80.2872Z" fill="white"/>
<path d="M228.063 89.2379H225.02V95.6374H228.063V89.2379Z" fill="white"/>
<path d="M234.459 89.2379H231.416V95.6374H234.459V89.2379Z" fill="white"/>
<path d="M240.854 89.2379H237.811V95.6374H240.854V89.2379Z" fill="white"/>
<path d="M247.25 89.2379H244.207V95.6374H247.25V89.2379Z" fill="white"/>
<path d="M253.645 89.2379H250.602V95.6374H253.645V89.2379Z" fill="white"/>
<path d="M228.063 98.188H225.02V104.587H228.063V98.188Z" fill="white"/>
<path d="M234.459 98.188H231.416V104.587H234.459V98.188Z" fill="white"/>
<path d="M240.854 98.188H237.811V104.587H240.854V98.188Z" fill="white"/>
<path d="M247.25 98.188H244.207V104.587H247.25V98.188Z" fill="white"/>
<path d="M253.645 98.188H250.602V104.587H253.645V98.188Z" fill="white"/>
<path d="M228.063 107.139H225.02V113.538H228.063V107.139Z" fill="white"/>
<path d="M234.459 107.139H231.416V113.538H234.459V107.139Z" fill="white"/>
<path d="M240.854 107.139H237.811V113.538H240.854V107.139Z" fill="white"/>
<path d="M247.25 107.139H244.207V113.538H247.25V107.139Z" fill="white"/>
<path d="M253.645 107.139H250.602V113.538H253.645V107.139Z" fill="white"/>
<path d="M228.063 116.089H225.02V122.489H228.063V116.089Z" fill="white"/>
<path d="M234.459 116.089H231.416V122.489H234.459V116.089Z" fill="white"/>
<path d="M240.854 116.089H237.811V122.489H240.854V116.089Z" fill="white"/>
<path d="M247.25 116.089H244.207V122.489H247.25V116.089Z" fill="white"/>
<path d="M253.645 116.089H250.602V122.489H253.645V116.089Z" fill="white"/>
<path d="M228.063 125.039H225.02V131.439H228.063V125.039Z" fill="white"/>
<path d="M234.459 125.039H231.416V131.439H234.459V125.039Z" fill="white"/>
<path d="M240.854 125.039H237.811V131.439H240.854V125.039Z" fill="white"/>
<path d="M247.25 125.039H244.207V131.439H247.25V125.039Z" fill="white"/>
<path d="M253.645 125.039H250.602V131.439H253.645V125.039Z" fill="white"/>
<path d="M228.063 133.99H225.02V140.389H228.063V133.99Z" fill="white"/>
<path d="M234.459 133.99H231.416V140.389H234.459V133.99Z" fill="white"/>
<path d="M240.854 133.99H237.811V140.389H240.854V133.99Z" fill="white"/>
<path d="M247.25 133.99H244.207V140.389H247.25V133.99Z" fill="white"/>
<path d="M253.645 133.99H250.602V140.389H253.645V133.99Z" fill="white"/>
<path d="M228.063 142.941H225.02V149.34H228.063V142.941Z" fill="white"/>
<path d="M234.459 142.941H231.416V149.34H234.459V142.941Z" fill="white"/>
<path d="M240.854 142.941H237.811V149.34H240.854V142.941Z" fill="white"/>
<path d="M247.25 142.941H244.207V149.34H247.25V142.941Z" fill="white"/>
<path d="M253.645 142.941H250.602V149.34H253.645V142.941Z" fill="white"/>
<path d="M228.063 151.891H225.02V158.29H228.063V151.891Z" fill="white"/>
<path d="M234.459 151.891H231.416V158.29H234.459V151.891Z" fill="white"/>
<path d="M240.854 151.891H237.811V158.29H240.854V151.891Z" fill="white"/>
<path d="M247.25 151.891H244.207V158.29H247.25V151.891Z" fill="white"/>
<path d="M253.645 151.891H250.602V158.29H253.645V151.891Z" fill="white"/>
<path d="M228.063 160.841H225.02V167.241H228.063V160.841Z" fill="white"/>
<path d="M234.459 160.841H231.416V167.241H234.459V160.841Z" fill="white"/>
<path d="M240.854 160.841H237.811V167.241H240.854V160.841Z" fill="white"/>
<path d="M247.25 160.841H244.207V167.241H247.25V160.841Z" fill="white"/>
<path d="M253.645 160.841H250.602V167.241H253.645V160.841Z" fill="white"/>
<path d="M228.063 169.792H225.02V176.191H228.063V169.792Z" fill="white"/>
<path d="M234.459 169.792H231.416V176.191H234.459V169.792Z" fill="white"/>
<path d="M240.854 169.792H237.811V176.191H240.854V169.792Z" fill="white"/>
<path d="M247.25 169.792H244.207V176.191H247.25V169.792Z" fill="white"/>
<path d="M253.645 169.792H250.602V176.191H253.645V169.792Z" fill="white"/>
<path d="M228.063 178.248H225.02V184.647H228.063V178.248Z" fill="white"/>
<path d="M234.459 178.248H231.416V184.647H234.459V178.248Z" fill="white"/>
<path d="M240.854 178.248H237.811V184.647H240.854V178.248Z" fill="white"/>
<path d="M247.25 178.248H244.207V184.647H247.25V178.248Z" fill="white"/>
<path d="M253.645 178.248H250.602V184.647H253.645V178.248Z" fill="white"/>
<path d="M271.348 67.1598H256.42V188.224H271.348V67.1598Z" fill="#E0E0E0"/>
<path d="M240.854 71.3367H237.811V77.7361H240.854V71.3367Z" fill="white"/>
<path d="M247.25 71.3367H244.207V77.7361H247.25V71.3367Z" fill="white"/>
<path d="M253.645 71.3367H250.602V77.7361H253.645V71.3367Z" fill="white"/>
<path d="M240.854 80.2874H237.811V86.6868H240.854V80.2874Z" fill="white"/>
<path d="M247.25 80.2874H244.207V86.6868H247.25V80.2874Z" fill="white"/>
<path d="M253.645 80.2874H250.602V86.6868H253.645V80.2874Z" fill="white"/>
<path d="M240.854 89.2379H237.811V95.6374H240.854V89.2379Z" fill="white"/>
<path d="M247.25 89.2379H244.207V95.6374H247.25V89.2379Z" fill="white"/>
<path d="M253.645 89.2379H250.602V95.6374H253.645V89.2379Z" fill="white"/>
<path d="M240.854 98.1881H237.811V104.588H240.854V98.1881Z" fill="white"/>
<path d="M247.25 98.1881H244.207V104.588H247.25V98.1881Z" fill="white"/>
<path d="M253.645 98.1881H250.602V104.588H253.645V98.1881Z" fill="white"/>
<path d="M240.854 107.139H237.811V113.538H240.854V107.139Z" fill="white"/>
<path d="M247.25 107.139H244.207V113.538H247.25V107.139Z" fill="white"/>
<path d="M253.645 107.139H250.602V113.538H253.645V107.139Z" fill="white"/>
<path d="M240.854 116.089H237.811V122.489H240.854V116.089Z" fill="white"/>
<path d="M247.25 116.089H244.207V122.489H247.25V116.089Z" fill="white"/>
<path d="M253.645 116.089H250.602V122.489H253.645V116.089Z" fill="white"/>
<path d="M240.854 125.039H237.811V131.439H240.854V125.039Z" fill="white"/>
<path d="M247.25 125.039H244.207V131.439H247.25V125.039Z" fill="white"/>
<path d="M253.645 125.039H250.602V131.439H253.645V125.039Z" fill="white"/>
<path d="M240.854 133.99H237.811V140.389H240.854V133.99Z" fill="white"/>
<path d="M247.25 133.99H244.207V140.389H247.25V133.99Z" fill="white"/>
<path d="M253.645 133.99H250.602V140.389H253.645V133.99Z" fill="white"/>
<path d="M240.854 142.941H237.811V149.34H240.854V142.941Z" fill="white"/>
<path d="M247.25 142.941H244.207V149.34H247.25V142.941Z" fill="white"/>
<path d="M253.645 142.941H250.602V149.34H253.645V142.941Z" fill="white"/>
<path d="M240.854 151.891H237.811V158.29H240.854V151.891Z" fill="white"/>
<path d="M247.25 151.891H244.207V158.29H247.25V151.891Z" fill="white"/>
<path d="M253.645 151.891H250.602V158.29H253.645V151.891Z" fill="white"/>
<path d="M240.854 160.841H237.811V167.241H240.854V160.841Z" fill="white"/>
<path d="M247.25 160.841H244.207V167.241H247.25V160.841Z" fill="white"/>
<path d="M253.645 160.841H250.602V167.241H253.645V160.841Z" fill="white"/>
<path d="M240.854 169.792H237.811V176.191H240.854V169.792Z" fill="white"/>
<path d="M247.25 169.792H244.207V176.191H247.25V169.792Z" fill="white"/>
<path d="M253.645 169.792H250.602V176.191H253.645V169.792Z" fill="white"/>
<path d="M240.854 178.248H237.811V184.647H240.854V178.248Z" fill="white"/>
<path d="M247.25 178.248H244.207V184.647H247.25V178.248Z" fill="white"/>
<path d="M253.645 178.248H250.602V184.647H253.645V178.248Z" fill="white"/>
<path d="M262.841 71.3367H259.798V77.7361H262.841V71.3367Z" fill="#EBEBEB"/>
<path d="M269.237 71.3367H266.194V77.7361H269.237V71.3367Z" fill="#EBEBEB"/>
<path d="M262.841 80.2874H259.798V86.6868H262.841V80.2874Z" fill="#EBEBEB"/>
<path d="M269.237 80.2874H266.194V86.6868H269.237V80.2874Z" fill="#EBEBEB"/>
<path d="M262.841 89.2379H259.798V95.6374H262.841V89.2379Z" fill="#EBEBEB"/>
<path d="M269.237 89.2379H266.194V95.6374H269.237V89.2379Z" fill="#EBEBEB"/>
<path d="M262.841 98.1881H259.798V104.588H262.841V98.1881Z" fill="#EBEBEB"/>
<path d="M269.237 98.1881H266.194V104.588H269.237V98.1881Z" fill="#EBEBEB"/>
<path d="M262.841 107.139H259.798V113.538H262.841V107.139Z" fill="#EBEBEB"/>
<path d="M269.237 107.139H266.194V113.538H269.237V107.139Z" fill="#EBEBEB"/>
<path d="M262.841 116.089H259.798V122.489H262.841V116.089Z" fill="#EBEBEB"/>
<path d="M269.237 116.089H266.194V122.489H269.237V116.089Z" fill="#EBEBEB"/>
<path d="M262.841 125.039H259.798V131.439H262.841V125.039Z" fill="#EBEBEB"/>
<path d="M269.237 125.039H266.194V131.439H269.237V125.039Z" fill="#EBEBEB"/>
<path d="M262.841 133.99H259.798V140.389H262.841V133.99Z" fill="#EBEBEB"/>
<path d="M269.237 133.99H266.194V140.389H269.237V133.99Z" fill="#EBEBEB"/>
<path d="M262.841 142.941H259.798V149.34H262.841V142.941Z" fill="#EBEBEB"/>
<path d="M269.237 142.941H266.194V149.34H269.237V142.941Z" fill="#EBEBEB"/>
<path d="M262.841 151.891H259.798V158.29H262.841V151.891Z" fill="#EBEBEB"/>
<path d="M269.237 151.891H266.194V158.29H269.237V151.891Z" fill="#EBEBEB"/>
<path d="M262.841 160.841H259.798V167.241H262.841V160.841Z" fill="#EBEBEB"/>
<path d="M269.237 160.841H266.194V167.241H269.237V160.841Z" fill="#EBEBEB"/>
<path d="M262.841 169.792H259.798V176.191H262.841V169.792Z" fill="#EBEBEB"/>
<path d="M269.237 169.792H266.194V176.191H269.237V169.792Z" fill="#EBEBEB"/>
<path d="M262.841 178.248H259.798V184.647H262.841V178.248Z" fill="#EBEBEB"/>
<path d="M269.237 178.248H266.194V184.647H269.237V178.248Z" fill="#EBEBEB"/>
<path d="M299.71 95.7395C299.848 95.7395 299.961 98.6077 299.961 102.145C299.961 105.683 299.848 108.55 299.71 108.55C299.572 108.55 299.46 105.683 299.46 102.145C299.46 98.6077 299.572 95.7395 299.71 95.7395Z" fill="#E0E0E0"/>
<path d="M312.485 109.547L276.661 119.687V188.394H312.485V109.547Z" fill="#E0E0E0"/>
<path d="M282.033 118.128V105.944H304.09V111.885L282.033 118.128Z" fill="#E0E0E0"/>
<path d="M279.391 120.371L279.675 183.549H308.815V112.036L279.391 120.371Z" fill="white"/>
<path d="M287.27 184.988C287.132 184.988 287.02 169.827 287.02 151.13C287.02 132.426 287.132 117.269 287.27 117.269C287.409 117.269 287.521 132.426 287.521 151.13C287.521 169.827 287.409 184.988 287.27 184.988Z" fill="#E0E0E0"/>
<path d="M299.519 184.988C299.38 184.988 299.268 168.983 299.268 149.244C299.268 129.498 299.38 113.496 299.519 113.496C299.657 113.496 299.769 129.498 299.769 149.244C299.769 168.983 299.657 184.988 299.519 184.988Z" fill="#E0E0E0"/>
<path d="M310.827 130.016C310.827 130.154 303.57 130.266 294.621 130.266C285.668 130.266 278.413 130.154 278.413 130.016C278.413 129.878 285.668 129.767 294.621 129.767C303.57 129.767 310.827 129.878 310.827 130.016Z" fill="#E0E0E0"/>
<path d="M310.524 149.35C310.524 149.488 303.267 149.6 294.318 149.6C285.366 149.6 278.111 149.488 278.111 149.35C278.111 149.212 285.366 149.1 294.318 149.1C303.267 149.1 310.524 149.212 310.524 149.35Z" fill="#E0E0E0"/>
<path d="M312.341 168.836C312.341 168.973 304.813 169.085 295.53 169.085C286.243 169.085 278.717 168.973 278.717 168.836C278.717 168.698 286.243 168.585 295.53 168.585C304.813 168.586 312.341 168.698 312.341 168.836Z" fill="#E0E0E0"/>
<path d="M312.35 109.547C312.388 109.68 304.459 112.041 294.642 114.819C284.822 117.598 276.834 119.743 276.796 119.61C276.758 119.478 284.686 117.118 294.505 114.338C304.322 111.56 312.312 109.414 312.35 109.547Z" fill="#E0E0E0"/>
<path d="M288.908 144.456C288.81 144.358 290.572 142.443 292.843 140.178C295.114 137.913 297.035 136.156 297.133 136.254C297.231 136.351 295.469 138.266 293.198 140.531C290.926 142.796 289.006 144.553 288.908 144.456Z" fill="#E0E0E0"/>
<path d="M294.384 136.678C294.48 136.778 293.845 137.535 292.968 138.367C292.09 139.201 291.301 139.795 291.205 139.695C291.11 139.595 291.744 138.839 292.622 138.005C293.5 137.173 294.289 136.578 294.384 136.678Z" fill="#E0E0E0"/>
<path d="M296.405 158.552C296.504 158.648 294.999 160.336 293.045 162.32C291.09 164.305 289.425 165.835 289.327 165.739C289.228 165.642 290.732 163.955 292.688 161.97C294.642 159.985 296.306 158.455 296.405 158.552Z" fill="#E0E0E0"/>
<path d="M293.655 159.408C293.757 159.5 293.258 160.218 292.539 161.011C291.82 161.805 291.154 162.373 291.052 162.28C290.949 162.188 291.449 161.47 292.168 160.676C292.886 159.883 293.553 159.315 293.655 159.408Z" fill="#E0E0E0"/>
<path d="M306.03 120.384C306.135 120.473 305.387 121.518 304.36 122.718C303.332 123.917 302.414 124.816 302.309 124.727C302.204 124.637 302.952 123.592 303.979 122.393C305.006 121.194 305.925 120.294 306.03 120.384Z" fill="#E0E0E0"/>
<path d="M305.196 119.115C305.299 119.207 304.767 119.958 304.01 120.792C303.251 121.626 302.554 122.227 302.452 122.134C302.349 122.041 302.88 121.29 303.638 120.456C304.395 119.623 305.093 119.022 305.196 119.115Z" fill="#E0E0E0"/>
<path d="M284.579 175.681C284.692 175.761 284.235 176.598 283.557 177.552C282.88 178.506 282.239 179.214 282.126 179.134C282.013 179.054 282.471 178.217 283.148 177.263C283.826 176.31 284.466 175.601 284.579 175.681Z" fill="#E0E0E0"/>
<path d="M283.714 174.529C283.814 174.624 283.412 175.216 282.814 175.852C282.216 176.488 281.65 176.926 281.549 176.832C281.448 176.738 281.851 176.146 282.449 175.51C283.046 174.874 283.613 174.435 283.714 174.529Z" fill="#E0E0E0"/>
<path d="M152.575 102.906H130.579V172.423H152.575V102.906Z" fill="#F5F5F5"/>
<path d="M152.574 102.906H141.577V172.232H152.574V102.906Z" fill="#EBEBEB"/>
<path d="M140.858 96.0817H133.091V102.907H140.858V96.0817Z" fill="#F5F5F5"/>
<path d="M140.857 96.0817H139.006V102.907H140.857V96.0817Z" fill="#EBEBEB"/>
<path d="M128.745 102.906V102.508H153.218V102.906" fill="#E0E0E0"/>
<path d="M136.782 105.883H134.92V109.798H136.782V105.883Z" fill="#FAFAFA"/>
<path d="M141.576 111.334C141.576 111.376 139.114 111.409 136.078 111.409C133.04 111.409 130.578 111.376 130.578 111.334C130.578 111.293 133.04 111.26 136.078 111.26C139.114 111.259 141.576 111.293 141.576 111.334Z" fill="#E0E0E0"/>
<path d="M147.876 105.883H146.014V109.798H147.876V105.883Z" fill="#E0E0E0"/>
<path d="M152.67 111.334C152.67 111.376 150.208 111.409 147.171 111.409C144.133 111.409 141.672 111.376 141.672 111.334C141.672 111.293 144.133 111.26 147.171 111.26C150.208 111.259 152.67 111.293 152.67 111.334Z" fill="#E0E0E0"/>
<path d="M147.876 113.656H146.014V117.571H147.876V113.656Z" fill="#E0E0E0"/>
<path d="M152.67 119.107C152.67 119.149 150.208 119.182 147.171 119.182C144.133 119.182 141.672 119.149 141.672 119.107C141.672 119.066 144.133 119.033 147.171 119.033C150.208 119.032 152.67 119.066 152.67 119.107Z" fill="#E0E0E0"/>
<path d="M147.876 121.663H146.014V125.578H147.876V121.663Z" fill="#E0E0E0"/>
<path d="M152.67 127.115C152.67 127.156 150.208 127.189 147.171 127.189C144.133 127.189 141.672 127.156 141.672 127.115C141.672 127.074 144.133 127.04 147.171 127.04C150.208 127.04 152.67 127.073 152.67 127.115Z" fill="#E0E0E0"/>
<path d="M147.876 129.671H146.014V133.586H147.876V129.671Z" fill="#E0E0E0"/>
<path d="M152.67 135.122C152.67 135.163 150.208 135.197 147.171 135.197C144.133 135.197 141.672 135.164 141.672 135.122C141.672 135.08 144.133 135.047 147.171 135.047C150.208 135.047 152.67 135.081 152.67 135.122Z" fill="#E0E0E0"/>
<path d="M147.876 137.449H146.014V141.364H147.876V137.449Z" fill="#E0E0E0"/>
<path d="M152.67 142.9C152.67 142.941 150.208 142.975 147.171 142.975C144.133 142.975 141.672 142.941 141.672 142.9C141.672 142.859 144.133 142.826 147.171 142.826C150.208 142.826 152.67 142.859 152.67 142.9Z" fill="#E0E0E0"/>
<path d="M147.876 145.259H146.014V149.174H147.876V145.259Z" fill="#E0E0E0"/>
<path d="M147.876 153.171H146.014V157.086H147.876V153.171Z" fill="#E0E0E0"/>
<path d="M152.67 150.71C152.67 150.751 150.208 150.785 147.171 150.785C144.133 150.785 141.672 150.751 141.672 150.71C141.672 150.669 144.133 150.635 147.171 150.635C150.208 150.636 152.67 150.669 152.67 150.71Z" fill="#E0E0E0"/>
<path d="M136.782 113.774H134.92V117.689H136.782V113.774Z" fill="#FAFAFA"/>
<path d="M141.576 119.226C141.576 119.267 139.114 119.301 136.078 119.301C133.04 119.301 130.578 119.267 130.578 119.226C130.578 119.185 133.04 119.151 136.078 119.151C139.114 119.151 141.576 119.184 141.576 119.226Z" fill="#E0E0E0"/>
<path d="M136.782 121.666H134.92V125.581H136.782V121.666Z" fill="#FAFAFA"/>
<path d="M141.576 127.117C141.576 127.158 139.114 127.192 136.078 127.192C133.04 127.192 130.578 127.159 130.578 127.117C130.578 127.076 133.04 127.043 136.078 127.043C139.114 127.043 141.576 127.076 141.576 127.117Z" fill="#E0E0E0"/>
<path d="M136.782 129.557H134.92V133.473H136.782V129.557Z" fill="#FAFAFA"/>
<path d="M141.576 135.009C141.576 135.05 139.114 135.083 136.078 135.083C133.04 135.083 130.578 135.05 130.578 135.009C130.578 134.968 133.04 134.934 136.078 134.934C139.114 134.934 141.576 134.968 141.576 135.009Z" fill="#E0E0E0"/>
<path d="M136.782 137.449H134.92V141.364H136.782V137.449Z" fill="#FAFAFA"/>
<path d="M141.576 142.9C141.576 142.942 139.114 142.975 136.078 142.975C133.04 142.975 130.578 142.942 130.578 142.9C130.578 142.859 133.04 142.826 136.078 142.826C139.114 142.826 141.576 142.859 141.576 142.9Z" fill="#E0E0E0"/>
<path d="M136.782 145.34H134.92V149.255H136.782V145.34Z" fill="#FAFAFA"/>
<path d="M141.576 150.792C141.576 150.833 139.114 150.867 136.078 150.867C133.04 150.867 130.578 150.834 130.578 150.792C130.578 150.751 133.04 150.718 136.078 150.718C139.114 150.718 141.576 150.751 141.576 150.792Z" fill="#E0E0E0"/>
<path d="M136.782 153.232H134.92V157.147H136.782V153.232Z" fill="#FAFAFA"/>
<path d="M165.452 133.804H124.172V188.102H165.452V133.804Z" fill="#EBEBEB"/>
<path d="M165.452 133.804H146.097V188.102H165.452V133.804Z" fill="#E0E0E0"/>
<path d="M136.54 141.156H132.828V150.148H136.54V141.156Z" fill="#F5F5F5"/>
<path d="M136.54 176.352H132.828V185.344H136.54V176.352Z" fill="#F5F5F5"/>
<path d="M146.097 153.678C146.097 153.779 141.189 153.861 135.135 153.861C129.08 153.861 124.172 153.779 124.172 153.678C124.172 153.577 129.08 153.495 135.135 153.495C141.189 153.495 146.097 153.577 146.097 153.678Z" fill="#F5F5F5"/>
<path d="M136.54 158.887H132.828V167.88H136.54V158.887Z" fill="#F5F5F5"/>
<path d="M146.097 171.409C146.097 171.51 141.189 171.592 135.135 171.592C129.08 171.592 124.172 171.51 124.172 171.409C124.172 171.308 129.08 171.226 135.135 171.226C141.189 171.227 146.097 171.308 146.097 171.409Z" fill="#F5F5F5"/>
<path d="M153.919 141.156H150.207V150.148H153.919V141.156Z" fill="#F5F5F5"/>
<path d="M161.971 141.156H158.259V150.148H161.971V141.156Z" fill="#F5F5F5"/>
<path d="M153.919 158.22H150.207V167.213H153.919V158.22Z" fill="#F5F5F5"/>
<path d="M161.971 158.22H158.259V167.213H161.971V158.22Z" fill="#F5F5F5"/>
<path d="M153.919 175.284H150.207V184.277H153.919V175.284Z" fill="#F5F5F5"/>
<path d="M161.971 175.284H158.259V184.277H161.971V175.284Z" fill="#F5F5F5"/>
<path d="M168.556 131.914H121.069V133.872H168.556V131.914Z" fill="#E0E0E0"/>
<path d="M165.741 134.056C165.741 134.158 156.514 134.239 145.135 134.239C133.753 134.239 124.528 134.158 124.528 134.056C124.528 133.956 133.753 133.873 145.135 133.873C156.514 133.874 165.741 133.956 165.741 134.056Z" fill="#EBEBEB"/>
<path d="M48.6604 78.8102H19.041V172.424H48.6604V78.8102Z" fill="#F5F5F5"/>
<path d="M48.6608 78.8102H33.8508V172.166H48.6608V78.8102Z" fill="#EBEBEB"/>
<path d="M32.8825 69.62H22.4231V78.8102H32.8825V69.62Z" fill="#F5F5F5"/>
<path d="M32.8826 69.62H30.3899V78.8102H32.8826V69.62Z" fill="#EBEBEB"/>
<path d="M16.5725 78.8102V78.2744H49.5276V78.8102" fill="#E0E0E0"/>
<path d="M27.3949 82.8187H24.8877V88.0909H27.3949V82.8187Z" fill="#FAFAFA"/>
<path d="M33.851 90.1595C33.851 90.2152 30.5352 90.2602 26.4462 90.2602C22.3558 90.2602 19.041 90.2152 19.041 90.1595C19.041 90.1039 22.3558 90.0588 26.4462 90.0588C30.5352 90.0588 33.851 90.1043 33.851 90.1595Z" fill="#E0E0E0"/>
<path d="M42.3336 82.8187H39.8264V88.0909H42.3336V82.8187Z" fill="#E0E0E0"/>
<path d="M48.7894 90.1595C48.7894 90.2152 45.4741 90.2602 41.3847 90.2602C37.2943 90.2602 33.9795 90.2152 33.9795 90.1595C33.9795 90.1039 37.2943 90.0588 41.3847 90.0588C45.4741 90.0588 48.7894 90.1043 48.7894 90.1595Z" fill="#E0E0E0"/>
<path d="M42.3336 93.2856H39.8264V98.5579H42.3336V93.2856Z" fill="#E0E0E0"/>
<path d="M48.7894 100.627C48.7894 100.683 45.4741 100.728 41.3847 100.728C37.2943 100.728 33.9795 100.683 33.9795 100.627C33.9795 100.571 37.2943 100.526 41.3847 100.526C45.4741 100.526 48.7894 100.571 48.7894 100.627Z" fill="#E0E0E0"/>
<path d="M42.3336 104.069H39.8264V109.341H42.3336V104.069Z" fill="#E0E0E0"/>
<path d="M48.7894 111.41C48.7894 111.466 45.4741 111.511 41.3847 111.511C37.2943 111.511 33.9795 111.466 33.9795 111.41C33.9795 111.354 37.2943 111.309 41.3847 111.309C45.4741 111.309 48.7894 111.354 48.7894 111.41Z" fill="#E0E0E0"/>
<path d="M42.3336 114.852H39.8264V120.123H42.3336V114.852Z" fill="#E0E0E0"/>
<path d="M48.7894 122.192C48.7894 122.248 45.4741 122.293 41.3847 122.293C37.2943 122.293 33.9795 122.248 33.9795 122.192C33.9795 122.137 37.2943 122.092 41.3847 122.092C45.4741 122.092 48.7894 122.137 48.7894 122.192Z" fill="#E0E0E0"/>
<path d="M42.3336 125.326H39.8264V130.599H42.3336V125.326Z" fill="#E0E0E0"/>
<path d="M48.7894 132.667C48.7894 132.723 45.4741 132.768 41.3847 132.768C37.2943 132.768 33.9795 132.723 33.9795 132.667C33.9795 132.612 37.2943 132.567 41.3847 132.567C45.4741 132.567 48.7894 132.612 48.7894 132.667Z" fill="#E0E0E0"/>
<path d="M42.3336 135.843H39.8264V141.115H42.3336V135.843Z" fill="#E0E0E0"/>
<path d="M42.3336 146.498H39.8264V151.77H42.3336V146.498Z" fill="#E0E0E0"/>
<path d="M48.7894 143.184C48.7894 143.24 45.4741 143.285 41.3847 143.285C37.2943 143.285 33.9795 143.24 33.9795 143.184C33.9795 143.128 37.2943 143.083 41.3847 143.083C45.4741 143.083 48.7894 143.128 48.7894 143.184Z" fill="#E0E0E0"/>
<path d="M27.3949 93.4454H24.8877V98.7176H27.3949V93.4454Z" fill="#FAFAFA"/>
<path d="M33.851 100.787C33.851 100.842 30.5352 100.887 26.4462 100.887C22.3558 100.887 19.041 100.842 19.041 100.787C19.041 100.731 22.3558 100.686 26.4462 100.686C30.5352 100.686 33.851 100.731 33.851 100.787Z" fill="#E0E0E0"/>
<path d="M27.3949 104.073H24.8877V109.345H27.3949V104.073Z" fill="#FAFAFA"/>
<path d="M33.851 111.413C33.851 111.469 30.5352 111.514 26.4462 111.514C22.3558 111.514 19.041 111.469 19.041 111.413C19.041 111.358 22.3558 111.313 26.4462 111.313C30.5352 111.313 33.851 111.358 33.851 111.413Z" fill="#E0E0E0"/>
<path d="M27.3949 114.699H24.8877V119.971H27.3949V114.699Z" fill="#FAFAFA"/>
<path d="M33.851 122.041C33.851 122.096 30.5352 122.141 26.4462 122.141C22.3558 122.141 19.041 122.096 19.041 122.041C19.041 121.985 22.3558 121.94 26.4462 121.94C30.5352 121.94 33.851 121.985 33.851 122.041Z" fill="#E0E0E0"/>
<path d="M27.3949 125.326H24.8877V130.599H27.3949V125.326Z" fill="#FAFAFA"/>
<path d="M33.851 132.667C33.851 132.723 30.5352 132.768 26.4462 132.768C22.3558 132.768 19.041 132.723 19.041 132.667C19.041 132.612 22.3558 132.567 26.4462 132.567C30.5352 132.567 33.851 132.612 33.851 132.667Z" fill="#E0E0E0"/>
<path d="M27.3949 135.953H24.8877V141.225H27.3949V135.953Z" fill="#FAFAFA"/>
<path d="M33.851 143.295C33.851 143.35 30.5352 143.395 26.4462 143.395C22.3558 143.395 19.041 143.35 19.041 143.295C19.041 143.239 22.3558 143.194 26.4462 143.194C30.5352 143.194 33.851 143.239 33.851 143.295Z" fill="#E0E0E0"/>
<path d="M27.3949 146.58H24.8877V151.852H27.3949V146.58Z" fill="#FAFAFA"/>
<path d="M52.4053 133.804H11.1252V188.102H52.4053V133.804Z" fill="#EBEBEB"/>
<path d="M52.4054 133.804H33.0503V188.102H52.4054V133.804Z" fill="#E0E0E0"/>
<path d="M23.4926 141.156H19.7808V150.148H23.4926V141.156Z" fill="#F5F5F5"/>
<path d="M23.4926 176.352H19.7808V185.344H23.4926V176.352Z" fill="#F5F5F5"/>
<path d="M33.0502 153.678C33.0502 153.779 28.142 153.861 22.0884 153.861C16.0329 153.861 11.1257 153.779 11.1257 153.678C11.1257 153.577 16.0329 153.495 22.0884 153.495C28.142 153.495 33.0502 153.577 33.0502 153.678Z" fill="#F5F5F5"/>
<path d="M23.4926 158.887H19.7808V167.88H23.4926V158.887Z" fill="#F5F5F5"/>
<path d="M33.0502 171.409C33.0502 171.51 28.142 171.592 22.0884 171.592C16.0329 171.592 11.1257 171.51 11.1257 171.409C11.1257 171.308 16.0329 171.226 22.0884 171.226C28.142 171.227 33.0502 171.308 33.0502 171.409Z" fill="#F5F5F5"/>
<path d="M40.8717 141.156H37.1604V150.148H40.8717V141.156Z" fill="#F5F5F5"/>
<path d="M48.9245 141.156H45.2126V150.148H48.9245V141.156Z" fill="#F5F5F5"/>
<path d="M40.8717 158.22H37.1604V167.213H40.8717V158.22Z" fill="#F5F5F5"/>
<path d="M48.9245 158.22H45.2126V167.213H48.9245V158.22Z" fill="#F5F5F5"/>
<path d="M40.8717 175.284H37.1604V184.277H40.8717V175.284Z" fill="#F5F5F5"/>
<path d="M48.9245 175.284H45.2126V184.277H48.9245V175.284Z" fill="#F5F5F5"/>
<path d="M55.5084 131.914H8.02197V133.872H55.5084V131.914Z" fill="#E0E0E0"/>
<path d="M52.694 134.056C52.694 134.158 43.4673 134.239 32.0887 134.239C20.7062 134.239 11.4814 134.158 11.4814 134.056C11.4814 133.956 20.7062 133.873 32.0887 133.873C43.4673 133.874 52.694 133.956 52.694 134.056Z" fill="#EBEBEB"/>
<path d="M124.073 188.104H82.4635L82.2825 122.524H123.891L124.073 188.104Z" fill="#EBEBEB"/>
<path d="M123.891 122.524H103.087V188.104H123.891V122.524Z" fill="#E0E0E0"/>
<path d="M101.726 109.614H87.0332V122.525H101.726V109.614Z" fill="#EBEBEB"/>
<path d="M101.727 109.614H98.2246V122.525H101.727V109.614Z" fill="#E0E0E0"/>
<path d="M125.109 121.771H78.8147V122.525H125.109V121.771Z" fill="#E0E0E0"/>
<path d="M94.0177 128.155H90.4956V135.561H94.0177V128.155Z" fill="white"/>
<path d="M103.087 138.468C103.087 138.546 98.429 138.609 92.6851 138.609C86.9392 138.609 82.2825 138.546 82.2825 138.468C82.2825 138.39 86.9392 138.327 92.6851 138.327C98.429 138.326 103.087 138.39 103.087 138.468Z" fill="#E0E0E0"/>
<path d="M115.003 128.155H111.481V135.561H115.003V128.155Z" fill="#F5F5F5"/>
<path d="M124.072 138.468C124.072 138.546 119.414 138.609 113.67 138.609C107.924 138.609 103.268 138.546 103.268 138.468C103.268 138.39 107.924 138.327 113.67 138.327C119.414 138.326 124.072 138.39 124.072 138.468Z" fill="#EBEBEB"/>
<path d="M115.003 142.859H111.481V150.265H115.003V142.859Z" fill="#F5F5F5"/>
<path d="M124.072 153.172C124.072 153.25 119.414 153.313 113.67 153.313C107.924 153.313 103.268 153.25 103.268 153.172C103.268 153.094 107.924 153.031 113.67 153.031C119.414 153.03 124.072 153.094 124.072 153.172Z" fill="#EBEBEB"/>
<path d="M115.003 158.007H111.481V165.413H115.003V158.007Z" fill="#F5F5F5"/>
<path d="M124.072 168.319C124.072 168.397 119.414 168.461 113.67 168.461C107.924 168.461 103.268 168.397 103.268 168.319C103.268 168.241 107.924 168.178 113.67 168.178C119.414 168.178 124.072 168.241 124.072 168.319Z" fill="#EBEBEB"/>
<path d="M115.003 173.154H111.481V180.561H115.003V173.154Z" fill="#F5F5F5"/>
<path d="M124.072 183.467C124.072 183.545 119.414 183.608 113.67 183.608C107.924 183.608 103.268 183.545 103.268 183.467C103.268 183.389 107.924 183.326 113.67 183.326C119.414 183.326 124.072 183.389 124.072 183.467Z" fill="#EBEBEB"/>
<path d="M94.0177 143.083H90.4956V150.49H94.0177V143.083Z" fill="white"/>
<path d="M103.087 153.396C103.087 153.474 98.429 153.537 92.6851 153.537C86.9392 153.537 82.2825 153.474 82.2825 153.396C82.2825 153.318 86.9392 153.255 92.6851 153.255C98.429 153.255 103.087 153.318 103.087 153.396Z" fill="#E0E0E0"/>
<path d="M94.0177 158.012H90.4956V165.418H94.0177V158.012Z" fill="white"/>
<path d="M103.087 168.325C103.087 168.402 98.429 168.466 92.6851 168.466C86.9392 168.466 82.2825 168.402 82.2825 168.325C82.2825 168.247 86.9392 168.183 92.6851 168.183C98.429 168.183 103.087 168.247 103.087 168.325Z" fill="#E0E0E0"/>
<path d="M94.0177 172.94H90.4956V180.347H94.0177V172.94Z" fill="white"/>
<path d="M103.087 183.253C103.087 183.331 98.429 183.394 92.6851 183.394C86.9392 183.394 82.2825 183.331 82.2825 183.253C82.2825 183.175 86.9392 183.112 92.6851 183.112C98.429 183.112 103.087 183.175 103.087 183.253Z" fill="#E0E0E0"/>
<path d="M112.504 55.8182C112.642 55.8182 112.755 58.6864 112.755 62.2235C112.755 65.762 112.642 68.6292 112.504 68.6292C112.366 68.6292 112.254 65.762 112.254 62.2235C112.254 58.6864 112.366 55.8182 112.504 55.8182Z" fill="#E0E0E0"/>
<path d="M125.279 69.6257L89.4541 79.766V148.472H125.279V69.6257Z" fill="#E0E0E0"/>
<path d="M94.8267 78.2072V66.0229H116.883V71.9641L94.8267 78.2072Z" fill="#E0E0E0"/>
<path d="M92.1846 80.4495L92.468 143.628H121.609V72.115L92.1846 80.4495Z" fill="white"/>
<path d="M100.064 145.067C99.9256 145.067 99.8135 129.906 99.8135 111.209C99.8135 92.505 99.9256 77.3475 100.064 77.3475C100.202 77.3475 100.314 92.505 100.314 111.209C100.314 129.906 100.202 145.067 100.064 145.067Z" fill="#E0E0E0"/>
<path d="M112.312 145.067C112.174 145.067 112.062 129.061 112.062 109.322C112.062 89.5767 112.174 73.5752 112.312 73.5752C112.451 73.5752 112.563 89.5772 112.563 109.322C112.563 129.061 112.451 145.067 112.312 145.067Z" fill="#E0E0E0"/>
<path d="M123.62 90.0946C123.62 90.2325 116.364 90.3443 107.415 90.3443C98.4623 90.3443 91.207 90.2325 91.207 90.0946C91.207 89.9566 98.4623 89.8448 107.415 89.8448C116.364 89.8448 123.62 89.9571 123.62 90.0946Z" fill="#E0E0E0"/>
<path d="M123.317 109.429C123.317 109.567 116.061 109.679 107.112 109.679C98.1591 109.679 90.9038 109.567 90.9038 109.429C90.9038 109.291 98.1591 109.179 107.112 109.179C116.061 109.179 123.317 109.291 123.317 109.429Z" fill="#E0E0E0"/>
<path d="M125.135 128.914C125.135 129.052 117.607 129.164 108.323 129.164C99.0361 129.164 91.5095 129.052 91.5095 128.914C91.5095 128.776 99.0356 128.664 108.323 128.664C117.607 128.664 125.135 128.776 125.135 128.914Z" fill="#E0E0E0"/>
<path d="M125.144 69.6258C125.181 69.7584 117.253 72.1189 107.436 74.8976C97.6159 77.6772 89.6273 79.8218 89.5895 79.6892C89.5516 79.5565 97.4791 77.1966 107.299 74.4169C117.116 71.6388 125.106 69.4932 125.144 69.6258Z" fill="#E0E0E0"/>
<path d="M101.702 104.534C101.604 104.436 103.366 102.521 105.637 100.257C107.908 97.9915 109.829 96.2346 109.927 96.3324C110.025 96.4297 108.263 98.3449 105.992 100.61C103.72 102.875 101.799 104.632 101.702 104.534Z" fill="#E0E0E0"/>
<path d="M107.178 96.7569C107.273 96.8571 106.639 97.6135 105.761 98.446C104.883 99.2795 104.094 99.8733 103.999 99.7736C103.904 99.6735 104.538 98.9174 105.416 98.084C106.294 97.251 107.082 96.6567 107.178 96.7569Z" fill="#E0E0E0"/>
<path d="M109.199 118.63C109.298 118.727 107.793 120.414 105.838 122.399C103.884 124.384 102.219 125.914 102.12 125.817C102.022 125.72 103.526 124.034 105.481 122.049C107.436 120.064 109.1 118.534 109.199 118.63Z" fill="#E0E0E0"/>
<path d="M106.449 119.486C106.551 119.578 106.052 120.297 105.333 121.09C104.614 121.883 103.949 122.451 103.846 122.359C103.743 122.266 104.242 121.548 104.961 120.755C105.68 119.962 106.346 119.394 106.449 119.486Z" fill="#E0E0E0"/>
<path d="M118.824 80.4626C118.929 80.5521 118.181 81.5971 117.154 82.7964C116.126 83.9958 115.208 84.895 115.103 84.8055C114.998 84.716 115.745 83.671 116.773 82.4716C117.8 81.2728 118.719 80.373 118.824 80.4626Z" fill="#E0E0E0"/>
<path d="M117.989 79.1936C118.092 79.286 117.561 80.0372 116.803 80.8711C116.045 81.705 115.348 82.3057 115.245 82.2127C115.142 82.1203 115.673 81.3691 116.431 80.5352C117.19 79.7018 117.887 79.1006 117.989 79.1936Z" fill="#E0E0E0"/>
<path d="M97.3727 135.759C97.4853 135.839 97.0282 136.677 96.3511 137.63C95.6736 138.584 95.033 139.292 94.9199 139.212C94.8073 139.133 95.2645 138.295 95.942 137.341C96.6195 136.388 97.2602 135.68 97.3727 135.759Z" fill="#E0E0E0"/>
<path d="M96.507 134.608C96.6079 134.702 96.2051 135.294 95.6077 135.93C95.0097 136.566 94.4438 137.005 94.3424 136.91C94.2415 136.816 94.6443 136.224 95.2422 135.588C95.8401 134.953 96.4065 134.514 96.507 134.608Z" fill="#E0E0E0"/>
<path d="M348.826 219.482H346.598C345.856 219.482 345.253 219.706 345.253 219.983V223.75C345.253 224.075 345.962 224.339 346.836 224.339H348.131V224.56C347.73 225.209 346.425 226.618 342.628 226.671C340.307 226.703 337.412 226.709 335.612 226.709V205.189C335.729 205.188 335.621 199.678 335.612 197.281L330.276 194.916H326.101H296.866H288.202C288.279 194.987 288.348 195.058 288.419 195.129H286.193C283.243 192.466 276.155 190.607 267.945 190.651C259.933 190.694 253.126 192.537 250.254 195.129H247.241C247.313 195.058 247.378 194.986 247.454 194.916H245.548H196.157H147.237H136.39H135.807C135.884 194.987 135.953 195.058 136.025 195.129H133.4C130.451 192.466 123.362 190.607 115.152 190.651C107.14 190.694 100.333 192.537 97.4612 195.129H94.8462C94.918 195.058 94.9831 194.986 95.0597 194.916H94.5128H66.51L36.5251 196.808L36.5892 198.006H36.5251L36.8183 202.552C36.8595 204.112 36.912 205.668 37.0813 207.187L36.9052 203.898V203.898L37.0813 207.187L46.3779 227.334C46.4327 228.355 48.6672 229.174 51.4132 229.179L66.9308 230.05L68.6246 230.626C69.5851 230.953 70.8392 231.134 72.1404 231.134H94.175C95.6028 231.134 96.9686 230.915 97.9523 230.531L99.0458 230.102L145.932 230.179V230.222H172.602L212.623 230.288L213.766 231.011C214.632 231.559 216.212 231.895 217.919 231.895H298.332C299.759 231.895 301.102 231.646 301.959 231.222L303.743 230.339L329.765 230.318C332.528 230.318 335.611 229.17 335.611 228.142V227.86H341.604C345.994 227.86 349.873 226.543 349.963 224.917L350.17 224.919V219.983C350.171 219.706 349.569 219.482 348.826 219.482Z" fill="#F5F5F5"/>
<path d="M40.8718 209.174C40.8718 209.174 63.9407 218.129 68.4261 217.741C72.9116 217.355 92.2812 216.689 92.2812 216.689L111.134 223.738C111.134 223.738 126.197 223.778 130.003 219.69C133.809 215.603 134.603 215.311 134.603 215.311H252.155L271.597 223.038C271.597 223.038 287.404 219.353 291.121 216.456H330.247V211.866C330.247 211.866 104.532 200.304 103.653 199.632C102.775 198.96 40.8718 209.174 40.8718 209.174Z" fill="#E0E0E0"/>
<path d="M204.176 98.2888C203.825 97.3542 203.467 96.4061 202.877 95.6002C202.286 94.7943 201.423 94.1342 200.43 94.0127C199.436 93.8912 198.335 94.426 198.012 95.3708C197.869 93.2421 197.567 91.0583 196.498 89.2104C195.43 87.3625 193.436 85.9105 191.301 86.0407C189.288 86.1636 187.564 87.6548 186.607 89.4248C185.649 91.1953 185.32 93.2257 185.006 95.2125C184.243 94.2789 182.631 94.5722 181.834 95.4777C181.038 96.3833 180.836 97.6495 180.667 98.8425H204.677L204.176 98.2888Z" fill="#F5F5F5"/>
<path d="M251.373 47.1072C251.115 46.4209 250.852 45.7249 250.419 45.1329C249.985 44.541 249.352 44.0565 248.622 43.9675C247.893 43.8784 247.084 44.2709 246.847 44.9645C246.742 43.4017 246.52 41.7982 245.735 40.441C244.951 39.0839 243.487 38.0181 241.919 38.1135C240.441 38.2035 239.175 39.2988 238.472 40.5983C237.769 41.8984 237.527 43.3891 237.296 44.8479C236.736 44.162 235.553 44.3774 234.968 45.0429C234.383 45.7079 234.235 46.6377 234.111 47.5137H251.741L251.373 47.1072Z" fill="#F5F5F5"/>
<path d="M320.97 66.3714C320.598 65.3811 320.218 64.3768 319.593 63.523C318.967 62.6692 318.053 61.9699 317 61.8411C315.948 61.7124 314.781 62.2791 314.438 63.28C314.287 61.0251 313.967 58.7111 312.835 56.7533C311.702 54.795 309.591 53.2569 307.329 53.3948C305.195 53.525 303.369 55.1048 302.354 56.9803C301.339 58.8558 300.991 61.0072 300.658 63.1121C299.85 62.1228 298.143 62.4335 297.299 63.3933C296.455 64.3531 296.241 65.6942 296.062 66.958H321.5L320.97 66.3714Z" fill="#F5F5F5"/>
<path d="M341.669 77.7154C341.485 77.2271 341.298 76.7314 340.989 76.3104C340.681 75.8893 340.23 75.5442 339.71 75.4808C339.191 75.4174 338.616 75.6966 338.447 76.1903C338.372 75.0781 338.214 73.9368 337.656 72.9708C337.097 72.0047 336.055 71.2463 334.94 71.314C333.887 71.3784 332.987 72.1576 332.486 73.0826C331.986 74.0075 331.814 75.0689 331.65 76.1071C331.251 75.6192 330.409 75.7726 329.992 76.2455C329.576 76.7189 329.47 77.3805 329.382 78.0039H341.93L341.669 77.7154Z" fill="#F5F5F5"/>
<path d="M338.345 49.0491C338.068 48.3134 337.787 47.5675 337.322 46.933C336.857 46.2985 336.178 45.7792 335.396 45.6838C334.614 45.5885 333.748 46.0091 333.493 46.7525C333.381 45.0774 333.142 43.3587 332.302 41.9038C331.461 40.4494 329.892 39.3066 328.211 39.4092C326.627 39.506 325.27 40.6797 324.517 42.0727C323.763 43.4661 323.504 45.0638 323.257 46.6276C322.656 45.8924 321.388 46.1238 320.761 46.8362C320.134 47.5492 319.975 48.5457 319.842 49.4847H338.739L338.345 49.0491Z" fill="#EBEBEB"/>
<path d="M166.707 52.9796C166.449 52.2933 166.186 51.5973 165.753 51.0054C165.32 50.4134 164.686 49.929 163.956 49.8399C163.227 49.7508 162.418 50.1434 162.181 50.8369C162.076 49.2741 161.854 47.6706 161.07 46.3135C160.285 44.9563 158.821 43.8906 157.253 43.9859C155.775 44.0759 154.509 45.1712 153.806 46.4708C153.103 47.7708 152.861 49.2615 152.631 50.7203C152.07 50.0345 150.887 50.2498 150.302 50.9153C149.718 51.5804 149.57 52.5101 149.445 53.3862H167.075L166.707 52.9796Z" fill="#F5F5F5"/>
<path d="M78.3661 82.0327C78.1084 81.3464 77.8453 80.6504 77.4114 80.0585C76.978 79.4665 76.3442 78.9821 75.6147 78.893C74.8853 78.8039 74.0767 79.1965 73.8394 79.89C73.7346 78.3272 73.5128 76.7237 72.728 75.3666C71.9432 74.0094 70.4794 72.9437 68.9118 73.039C67.4335 73.129 66.1677 74.2243 65.4645 75.5239C64.7612 76.8239 64.52 78.3146 64.289 79.7734C63.7284 79.0876 62.5457 79.3029 61.9604 79.9684C61.3755 80.6335 61.2275 81.5632 61.1033 82.4393H78.7335L78.3661 82.0327Z" fill="#EBEBEB"/>
<path d="M52.8372 50.4236C52.4786 49.4682 52.1126 48.4997 51.5089 47.6759C50.9056 46.8521 50.0233 46.1774 49.0079 46.0535C47.9926 45.9296 46.8676 46.4761 46.5366 47.4417C46.391 45.2666 46.0819 43.0348 44.9899 41.1458C43.8979 39.2572 41.8609 37.7733 39.6789 37.9064C37.6215 38.0317 35.8598 39.5558 34.8813 41.365C33.9024 43.1742 33.5666 45.2491 33.2453 47.2795C32.4654 46.3251 30.8186 46.6251 30.0047 47.5506C29.1908 48.4764 28.9845 49.7702 28.8118 50.9889H53.3488L52.8372 50.4236Z" fill="#F5F5F5"/>
<path d="M162.274 74.7663C161.905 73.7858 161.53 72.7916 160.91 71.9466C160.291 71.101 159.386 70.4089 158.344 70.2816C157.302 70.1543 156.147 70.7153 155.807 71.706C155.658 69.4733 155.341 67.183 154.22 65.2446C153.099 63.3062 151.008 61.7835 148.769 61.92C146.657 62.0488 144.85 63.613 143.845 65.4697C142.84 67.3263 142.496 69.4559 142.166 71.54C141.365 70.5604 139.675 70.8682 138.84 71.8183C138.004 72.7684 137.793 74.0965 137.615 75.3471H162.798L162.274 74.7663Z" fill="#EBEBEB"/>
<path d="M358.89 188.605C358.89 188.675 279.7 188.731 182.036 188.731C84.3384 188.731 5.16504 188.674 5.16504 188.605C5.16504 188.535 84.3384 188.479 182.036 188.479C279.7 188.479 358.89 188.535 358.89 188.605Z" fill="#263238"/>
<path d="M358.89 192.697C358.89 192.766 279.7 192.823 182.036 192.823C84.3384 192.823 5.16504 192.766 5.16504 192.697C5.16504 192.627 84.3384 192.571 182.036 192.571C279.7 192.571 358.89 192.627 358.89 192.697Z" fill="#263238"/>
<path d="M80.5736 247.474C80.5736 247.544 73.197 247.6 64.0999 247.6C54.9994 247.6 47.6248 247.544 47.6248 247.474C47.6248 247.404 54.9994 247.348 64.0999 247.348C73.197 247.348 80.5736 247.405 80.5736 247.474Z" fill="#263238"/>
<path d="M114.424 244.017C114.424 244.087 102.54 244.143 87.8842 244.143C73.2232 244.143 61.3418 244.086 61.3418 244.017C61.3418 243.947 73.2232 243.891 87.8842 243.891C102.54 243.891 114.424 243.948 114.424 244.017Z" fill="#263238"/>
<path d="M278.742 247.474C278.742 247.544 273.515 247.6 267.071 247.6C260.624 247.6 255.398 247.544 255.398 247.474C255.398 247.404 260.624 247.348 267.071 247.348C273.515 247.348 278.742 247.405 278.742 247.474Z" fill="#263238"/>
<path d="M295.611 244.017C295.611 244.087 289.463 244.143 281.881 244.143C274.296 244.143 268.149 244.086 268.149 244.017C268.149 243.947 274.296 243.891 281.881 243.891C289.463 243.891 295.611 243.948 295.611 244.017Z" fill="#263238"/>
<path d="M86.7159 56.2548C86.7096 56.2718 86.4136 56.1508 85.855 56.0269C85.2988 55.9049 84.464 55.7975 83.4516 55.9344C82.4465 56.0685 81.2554 56.4717 80.2134 57.3274C79.1734 58.1676 78.2833 59.4386 77.9275 60.9467C77.9241 60.9603 77.9202 60.9743 77.9173 60.9869L77.8508 61.2454L77.7513 61C77.1694 59.5668 76.1357 58.4285 75.0145 57.7044C73.8905 56.9673 72.6811 56.6619 71.6725 56.5931C70.6572 56.5225 69.8336 56.6682 69.2847 56.8114C68.7334 56.9566 68.4422 57.0839 68.4359 57.0675C68.4334 57.0621 68.5048 57.0278 68.6436 56.9678C68.7819 56.9068 68.9906 56.8269 69.2667 56.7461C69.8152 56.5815 70.647 56.4145 71.6808 56.4707C72.7073 56.5244 73.9473 56.8235 75.1024 57.5699C76.2541 58.3026 77.317 59.4647 77.9139 60.9351L77.7479 60.9487C77.7513 60.9356 77.7547 60.9216 77.7586 60.9075C78.1241 59.3568 79.0418 58.0568 80.1135 57.203C81.1875 56.3328 82.4125 55.933 83.437 55.8129C84.4698 55.689 85.3148 55.8178 85.8719 55.9615C86.152 56.0317 86.365 56.1043 86.5053 56.1614C86.6456 56.2171 86.7184 56.2495 86.7159 56.2548Z" fill="#263238"/>
<path d="M110.744 43.106C110.739 43.1206 110.574 43.0586 110.267 42.9957C109.961 42.9337 109.505 42.879 108.952 42.9574C108.404 43.0344 107.757 43.2566 107.191 43.7241C106.625 44.1829 106.142 44.8755 105.949 45.6954L105.943 45.7172L105.876 45.9757L105.777 45.7303C105.46 44.9506 104.898 44.3296 104.288 43.9332C103.677 43.53 103.019 43.3606 102.468 43.3195C101.914 43.2774 101.462 43.3524 101.16 43.4264C100.857 43.5015 100.695 43.5668 100.69 43.5528C100.687 43.5474 100.725 43.5261 100.801 43.4903C100.876 43.4545 100.991 43.408 101.142 43.3611C101.444 43.2658 101.903 43.1694 102.476 43.1965C103.044 43.2227 103.734 43.3858 104.376 43.7986C105.016 44.2037 105.607 44.8479 105.939 45.6649L105.773 45.6785L105.779 45.6557C105.983 44.7933 106.494 44.0716 107.09 43.5987C107.688 43.1167 108.369 42.8979 108.937 42.8345C109.51 42.7697 109.977 42.8452 110.284 42.9289C110.438 42.97 110.554 43.0126 110.631 43.0465C110.707 43.0804 110.747 43.1002 110.744 43.106Z" fill="#263238"/>
<path d="M95.0341 37.724C95.0448 37.7351 94.8696 37.9117 94.572 38.2462C94.274 38.5802 93.8678 39.0874 93.4446 39.7645C92.5929 41.1008 91.7406 43.2304 91.7697 45.6737C91.7697 45.6993 91.7692 45.7245 91.7692 45.7482L91.5955 45.7627C91.4145 44.5706 91.0155 43.4763 90.5122 42.5625C90.0099 41.6453 89.4202 40.9009 88.8626 40.3405C88.3059 39.778 87.7982 39.3817 87.4323 39.1309C87.0673 38.8793 86.8562 38.7525 86.864 38.7389C86.8669 38.7336 86.9227 38.7602 87.0261 38.8163C87.1275 38.8754 87.2852 38.9499 87.4702 39.0753C87.8497 39.31 88.3748 39.6958 88.9495 40.2538C89.5251 40.8104 90.1342 41.5582 90.6525 42.4855C91.1718 43.4105 91.5834 44.5227 91.7683 45.738L91.5945 45.7525C91.5945 45.7288 91.595 45.7027 91.595 45.6766C91.5654 43.1907 92.4521 41.0331 93.3403 39.6992C93.7819 39.023 94.2071 38.523 94.5221 38.2012C94.674 38.0347 94.8094 37.9219 94.8943 37.8401C94.9822 37.7598 95.0302 37.7196 95.0341 37.724Z" fill="#263238"/>
<path d="M201.055 69.6732C207.199 69.6732 212.181 64.7057 212.181 58.578C212.181 52.4503 207.199 47.4828 201.055 47.4828C194.91 47.4828 189.929 52.4503 189.929 58.578C189.929 64.7057 194.91 69.6732 201.055 69.6732Z" fill="url(#paint0_linear_12_2938)"/>
<path opacity="0.9" d="M201.055 69.6732C207.199 69.6732 212.181 64.7057 212.181 58.578C212.181 52.4503 207.199 47.4828 201.055 47.4828C194.91 47.4828 189.929 52.4503 189.929 58.578C189.929 64.7057 194.91 69.6732 201.055 69.6732Z" fill="white"/>
<path d="M210.713 60.8663C211.983 55.5499 208.691 50.2131 203.36 48.9463C198.029 47.6795 192.678 50.9624 191.407 56.2788C190.137 61.5952 193.429 66.932 198.76 68.1988C204.091 69.4656 209.442 66.1827 210.713 60.8663Z" fill="url(#paint1_linear_12_2938)"/>
<path opacity="0.6" d="M210.713 60.8663C211.983 55.5499 208.691 50.2131 203.36 48.9463C198.029 47.6795 192.678 50.9624 191.407 56.2788C190.137 61.5952 193.429 66.932 198.76 68.1988C204.091 69.4656 209.442 66.1827 210.713 60.8663Z" fill="white"/>
<path d="M201.055 66.8119C205.615 66.8119 209.311 63.1255 209.311 58.578C209.311 54.0306 205.615 50.3442 201.055 50.3442C196.495 50.3442 192.798 54.0306 192.798 58.578C192.798 63.1255 196.495 66.8119 201.055 66.8119Z" fill="url(#paint2_linear_12_2938)"/>
<path opacity="0.3" d="M201.055 66.8119C205.615 66.8119 209.311 63.1255 209.311 58.578C209.311 54.0306 205.615 50.3442 201.055 50.3442C196.495 50.3442 192.798 54.0306 192.798 58.578C192.798 63.1255 196.495 66.8119 201.055 66.8119Z" fill="white"/>
<path d="M203.566 64.6831C206.944 63.3013 208.559 59.4504 207.174 56.0818C205.788 52.7131 201.927 51.1025 198.549 52.4842C195.171 53.866 193.556 57.7169 194.941 61.0855C196.327 64.4542 200.188 66.0648 203.566 64.6831Z" fill="url(#paint3_linear_12_2938)"/>
<path d="M132.236 178.367H81.4395V211.273H132.236V178.367Z" fill="#FF725E"/>
<path opacity="0.3" d="M132.236 178.367H81.4395V211.273H132.236V178.367Z" fill="black"/>
<path d="M291.204 178.367H240.408V211.273H291.204V178.367Z" fill="#FF725E"/>
<path opacity="0.3" d="M291.204 178.367H240.408V211.273H291.204V178.367Z" fill="black"/>
<path d="M342.545 120.177H334.555V123.383C334.555 123.383 339.821 123.346 343.608 123.486C348.736 123.676 349.49 130.255 349.49 130.255L351.237 130.274V128.528C351.237 123.927 347.159 120.177 342.545 120.177Z" fill="#FF725E"/>
<path d="M349.324 128.426V129.975H347.98C347.071 129.975 346.336 130.708 346.336 131.614V142.1C346.336 142.869 346.961 143.493 347.732 143.493H350.047C350.818 143.493 351.444 142.869 351.444 142.1V128.362L349.324 128.426Z" fill="#FF725E"/>
<path d="M349.326 135.792C349.256 135.792 349.2 134.352 349.2 132.577C349.2 130.8 349.257 129.361 349.326 129.361C349.396 129.361 349.453 130.8 349.453 132.577C349.453 134.352 349.396 135.792 349.326 135.792Z" fill="#263238"/>
<path d="M303.218 113.279L301.366 110.822C300.475 109.641 299.08 108.946 297.599 108.946H214.072C212.298 108.946 210.658 109.882 209.758 111.407L208.57 113.421L32.6305 114.188C29.7782 114.201 27.4568 116.48 27.4 119.323L25.6548 206.602L56.8006 211.866H85.8871H86.4554C85.064 208.464 84.4655 204.655 84.914 200.661C86.1297 189.834 95.0764 181.298 105.974 180.537C119.337 179.605 130.468 190.14 130.468 203.267C130.468 206.31 129.866 209.212 128.78 211.866H129.386H242.771H244.751C243.359 208.463 242.761 204.655 243.209 200.662C244.424 189.835 253.37 181.298 264.267 180.537C277.631 179.604 288.763 190.139 288.763 203.267C288.763 206.31 288.16 209.212 287.075 211.866H330.778L336.321 205.285V119.394C336.321 116.532 333.118 113.338 330.248 113.338L303.218 113.279Z" fill="url(#paint4_linear_12_2938)"/>
<path d="M33.4944 125.683V165.731C33.4944 169.948 36.9228 173.367 41.152 173.367H136.976V126.751L33.4944 125.683Z" fill="#263238"/>
<path d="M37.0056 128.82V151.363L42.5777 154.975H84.0902V128.858L37.0056 128.82Z" fill="#455A64"/>
<path d="M87.8599 158.851V128.82H134.408V169.921L126.343 161.878C124.362 159.902 121.674 158.795 118.872 158.799L87.8599 158.851Z" fill="#455A64"/>
<path opacity="0.2" d="M92.2812 158.844L125.712 128.853L134.408 128.82L101.585 158.828L92.2812 158.844Z" fill="white"/>
<path d="M291.121 125.683H195.583V173.367H291.121V125.683Z" fill="#263238"/>
<path d="M241.24 127.919H197.858V170.583H241.24V127.919Z" fill="#455A64"/>
<path d="M288.359 127.919H244.977V170.583H288.359V127.919Z" fill="#455A64"/>
<path d="M232.954 211.854C232.954 211.854 232.946 211.698 232.942 211.405C232.939 211.104 232.935 210.674 232.93 210.118C232.924 208.986 232.914 207.342 232.903 205.249C232.89 201.056 232.871 195.07 232.848 187.854L232.954 187.959C224.449 187.965 214.222 187.972 203.223 187.98H203.22L203.346 187.854C203.342 196.528 203.337 204.721 203.333 211.854L203.22 211.742C212.042 211.765 219.459 211.784 224.682 211.798C227.291 211.811 229.352 211.821 230.771 211.828C231.47 211.834 232.012 211.838 232.388 211.842C232.566 211.845 232.704 211.847 232.807 211.848C232.902 211.85 232.952 211.852 232.954 211.854C232.956 211.856 232.911 211.858 232.821 211.86C232.721 211.862 232.587 211.864 232.414 211.867C232.043 211.869 231.509 211.874 230.819 211.88C229.406 211.887 227.354 211.897 224.756 211.91C219.516 211.924 212.073 211.944 203.221 211.967L203.108 211.967V211.854C203.104 204.721 203.099 196.529 203.094 187.854V187.728H203.221H203.223C214.222 187.736 224.449 187.743 232.954 187.749H233.06L233.059 187.854C233.037 195.098 233.018 201.106 233.005 205.315C232.993 207.397 232.984 209.034 232.978 210.161C232.973 210.709 232.969 211.132 232.966 211.428C232.961 211.713 232.954 211.854 232.954 211.854Z" fill="#263238"/>
<path d="M82.4988 211.866C82.4949 211.866 82.4915 211.809 82.4877 211.698C82.4847 211.577 82.4813 211.414 82.477 211.204C82.4721 210.758 82.4653 210.117 82.4566 209.293C82.4479 207.614 82.4357 205.19 82.4202 202.158C82.409 196.065 82.3935 187.532 82.376 177.715L82.4983 177.837C79.0165 177.838 75.3086 177.839 71.49 177.84C58.9951 177.826 47.6859 177.813 39.4861 177.804C35.3996 177.787 32.0892 177.773 29.7877 177.763C28.652 177.753 27.7653 177.745 27.1509 177.74C26.8583 177.734 26.6306 177.73 26.4651 177.727C26.3108 177.723 26.2317 177.714 26.2317 177.714C26.2317 177.714 26.3108 177.705 26.4651 177.701C26.6301 177.698 26.8583 177.694 27.1509 177.688C27.7653 177.683 28.6516 177.675 29.7877 177.665C32.0892 177.655 35.3996 177.642 39.4861 177.625C47.6854 177.615 58.9951 177.602 71.49 177.588C75.3081 177.589 79.0161 177.59 82.4983 177.592H82.6211V177.714C82.6032 187.531 82.5876 196.065 82.577 202.158C82.5614 205.19 82.5493 207.614 82.541 209.292C82.5323 210.116 82.5255 210.757 82.5207 211.204C82.5163 211.413 82.5124 211.577 82.51 211.698C82.5061 211.809 82.5022 211.866 82.4988 211.866Z" fill="#263238"/>
<path d="M58.0627 178.367C58.1326 178.367 58.1889 185.862 58.1889 195.104C58.1889 204.35 58.1321 211.842 58.0627 211.842C57.9928 211.842 57.9365 204.35 57.9365 195.104C57.936 185.862 57.9928 178.367 58.0627 178.367Z" fill="#263238"/>
<path d="M34.4338 177.971C34.5037 177.971 34.56 184.691 34.56 192.979C34.56 201.27 34.5032 207.989 34.4338 207.989C34.3639 207.989 34.3076 201.27 34.3076 192.979C34.3076 184.691 34.3644 177.971 34.4338 177.971Z" fill="#263238"/>
<path d="M79.1361 204.527C79.1342 204.525 79.1317 204.489 79.1298 204.421C79.1283 204.343 79.1259 204.245 79.1235 204.119C79.1206 203.843 79.1157 203.456 79.1104 202.958C79.1036 201.934 79.0934 200.458 79.0808 198.588C79.0672 194.836 79.0478 189.511 79.0245 183.161L79.1361 183.272C73.6494 183.277 67.2867 183.282 60.5323 183.287C60.5022 183.313 60.7701 183.05 60.6566 183.165V183.171V183.182V183.206V183.252V183.344V183.528V183.897V184.631C60.6566 185.119 60.6566 185.605 60.6566 186.089C60.6561 187.056 60.6561 188.014 60.6556 188.96C60.6541 190.853 60.6532 192.702 60.6517 194.497C60.6464 198.085 60.6415 201.457 60.6371 204.527L60.5304 204.421C66.1107 204.443 70.7466 204.462 74.0018 204.475C75.6223 204.487 76.8982 204.497 77.783 204.503C78.212 204.508 78.5455 204.512 78.7847 204.515C79.0128 204.519 79.1361 204.527 79.1361 204.527C79.1361 204.527 79.0284 204.534 78.808 204.538C78.5736 204.541 78.247 204.545 77.8267 204.55C76.9473 204.557 75.6796 204.566 74.0692 204.578C70.7976 204.591 66.1384 204.61 60.5304 204.633L60.4241 204.633V204.526C60.4197 201.455 60.4149 198.084 60.4095 194.496C60.4081 192.701 60.4071 190.852 60.4056 188.959C60.4052 188.012 60.4052 187.055 60.4047 186.088C60.4047 185.604 60.4047 185.118 60.4042 184.63V183.896V183.527V183.343V183.251V183.205V183.181V183.17V183.164C60.2916 183.275 60.5571 183.006 60.5323 183.034C67.2867 183.04 73.6494 183.044 79.1361 183.049H79.2482L79.2477 183.16C79.2244 189.54 79.205 194.89 79.1914 198.659C79.1788 200.517 79.1691 201.986 79.1618 203.003C79.156 203.492 79.1516 203.872 79.1487 204.143C79.1458 204.263 79.1439 204.357 79.1424 204.432C79.1405 204.497 79.1385 204.529 79.1361 204.527Z" fill="#263238"/>
<path d="M62.7978 183.161C62.8677 183.161 62.924 187.944 62.924 193.843C62.924 199.744 62.8672 204.526 62.7978 204.526C62.7279 204.526 62.6716 199.744 62.6716 193.843C62.6716 187.944 62.7279 183.161 62.7978 183.161Z" fill="#263238"/>
<path d="M65.6118 183.161C65.6817 183.161 65.738 187.944 65.738 193.843C65.738 199.744 65.6812 204.526 65.6118 204.526C65.5419 204.526 65.4856 199.744 65.4856 193.843C65.4856 187.944 65.5424 183.161 65.6118 183.161Z" fill="#263238"/>
<path d="M68.4262 183.161C68.4961 183.161 68.5524 187.944 68.5524 193.843C68.5524 199.744 68.4956 204.526 68.4262 204.526C68.3564 204.526 68.3 199.744 68.3 193.843C68.3 187.944 68.3564 183.161 68.4262 183.161Z" fill="#263238"/>
<path d="M71.2407 183.161C71.3106 183.161 71.3669 187.944 71.3669 193.843C71.3669 199.744 71.3101 204.526 71.2407 204.526C71.1708 204.526 71.1145 199.744 71.1145 193.843C71.114 187.944 71.1708 183.161 71.2407 183.161Z" fill="#263238"/>
<path d="M74.0547 183.161C74.1245 183.161 74.1808 187.944 74.1808 193.843C74.1808 199.744 74.1241 204.526 74.0547 204.526C73.9853 204.526 73.9285 199.744 73.9285 193.843C73.9285 187.944 73.9848 183.161 74.0547 183.161Z" fill="#263238"/>
<path d="M76.8691 183.161C76.939 183.161 76.9953 187.944 76.9953 193.843C76.9953 199.744 76.9385 204.526 76.8691 204.526C76.7997 204.526 76.7429 199.744 76.7429 193.843C76.7429 187.944 76.7992 183.161 76.8691 183.161Z" fill="#263238"/>
<path d="M191.466 131.408H140.653V211.866H191.466V131.408Z" fill="#263238"/>
<path d="M162.812 136.921H143.489V199.861H162.812V136.921Z" fill="#455A64"/>
<path d="M188.252 136.921H168.929V199.861H188.252V136.921Z" fill="#455A64"/>
<path d="M165.979 131.408C166.049 131.408 166.105 149.288 166.105 171.339C166.105 193.397 166.049 211.273 165.979 211.273C165.909 211.273 165.853 193.397 165.853 171.339C165.852 149.288 165.909 131.408 165.979 131.408Z" fill="#455A64"/>
<path opacity="0.3" d="M66.1523 128.82L37.8157 151.905L42.5778 154.975L73.3071 128.82H66.1523Z" fill="white"/>
<path opacity="0.3" d="M48.0889 154.975L78.7508 128.853H80.4999L49.9409 154.975H48.0889Z" fill="white"/>
<path opacity="0.3" d="M197.858 157.194L230.455 127.953L239.15 127.919L197.76 165.759L197.858 157.194Z" fill="white"/>
<path opacity="0.3" d="M143.489 175.633V184.112L162.812 166.447V158.299L143.489 175.633Z" fill="white"/>
<path opacity="0.3" d="M168.929 185.725V194.204L188.252 176.538V168.39L168.929 185.725Z" fill="white"/>
<path opacity="0.2" d="M177.208 136.921L168.929 144.347V152.826L186.327 136.921H177.208Z" fill="white"/>
<path opacity="0.3" d="M143.482 187.35L143.45 190.127L162.812 172.639V170.193L143.482 187.35Z" fill="white"/>
<path d="M326.441 131.408H296.074V211.866H326.441V131.408Z" fill="#263238"/>
<path d="M323.122 136.921H298.911V199.861H323.122V136.921Z" fill="#455A64"/>
<path opacity="0.2" d="M323.121 136.921H313.743V187.273H323.121V136.921Z" fill="black"/>
<path opacity="0.3" d="M298.921 175.633V184.112L323.121 166.447V158.299L298.921 175.633Z" fill="white"/>
<path opacity="0.3" d="M298.911 187.35L298.872 190.127L323.121 172.639V170.193L298.911 187.35Z" fill="white"/>
<path opacity="0.2" d="M245.728 157.471L278.671 127.919H287.818L245.63 166.036L245.728 157.471Z" fill="white"/>
<path opacity="0.3" d="M244.977 170.816L286.61 132.262H288.359L246.829 170.816H244.977Z" fill="white"/>
<path d="M134.781 131.835H37.0056V132.689H134.781V131.835Z" fill="#263238"/>
<path d="M290.369 131.835H197.019V132.689H290.369V131.835Z" fill="#263238"/>
<path d="M291.235 186.763H289.074C288.363 186.763 287.787 186.188 287.787 185.479V185.396C287.787 184.687 288.363 184.112 289.074 184.112H291.235C291.946 184.112 292.522 184.687 292.522 185.396V185.479C292.522 186.188 291.946 186.763 291.235 186.763Z" fill="#FF9A6C"/>
<path d="M238.947 202.504H236.786C236.075 202.504 235.499 201.93 235.499 201.221V201.137C235.499 200.428 236.075 199.853 236.786 199.853H238.947C239.658 199.853 240.234 200.428 240.234 201.137V201.221C240.234 201.93 239.658 202.504 238.947 202.504Z" fill="white"/>
<path d="M198.313 202.504H196.151C195.441 202.504 194.864 201.93 194.864 201.221V201.137C194.864 200.428 195.44 199.853 196.151 199.853H198.313C199.024 199.853 199.6 200.428 199.6 201.137V201.221C199.599 201.93 199.023 202.504 198.313 202.504Z" fill="#FF9A6C"/>
<path d="M135.684 202.282H133.523C132.812 202.282 132.236 201.708 132.236 200.999V200.915C132.236 200.206 132.812 199.632 133.523 199.632H135.684C136.395 199.632 136.971 200.206 136.971 200.915V200.999C136.971 201.708 136.395 202.282 135.684 202.282Z" fill="#FF9A6C"/>
<path d="M39.5853 204.933H37.4241C36.7131 204.933 36.137 204.359 36.137 203.65V203.566C36.137 202.857 36.7131 202.282 37.4241 202.282H39.5853C40.2958 202.282 40.8724 202.857 40.8724 203.566V203.65C40.8719 204.359 40.2958 204.933 39.5853 204.933Z" fill="#FF9A6C"/>
<path opacity="0.2" d="M307.733 136.921V166.73H298.921L298.911 136.921H307.733Z" fill="black"/>
<path d="M336.321 123.661H330.248V183.276H336.321V123.661Z" fill="#263238"/>
<path d="M336.321 178.193C336.321 178.193 333.235 178.981 332.446 176.225C331.656 173.469 332.446 125.683 332.446 125.683H336.321V178.193Z" fill="#455A64"/>
<path opacity="0.3" d="M332.095 155.802L336.321 152.679C336.321 152.679 336.321 147.575 336.321 147.116C336.321 146.658 332.095 149.525 332.095 149.525V155.802Z" fill="white"/>
<path opacity="0.2" d="M221.256 109.189H220.169V111.777H221.256V109.189Z" fill="black"/>
<path opacity="0.2" d="M223.324 109.189H222.238V111.777H223.324V109.189Z" fill="black"/>
<path opacity="0.2" d="M225.393 109.189H224.307V111.777H225.393V109.189Z" fill="black"/>
<path opacity="0.2" d="M227.462 109.189H226.375V111.777H227.462V109.189Z" fill="black"/>
<path opacity="0.2" d="M229.531 109.189H228.444V111.777H229.531V109.189Z" fill="black"/>
<path opacity="0.2" d="M231.599 109.189H230.513V111.777H231.599V109.189Z" fill="black"/>
<path opacity="0.2" d="M233.668 109.189H232.582V111.777H233.668V109.189Z" fill="black"/>
<path opacity="0.2" d="M235.737 109.189H234.65V111.777H235.737V109.189Z" fill="black"/>
<path opacity="0.2" d="M237.806 109.189H236.719V111.777H237.806V109.189Z" fill="black"/>
<path opacity="0.2" d="M239.874 109.189H238.788V111.777H239.874V109.189Z" fill="black"/>
<path opacity="0.2" d="M241.943 109.189H240.857V111.777H241.943V109.189Z" fill="black"/>
<path opacity="0.2" d="M244.011 109.189H242.925V111.777H244.011V109.189Z" fill="black"/>
<path opacity="0.2" d="M246.081 109.189H244.994V111.777H246.081V109.189Z" fill="black"/>
<path opacity="0.2" d="M248.149 109.189H247.063V111.777H248.149V109.189Z" fill="black"/>
<path d="M303.392 113.279C303.392 113.348 282.128 113.405 255.905 113.405C229.672 113.405 208.413 113.348 208.413 113.279C208.413 113.209 229.672 113.153 255.905 113.153C282.128 113.153 303.392 113.209 303.392 113.279Z" fill="black"/>
<path d="M336.32 122.678C336.32 122.748 267.146 122.804 181.835 122.804C96.4935 122.804 27.3335 122.748 27.3335 122.678C27.3335 122.609 96.4935 122.553 181.835 122.553C267.146 122.553 336.32 122.609 336.32 122.678Z" fill="#263238"/>
<path d="M108.775 222.395C118.482 222.395 126.351 214.548 126.351 204.868C126.351 195.188 118.482 187.341 108.775 187.341C99.0687 187.341 91.2 195.188 91.2 204.868C91.2 214.548 99.0687 222.395 108.775 222.395Z" fill="#455A64"/>
<path d="M334.002 193.798H330.782V199.349H334.002V193.798Z" fill="#FF9A6C"/>
<path d="M336.33 193.798H334.002V199.349H336.33V193.798Z" fill="white"/>
<path d="M193.348 113.603H139.298V127.92H193.348V113.603Z" fill="#263238"/>
<path opacity="0.2" d="M191.466 115.138H140.981V126.384H191.466V115.138Z" fill="black"/>
<path d="M87.4352 203.32C87.2746 214.435 96.18 223.576 107.326 223.736C118.472 223.896 127.638 215.015 127.798 203.9C127.959 192.785 119.054 183.644 107.908 183.484C96.7619 183.324 87.5959 192.205 87.4352 203.32Z" fill="#263238"/>
<path d="M87.4386 203.268C87.4382 203.285 87.4352 203.302 87.4352 203.32C87.2746 214.435 96.18 223.576 107.326 223.736C118.472 223.896 127.638 215.015 127.798 203.9C127.799 203.883 127.797 203.866 127.797 203.849L87.4386 203.268Z" fill="#263238"/>
<path d="M93.4485 203.406C93.3354 211.21 99.5875 217.628 107.413 217.74C115.238 217.853 121.673 211.617 121.786 203.814C121.899 196.01 115.647 189.592 107.822 189.48C99.9962 189.367 93.5611 195.603 93.4485 203.406Z" fill="#FAFAFA"/>
<path d="M107.821 189.48C99.9956 189.368 93.5611 195.603 93.448 203.406L121.786 203.814C121.899 196.01 115.647 189.592 107.821 189.48Z" fill="#E0E0E0"/>
<path d="M98.9863 203.486C98.9174 208.24 102.726 212.149 107.493 212.217C112.26 212.286 116.18 208.488 116.249 203.734C116.318 198.98 112.509 195.071 107.742 195.002C102.975 194.934 99.0552 198.732 98.9863 203.486Z" fill="#263238"/>
<path d="M267.159 223.703C278.296 223.241 286.95 213.864 286.487 202.757C286.025 191.651 276.621 183.021 265.484 183.483C254.346 183.944 245.693 193.322 246.155 204.428C246.618 215.534 256.022 224.164 267.159 223.703Z" fill="#263238"/>
<path d="M246.147 203.268C246.146 203.285 246.143 203.302 246.143 203.32C245.983 214.435 254.888 223.576 266.034 223.736C277.18 223.896 286.346 215.015 286.507 203.9C286.507 203.883 286.505 203.866 286.505 203.849L246.147 203.268Z" fill="#263238"/>
<path d="M252.156 203.406C252.043 211.21 258.295 217.628 266.121 217.74C273.946 217.853 280.381 211.617 280.494 203.814C280.607 196.01 274.355 189.592 266.53 189.48C258.704 189.367 252.269 195.603 252.156 203.406Z" fill="#FAFAFA"/>
<path d="M266.529 189.48C258.704 189.368 252.269 195.603 252.156 203.406L280.494 203.814C280.607 196.01 274.355 189.592 266.529 189.48Z" fill="#E0E0E0"/>
<path d="M257.695 203.486C257.626 208.24 261.434 212.149 266.201 212.217C270.968 212.286 274.888 208.488 274.957 203.734C275.026 198.98 271.217 195.071 266.45 195.002C261.683 194.934 257.763 198.732 257.695 203.486Z" fill="#263238"/>
<path opacity="0.2" d="M84.0902 128.82H37.0056V130.145H84.0902V128.82Z" fill="black"/>
<path opacity="0.2" d="M134.408 128.82H87.8599V130.145H134.408V128.82Z" fill="black"/>
<path opacity="0.2" d="M188.253 136.921H143.489V138.245H188.253V136.921Z" fill="black"/>
<path opacity="0.2" d="M288.359 127.919H197.858V129.244H288.359V127.919Z" fill="black"/>
<path d="M57.2378 114.081L58.9971 112.478C59.995 111.569 61.2976 111.065 62.6488 111.065H85.5366C87.0198 111.065 88.4384 111.672 89.4605 112.744L90.735 114.081H57.2378V114.081Z" fill="#FF725E"/>
<path d="M92.2775 114.081C92.2775 114.151 84.2913 114.207 74.4424 114.207C64.5902 114.207 56.606 114.15 56.606 114.081C56.606 114.011 64.5902 113.955 74.4424 113.955C84.2913 113.955 92.2775 114.011 92.2775 114.081Z" fill="#263238"/>
<path d="M28.4328 203.268H25.6548L26.0494 186.866H30.4266V201.28C30.4266 202.378 29.5341 203.268 28.4328 203.268Z" fill="white"/>
<path d="M26.2327 177.715C26.2415 177.715 26.2463 177.816 26.2473 178.009C26.2454 178.229 26.2424 178.507 26.2395 178.851C26.2259 179.615 26.2075 180.664 26.1847 181.946C26.1551 184.59 26.1148 188.185 26.0706 192.159C26.0352 196.149 25.9745 199.761 25.8823 202.375C25.8372 203.682 25.7911 204.739 25.7469 205.469C25.7241 205.812 25.7061 206.09 25.6916 206.309C25.6761 206.501 25.6639 206.602 25.6552 206.602C25.6464 206.601 25.6416 206.5 25.6406 206.307C25.6426 206.088 25.6455 205.809 25.6484 205.465C25.662 204.701 25.6804 203.652 25.7032 202.37C25.7328 199.726 25.7726 196.13 25.8173 192.156C25.8527 188.167 25.9134 184.555 26.0051 181.941C26.0502 180.635 26.0964 179.577 26.1405 178.847C26.1633 178.505 26.1813 178.226 26.1958 178.006C26.2114 177.815 26.224 177.715 26.2327 177.715Z" fill="#263238"/>
<path d="M336.321 183.276C336.389 183.269 336.438 184.506 336.465 186.497C336.492 188.489 336.499 191.24 336.488 194.28C336.476 197.32 336.449 200.071 336.419 202.063C336.4 203.027 336.384 203.823 336.372 204.421C336.355 204.978 336.338 205.286 336.321 205.286C336.303 205.286 336.287 204.978 336.273 204.421C336.265 203.823 336.254 203.027 336.24 202.062C336.224 200.071 336.223 197.319 336.235 194.279C336.279 188.553 336.31 184.586 336.321 183.276Z" fill="#263238"/>
<defs>
<linearGradient id="paint0_linear_12_2938" x1="190.799" y1="47.4828" x2="195.761" y2="72.7338" gradientUnits="userSpaceOnUse">
<stop stop-color="#FF982C"/>
<stop offset="1" stop-color="#F77F00"/>
</linearGradient>
<linearGradient id="paint1_linear_12_2938" x1="189.287" y1="65.1521" x2="212.282" y2="66.06" gradientUnits="userSpaceOnUse">
<stop stop-color="#FF982C"/>
<stop offset="1" stop-color="#F77F00"/>
</linearGradient>
<linearGradient id="paint2_linear_12_2938" x1="193.444" y1="50.3442" x2="197.127" y2="69.0831" gradientUnits="userSpaceOnUse">
<stop stop-color="#FF982C"/>
<stop offset="1" stop-color="#F77F00"/>
</linearGradient>
<linearGradient id="paint3_linear_12_2938" x1="192.911" y1="54.7904" x2="201.329" y2="67.5684" gradientUnits="userSpaceOnUse">
<stop stop-color="#FF982C"/>
<stop offset="1" stop-color="#F77F00"/>
</linearGradient>
<linearGradient id="paint4_linear_12_2938" x1="37.8037" y1="108.946" x2="45.7109" y2="230.068" gradientUnits="userSpaceOnUse">
<stop stop-color="#FF982C"/>
<stop offset="1" stop-color="#F77F00"/>
</linearGradient>
</defs>
</svg>
