<svg width="361" height="315" viewBox="0 0 361 315" fill="none" xmlns="http://www.w3.org/2000/svg">
<path d="M359.824 187.825C368.534 280.704 281.928 314.905 192.405 314.905C102.881 314.905 0.791269 282.716 0.79126 194.867C0.79126 132.831 71.8869 63.0741 165.308 100.982C267.648 202.012 352.104 105.501 359.824 187.825Z" fill="#D9D9D9" fill-opacity="0.25"/>
<path d="M360.415 158.911C360.401 160.12 360.374 161.305 360.346 162.49C360.305 163.676 360.263 164.837 360.222 165.998C360.112 168.487 359.961 170.952 359.768 173.346C359.534 176.428 359.245 179.462 358.915 182.377C358.819 183.207 358.723 184.013 358.626 184.819C358.585 185.151 358.544 185.459 358.503 185.767L358.475 185.933C358.42 186.36 358.365 186.787 358.31 187.213C358.269 187.616 358.214 188.019 358.159 188.398C357.952 189.868 357.732 191.314 357.512 192.713C357.498 192.831 357.471 192.949 357.457 193.068C357.43 193.21 357.416 193.352 357.388 193.494C357.141 195.083 356.879 196.6 356.618 198.093C356.26 200.108 355.889 202.028 355.517 203.9C355.407 204.445 355.297 204.991 355.187 205.512C355.022 206.295 354.857 207.077 354.706 207.835C354.706 207.835 354.706 207.835 354.706 207.859C354.554 208.475 354.431 209.044 354.293 209.637C354.087 210.585 353.866 211.486 353.66 212.386C353.344 213.714 353.027 214.994 352.725 216.179C352.656 216.463 352.587 216.724 352.518 216.985C352.381 217.53 352.243 218.052 352.119 218.549C351.844 219.592 351.569 220.588 351.308 221.512C351.046 222.437 350.799 223.314 350.565 224.12C349.684 227.106 348.941 229.571 348.611 230.639C348.501 231.018 348.432 231.231 348.432 231.231C348.432 231.231 9.48 231.302 9.4662 231.278C0.510106 196.789 -6.46006 156.257 14.7813 126.461C30.6847 104.108 77.3447 110.555 69.6407 63.3615C60.5471 7.72902 103.511 -10.4759 146.393 6.89917C179.933 20.4813 175.443 74.9051 225.919 60.1852C270.974 28.8492 300.708 35.1539 313.186 44.1851C313.585 44.4699 313.984 44.754 314.369 45.0625C316.199 46.4368 318.043 48.0011 319.9 49.7322C320.285 50.0874 320.67 50.4665 321.069 50.8461C322.362 52.1026 323.669 53.4537 324.976 54.8994C325.582 55.5869 326.187 56.2743 326.806 56.985C326.847 57.0326 326.902 57.0799 326.944 57.1511C327.783 58.1227 328.622 59.1186 329.461 60.1852C330.438 61.4179 331.415 62.6981 332.405 64.0486C334.152 66.419 335.9 68.9793 337.661 71.7049C338.335 72.7484 338.995 73.815 339.669 74.9051C340.453 76.1616 341.21 77.4416 341.939 78.7454C342.613 79.9543 343.273 81.1631 343.906 82.3716C344.127 82.7748 344.347 83.2014 344.567 83.6285C345.103 84.6713 345.612 85.7379 346.121 86.7807C346.589 87.7524 347.029 88.7483 347.47 89.72C347.635 90.0994 347.8 90.4787 347.965 90.8339C348.226 91.4502 348.487 92.0428 348.735 92.659C349.272 93.9628 349.794 95.243 350.276 96.5468C350.936 98.2772 351.555 100.007 352.133 101.738C352.216 101.975 352.298 102.212 352.381 102.473C352.45 102.686 352.518 102.899 352.587 103.112C352.78 103.705 352.973 104.322 353.165 104.914C354.458 109.11 355.559 113.329 356.48 117.548C356.536 117.809 356.591 118.07 356.645 118.33C356.742 118.757 356.824 119.184 356.907 119.611C357.072 120.392 357.223 121.175 357.375 121.957C357.512 122.715 357.65 123.498 357.787 124.256C357.801 124.351 357.829 124.47 357.842 124.565C357.953 125.204 358.049 125.82 358.159 126.461C358.338 127.598 358.517 128.736 358.668 129.874C358.916 131.676 359.136 133.454 359.328 135.255C359.342 135.42 359.37 135.611 359.383 135.777C359.562 137.507 359.713 139.214 359.851 140.92C360.318 147.035 360.484 153.056 360.415 158.911Z" fill="#ECECEC"/>
<path d="M40.3948 231.12C40.3948 231.12 43.2598 222.81 52.6269 222.262C61.9941 221.713 67.1991 214.341 76.8785 216.065C86.5578 217.789 87.2848 225.029 91.3603 227.026C95.4358 229.024 115.947 224.435 123.728 226.611C131.509 228.787 135.154 223.37 142.391 221.028C149.628 218.685 154.375 221.897 159.582 225.552C164.789 229.206 172.076 225.14 171.757 230.948L40.3948 231.12Z" fill="#B8E0AF"/>
<path opacity="0.4" d="M165.097 154.954H75.4839V223.551H165.097V154.954Z" fill="#CBD9EF"/>
<path d="M92.6774 149.018L92.6615 151.326L92.1883 220.727C92.1872 220.894 92.1285 221.028 92.0566 221.028H92.0214C91.8795 221.028 91.7638 220.765 91.7605 220.435L91.105 153.445L91.0618 149.018H92.6774Z" fill="#E58638"/>
<path d="M92.6774 149.018L92.6615 151.326C92.2293 151.64 91.6106 152.262 91.105 153.445L91.0618 149.018H92.6774Z" fill="#CC621B"/>
<path opacity="0.4" d="M165.097 189.23V223.551H75.4839V154.954H101.817C109.894 162.813 138.231 188.44 165.097 189.23Z" fill="#C4D2E8"/>
<path d="M189.145 230.699H180.308C179.835 230.293 180.636 229.368 181.473 229.306C181.837 229.278 182.296 229.355 182.822 229.468C182.943 227.831 183.638 220.475 186.255 220.771C189.197 221.102 186.255 224.01 185.423 225.733C184.807 227.008 184.157 228.837 183.86 229.7C184.099 229.753 184.346 229.804 184.599 229.851C184.989 228.638 186.44 224.557 188.285 224.794C190.452 225.073 189.581 226.709 188.045 227.68C186.918 228.395 185.535 229.41 184.878 229.9C185.435 229.992 186.016 230.055 186.606 230.041C188.119 230.004 188.858 230.456 189.145 230.699Z" fill="#B8E0AF"/>
<path d="M15.7249 230.179C15.2452 229.416 13.8015 227.434 11.8785 227.696C9.78334 227.982 14.1924 229.382 15.5422 230.185C15.2426 230.189 14.9848 230.165 14.7955 230.097C13.893 229.771 12.3476 230.396 11.8534 230.615H20.4446C20.3853 230.407 20.2305 230.067 19.8303 229.819C19.6893 229.732 19.4056 229.719 19.0396 229.748C19.5505 229.138 19.9051 227.189 18.4831 227.69C17.4443 228.056 17.447 229.247 17.549 229.952C17.328 229.987 17.1038 230.023 16.8824 230.055C16.4548 227.846 14.9419 221.373 11.8754 221.2C8.76673 221.025 14.5116 227.913 16.4243 230.117C16.1793 230.146 15.9434 230.169 15.7249 230.179Z" fill="#B8E0AF"/>
<path d="M157.027 212.549L156.975 214.837L156.619 230.782C156.617 230.881 156.536 230.961 156.438 230.961C156.27 230.961 156.131 230.825 156.124 230.655L155.546 215.558L155.431 212.549H157.027Z" fill="#CC621B"/>
<path d="M157.027 212.549L156.975 214.837C156.525 214.989 155.994 215.219 155.546 215.558L155.431 212.549H157.027Z" fill="#B25414"/>
<path d="M85.2748 212.549L85.2237 214.837L84.8672 230.782C84.8649 230.881 84.7848 230.961 84.6867 230.961C84.518 230.961 84.3793 230.825 84.3727 230.655L83.7941 215.558L83.6792 212.549H85.2748Z" fill="#CC621B"/>
<path d="M85.2748 212.549L85.2237 214.837C84.7738 214.989 84.2419 215.219 83.7941 215.558L83.6792 212.549H85.2748Z" fill="#B25414"/>
<path d="M160.816 213.316H79.89C79.3791 213.316 78.9612 212.893 78.9612 212.375V207.644C78.9612 207.126 79.3791 206.703 79.89 206.703H160.816C161.327 206.703 161.745 207.126 161.745 207.644V212.375C161.745 212.893 161.327 213.316 160.816 213.316Z" fill="#E58638"/>
<path d="M123.241 168.828C122.72 168.028 120.654 168.476 118.626 169.829C116.598 171.182 115.376 172.928 115.896 173.729C116.417 174.529 118.482 174.081 120.511 172.728C122.539 171.375 123.761 169.629 123.241 168.828Z" fill="#233862"/>
<path d="M112.645 198.572L113.046 198.596C113.042 198.587 113.201 191.512 113.814 188.649C114.955 183.315 117.938 179.14 117.971 179.104L117.254 178.872C117.219 178.91 116.653 179.798 115.852 181.436C115.114 182.946 113.927 185.46 113.403 188.389C112.885 191.28 112.63 198.534 112.645 198.572Z" fill="#233862"/>
<path d="M119.882 168.766C119.882 168.766 117.265 168.2 116.008 170.357C114.752 172.513 114.682 176.261 113.845 177.486C113.008 178.712 111.53 183.885 113.101 185.042C114.671 186.2 124.344 185 124.887 184.472C125.43 183.944 124.855 178.512 123.91 176.938C122.964 175.365 125.267 167.964 119.882 168.766Z" fill="#A53D38"/>
<path d="M124.333 194.934C122.488 188.959 124.568 185.415 124.368 182.426C124.218 180.188 124.647 180.132 124.262 179.517C123.871 178.891 121.72 178.502 121.523 178.484C121.369 178.402 121.333 177.704 121.335 177.018C121.337 176.195 121.399 175.322 121.399 175.322L118.659 174.772L118.496 174.739C118.503 176.67 118.002 177.938 117.638 178.234C117.298 178.27 115.836 178.437 114.935 178.779C114.596 178.908 114.337 179.061 114.247 179.242C113.495 180.746 112.744 184.541 112.216 187.249C111.921 188.758 111.697 189.929 111.58 190.177C111.253 190.87 110.255 194.68 109.402 196.56L110.343 196.597C110.343 196.597 114.084 191.439 114.41 190.029C114.514 189.583 114.764 188.703 115.057 187.709C115.705 189.513 116.039 190.271 116.022 190.973C116.001 191.883 115.392 192.7 114.12 195.59C113.417 197.187 126.216 201.036 124.333 194.934Z" fill="#FFB27D"/>
<path d="M117.332 223.327C117.513 224.054 117.711 224.745 117.913 225.39C117.957 225.528 117.999 225.663 118.043 225.796C118.065 225.862 118.086 225.927 118.107 225.992C118.15 226.119 118.192 226.245 118.234 226.367C118.288 226.526 118.343 226.682 118.397 226.832C118.437 226.943 118.476 227.052 118.515 227.159C119.116 228.791 119.619 229.825 119.619 229.825L120.816 229.742C120.816 229.742 120.366 227.577 120.276 224.475C120.273 224.365 120.27 224.253 120.268 224.14C120.264 223.9 120.261 223.655 120.261 223.404C120.261 223.302 120.262 223.198 120.262 223.093C120.286 220.422 120.613 217.266 121.654 214.252C122.501 211.802 123.115 209.509 123.559 207.437C124.992 200.749 124.655 196.356 124.655 196.356L117.924 197.154L117.61 197.191C117.582 200.323 117.502 204.576 117.433 207.901C117.421 208.478 117.409 209.027 117.398 209.538C117.352 211.672 117.317 213.132 117.317 213.132C116.022 215.956 116.492 219.941 117.332 223.327Z" fill="#FFB27D"/>
<path d="M121.399 175.321C121.399 175.321 121.337 176.195 121.335 177.018C119.802 176.974 118.991 175.557 118.659 174.772L121.399 175.321Z" fill="#EF9E67"/>
<path d="M125.58 192.337C125.58 192.337 125.261 196.845 125.367 197.383C125.474 197.921 125.332 199.842 124.605 200.195C123.878 200.549 122.442 191.266 125.58 192.337Z" fill="#FFB27D"/>
<path d="M121.911 176.101C121.911 176.101 118.283 176.161 118.281 173.872C118.278 171.583 117.809 170.049 120.125 169.913C122.441 169.778 122.892 170.651 123.076 171.415C123.26 172.179 122.855 176.026 121.911 176.101Z" fill="#FFB27D"/>
<path d="M121.777 169.857C121.777 169.857 120.784 172.543 119.259 172.94C117.735 173.337 117.074 172.923 117.074 172.923C117.074 172.923 118.243 171.982 118.486 170.34C118.486 170.34 121.028 168.579 121.777 169.857Z" fill="#A53D38"/>
<path d="M121.531 170.075C121.531 170.075 122.273 170.675 122.453 171.258C122.634 171.841 122.715 173.041 123.061 173C123.061 173 123.809 171.174 122.968 170.142C122.076 169.046 121.531 170.075 121.531 170.075Z" fill="#A53D38"/>
<path d="M124.315 179.589C124.315 179.589 127.069 191.481 126.218 192.49C125.367 193.499 123.186 193.661 122.867 193.445C122.548 193.23 124.315 179.589 124.315 179.589Z" fill="#FFA412"/>
<path d="M121.669 170.166C121.669 170.166 120.961 172.978 119.038 173.879C119.038 173.879 120.961 172.151 121.124 170.295C121.288 168.438 121.669 170.166 121.669 170.166Z" fill="#A53D38"/>
<path d="M113.471 222.74C113.858 226.924 115.562 229.631 115.562 229.631L116.144 230.167C116.144 230.167 116.674 227.103 117.057 223.595C117.421 220.261 117.922 216.733 118.487 215.656C119.332 214.047 119.955 210.756 120.404 207.279C121.145 201.526 121.408 195.262 121.408 195.262L114.583 194.919C113.896 196.089 113.597 198.006 113.526 200.186C113.451 202.479 113.63 205.062 113.877 207.371C114.222 210.602 114.703 213.296 114.814 213.901C114.814 213.902 114.814 213.903 114.815 213.904C114.83 213.984 114.807 214.064 114.77 214.136C113.412 216.859 113.216 219.975 113.471 222.74Z" fill="#FFB27D"/>
<path d="M123.728 221.867C117.85 224.105 109.006 221.514 109.006 221.514C109.006 221.514 109.331 219.662 109.81 216.972C111.012 210.222 113.175 198.191 113.556 196.915C114.088 195.133 116.022 190.973 116.022 190.973C116.928 191.279 117.866 191.438 118.761 191.506C121.343 191.703 123.559 191.141 123.559 191.141C123.559 191.141 123.919 192.364 124.689 194.919C125.46 197.475 123.728 221.867 123.728 221.867Z" fill="#BC3F3F"/>
<path d="M124.659 184.175C124.365 187.116 123.559 191.105 123.559 191.105C123.114 191.343 122.661 191.518 122.209 191.642C119.089 192.5 116.023 190.938 116.023 190.938C116.023 190.938 116.018 190.846 116.01 190.736C116.004 190.646 115.995 190.543 115.984 190.468C115.961 190.302 115.221 188.517 115.221 188.517C115.221 188.517 115.193 188.656 115.144 188.892C114.873 190.197 113.944 194.486 113.375 194.872C113.045 195.095 111.989 195.098 110.998 194.825C109.966 194.541 109.006 193.955 109.006 193.004C109.006 191.787 111.191 186.281 112.766 182.509C112.766 182.505 112.767 182.503 112.767 182.503C113.605 180.492 114.092 179.093 114.733 178.936C114.733 178.936 119.046 180.715 121.435 180.442C122.256 180.348 123.762 179.646 124.224 179.471C124.237 179.485 124.25 179.5 124.262 179.515C124.272 179.526 124.281 179.538 124.29 179.55C124.299 179.563 124.307 179.576 124.315 179.589C124.665 180.111 124.61 180.978 124.627 181.309C124.662 181.955 124.79 182.859 124.659 184.175Z" fill="#FFB93E"/>
<path d="M115.221 188.546C115.221 188.546 115.961 190.336 115.985 190.503C115.995 190.578 116.004 190.681 116.011 190.772C116.369 191.068 116.801 191.293 117.242 191.428C118.495 191.813 119.039 189.38 118.965 188.166C118.89 186.953 117.118 183.488 116.528 183.416C115.939 183.345 115.221 188.546 115.221 188.546Z" fill="#FFA412"/>
<path d="M115.144 188.922C115.193 188.685 115.221 188.546 115.221 188.546C115.182 188.674 115.156 188.799 115.144 188.922Z" fill="#E58638"/>
<path d="M120.316 191.917C122.603 191.917 123.51 191.267 123.58 191.212L123.728 190.121C123.706 190.138 120.638 192.004 115.889 190.217L115.99 191.043C117.816 191.731 119.129 191.917 120.316 191.917Z" fill="#A53232"/>
<path d="M109.006 193.047C109.006 194.001 109.967 194.587 110.998 194.872C109.577 193.158 112.686 182.784 112.766 182.519C111.192 186.303 109.006 191.826 109.006 193.047Z" fill="#FFA412"/>
<path d="M118.931 230.842H119.694C119.95 230.801 120.139 230.726 120.401 230.691C120.8 230.638 120.983 230.804 121.02 230.842C121.025 230.847 121.027 230.849 121.027 230.849H124.271C124.353 230.731 124.275 230.458 124.198 230.257C124.146 230.12 124.033 230.016 123.894 229.975C123.55 229.874 122.872 229.784 122.251 229.215C121.901 228.895 120.563 228.038 120.563 228.038L120.556 228.037C120.527 228.037 120.387 228.081 119.778 228.601C119.464 228.87 118.927 228.222 118.927 228.222C118.927 228.222 118.827 228.306 118.752 228.464C118.691 228.588 118.647 228.758 118.682 228.968C118.731 229.264 118.574 229.815 118.45 230.187C118.374 230.413 118.31 230.573 118.31 230.573C118.31 230.573 118.274 230.758 118.931 230.842Z" fill="#233862"/>
<path d="M118.751 228.463C118.933 228.594 119.318 228.85 119.573 228.884C119.918 228.93 120.563 228.038 120.563 228.038L120.555 228.036C120.526 228.037 120.386 228.081 119.778 228.601C119.463 228.87 118.927 228.222 118.927 228.222C118.927 228.222 118.826 228.306 118.751 228.463Z" fill="#466AA5"/>
<path d="M118.93 230.842H119.694C119.95 230.801 120.139 230.726 120.401 230.691C120.8 230.638 120.983 230.804 121.02 230.842C121.025 230.846 121.027 230.849 121.027 230.849H124.271C124.353 230.731 124.274 230.458 124.197 230.256C124.099 230.168 124.071 230.642 124.017 230.718C123.962 230.793 121.37 230.745 121.22 230.635C121.071 230.525 120.622 230.332 119.996 230.483C119.451 230.615 118.648 230.277 118.449 230.187C118.373 230.413 118.31 230.573 118.31 230.573C118.31 230.573 118.273 230.758 118.93 230.842Z" fill="#466AA5"/>
<path d="M114.855 230.842H115.619C115.874 230.801 116.063 230.726 116.326 230.691C116.724 230.638 116.908 230.804 116.944 230.842C116.949 230.847 116.951 230.85 116.951 230.85H120.195C120.277 230.732 120.199 230.458 120.122 230.257C120.07 230.12 119.958 230.016 119.818 229.975C119.474 229.875 118.796 229.785 118.175 229.215C117.825 228.895 116.487 228.039 116.487 228.039L116.48 228.037C116.451 228.037 116.311 228.081 115.702 228.602C115.388 228.87 114.852 228.222 114.852 228.222C114.852 228.222 114.751 228.306 114.676 228.464C114.615 228.588 114.571 228.758 114.606 228.968C114.655 229.265 114.498 229.815 114.374 230.187C114.298 230.413 114.234 230.573 114.234 230.573C114.234 230.573 114.198 230.759 114.855 230.842Z" fill="#233862"/>
<path d="M114.676 228.463C114.858 228.594 115.243 228.85 115.498 228.884C115.843 228.93 116.487 228.038 116.487 228.038L116.48 228.036C116.451 228.037 116.311 228.081 115.702 228.601C115.388 228.87 114.851 228.222 114.851 228.222C114.851 228.222 114.751 228.306 114.676 228.463Z" fill="#466AA5"/>
<path d="M114.855 230.842H115.618C115.874 230.801 116.063 230.726 116.326 230.691C116.724 230.638 116.908 230.804 116.944 230.842C116.949 230.846 116.951 230.849 116.951 230.849H120.195C120.277 230.731 120.199 230.458 120.122 230.256C120.023 230.168 119.996 230.642 119.941 230.718C119.887 230.793 117.294 230.745 117.145 230.635C116.995 230.525 116.546 230.332 115.92 230.483C115.375 230.615 114.572 230.277 114.373 230.187C114.298 230.413 114.234 230.573 114.234 230.573C114.234 230.573 114.198 230.758 114.855 230.842Z" fill="#466AA5"/>
<path d="M109.81 216.972C111.012 210.222 113.176 198.191 113.556 196.915C114.088 195.133 116.022 190.973 116.022 190.973C116.928 191.279 117.866 191.438 118.761 191.506C118.864 192.962 119.62 207.513 109.81 216.972Z" fill="#A53232"/>
<path d="M118.971 198.604L118.571 198.574C118.576 198.565 119.354 191.472 119.126 188.527C118.7 183.041 116.296 178.46 116.268 178.419L117.009 178.285C117.039 178.328 117.483 179.293 118.06 181.04C118.592 182.649 119.436 185.325 119.567 188.324C119.698 191.285 118.991 198.568 118.971 198.604Z" fill="#233862"/>
<path d="M114.124 197.047C114.124 197.047 114.513 196.078 115.13 195.836L118.285 196.439C118.285 196.439 117.507 197.189 117.433 197.679L114.124 197.047Z" fill="#D2E4FF"/>
<path d="M118.085 202.516L112.693 201.487C112.439 201.438 112.273 201.191 112.32 200.934L112.994 197.313C113.042 197.056 113.286 196.887 113.539 196.936L118.931 197.965C119.185 198.014 119.351 198.261 119.304 198.518L118.63 202.139C118.582 202.396 118.338 202.565 118.085 202.516Z" fill="#233862"/>
<path d="M116.142 195.071L113.564 195.048L113.535 198.397L116.113 198.42L116.142 195.071Z" fill="#E58638"/>
<path d="M115.995 195.07L113.416 195.047L113.387 198.396L115.965 198.419L115.995 195.07Z" fill="#EE9849"/>
<path d="M117.57 197.06L115.523 195.472L113.514 198.132L115.561 199.72L117.57 197.06Z" fill="#578E9B"/>
<path d="M117.333 196.883L115.286 195.295L113.277 197.954L115.324 199.542L117.333 196.883Z" fill="#74ACBE"/>
<path d="M116.768 202.265L111.605 201.279C111.288 201.219 111.08 200.909 111.139 200.589L111.77 197.199C111.83 196.878 112.135 196.667 112.451 196.728L117.614 197.714C117.931 197.774 118.139 198.083 118.08 198.404L117.449 201.793C117.389 202.114 117.084 202.325 116.768 202.265Z" fill="#2B478B"/>
<path d="M115.547 171.741C115.547 171.741 113.897 168.413 116.203 167.097C118.51 165.782 120.198 166.298 121.467 167.907L115.547 171.741Z" fill="#233862"/>
<path d="M124.839 167.541C124.364 166.771 122.703 166.895 120.699 167.727C119.915 168.051 119.081 168.485 118.243 169.014C117.201 169.672 116.294 170.393 115.582 171.097C114.255 172.413 113.607 173.671 114.037 174.37C114.169 174.583 114.366 174.721 114.661 174.801C114.955 174.159 115.799 173.559 116.038 173.059C116.375 172.353 117.229 171.073 118.792 170.085C119.992 169.327 121.186 168.88 122.007 168.826C122.486 168.795 122.838 168.897 122.993 169.148C123.114 169.345 123.101 169.611 122.976 169.918C123.093 170.118 123.226 170.399 123.336 170.772C124.635 169.473 125.265 168.232 124.839 167.541Z" fill="#2B478B"/>
<path d="M109.402 196.56C109.402 196.56 108.508 197.487 108.366 197.594C108.224 197.702 108.06 198.66 108.189 198.762C108.446 198.965 108.634 198.496 109.04 198.262C109.446 198.029 109.678 197.702 109.678 197.81C109.678 197.917 109.163 198.33 109.226 198.42C109.289 198.51 109.988 198.016 110.148 197.908C110.307 197.801 110.343 196.597 110.343 196.597L109.402 196.56Z" fill="#FFB27D"/>
<path d="M101.141 173.963L101.356 173.948L101.619 173.09C102.631 170.55 101.726 169.624 101.099 169.195C100.311 168.656 99.4724 168.572 99.4724 168.572C99.0056 168.504 98.6048 168.525 98.2601 168.608C98.2588 168.608 98.256 168.608 98.256 168.608C94.4805 167.82 94.1197 174.871 94.6813 175.301C95.2428 175.731 96.6031 175.681 96.6031 175.681C96.5282 175.606 96.4471 175.44 96.4471 175.44C96.8588 175.782 98.0757 175.661 98.0757 175.661C97.6014 175.147 97.4503 174.655 97.461 174.225L98.4465 174.155C98.6967 174.804 99.0841 175.44 99.4382 175.711C100.089 176.21 101.394 176.085 101.394 176.085C101.333 176.019 101.286 175.81 101.286 175.81C101.333 175.943 101.57 176.034 101.57 176.034C101.732 176.034 102.068 175.866 102.068 175.866C102.068 175.866 101.301 175.864 101.141 173.963Z" fill="#233862"/>
<path d="M102.729 192.137C105.69 191.373 108.946 186.719 108.946 186.719L108.112 185.986C107.249 187.017 103.659 188.793 103.659 188.793C103.678 187.85 103.654 186.989 103.595 186.206C103.197 180.881 101.216 179.107 100.675 178.718C100.588 178.655 100.538 178.628 100.538 178.628C100.538 178.628 100.536 178.667 100.533 178.74C100.525 178.899 100.51 179.217 100.496 179.655C100.386 182.914 100.255 192.776 102.729 192.137Z" fill="#FFB27D"/>
<path d="M108.112 185.986C108.124 185.86 108.207 184.031 108.566 183.683C108.925 183.335 109.633 182.86 109.836 182.899C110.04 182.937 110.731 184.102 110.405 184.904C110.078 185.706 108.945 186.719 108.945 186.719L108.112 185.986Z" fill="#FFB27D"/>
<path d="M107.376 186.199L109.326 186.281C109.391 186.284 109.445 186.233 109.448 186.168L109.604 182.4C109.606 182.334 109.556 182.279 109.491 182.276L107.541 182.194C107.476 182.191 107.422 182.242 107.419 182.307L107.264 186.075C107.261 186.141 107.311 186.196 107.376 186.199Z" fill="#F1A34F"/>
<path d="M107.882 186.22L109.651 186.295C109.766 186.3 109.863 186.21 109.868 186.094L110.016 182.509C110.021 182.393 109.932 182.295 109.817 182.29L108.048 182.215C107.933 182.21 107.836 182.301 107.831 182.417L107.683 186.001C107.679 186.117 107.768 186.216 107.882 186.22Z" fill="#D86713"/>
<path d="M109.985 183.039C109.985 183.039 109.453 182.437 108.921 182.897C108.39 183.356 108.957 184.338 109.418 184.606C109.879 184.874 110.027 185.014 110.027 185.014L109.985 183.039Z" fill="#FFB27D"/>
<path d="M96.2806 223.092C96.4611 223.819 96.6595 224.511 96.8616 225.155C96.9051 225.293 96.9477 225.429 96.9912 225.562C97.0128 225.628 97.0346 225.693 97.0556 225.758C97.0983 225.885 97.1403 226.01 97.1822 226.132C97.2368 226.292 97.2915 226.447 97.3455 226.597C97.3852 226.709 97.4248 226.818 97.4639 226.925C98.0644 228.557 98.5675 229.591 98.5675 229.591L99.7641 229.507C99.7641 229.507 99.3148 227.342 99.225 224.241C99.222 224.13 99.219 224.019 99.2168 223.906C99.2123 223.665 99.2092 223.42 99.2092 223.17C99.2092 223.067 99.21 222.964 99.2107 222.859C99.2347 220.188 99.5611 217.031 100.603 214.017C101.449 211.567 102.064 209.274 102.507 207.203C103.941 200.515 103.604 196.121 103.604 196.121L96.8724 196.919L96.5587 196.956C96.5302 200.089 96.4509 204.341 96.3812 207.666C96.3692 208.244 96.358 208.793 96.3468 209.303C96.3004 211.438 96.2652 212.898 96.2652 212.898C94.9703 215.721 95.4405 219.707 96.2806 223.092Z" fill="#CB7D45"/>
<path d="M93.069 195.356C94.3411 192.465 94.9497 191.648 94.9709 190.739C94.9878 190.019 94.6377 189.243 93.9579 187.341C93.7978 186.892 93.6873 186.431 93.6192 185.965C93.0815 182.297 95.1753 178.332 96.4764 178.062C96.8386 177.965 97.4523 176.64 97.4448 174.505L97.6078 174.538L100.348 175.087C100.348 175.087 100.285 175.961 100.284 176.784C100.282 177.47 100.318 178.168 100.472 178.249C100.669 178.268 100.848 178.304 100.848 178.304C100.848 178.304 103.167 179.954 103.317 182.192C103.517 185.181 101.437 188.725 103.282 194.699C105.165 200.801 92.3661 196.953 93.069 195.356Z" fill="#FFB27D"/>
<path d="M100.348 175.087C100.348 175.087 100.285 175.961 100.284 176.784C98.7502 176.74 97.9398 175.323 97.6077 174.537L100.348 175.087Z" fill="#EF9E67"/>
<path d="M100.86 175.866C100.86 175.866 97.2322 175.927 97.2297 173.638C97.2272 171.348 96.7573 169.814 99.0734 169.679C101.39 169.543 101.84 170.416 102.025 171.18C102.209 171.944 101.804 175.792 100.86 175.866Z" fill="#FFB27D"/>
<path d="M100.725 169.622C100.725 169.622 99.7322 172.308 98.2078 172.706C96.6834 173.103 96.0222 172.689 96.0222 172.689C96.0222 172.689 97.1914 171.748 97.4341 170.105C97.4341 170.105 99.9762 168.344 100.725 169.622Z" fill="#233862"/>
<path d="M100.479 169.841C100.479 169.841 101.221 170.44 101.402 171.023C101.583 171.606 101.664 172.806 102.009 172.766C102.009 172.766 102.758 170.94 101.917 169.907C101.025 168.812 100.479 169.841 100.479 169.841Z" fill="#233862"/>
<path d="M88.3508 198.426L89.4399 198.757C89.4399 198.757 93.0326 192.718 93.3593 191.146C93.4658 190.635 93.7271 189.611 94.0319 188.464C94.6628 186.088 95.4769 183.182 95.4769 183.182L95.745 182.005L96.6595 177.993C96.6595 177.993 94.9083 178.174 93.8842 178.608C93.545 178.751 93.2863 178.922 93.196 179.123C92.4435 180.8 91.6923 185.03 91.1644 188.048C90.8702 189.73 90.6457 191.035 90.5284 191.312C90.2017 192.084 89.2037 196.33 88.3508 198.426Z" fill="#FFB27D"/>
<path d="M100.617 169.931C100.617 169.931 99.9092 172.744 97.9858 173.645C97.9858 173.645 99.9093 171.917 100.073 170.06C100.236 168.203 100.617 169.931 100.617 169.931Z" fill="#233862"/>
<path d="M92.4195 222.505C92.8067 226.69 94.5108 229.396 94.5108 229.396L95.0926 229.933C95.0926 229.933 95.6227 226.869 96.0053 223.361C96.3699 220.027 96.8701 216.499 97.4354 215.421C98.2808 213.812 98.9037 210.522 99.3522 207.045C100.094 201.292 100.356 195.028 100.356 195.028L93.5314 194.685C92.8447 195.854 92.546 197.772 92.4749 199.952C92.4 202.244 92.5782 204.827 92.8253 207.136C93.1705 210.368 93.6512 213.061 93.7628 213.667C93.7628 213.668 93.7628 213.668 93.7636 213.67C93.7785 213.749 93.7554 213.829 93.7187 213.901C92.3603 216.625 92.1641 219.74 92.4195 222.505Z" fill="#D9935C"/>
<path d="M100.384 185.747C100.537 189.545 101.098 193.307 102.73 193.065C104.731 192.769 105.252 190.877 105.359 189.47C105.425 188.595 105.329 187.908 105.329 187.908C105.329 187.908 104.345 187.903 104.185 187.754C103.429 187.047 103.654 180.105 103.279 179.385C102.905 178.664 100.476 178.201 100.476 178.201C100.476 178.201 100.231 181.993 100.384 185.747Z" fill="#ED7D2B"/>
<path d="M100.384 185.747C100.537 189.545 101.098 193.306 102.73 193.065C104.731 192.769 105.252 190.877 105.359 189.47C104.867 189.445 104.003 189.324 103.659 188.793C103.167 188.033 101.632 183.14 101.632 183.14C101.632 183.14 101.029 184.238 100.384 185.747Z" fill="#ED7D2B"/>
<path d="M96.2807 223.092C96.4611 223.819 96.6596 224.511 96.8617 225.155C96.9052 225.293 96.9477 225.429 96.9912 225.562C97.0129 225.628 97.0346 225.693 97.0557 225.757C97.0983 225.885 97.1403 226.01 97.1823 226.132C97.2368 226.292 97.2916 226.447 97.3455 226.597C97.3852 226.709 97.4249 226.818 97.4639 226.925C98.0644 228.557 98.5676 229.591 98.5676 229.591L99.7641 229.507C99.7641 229.507 99.3148 227.342 99.225 224.241C99.2221 224.13 99.2191 224.019 99.2168 223.906C99.2124 223.665 99.2092 223.42 99.2092 223.17C99.2092 223.067 99.21 222.963 99.2107 222.859C99.2347 220.188 99.5612 217.031 100.603 214.017C101.45 211.567 102.064 209.274 102.508 207.203C101.796 207.352 101.17 207.2 99.3523 207.045C99.1612 207.029 98.2479 208.174 97.3455 209.691C97.2991 211.826 96.265 212.898 96.265 212.898C94.9703 215.721 95.4405 219.707 96.2807 223.092Z" fill="#233862"/>
<path d="M92.4195 222.505C92.8067 226.69 94.5108 229.396 94.5108 229.396L95.0926 229.933C95.0926 229.933 95.6227 226.869 96.0053 223.361C96.3699 220.027 96.8701 216.499 97.4354 215.421C98.2808 213.812 98.9037 210.522 99.3522 207.045C98.724 207.31 96.5863 207.998 92.8253 207.136C93.1705 210.368 93.6512 213.061 93.7628 213.667C93.7628 213.668 93.7628 213.668 93.7636 213.67C93.7785 213.749 93.7554 213.829 93.7187 213.901C92.3603 216.625 92.1641 219.74 92.4195 222.505Z" fill="#2B478B"/>
<path d="M91.1121 202.143C91.1121 202.143 92.5399 202.59 94.6434 202.885C97.2479 203.249 100.889 203.381 104.14 202.143C104.14 202.143 104.408 197.241 103.638 194.685C102.867 192.129 102.507 190.907 102.507 190.907C102.507 190.907 99.4205 191.691 96.2855 191.083C95.8452 190.998 95.4041 190.885 94.9707 190.738C94.9707 190.738 93.0368 194.898 92.505 196.681C91.9733 198.463 91.1121 202.143 91.1121 202.143Z" fill="#2B478B"/>
<path d="M91.1121 202.143C91.1121 202.143 92.5399 202.59 94.6434 202.885C98.5006 200.669 96.6199 191.344 96.6199 191.344C96.5055 191.25 96.3938 191.162 96.2855 191.083C95.8452 190.998 95.4041 190.885 94.9707 190.738C94.9707 190.738 93.0368 194.898 92.505 196.681C91.9733 198.463 91.1121 202.143 91.1121 202.143Z" fill="#233862"/>
<path d="M87.9546 192.812C87.9546 193.766 88.9152 194.353 89.9463 194.638C90.9376 194.913 91.9933 194.909 92.3236 194.685C92.8934 194.298 93.8218 189.997 94.0929 188.687C94.1415 188.45 94.1693 188.311 94.1693 188.311C94.1693 188.311 94.9098 190.102 94.9329 190.268C94.9434 190.344 94.9525 190.447 94.9592 190.538C94.9666 190.648 94.9711 190.739 94.9711 190.739C94.9711 190.739 98.9897 192.794 102.507 190.907C102.507 190.907 103.937 182.533 103.317 181.092C103.008 180.376 101.399 178.898 100.755 178.261C100.611 178.117 100.625 177.833 100.681 177.574C100.728 177.355 100.533 177.162 100.319 177.218C99.9047 177.328 99.1596 177.309 98.3615 177.043C97.964 176.912 97.5536 176.719 97.165 176.451C97.0519 176.372 96.8985 176.445 96.8812 176.582C96.8205 177.081 96.6715 177.993 96.3997 177.993C96.0254 177.991 93.4706 178.308 93.2833 178.629C93.2182 178.74 92.554 180.263 91.7155 182.28C91.7155 182.28 91.7147 182.281 91.714 182.285C90.1401 186.069 87.9546 191.591 87.9546 192.812Z" fill="#F99746"/>
<path d="M94.1694 188.311C94.1694 188.311 94.91 190.102 94.9331 190.268C94.9435 190.344 94.9526 190.447 94.9593 190.538C95.3172 190.834 95.75 191.058 96.1911 191.194C97.4437 191.579 97.988 189.146 97.9132 187.932C97.8383 186.718 96.0667 183.254 95.4768 183.182C94.8875 183.11 94.1694 188.311 94.1694 188.311Z" fill="#ED7D2B"/>
<path d="M94.093 188.687C94.1416 188.45 94.1694 188.311 94.1694 188.311C94.1303 188.44 94.105 188.565 94.093 188.687Z" fill="#E58638"/>
<path d="M99.2294 191.829C101.516 191.829 102.459 191.032 102.528 190.978L102.676 189.887C102.654 189.903 99.586 191.77 94.8376 189.982L94.9384 190.809C96.7644 191.496 98.0418 191.829 99.2294 191.829Z" fill="#B64C41"/>
<path d="M87.9546 192.812C87.9546 193.766 88.9152 194.353 89.9463 194.638C88.5251 192.924 91.6348 182.55 91.7141 182.285C90.1401 186.069 87.9546 191.591 87.9546 192.812Z" fill="#ED7D2B"/>
<path d="M96.3997 177.993C96.3997 177.993 98.3127 179.22 99.76 178.93C99.76 178.93 100.107 178.707 99.6282 178.484C99.1781 178.274 98.1314 177.655 98.3613 177.043C97.9637 176.912 97.5533 176.719 97.1647 176.451C97.0517 176.372 96.8982 176.445 96.8809 176.582C96.8205 177.081 96.6715 177.993 96.3997 177.993Z" fill="#ED7D2B"/>
<path d="M97.8788 230.607H98.6426C98.8986 230.567 99.0873 230.492 99.3498 230.457C99.7483 230.404 99.9317 230.57 99.9683 230.607C99.9731 230.612 99.9754 230.615 99.9754 230.615H103.22C103.301 230.497 103.223 230.224 103.146 230.022C103.094 229.886 102.982 229.782 102.842 229.741C102.498 229.64 101.82 229.55 101.199 228.981C100.85 228.661 99.5115 227.804 99.5115 227.804L99.5044 227.802C99.4751 227.803 99.3352 227.847 98.7266 228.367C98.412 228.636 97.8757 227.988 97.8757 227.988C97.8757 227.988 97.775 228.072 97.6999 228.229C97.6395 228.353 97.5953 228.524 97.6303 228.734C97.6788 229.03 97.5224 229.581 97.3978 229.953C97.3222 230.178 97.2584 230.338 97.2584 230.338C97.2584 230.338 97.2217 230.524 97.8788 230.607Z" fill="#233862"/>
<path d="M97.6997 228.229C97.882 228.359 98.2669 228.616 98.5222 228.649C98.8668 228.695 99.5113 227.804 99.5113 227.804L99.5042 227.802C99.4749 227.803 99.335 227.846 98.7264 228.367C98.4118 228.635 97.8755 227.987 97.8755 227.987C97.8755 227.987 97.7748 228.072 97.6997 228.229Z" fill="#466AA5"/>
<path d="M97.8787 230.607H98.6425C98.8984 230.566 99.0872 230.491 99.3497 230.457C99.7482 230.404 99.9316 230.569 99.9681 230.607C99.973 230.612 99.9752 230.615 99.9752 230.615H103.22C103.301 230.497 103.223 230.223 103.146 230.022C103.048 229.933 103.02 230.408 102.965 230.483C102.911 230.559 100.319 230.511 100.169 230.4C100.019 230.29 99.5702 230.097 98.9442 230.249C98.3993 230.381 97.5963 230.042 97.3976 229.953C97.322 230.178 97.2582 230.338 97.2582 230.338C97.2582 230.338 97.2216 230.524 97.8787 230.607Z" fill="#466AA5"/>
<path d="M93.8033 230.607H94.5669C94.8229 230.566 95.0118 230.492 95.2741 230.457C95.6726 230.404 95.856 230.569 95.8926 230.607C95.8975 230.612 95.8997 230.615 95.8997 230.615H99.144C99.2257 230.497 99.1472 230.224 99.0705 230.022C99.0187 229.885 98.9061 229.782 98.7668 229.741C98.4227 229.64 97.7445 229.55 97.1233 228.981C96.7739 228.661 95.4358 227.804 95.4358 227.804L95.4287 227.802C95.3992 227.803 95.2593 227.847 94.6509 228.367C94.3363 228.636 93.8 227.988 93.8 227.988C93.8 227.988 93.6993 228.072 93.6242 228.229C93.5638 228.353 93.5197 228.524 93.5546 228.734C93.6031 229.03 93.4467 229.58 93.3221 229.953C93.2465 230.178 93.1827 230.338 93.1827 230.338C93.1827 230.338 93.1463 230.524 93.8033 230.607Z" fill="#233862"/>
<path d="M93.624 228.229C93.8063 228.359 94.1913 228.616 94.4465 228.649C94.7911 228.695 95.4356 227.804 95.4356 227.804L95.4285 227.802C95.3991 227.803 95.2592 227.846 94.6507 228.367C94.3361 228.635 93.7999 227.987 93.7999 227.987C93.7999 227.987 93.6991 228.072 93.624 228.229Z" fill="#466AA5"/>
<path d="M93.8032 230.607H94.5668C94.8227 230.566 95.0116 230.491 95.274 230.457C95.6725 230.404 95.8559 230.569 95.8925 230.607C95.8974 230.612 95.8995 230.615 95.8995 230.615H99.1439C99.2256 230.497 99.1471 230.223 99.0704 230.022C98.9719 229.933 98.944 230.408 98.8897 230.483C98.8352 230.559 96.243 230.511 96.0933 230.4C95.9436 230.29 95.4945 230.097 94.8685 230.249C94.3236 230.381 93.5207 230.042 93.3219 229.953C93.2463 230.178 93.1825 230.338 93.1825 230.338C93.1825 230.338 93.1462 230.524 93.8032 230.607Z" fill="#466AA5"/>
<path d="M85.6524 203.128C85.7279 202.744 85.9945 202.431 86.3572 202.295C86.9451 202.074 87.9077 201.875 89.0914 202.228C91.0891 202.823 91.2848 204.067 91.1526 204.962C91.0204 205.856 91.4121 207.283 91.3545 208.297C91.2971 209.312 91.0102 211.862 89.5308 211.728C88.0515 211.594 83.2832 210.296 83.2832 210.296C83.2832 210.296 82.4595 208.707 84.1517 206.406C85.1555 205.041 85.5207 203.798 85.6524 203.128Z" fill="#233862"/>
<path d="M86.5679 201.955L86.9636 201.992C86.9637 201.991 87.0091 201.714 87.1908 201.54C87.3305 201.407 87.5237 201.358 87.7642 201.398C87.9921 201.435 88.156 201.541 88.239 201.711C88.3561 201.951 88.2913 202.26 88.2906 202.264L88.6763 202.354C88.681 202.333 88.7927 201.831 88.5905 201.409C88.4516 201.117 88.2033 200.949 87.8596 200.883C87.505 200.826 87.2054 200.914 86.9684 201.144C86.6416 201.462 86.5707 201.936 86.5679 201.955Z" fill="#233862"/>
<path d="M82.3029 210.069C82.3029 210.069 87.0718 211.371 88.5522 211.502C90.0315 211.638 90.3195 209.089 90.3738 208.071C90.432 207.059 90.0419 205.632 90.1717 204.735C90.1987 204.565 90.2138 204.377 90.2018 204.188C90.1636 203.389 89.7223 202.483 88.1136 202.004C86.9267 201.65 85.9669 201.852 85.3764 202.073C85.0158 202.209 84.7462 202.521 84.6713 202.904C84.6538 202.982 84.638 203.077 84.6171 203.171C84.4473 203.883 84.0543 204.988 83.1705 206.183C81.4778 208.482 82.3029 210.069 82.3029 210.069Z" fill="#2B478B"/>
<path d="M89.6535 208.284C89.6535 208.284 88.9903 208.932 88.0942 208.704C87.1982 208.475 86.7793 207.625 86.7793 207.625L89.6535 208.284Z" fill="#233862"/>
<path d="M86.196 207.492C86.196 207.492 85.5328 208.139 84.6367 207.911C83.7407 207.683 83.3218 206.833 83.3218 206.833L86.196 207.492Z" fill="#233862"/>
<path d="M84.6714 202.903C84.6539 202.981 84.6381 203.077 84.6172 203.17C84.9971 203.965 85.7175 204.98 86.9365 205.215C89.0096 205.625 90.2017 204.187 90.2017 204.187C90.1636 203.389 89.7222 202.482 88.1136 202.004C86.9266 201.649 85.9668 201.852 85.3764 202.073C85.0159 202.209 84.7461 202.52 84.6714 202.903Z" fill="#233862"/>
<path d="M86.9073 205.655C87.0371 205.685 87.1672 205.602 87.1966 205.47L87.2451 205.253C87.2745 205.122 87.1924 204.99 87.0626 204.96C86.9329 204.93 86.8025 205.013 86.7732 205.145L86.7247 205.362C86.6953 205.494 86.7775 205.626 86.9073 205.655Z" fill="#D86713"/>
<path d="M88.4281 198.242C88.4281 198.242 88.097 199.033 87.7522 199.253C87.4075 199.474 87.0798 200.003 87.0083 200.43C86.877 201.213 87.4692 201.698 87.9047 201.698C88.3402 201.698 88.7564 201.097 89.0125 199.66C89.0265 199.581 89.4399 198.757 89.4399 198.757L88.4281 198.242Z" fill="#FFB27D"/>
<path d="M153.074 230.961L153.345 201.582C153.345 201.582 153.579 199.466 155.401 199.466C157.345 199.466 157.457 201.582 157.457 201.582C157.457 201.582 157.429 201.765 157.229 201.765C157.02 201.765 156.986 201.582 156.986 201.582C156.986 201.582 156.9 199.951 155.401 199.951C153.996 199.951 153.816 201.582 153.816 201.582V230.961H153.074Z" fill="#233862"/>
<path d="M154.066 230.961H152.857L152.965 229.68C152.965 229.68 152.954 229.502 153.198 229.492C153.425 229.482 153.874 229.449 153.916 229.589C153.954 229.711 154.066 230.961 154.066 230.961Z" fill="#233862"/>
<path d="M155.416 197.909L155.498 198.329C155.498 198.329 157.548 198.321 158.028 200.547C158.028 200.547 158.158 201.473 157.499 201.276C156.84 201.078 156.942 200.605 156.009 200.346C155.076 200.087 154.467 199.889 154.326 199.201L154.173 198.435L155.416 197.909Z" fill="#FFB27D"/>
<path d="M148.166 179.693C148.166 179.693 148.709 181.855 149.176 183.832C149.365 184.628 149.541 185.394 149.665 185.976C149.792 186.574 149.864 186.979 149.836 187.024C149.429 187.693 150.172 191.771 150.76 193.252C150.812 193.384 150.883 193.538 150.969 193.708C151.791 195.341 153.979 198.544 153.979 198.544C153.979 198.544 154.596 198.61 155 198.455C155.336 198.326 155.567 197.909 155.567 197.909C155.371 197.59 154.579 193.821 153.561 191.707C153.125 190.803 152.483 182.416 151.639 181.286C150.935 180.344 148.166 179.693 148.166 179.693Z" fill="#F99746"/>
<path d="M149.836 187.024C149.429 187.693 150.172 191.771 150.76 193.252C150.812 193.384 150.883 193.537 150.969 193.708C151.754 190.188 150.453 185.202 150.453 185.202C150.128 185.332 149.869 185.604 149.665 185.976C149.792 186.574 149.864 186.979 149.836 187.024Z" fill="#ED7D2B"/>
<path d="M144.145 227.725C144.145 227.725 143.937 230.91 144.53 230.955C144.609 230.961 147.542 230.961 147.542 230.961L151.325 230.96C151.325 230.96 151.261 230.025 150.167 229.832C149.072 229.638 147.241 228.859 146.578 227.394C145.881 225.852 144.145 227.725 144.145 227.725Z" fill="#0F2949"/>
<path d="M138.456 227.725C138.456 227.725 138.247 230.91 138.841 230.955C138.92 230.961 141.853 230.961 141.853 230.961L145.635 230.96C145.635 230.96 145.572 230.025 144.477 229.832C143.383 229.638 141.552 228.859 140.889 227.394C140.191 225.852 138.456 227.725 138.456 227.725Z" fill="#163560"/>
<path d="M143.967 220.046C143.873 221.393 143.684 223.125 143.751 224.687C143.846 226.87 143.914 228.711 143.914 228.711C145.335 229.201 147.942 228.607 147.942 228.607C147.942 228.607 148.867 223.09 149.628 218.685C149.97 216.712 150.253 215.004 150.359 214.198C150.702 211.593 149.994 197.738 149.994 197.738C149.994 197.738 146.15 195.242 144.562 196.529C142.974 197.815 141.996 199.073 144.555 213.171C144.749 214.24 144.175 217.029 143.967 220.046Z" fill="#2B478B"/>
<path d="M143.966 220.046C143.873 221.393 143.702 223.549 143.769 225.11C145.106 223.677 147.74 220.654 149.628 218.685C149.97 216.712 150.253 215.004 150.359 214.198C150.702 211.593 149.994 197.738 149.994 197.738C149.994 197.738 146.15 195.242 144.561 196.529C142.973 197.815 141.996 199.073 144.555 213.171C144.749 214.24 144.175 217.029 143.966 220.046Z" fill="#233862"/>
<path d="M146.52 198.02C146.52 198.02 146.175 211.889 145.636 214.46C145.096 217.031 142.281 228.803 142.281 228.803C142.281 228.803 139.641 229.046 138.262 228.448C138.262 228.448 138.35 222.996 138.818 219.793C139.255 216.801 140.039 214.065 139.927 212.984C138.444 198.729 139.515 197.551 141.196 196.391C142.877 195.232 146.52 198.02 146.52 198.02Z" fill="#2B478B"/>
<path d="M141.303 199.234C141.303 199.234 142.217 201.093 140.459 202.514C140.459 202.514 139.697 203.042 139.581 202.356C139.464 201.669 139.598 201.908 139.414 200.946C139.231 199.983 139.466 198.988 140.012 198.555L141.303 199.234Z" fill="#FFB27D"/>
<path d="M149.011 176.551C149.011 176.551 147.956 178.176 148.166 179.693L146.604 183.506L143.786 179.141C143.786 179.141 145.275 177.5 145.831 175.262L149.011 176.551Z" fill="#FFB27D"/>
<path d="M149.474 177.938C149.474 177.938 145.63 178.106 145.56 175.769C145.491 173.431 144.452 171.876 147.327 171.67C149.691 171.501 150.477 172.5 150.687 173.275C150.898 174.049 150.898 177.812 149.474 177.938Z" fill="#FFB27D"/>
<path d="M140.064 198.688C140.89 198.766 142.027 198.862 143.406 198.95C143.682 198.968 143.967 198.985 144.261 199.002C148.426 199.238 150.082 198.555 150.082 198.555C150.082 198.555 150.192 198.464 150.157 197.969C149.976 195.417 149.441 194.663 149.506 194.178C149.651 193.088 152.261 184.194 152.261 184.194C152.261 184.194 152.311 181.385 149.227 180.066C148.909 179.93 148.558 179.81 148.171 179.71C148.036 180.074 147.666 180.681 146.718 180.57C145.318 180.404 144.321 179.568 143.894 179.139C143.817 179.139 143.786 179.142 143.786 179.142C143.682 179.44 143.6 179.752 143.528 180.069C143.275 181.173 143.127 182.335 142.458 183.203C141.798 184.061 141.233 184.907 140.751 185.734C140.349 186.422 140.005 187.098 139.711 187.756C136.981 193.87 139.093 198.596 140.064 198.688Z" fill="#F99746"/>
<path d="M140.064 198.688C140.89 198.766 142.027 198.862 143.407 198.95C143.809 192.082 141.047 185.485 141.047 185.485C140.943 185.559 140.844 185.642 140.751 185.734C140.27 186.207 139.934 186.91 139.711 187.756C138.888 190.87 139.577 195.93 140.064 198.688Z" fill="#ED7D2B"/>
<path d="M150.713 175.708C150.713 175.708 151.461 178.716 150.191 179.139C148.922 179.563 145.551 179.223 145.552 175.536C145.552 175.536 147.321 176.605 148.166 176.578C149.011 176.551 149.557 176.057 150.337 176.443C150.337 176.443 150.623 176.424 150.713 175.708Z" fill="#2B478B"/>
<path d="M143.786 179.141C143.786 179.141 141.1 179.202 139.68 181.074C138.593 182.508 137.443 190.201 137.443 191.36C137.443 192.518 138.667 198.912 139.353 199.606C139.353 199.606 139.797 199.722 140.389 199.606C141.017 199.483 141.387 199.115 141.387 199.115C141.387 199.115 141.046 191.997 141.046 191.329C141.046 190.363 144.029 184.446 144.029 184.446C144.029 184.446 145.576 181.63 143.786 179.141Z" fill="#F99746"/>
<path d="M145.741 172.397C145.806 172.159 146.096 172.033 146.096 172.033C148.261 171.078 149.842 172.123 149.842 172.123C148.516 170.319 145.314 170.698 144.639 172.325C143.538 174.983 145.552 175.536 145.552 175.536C145.552 175.536 147.564 174.68 146.399 173.606C146.013 173.251 145.826 172.934 145.764 172.659C145.744 172.567 145.737 172.48 145.741 172.397Z" fill="#2B478B"/>
<path d="M61.2895 223.551L60.8202 225.552L60.1971 228.205H58.2506L58.1348 225.663L58.0452 223.703L61.2895 223.551Z" fill="#FFB27D"/>
<path d="M67.4577 180.004C67.4577 180.004 68.9977 178.334 69.9992 179.643C71.0006 180.952 72.1105 181.836 73.6472 182.843C75.1838 183.85 72.2892 191.743 70.3643 191.581C68.4394 191.418 60.5851 185.196 67.4577 180.004Z" fill="#ED7D2B"/>
<path d="M59.7886 179.21C60.173 178.918 63.7129 177.687 67.1641 178.898C70.6154 180.109 64.4908 183.482 64.4908 183.482L62.506 183.569L59.7886 179.21Z" fill="#A53232"/>
<path d="M62.0418 176.929C62.0418 176.929 61.9732 179.079 61.7016 180.042L59.552 184.737L67.6438 182.788L65.7141 180.087C65.7141 180.087 65.1315 177.204 65.437 176.138C65.7425 175.071 62.0418 176.929 62.0418 176.929Z" fill="#FFB27D"/>
<path d="M62.0303 177.226C62.0303 177.225 62.6701 178.787 63.8753 178.752C65.0806 178.718 65.3549 177.337 65.3549 177.337L62.0303 177.226Z" fill="#ED985F"/>
<path d="M61.3107 175.962C61.3107 175.962 60.9215 173.994 60.6499 173.397C60.3783 172.801 60.152 170.141 63.1624 170.003C63.1624 170.003 64.3168 170.141 64.9505 169.751C64.9505 169.751 64.9505 170.141 64.792 170.279C64.792 170.279 65.8331 170.026 66.6481 170.944C67.4628 171.861 66.105 175.071 66.1728 175.828L61.3107 175.962Z" fill="#2C3A64"/>
<path d="M63.7371 178.149C62.8638 178.133 61.2563 176.955 61.2563 175.496V173.219C61.2563 172.687 61.6231 172.251 62.0711 172.251H65.403C65.8512 172.251 66.2179 172.687 66.2179 173.219V175.367C66.2179 176.897 64.7387 178.167 63.7371 178.149Z" fill="#FFB27D"/>
<path d="M61.2564 174.435C61.2564 174.435 61.261 173.067 62.3304 172.857C63.3999 172.646 65.7935 173.523 66.133 172.526C66.4725 171.528 61.5063 171.546 61.2564 172.182C61.0064 172.818 61.2564 174.435 61.2564 174.435Z" fill="#2C3A64"/>
<path d="M69.8868 197.665L65.1498 197.965C65.1227 197.92 65.092 197.92 65.0582 197.971L63.6645 198.059L57.7249 197.683C57.7249 197.683 56.2312 204.592 56.818 213.798C57.0052 216.735 57.3024 220.656 57.3632 223.465H61.7691C62.2967 219.986 63.0316 216.392 63.3599 214.902C63.509 214.225 63.6474 213.553 63.7763 212.89C63.8941 213.646 63.9696 214.26 63.968 214.642C63.9654 215.254 64.1416 216.228 64.3854 217.401C64.728 219.054 65.2051 221.103 65.5054 223.092H69.9752C70.0264 220.351 70.5905 216.612 70.6391 213.798C70.7685 206.291 69.8868 197.665 69.8868 197.665Z" fill="#2B478B"/>
<path d="M57.1277 201.224C57.1277 201.224 58.8245 203.307 63.4345 203.007C68.0446 202.706 70.2441 201.893 70.2441 201.893L57.1277 201.224Z" fill="#233862"/>
<path d="M70.2441 201.893C68.7382 202.101 58.4934 202.64 57.1277 201.224C55.7619 199.808 59.3572 180.495 59.3572 180.495C59.3572 180.495 59.7645 180.375 60.4514 180.244C60.8016 180.177 61.2243 180.108 61.7025 180.05C61.7083 180.2 61.8268 182.477 63.6926 183.418C63.6926 183.418 65.9336 182.508 65.714 180.086C65.7114 180.058 65.7083 180.031 65.7044 180.004C66.0035 180.036 66.3063 180.078 66.6105 180.131C67.2252 180.238 67.8476 180.39 68.4647 180.596C68.4647 180.596 71.7501 201.686 70.2441 201.893Z" fill="#BC3F3F"/>
<path d="M57.2141 191.922C57.1535 192.002 57.5619 192.596 58.1382 193.361C59.3235 194.93 61.2196 197.215 61.2196 197.215C61.1942 197.989 61.0875 198.489 61.0875 198.489C58.4829 197.242 56.7219 196.076 55.5544 195.139C53.9132 193.822 53.4426 192.957 53.4426 192.957C56.0742 181.679 59.4506 180.504 59.4506 180.504L60.5523 187.301C60.5523 187.301 57.3986 191.677 57.2141 191.922Z" fill="#BC3F3F"/>
<path d="M66.6104 180.131L65.9316 182.223L65.027 183.569L63.7284 184.282L62.5061 183.569L60.4514 180.244C60.8016 180.177 61.2243 180.108 61.7026 180.05C61.7083 180.2 61.8268 182.477 63.6926 183.418C63.6926 183.418 65.9336 182.508 65.714 180.086C65.7114 180.058 65.7083 180.031 65.7044 180.004C66.0034 180.036 66.3062 180.078 66.6104 180.131Z" fill="#EE9849"/>
<path d="M61.2198 197.215C61.2192 197.237 61.2186 197.259 61.2172 197.28C61.2115 197.423 61.2032 197.556 61.1929 197.678C61.1276 197.769 61.0552 197.855 60.9765 197.936C60.8567 198.059 60.7274 198.162 60.5956 198.249C60.5297 198.217 60.4638 198.184 60.399 198.151C58.1682 197.032 56.6161 195.991 55.5544 195.139C56.2281 194.929 57.1718 194.449 58.1381 193.361C59.3233 194.93 61.2198 197.215 61.2198 197.215Z" fill="#FFB27D"/>
<path d="M74.1548 192.543C74.1548 192.543 73.7007 193.416 72.0847 194.765C70.9352 195.724 69.1964 196.924 66.6159 198.221C66.6159 198.221 66.4996 197.724 66.4597 196.95C66.4597 196.95 68.3122 194.629 69.4679 193.037C70.0296 192.262 70.4267 191.66 70.3645 191.58C70.2177 191.393 68.2409 188.759 67.3588 187.584C67.103 187.243 66.9397 187.025 66.9397 187.025L68.0563 180.343C68.0563 180.343 71.3106 181.317 74.1548 192.543Z" fill="#BC3F3F"/>
<path d="M72.0844 194.765C71.0356 195.639 69.4963 196.715 67.2752 197.883C67.2201 197.911 67.1644 197.94 67.1081 197.97C66.8244 197.623 66.6521 197.209 66.5471 196.841C66.5843 196.794 66.6323 196.733 66.6911 196.659C67.2232 195.987 68.5602 194.287 69.4675 193.037C70.4535 194.107 71.4069 194.568 72.0844 194.765Z" fill="#FFB27D"/>
<path d="M65.7044 180.004C64.2099 179.841 62.8077 179.915 61.7025 180.05C61.7019 180.044 61.7019 180.042 61.7019 180.042C61.7019 180.042 65.406 177.721 65.7044 180.004Z" fill="#FFB27D"/>
<path d="M61.9894 186.568H61.9134L61.8574 182.95H62.0494L61.9894 186.568Z" fill="#BBD4FF"/>
<path d="M61.9058 186.474C61.8365 186.579 61.6809 186.929 61.7841 186.966C61.8875 187.003 62.0688 187.005 62.1174 186.956C62.1659 186.907 62.0364 186.274 61.9058 186.474Z" fill="#EE9849"/>
<path d="M65.4958 186.568H65.4199L65.3638 182.95H65.5559L65.4958 186.568Z" fill="#BBD4FF"/>
<path d="M65.4121 186.474C65.3428 186.579 65.1873 186.929 65.2905 186.966C65.3938 187.003 65.5751 187.005 65.6237 186.956C65.6724 186.907 65.5428 186.274 65.4121 186.474Z" fill="#EE9849"/>
<path d="M62.506 183.569L59.3572 180.494C59.3572 180.494 58.6482 179.985 59.7687 179.222C60.8893 178.46 62.506 183.569 62.506 183.569Z" fill="#A53232"/>
<path d="M65.0269 183.569L68.1757 180.494C68.1757 180.494 68.8846 179.985 67.7642 179.222C66.6436 178.46 65.0269 183.569 65.0269 183.569Z" fill="#A53232"/>
<path d="M68.979 198.264C68.3655 198.316 67.8539 198.161 67.4589 197.803C67.3923 197.743 67.3315 197.679 67.2751 197.611C66.9639 197.243 66.7891 196.779 66.6911 196.388C66.5784 195.941 66.5662 195.589 66.5662 195.582L66.5636 195.492H61.4778L61.481 195.588C61.5009 196.142 61.4124 196.617 61.2172 197.009C61.1206 197.205 60.997 197.379 60.8471 197.532C60.7088 197.673 60.5558 197.788 60.3989 197.88C59.7182 198.279 58.9608 198.264 58.9512 198.264L58.8572 198.261V200.438H69.0782V198.255L68.979 198.264Z" fill="#A53232"/>
<path d="M70.3644 191.58C70.3644 191.58 67.5293 187.812 69.7735 186.714C70.6643 186.278 71.9185 191.451 71.2462 191.937C70.5738 192.424 69.4674 193.037 69.4674 193.037L70.3644 191.58Z" fill="#A53232"/>
<path d="M57.5403 190.688C57.5403 190.688 58.5253 185.955 57.6611 186.443C56.7967 186.93 55.516 191.179 56.1883 191.666C56.8606 192.152 57.9671 192.766 57.9671 192.766L57.5403 190.688Z" fill="#A53232"/>
<path d="M69.9668 191.569C68.6722 189.941 68.1885 187.297 68.2547 184.569C68.3042 182.52 68.5815 180.671 68.5997 180.606L69.6615 181.444C69.6573 181.46 69.0521 182.581 69.0052 184.574C68.9624 186.397 68.8771 187.785 69.8943 190.959L69.9668 191.569Z" fill="#ED7D2B"/>
<path d="M60.1369 224.471L57.8558 224.47C57.6539 224.493 57.3379 224.194 57.3379 223.766C57.3379 223.766 57.333 222.739 57.2661 222.556C56.9726 221.756 57.4091 221.713 57.8317 221.713H61.9936C62.4162 221.713 61.7689 223.037 61.7689 223.465L61.9188 224.026C61.9189 224.454 60.5594 224.471 60.1369 224.471Z" fill="#233862"/>
<path d="M60.1973 228.205L60.8203 225.552C59.4014 226.047 58.4249 225.771 58.1349 225.663L58.2508 228.205H58.2507C58.2507 228.205 57.7528 229.512 57.617 229.833C57.4812 230.154 57.4812 231.12 57.4812 231.12H60.5821C60.5821 231.12 60.6048 230.177 60.5821 229.787C60.5594 229.398 60.1974 228.205 60.1973 228.205Z" fill="#233862"/>
<path d="M66.0354 223.551L66.5047 225.552L67.1277 228.205H69.0743L69.1902 225.663L69.2797 223.703L66.0354 223.551Z" fill="#FFB27D"/>
<path d="M67.1881 224.471L69.4691 224.47C69.6709 224.493 69.9869 224.194 69.9869 223.766C69.9869 223.766 69.9917 222.739 70.0587 222.556C70.3522 221.756 69.9157 221.713 69.4931 221.713H65.3312C64.9086 221.713 65.5559 223.037 65.5559 223.465L65.406 224.026C65.406 224.454 66.7655 224.471 67.1881 224.471Z" fill="#233862"/>
<path d="M69.7044 229.833C69.5686 229.512 69.071 228.206 69.0707 228.205H69.0743L69.1902 225.663C68.9002 225.771 67.9237 226.047 66.5049 225.552L67.1279 228.205H67.1242C67.1242 228.205 66.762 229.398 66.7394 229.787C66.7168 230.177 66.7394 231.12 66.7394 231.12H69.8403C69.8403 231.12 69.8402 230.154 69.7044 229.833Z" fill="#233862"/>
<path d="M29.1465 231.125H26.282L27.4159 165.677L27.5861 155.861H28.9422L28.9667 164.691L29.1465 231.125Z" fill="#E58638"/>
<path d="M28.9666 164.691C28.5125 164.919 27.9731 165.24 27.4158 165.677L27.586 155.86H28.9421L28.9666 164.691Z" fill="#CC6E2E"/>
<path d="M35.3293 157.382H20.0992C19.6206 157.382 19.229 156.985 19.229 156.5V134.751C19.229 134.266 19.6206 133.869 20.0992 133.869H35.3293C35.808 133.869 36.1996 134.266 36.1996 134.751V156.5C36.1996 156.985 35.808 157.382 35.3293 157.382Z" fill="#F99746"/>
<path d="M34.4318 156.283H20.9969C20.568 156.283 20.217 155.928 20.217 155.493V135.708C20.217 135.274 20.568 134.918 20.9969 134.918H34.4318C34.8607 134.918 35.2116 135.274 35.2116 135.708V155.493C35.2115 155.928 34.8607 156.283 34.4318 156.283Z" fill="#EDF4FF"/>
<path d="M24.1106 142.248C23.3782 142.127 22.7539 142.759 22.874 143.501C22.9468 143.951 23.3045 144.313 23.748 144.387C24.4805 144.508 25.1047 143.876 24.9846 143.134C24.9118 142.685 24.5542 142.322 24.1106 142.248ZM23.9293 143.8C23.6662 143.8 23.4529 143.584 23.4529 143.317C23.4529 143.051 23.6662 142.835 23.9293 142.835C24.1923 142.835 24.4056 143.051 24.4056 143.317C24.4056 143.584 24.1923 143.8 23.9293 143.8Z" fill="#ED7D2B"/>
<path d="M31.2943 142.249C30.5612 142.126 29.9356 142.758 30.0559 143.501C30.1288 143.951 30.4866 144.313 30.9303 144.387C31.6624 144.508 32.2855 143.877 32.1666 143.135C32.0946 142.686 31.7375 142.323 31.2943 142.249ZM31.1872 143.794C30.8647 143.845 30.5902 143.566 30.6408 143.239C30.6722 143.036 30.8369 142.871 31.0375 142.84C31.3591 142.792 31.631 143.069 31.5818 143.394C31.5511 143.597 31.3874 143.763 31.1872 143.794Z" fill="#ED7D2B"/>
<path d="M32.5886 138.559H23.3164C23.0903 138.559 22.8793 138.674 22.7543 138.865L21.7587 140.386C21.6703 140.521 21.623 140.679 21.623 140.842V142.754C21.623 143.065 21.872 143.318 22.1792 143.318C22.3887 143.318 22.5658 143.17 22.6194 142.965C22.7728 142.378 23.3014 141.945 23.9295 141.945C24.5428 141.945 25.0607 142.357 25.2279 142.923C25.2973 143.158 25.5131 143.318 25.7554 143.318H29.3606C29.5704 143.318 29.7475 143.17 29.8012 142.965C29.9548 142.377 30.4831 141.945 31.1111 141.945C31.7294 141.945 32.2507 142.364 32.4135 142.937C32.4782 143.165 32.6892 143.318 32.9231 143.318H33.3217C33.5888 143.318 33.8053 143.098 33.8053 142.828V140.723C33.8053 140.623 33.7879 140.525 33.7538 140.432L33.2366 139.017C33.1363 138.742 32.8776 138.559 32.5886 138.559ZM24.2124 140.268C24.2124 140.429 24.0837 140.559 23.925 140.559H22.718C22.5311 140.559 22.4137 140.354 22.5063 140.19L23.0475 139.228C23.1555 139.037 23.3562 138.919 23.5737 138.919H23.9245C24.0834 138.919 24.2123 139.049 24.2123 139.21V140.268H24.2124ZM26.9548 140.268C26.9548 140.429 26.8261 140.559 26.6674 140.559H25.008C24.8493 140.559 24.7206 140.429 24.7206 140.268V139.21C24.7206 139.049 24.8493 138.919 25.008 138.919H26.6674C26.8261 138.919 26.9548 139.049 26.9548 139.21V140.268ZM29.7019 140.268C29.7019 140.429 29.5732 140.559 29.4146 140.559H27.7547C27.596 140.559 27.4673 140.429 27.4673 140.268V139.21C27.4673 139.049 27.596 138.919 27.7547 138.919H29.4144C29.5731 138.919 29.7018 139.049 29.7018 139.21V140.268H29.7019ZM32.4662 140.268C32.4662 140.429 32.3375 140.559 32.1789 140.559H30.5196C30.3608 140.559 30.2322 140.429 30.2322 140.268V139.21C30.2322 139.049 30.3609 138.919 30.5196 138.919H32.1789C32.3375 138.919 32.4662 139.049 32.4662 139.21V140.268Z" fill="#ED7D2B"/>
<path d="M24.4838 146.97H25.5572C25.8215 146.97 26.0296 147.043 26.1617 147.177C26.2674 147.284 26.3202 147.415 26.3202 147.582C26.3202 147.846 26.1815 147.994 26.0163 148.087C26.2839 148.191 26.4491 148.348 26.4491 148.67C26.4491 149.098 26.1056 149.312 25.5836 149.312H24.4836L24.4838 146.97ZM25.4484 147.917C25.673 147.917 25.815 147.843 25.815 147.662C25.815 147.508 25.6961 147.421 25.4813 147.421H24.9792V147.917H25.4484ZM25.5838 148.86C25.8084 148.86 25.9438 148.78 25.9438 148.599C25.9438 148.442 25.8282 148.345 25.5674 148.345H24.9794V148.86L25.5838 148.86Z" fill="#ED7D2B"/>
<path d="M26.8323 148.308V146.97H27.341V148.295C27.341 148.676 27.5293 148.874 27.8398 148.874C28.1503 148.874 28.3385 148.683 28.3385 148.312V146.97H28.8472V148.292C28.8472 149.001 28.4541 149.349 27.8332 149.349C27.2122 149.349 26.8323 148.998 26.8323 148.308Z" fill="#ED7D2B"/>
<path d="M29.207 148.971L29.5076 148.606C29.7156 148.78 29.9336 148.891 30.1979 148.891C30.4059 148.891 30.5315 148.807 30.5315 148.663C30.5315 148.532 30.4523 148.466 30.0658 148.365C29.6 148.245 29.2994 148.114 29.2994 147.642C29.2994 147.217 29.6364 146.936 30.1087 146.936C30.4457 146.936 30.7331 147.043 30.9675 147.234L30.7033 147.622C30.4985 147.478 30.297 147.391 30.1021 147.391C29.9073 147.391 29.8048 147.482 29.8048 147.602C29.8048 147.756 29.9039 147.806 30.3036 147.91C30.7727 148.034 31.0369 148.205 31.0369 148.62C31.0369 149.085 30.6867 149.346 30.1881 149.346C29.838 149.346 29.4846 149.222 29.207 148.971Z" fill="#ED7D2B"/>
<path d="M23.2632 152.987L23.5639 152.622C23.7719 152.796 23.99 152.907 24.2542 152.907C24.4623 152.907 24.5878 152.823 24.5878 152.679C24.5878 152.548 24.5085 152.482 24.1221 152.381C23.6563 152.261 23.3557 152.13 23.3557 151.658C23.3557 151.233 23.6926 150.952 24.165 150.952C24.5019 150.952 24.7893 151.059 25.0238 151.25L24.7596 151.638C24.5547 151.494 24.3533 151.407 24.1584 151.407C23.9636 151.407 23.8611 151.498 23.8611 151.618C23.8611 151.772 23.9602 151.822 24.3599 151.926C24.8289 152.05 25.0932 152.22 25.0932 152.635C25.0932 153.1 24.743 153.361 24.2442 153.361C23.8942 153.362 23.5407 153.238 23.2632 152.987Z" fill="#ED7D2B"/>
<path d="M26.0246 151.461H25.321V150.985H27.2369V151.461H26.5333V153.328H26.0246V151.461Z" fill="#ED7D2B"/>
<path d="M27.4253 152.157C27.4253 151.491 27.944 150.945 28.6574 150.945C29.3708 150.945 29.8828 151.484 29.8828 152.157C29.8828 152.823 29.3641 153.368 28.6507 153.368C27.9373 153.368 27.4253 152.83 27.4253 152.157ZM29.3509 152.157C29.3509 151.755 29.0602 151.421 28.6507 151.421C28.2412 151.421 27.957 151.749 27.957 152.157C27.957 152.559 28.2477 152.893 28.6573 152.893C29.0669 152.893 29.3509 152.565 29.3509 152.157Z" fill="#ED7D2B"/>
<path d="M30.3352 150.985H31.2799C31.8316 150.985 32.1652 151.317 32.1652 151.802C32.1652 152.344 31.749 152.625 31.2304 152.625H30.8439V153.328H30.3353V150.985H30.3352ZM31.247 152.167C31.5013 152.167 31.65 152.013 31.65 151.805C31.65 151.574 31.4915 151.451 31.2372 151.451H30.8441V152.167H31.247Z" fill="#ED7D2B"/>
<path d="M30.533 230.961H24.8958L25.2992 223.049C25.3217 222.608 25.6814 222.262 26.1177 222.262H29.2608C29.7252 222.262 30.1084 222.63 30.1324 223.1L30.533 230.961Z" fill="#E58638"/>
<path d="M27.4957 230.961H24.8955L25.3023 222.984C25.3229 222.579 25.653 222.262 26.0531 222.262H26.8638C27.525 222.262 28.0479 222.829 28.0025 223.498L27.4957 230.961Z" fill="#CC6E2E"/>
<path d="M51.1732 149.018L51.1318 151.644L49.8963 230.618C49.8934 230.808 49.7403 230.961 49.5525 230.961H49.4606C49.0903 230.961 48.7877 230.661 48.7794 230.286L47.0676 154.055L46.9548 149.018L51.1732 149.018Z" fill="#E58638"/>
<path d="M51.1729 149.018L51.1315 151.644C50.0029 152.002 48.3872 152.709 47.0671 154.055L46.9543 149.018H51.1729Z" fill="#CC621B"/>
<path d="M167.207 149.018L167.165 151.644L165.93 230.618C165.927 230.808 165.774 230.961 165.586 230.961H165.494C165.124 230.961 164.821 230.661 164.813 230.286L163.101 154.055L162.989 149.018L167.207 149.018Z" fill="#E58638"/>
<path d="M167.207 149.018L167.165 151.644C166.037 152.002 164.421 152.709 163.101 154.055L162.988 149.018H167.207Z" fill="#CC621B"/>
<path d="M172.802 139.148V148.452C172.802 148.629 172.754 148.796 172.669 148.941C172.484 149.255 172.126 149.47 171.717 149.47H43.2278C42.6309 149.47 42.1433 149.012 42.1433 148.453V139.148C42.1433 138.589 42.6309 138.131 43.2278 138.131H171.717C172.315 138.131 172.802 138.589 172.802 139.148Z" fill="#ED7D2B"/>
<path d="M172.802 139.148V148.452C172.802 148.629 172.754 148.796 172.669 148.941C172.283 149.121 171.889 149.297 171.489 149.47H117.234C103.936 146.188 90.6936 141.743 80.9734 138.131H171.717C172.315 138.131 172.802 138.589 172.802 139.148Z" fill="#F99746"/>
<path d="M46.2448 225.552C46.2448 225.552 42.6283 219.955 40.3946 221.028C38.1611 222.1 46.2448 225.552 46.2448 225.552Z" fill="#B8E0AF"/>
<path d="M47.2553 224.471C47.2553 224.471 47.0426 220.43 45.8725 220.591C44.7026 220.753 47.2553 224.471 47.2553 224.471Z" fill="#B8E0AF"/>
<path d="M356.211 231.614H7.6353C7.41761 231.614 7.2395 231.422 7.2395 231.188V231.042C7.2395 230.807 7.41761 230.615 7.6353 230.615H356.211C356.428 230.615 356.606 230.807 356.606 231.042V231.188C356.606 231.422 356.428 231.614 356.211 231.614Z" fill="#2E3552"/>
<path d="M295.483 202.907H325.281V223.13H295.483V202.907Z" fill="#FF725E"/>
<path opacity="0.3" d="M295.483 202.907H325.281V223.13H295.483V202.907Z" fill="black"/>
<path d="M202.228 202.907H232.027V223.13H202.228V202.907Z" fill="#FF725E"/>
<path opacity="0.3" d="M202.228 202.907H232.027V223.13H202.228V202.907Z" fill="black"/>
<path d="M175.242 167.144H181.558V169.114C181.558 169.114 177.395 169.091 174.401 169.177C170.347 169.294 169.751 173.337 169.751 173.337L168.371 173.349V172.276C168.371 169.448 171.594 167.144 175.242 167.144Z" fill="#FF725E"/>
<path d="M169.882 172.213V173.165H170.945C171.663 173.165 172.245 173.616 172.245 174.173V180.617C172.245 181.09 171.75 181.473 171.141 181.473H169.311C168.701 181.473 168.207 181.09 168.207 180.617V172.174L169.882 172.213Z" fill="#FF725E"/>
<path d="M168.133 176.74C168.174 176.74 168.207 175.855 168.207 174.764C168.207 173.672 168.174 172.788 168.133 172.788C168.093 172.788 168.06 173.672 168.06 174.764C168.06 175.855 168.093 176.74 168.133 176.74Z" fill="#263238"/>
<path d="M195.181 162.904L196.267 161.394C196.79 160.668 197.608 160.241 198.477 160.241H247.476C248.516 160.241 249.479 160.817 250.007 161.754L250.703 162.991L353.914 163.463C355.587 163.47 356.949 164.871 356.982 166.619L358.006 220.259L339.735 223.495H322.672H322.339C323.155 221.404 323.506 219.063 323.243 216.608C322.53 209.954 317.282 204.708 310.889 204.24C303.05 203.668 296.52 210.142 296.52 218.21C296.52 220.08 296.873 221.864 297.51 223.495H297.155H230.64H229.479C230.295 221.404 230.646 219.063 230.384 216.609C229.671 209.955 224.423 204.708 218.03 204.24C210.191 203.667 203.66 210.142 203.66 218.21C203.66 220.08 204.014 221.864 204.651 223.495H179.014L175.762 219.45V166.662C175.762 164.903 177.641 162.94 179.325 162.94L195.181 162.904Z" fill="url(#paint0_linear_12_5777)"/>
<path d="M353.407 170.527V195.14C353.407 197.733 351.396 199.834 348.915 199.834H292.703V171.184L353.407 170.527Z" fill="#263238"/>
<path d="M351.347 172.455V186.31L348.079 188.53H323.726V172.479L351.347 172.455Z" fill="#455A64"/>
<path d="M321.515 190.912V172.455H294.209V197.716L298.94 192.773C300.102 191.558 301.679 190.878 303.323 190.88L321.515 190.912Z" fill="#455A64"/>
<path opacity="0.2" d="M318.922 190.908L299.31 172.476L294.209 172.455L313.464 190.898L318.922 190.908Z" fill="white"/>
<path d="M202.277 170.527H258.322V199.834H202.277V170.527Z" fill="#263238"/>
<path d="M231.539 171.902H256.988V198.123H231.539V171.902Z" fill="#455A64"/>
<path d="M203.898 171.902H229.346V198.123H203.898V171.902Z" fill="#455A64"/>
<path d="M236.4 223.488C236.4 223.488 236.404 223.391 236.406 223.212C236.408 223.027 236.41 222.763 236.414 222.421C236.417 221.725 236.423 220.714 236.43 219.428C236.437 216.851 236.448 213.172 236.461 208.737L236.4 208.802C241.389 208.805 247.388 208.81 253.841 208.815H253.842L253.768 208.737C253.771 214.068 253.773 219.104 253.776 223.488L253.842 223.419C248.667 223.433 244.316 223.445 241.252 223.453C239.721 223.461 238.512 223.467 237.68 223.472C237.27 223.475 236.952 223.478 236.731 223.48C236.627 223.482 236.546 223.483 236.486 223.484C236.43 223.485 236.401 223.486 236.4 223.488C236.399 223.489 236.425 223.49 236.478 223.491C236.536 223.492 236.615 223.494 236.716 223.495C236.934 223.497 237.247 223.5 237.652 223.504C238.481 223.508 239.684 223.514 241.208 223.522C244.283 223.53 248.649 223.543 253.842 223.557L253.908 223.557V223.488C253.91 219.104 253.913 214.069 253.916 208.737V208.66H253.842H253.84C247.388 208.665 241.389 208.669 236.399 208.673H236.337L236.338 208.737C236.351 213.189 236.362 216.882 236.369 219.469C236.376 220.749 236.382 221.755 236.385 222.447C236.389 222.784 236.391 223.044 236.393 223.226C236.395 223.401 236.4 223.488 236.4 223.488Z" fill="#263238"/>
<path d="M324.66 223.495C324.662 223.495 324.664 223.46 324.666 223.392C324.668 223.317 324.67 223.217 324.673 223.088C324.676 222.814 324.68 222.42 324.685 221.913C324.69 220.882 324.697 219.392 324.706 217.528C324.713 213.784 324.722 208.539 324.732 202.506L324.66 202.581C326.703 202.582 328.878 202.582 331.118 202.583C338.448 202.574 345.082 202.566 349.892 202.56C352.289 202.55 354.231 202.542 355.581 202.536C356.248 202.529 356.768 202.524 357.128 202.521C357.3 202.518 357.433 202.515 357.531 202.513C357.621 202.511 357.667 202.505 357.667 202.505C357.667 202.505 357.621 202.5 357.531 202.497C357.434 202.496 357.3 202.493 357.128 202.49C356.768 202.486 356.248 202.481 355.581 202.475C354.231 202.469 352.289 202.461 349.892 202.45C345.082 202.444 338.448 202.437 331.118 202.428C328.878 202.429 326.703 202.429 324.66 202.43H324.588V202.505C324.599 208.539 324.608 213.784 324.614 217.528C324.623 219.392 324.63 220.881 324.635 221.913C324.64 222.42 324.644 222.813 324.647 223.088C324.65 223.217 324.652 223.317 324.653 223.391C324.656 223.46 324.658 223.495 324.66 223.495Z" fill="#263238"/>
<path d="M338.995 202.907C338.954 202.907 338.921 207.513 338.921 213.193C338.921 218.876 338.955 223.48 338.995 223.48C339.036 223.48 339.069 218.876 339.069 213.193C339.069 207.513 339.036 202.907 338.995 202.907Z" fill="#263238"/>
<path d="M352.857 202.663C352.816 202.663 352.783 206.793 352.783 211.887C352.783 216.983 352.816 221.112 352.857 221.112C352.897 221.112 352.93 216.983 352.93 211.887C352.93 206.793 352.897 202.663 352.857 202.663Z" fill="#263238"/>
<path d="M326.633 218.984C326.634 218.983 326.635 218.961 326.636 218.919C326.637 218.871 326.639 218.811 326.64 218.734C326.642 218.564 326.645 218.326 326.648 218.02C326.652 217.391 326.658 216.483 326.665 215.334C326.673 213.028 326.685 209.756 326.698 205.853L326.633 205.921C329.851 205.924 333.584 205.927 337.546 205.93C337.564 205.947 337.407 205.785 337.473 205.855V205.859V205.866V205.88V205.909V205.965V206.079V206.305V206.756C337.473 207.057 337.473 207.355 337.473 207.652C337.474 208.247 337.474 208.835 337.474 209.417C337.475 210.58 337.475 211.717 337.476 212.82C337.479 215.025 337.482 217.097 337.485 218.985L337.547 218.919C334.274 218.933 331.554 218.945 329.645 218.953C328.694 218.96 327.946 218.966 327.426 218.97C327.175 218.973 326.979 218.975 326.839 218.977C326.705 218.98 326.633 218.984 326.633 218.984C326.633 218.984 326.696 218.989 326.825 218.991C326.963 218.993 327.154 218.996 327.401 218.999C327.917 219.003 328.66 219.009 329.605 219.016C331.524 219.024 334.257 219.035 337.547 219.049L337.61 219.05V218.984C337.612 217.097 337.615 215.025 337.618 212.819C337.619 211.716 337.62 210.58 337.62 209.416C337.621 208.835 337.621 208.246 337.621 207.652C337.621 207.355 337.621 207.056 337.621 206.756V206.305V206.078V205.965V205.908V205.88V205.866V205.858V205.855C337.687 205.923 337.532 205.758 337.546 205.775C333.584 205.778 329.851 205.781 326.633 205.784H326.567L326.567 205.852C326.581 209.773 326.592 213.061 326.6 215.378C326.608 216.52 326.613 217.423 326.618 218.048C326.621 218.348 326.624 218.582 326.625 218.748C326.627 218.822 326.628 218.88 326.629 218.926C326.63 218.966 326.631 218.985 326.633 218.984Z" fill="#263238"/>
<path d="M336.217 205.853C336.177 205.853 336.144 208.793 336.144 212.418C336.144 216.045 336.177 218.984 336.217 218.984C336.258 218.984 336.291 216.045 336.291 212.418C336.291 208.793 336.258 205.853 336.217 205.853Z" fill="#263238"/>
<path d="M334.567 205.853C334.526 205.853 334.493 208.793 334.493 212.418C334.493 216.045 334.526 218.984 334.567 218.984C334.608 218.984 334.64 216.045 334.64 212.418C334.64 208.793 334.607 205.853 334.567 205.853Z" fill="#263238"/>
<path d="M332.916 205.853C332.875 205.853 332.842 208.793 332.842 212.418C332.842 216.045 332.875 218.984 332.916 218.984C332.956 218.984 332.989 216.045 332.989 212.418C332.989 208.793 332.956 205.853 332.916 205.853Z" fill="#263238"/>
<path d="M331.265 205.853C331.224 205.853 331.191 208.793 331.191 212.418C331.191 216.045 331.224 218.984 331.265 218.984C331.306 218.984 331.338 216.045 331.338 212.418C331.339 208.793 331.306 205.853 331.265 205.853Z" fill="#263238"/>
<path d="M329.614 205.853C329.573 205.853 329.54 208.793 329.54 212.418C329.54 216.045 329.573 218.984 329.614 218.984C329.654 218.984 329.688 216.045 329.688 212.418C329.688 208.793 329.655 205.853 329.614 205.853Z" fill="#263238"/>
<path d="M327.963 205.853C327.922 205.853 327.889 208.793 327.889 212.418C327.889 216.045 327.923 218.984 327.963 218.984C328.003 218.984 328.037 216.045 328.037 212.418C328.037 208.793 328.004 205.853 327.963 205.853Z" fill="#263238"/>
<path d="M260.737 174.046H290.546V223.495H260.737V174.046Z" fill="#263238"/>
<path d="M277.546 177.434H288.882V216.116H277.546V177.434Z" fill="#455A64"/>
<path d="M262.622 177.434H273.958V216.116H262.622V177.434Z" fill="#455A64"/>
<path d="M275.689 174.046C275.648 174.046 275.615 185.035 275.615 198.587C275.615 212.144 275.648 223.131 275.689 223.131C275.73 223.131 275.763 212.144 275.763 198.587C275.763 185.035 275.73 174.046 275.689 174.046Z" fill="#455A64"/>
<path opacity="0.3" d="M334.249 172.455L350.872 186.643L348.079 188.53L330.052 172.455H334.249Z" fill="white"/>
<path opacity="0.3" d="M344.846 188.53L326.859 172.476H325.833L343.759 188.53H344.846Z" fill="white"/>
<path opacity="0.3" d="M256.987 189.894L237.866 171.923L232.764 171.902L257.045 195.158L256.987 189.894Z" fill="white"/>
<path opacity="0.3" d="M288.882 201.227V206.437L277.546 195.58V190.573L288.882 201.227Z" fill="white"/>
<path opacity="0.3" d="M273.958 207.429V212.64L262.623 201.782V196.775L273.958 207.429Z" fill="white"/>
<path opacity="0.2" d="M269.101 177.434L273.958 181.998V187.209L263.752 177.434H269.101Z" fill="white"/>
<path opacity="0.3" d="M288.886 208.428L288.905 210.134L277.546 199.386V197.883L288.886 208.428Z" fill="white"/>
<path d="M181.558 174.046H199.372V223.495H181.558V174.046Z" fill="#263238"/>
<path d="M183.505 177.434H197.708V216.116H183.505V177.434Z" fill="#455A64"/>
<path opacity="0.2" d="M183.505 177.434H189.007V208.38H183.505V177.434Z" fill="black"/>
<path opacity="0.3" d="M197.702 201.227V206.437L183.505 195.58V190.573L197.702 201.227Z" fill="white"/>
<path opacity="0.3" d="M197.707 208.428L197.731 210.134L183.505 199.386V197.883L197.707 208.428Z" fill="white"/>
<path opacity="0.2" d="M228.906 190.064L209.581 171.902H204.215L228.963 195.328L228.906 190.064Z" fill="white"/>
<path opacity="0.3" d="M229.346 198.266L204.924 174.571H203.898L228.26 198.266H229.346Z" fill="white"/>
<path d="M293.99 174.309H351.347V174.834H293.99V174.309Z" fill="#263238"/>
<path d="M202.718 174.309H257.48V174.834H202.718V174.309Z" fill="#263238"/>
<path d="M202.21 208.067H203.478C203.895 208.067 204.233 207.714 204.233 207.278V207.226C204.233 206.791 203.895 206.438 203.478 206.438H202.21C201.793 206.438 201.455 206.791 201.455 207.226V207.278C201.455 207.714 201.793 208.067 202.21 208.067Z" fill="#FF9A6C"/>
<path d="M232.884 217.741H234.152C234.569 217.741 234.907 217.388 234.907 216.952V216.901C234.907 216.465 234.569 216.112 234.152 216.112H232.884C232.467 216.112 232.129 216.465 232.129 216.901V216.952C232.129 217.388 232.467 217.741 232.884 217.741Z" fill="white"/>
<path d="M256.721 217.741H257.989C258.406 217.741 258.744 217.388 258.744 216.952V216.901C258.744 216.465 258.406 216.112 257.989 216.112H256.721C256.304 216.112 255.966 216.465 255.966 216.901V216.952C255.966 217.388 256.304 217.741 256.721 217.741Z" fill="#FF9A6C"/>
<path d="M293.46 217.605H294.728C295.145 217.605 295.483 217.252 295.483 216.816V216.765C295.483 216.329 295.145 215.976 294.728 215.976H293.46C293.043 215.976 292.705 216.329 292.705 216.765V216.816C292.705 217.252 293.043 217.605 293.46 217.605Z" fill="#FF9A6C"/>
<path d="M349.834 219.234H351.102C351.519 219.234 351.857 218.881 351.857 218.445V218.394C351.857 217.958 351.519 217.605 351.102 217.605H349.834C349.418 217.605 349.079 217.958 349.079 218.394V218.445C349.08 218.881 349.418 219.234 349.834 219.234Z" fill="#FF9A6C"/>
<path opacity="0.2" d="M192.532 177.434V195.754H197.702L197.708 177.434H192.532Z" fill="black"/>
<path d="M175.762 169.285H179.325V205.923H175.762V169.285Z" fill="#263238"/>
<path d="M175.762 202.8C175.762 202.8 177.572 203.284 178.035 201.59C178.499 199.896 178.035 170.527 178.035 170.527H175.762V202.8Z" fill="#455A64"/>
<path opacity="0.3" d="M178.241 189.038L175.762 187.119C175.762 187.119 175.762 183.982 175.762 183.7C175.762 183.418 178.241 185.181 178.241 185.181V189.038Z" fill="white"/>
<path opacity="0.2" d="M243.262 160.391H243.899V161.981H243.262V160.391Z" fill="black"/>
<path opacity="0.2" d="M242.048 160.391H242.686V161.981H242.048V160.391Z" fill="black"/>
<path opacity="0.2" d="M240.835 160.391H241.472V161.981H240.835V160.391Z" fill="black"/>
<path opacity="0.2" d="M239.622 160.391H240.259V161.981H239.622V160.391Z" fill="black"/>
<path opacity="0.2" d="M238.408 160.391H239.045V161.981H238.408V160.391Z" fill="black"/>
<path opacity="0.2" d="M237.194 160.391H237.832V161.981H237.194V160.391Z" fill="black"/>
<path opacity="0.2" d="M235.981 160.391H236.618V161.981H235.981V160.391Z" fill="black"/>
<path opacity="0.2" d="M234.767 160.391H235.405V161.981H234.767V160.391Z" fill="black"/>
<path opacity="0.2" d="M233.553 160.391H234.191V161.981H233.553V160.391Z" fill="black"/>
<path opacity="0.2" d="M232.34 160.391H232.977V161.981H232.34V160.391Z" fill="black"/>
<path opacity="0.2" d="M231.126 160.391H231.764V161.981H231.126V160.391Z" fill="black"/>
<path opacity="0.2" d="M229.913 160.391H230.55V161.981H229.913V160.391Z" fill="black"/>
<path opacity="0.2" d="M228.699 160.391H229.336V161.981H228.699V160.391Z" fill="black"/>
<path opacity="0.2" d="M227.486 160.391H228.123V161.981H227.486V160.391Z" fill="black"/>
<path d="M195.079 162.904C195.079 162.947 207.553 162.981 222.936 162.981C238.325 162.981 250.796 162.946 250.796 162.904C250.796 162.861 238.325 162.826 222.936 162.826C207.553 162.826 195.079 162.861 195.079 162.904Z" fill="black"/>
<path d="M175.762 168.681C175.762 168.724 216.342 168.758 266.387 168.758C316.45 168.758 357.021 168.723 357.021 168.681C357.021 168.638 316.45 168.604 266.387 168.604C216.342 168.604 175.762 168.638 175.762 168.681Z" fill="#263238"/>
<path d="M309.246 229.966C303.551 229.966 298.935 225.144 298.935 219.194C298.935 213.245 303.551 208.422 309.246 208.422C314.94 208.422 319.556 213.245 319.556 219.194C319.556 225.144 314.94 229.966 309.246 229.966Z" fill="#455A64"/>
<path d="M177.122 212.391H179.011V215.802H177.122V212.391Z" fill="#FF9A6C"/>
<path d="M175.757 212.391H177.123V215.802H175.757V212.391Z" fill="white"/>
<path d="M259.633 163.103H291.34V171.902H259.633V163.103Z" fill="#263238"/>
<path opacity="0.2" d="M260.737 164.047H290.353V170.958H260.737V164.047Z" fill="black"/>
<path d="M321.764 218.242C321.858 225.074 316.634 230.692 310.096 230.79C303.557 230.889 298.18 225.431 298.086 218.599C297.992 211.768 303.216 206.15 309.755 206.051C316.293 205.953 321.67 211.411 321.764 218.242Z" fill="#263238"/>
<path d="M321.762 218.211C321.762 218.221 321.764 218.232 321.764 218.242C321.858 225.074 316.634 230.692 310.096 230.79C303.557 230.889 298.18 225.431 298.086 218.599C298.086 218.589 298.087 218.578 298.087 218.568L321.762 218.211Z" fill="#263238"/>
<path d="M318.237 218.296C318.303 223.092 314.635 227.036 310.045 227.105C305.454 227.174 301.679 223.342 301.613 218.546C301.547 213.75 305.214 209.806 309.805 209.737C314.396 209.667 318.171 213.5 318.237 218.296Z" fill="#FAFAFA"/>
<path d="M309.805 209.737C314.396 209.668 318.17 213.5 318.237 218.296L301.613 218.546C301.547 213.75 305.215 209.806 309.805 209.737Z" fill="#E0E0E0"/>
<path d="M314.988 218.345C315.029 221.266 312.795 223.669 309.998 223.711C307.202 223.753 304.902 221.419 304.862 218.497C304.821 215.576 307.056 213.173 309.852 213.131C312.649 213.089 314.948 215.423 314.988 218.345Z" fill="#263238"/>
<path d="M216.336 230.769C209.802 230.485 204.726 224.721 204.997 217.895C205.267 211.069 210.783 205.766 217.317 206.05C223.85 206.334 228.927 212.098 228.656 218.924C228.385 225.75 222.869 231.053 216.336 230.769Z" fill="#263238"/>
<path d="M228.66 218.211C228.66 218.221 228.662 218.232 228.662 218.242C228.756 225.074 223.532 230.692 216.994 230.79C210.455 230.889 205.078 225.431 204.984 218.599C204.984 218.589 204.985 218.578 204.985 218.568L228.66 218.211Z" fill="#263238"/>
<path d="M225.135 218.296C225.201 223.092 221.534 227.036 216.943 227.105C212.352 227.174 208.577 223.342 208.511 218.546C208.445 213.75 212.112 209.806 216.703 209.737C221.294 209.667 225.069 213.5 225.135 218.296Z" fill="#FAFAFA"/>
<path d="M216.703 209.737C221.294 209.668 225.069 213.5 225.135 218.296L208.511 218.546C208.445 213.75 212.113 209.806 216.703 209.737Z" fill="#E0E0E0"/>
<path d="M221.886 218.345C221.926 221.266 219.692 223.669 216.896 223.711C214.099 223.753 211.8 221.419 211.759 218.497C211.719 215.576 213.953 213.173 216.75 213.131C219.546 213.089 221.846 215.423 221.886 218.345Z" fill="#263238"/>
<path opacity="0.2" d="M323.726 172.455H351.347V173.269H323.726V172.455Z" fill="black"/>
<path opacity="0.2" d="M294.209 172.455H321.515V173.269H294.209V172.455Z" fill="black"/>
<path opacity="0.2" d="M262.623 177.434H288.882V178.248H262.623V177.434Z" fill="black"/>
<path opacity="0.2" d="M203.898 171.902H256.988V172.716H203.898V171.902Z" fill="black"/>
<path d="M339.479 163.397L338.447 162.412C337.861 161.853 337.097 161.543 336.305 161.543H322.878C322.008 161.543 321.176 161.916 320.576 162.575L319.829 163.397H339.479V163.397Z" fill="#FF725E"/>
<path d="M318.924 163.397C318.924 163.44 323.608 163.474 329.386 163.474C335.166 163.474 339.849 163.439 339.849 163.397C339.849 163.354 335.166 163.32 329.386 163.32C323.608 163.32 318.924 163.354 318.924 163.397Z" fill="#263238"/>
<path d="M356.376 218.21H358.006L357.775 208.13H355.207V216.989C355.207 217.663 355.73 218.21 356.376 218.21Z" fill="white"/>
<path d="M357.668 202.506C357.663 202.506 357.66 202.568 357.659 202.686C357.66 202.822 357.662 202.993 357.664 203.204C357.672 203.673 357.682 204.318 357.696 205.106C357.713 206.731 357.737 208.941 357.763 211.383C357.783 213.835 357.819 216.055 357.873 217.662C357.899 218.465 357.926 219.114 357.952 219.563C357.966 219.774 357.976 219.945 357.985 220.08C357.994 220.198 358.001 220.26 358.006 220.259C358.011 220.259 358.014 220.197 358.014 220.079C358.013 219.944 358.012 219.772 358.01 219.561C358.002 219.092 357.991 218.447 357.978 217.659C357.96 216.034 357.937 213.824 357.911 211.381C357.89 208.93 357.855 206.71 357.801 205.103C357.775 204.3 357.748 203.65 357.722 203.202C357.708 202.991 357.698 202.82 357.689 202.685C357.68 202.567 357.673 202.506 357.668 202.506Z" fill="#263238"/>
<path d="M175.763 205.923C175.722 205.919 175.694 206.68 175.679 207.903C175.663 209.127 175.659 210.819 175.665 212.686C175.672 214.555 175.688 216.246 175.705 217.47C175.717 218.063 175.726 218.552 175.733 218.919C175.743 219.262 175.753 219.451 175.763 219.451C175.773 219.451 175.783 219.262 175.79 218.919C175.795 218.552 175.802 218.063 175.81 217.47C175.819 216.245 175.82 214.554 175.813 212.686C175.787 209.167 175.769 206.729 175.763 205.923Z" fill="#263238"/>
<defs>
<linearGradient id="paint0_linear_12_5777" x1="350.879" y1="160.241" x2="345.79" y2="234.651" gradientUnits="userSpaceOnUse">
<stop stop-color="#FF982C"/>
<stop offset="1" stop-color="#F77F00"/>
</linearGradient>
</defs>
</svg>
